<svg xmlns="http://www.w3.org/2000/svg" version="1.1" width="202.7mm" height="294.7mm" viewBox = " 0 0 718.228937 1044.2134569999998" >
<!-- Front--> 
<g transform="translate(22.5000185, 22.5000185) " > 
<polygon style="stroke:#000000; fill:none; stroke-width:0.90000074" points="17.716549999999998, 0 31.0039625, 0 31.0039625, 17.716549999999998 41.01381325, 17.716549999999998 41.01381325, 39.330741 36.58467575, 39.330741 36.58467575, 48.189016 41.01381325, 48.189016 41.01381325, 57.047291 51.99807425, 57.047291 51.99807425, 48.189016 56.42721175, 48.189016 56.42721175, 39.330741 51.99807425, 39.330741 51.99807425, 17.716549999999998 62.007925, 17.716549999999998 62.007925, 0 86.811095, 0 86.811095, 17.716549999999998 111.614265, 17.716549999999998 111.614265, 0 136.417435, 0 136.417435, 17.716549999999998 161.220605, 17.716549999999998 161.220605, 0 186.023775, 0 186.023775, 17.716549999999998 196.03362575, 17.716549999999998 196.03362575, 39.330741 191.60448825, 39.330741 191.60448825, 48.189016 196.03362575, 48.189016 196.03362575, 57.047291 207.01788675, 57.047291 207.01788675, 48.189016 211.44702425, 48.189016 211.44702425, 39.330741 207.01788675, 39.330741 207.01788675, 17.716549999999998 217.0277375, 17.716549999999998 217.0277375, 0 230.31515000000002, 0 230.31515000000002, 31.889789999999998 248.0317, 31.889789999999998 248.0317, 41.27956149999999 234.92145299999999, 41.27956149999999 234.92145299999999, 54.389808499999994 248.0317, 54.389808499999994 248.0317, 63.779579999999996 230.31515000000002, 63.779579999999996 230.31515000000002, 88.58275 248.0317, 88.58275 248.0317, 113.38592 230.31515000000002, 113.38592 230.31515000000002, 138.18909000000002 248.0317, 138.18909000000002 248.0317, 162.99226 230.31515000000002, 162.99226 230.31515000000002, 187.79543 248.0317, 187.79543 248.0317, 212.59860000000003 230.31515000000002, 212.59860000000003 230.31515000000002, 237.40177 248.0317, 237.40177 248.0317, 262.20494 230.31515000000002, 262.20494 230.31515000000002, 287.00811 248.0317, 287.00811 248.0317, 311.81128 230.31515000000002, 311.81128 230.31515000000002, 336.61445000000003 248.0317, 336.61445000000003 248.0317, 361.41762000000006 230.31515000000002, 361.41762000000006 230.31515000000002, 386.22079 248.0317, 386.22079 248.0317, 411.02396000000005 230.31515000000002, 411.02396000000005 230.31515000000002, 435.82713 248.0317, 435.82713 248.0317, 445.2169015 234.92145299999999, 445.2169015 234.92145299999999, 458.32714849999996 248.0317, 458.32714849999996 248.0317, 467.71691999999996 230.31515000000002, 467.71691999999996 230.31515000000002, 499.60671 217.0277375, 499.60671 217.0277375, 481.89016000000004 207.01788675, 481.89016000000004 207.01788675, 460.27596900000003 211.44702425, 460.27596900000003 211.44702425, 451.41769400000004 207.01788675, 451.41769400000004 207.01788675, 442.55941900000005 196.03362575, 442.55941900000005 196.03362575, 451.41769400000004 191.60448825, 451.41769400000004 191.60448825, 460.27596900000003 196.03362575, 460.27596900000003 196.03362575, 481.89016000000004 186.023775, 481.89016000000004 186.023775, 499.60671 161.220605, 499.60671 161.220605, 481.89016000000004 136.417435, 481.89016000000004 136.417435, 499.60671 111.614265, 499.60671 111.614265, 481.89016000000004 86.811095, 481.89016000000004 86.811095, 499.60671 62.007925, 499.60671 62.007925, 481.89016000000004 51.99807425, 481.89016000000004 51.99807425, 460.27596900000003 56.42721175, 460.27596900000003 56.42721175, 451.41769400000004 51.99807425, 451.41769400000004 51.99807425, 442.55941900000005 41.01381325, 442.55941900000005 41.01381325, 451.41769400000004 36.58467575, 451.41769400000004 36.58467575, 460.27596900000003 41.01381325, 460.27596900000003 41.01381325, 481.89016000000004 31.0039625, 481.89016000000004 31.0039625, 499.60671 17.716549999999998, 499.60671 17.716549999999998, 467.71691999999996 0, 467.71691999999996 0, 458.32714849999996 13.110247000000001, 458.32714849999996 13.110247000000001, 445.2169015 0, 445.2169015 0, 435.82713 17.716549999999998, 435.82713 17.716549999999998, 411.02396000000005 0, 411.02396000000005 0, 386.22079 17.716549999999998, 386.22079 17.716549999999998, 361.41762000000006 0, 361.41762000000006 0, 336.61445000000003 17.716549999999998, 336.61445000000003 17.716549999999998, 311.81128 0, 311.81128 0, 287.00811 17.716549999999998, 287.00811 17.716549999999998, 262.20494 0, 262.20494 0, 237.40177 17.716549999999998, 237.40177 17.716549999999998, 212.59860000000003 0, 212.59860000000003 0, 187.79543 17.716549999999998, 187.79543 17.716549999999998, 162.99226 0, 162.99226 0, 138.18909000000002 17.716549999999998, 138.18909000000002 17.716549999999998, 113.38592 0, 113.38592 0, 88.58275 17.716549999999998, 88.58275 17.716549999999998, 63.779579999999996 0, 63.779579999999996 0, 54.389808499999994 13.110247000000001, 54.389808499999994 13.110247000000001, 41.27956149999999 0, 41.27956149999999 0, 31.889789999999998 17.716549999999998, 31.889789999999998 "/> 
</g>
<!-- Back--> 
<g transform="translate(270.53171849999995, 22.5000185) " > 
<polygon style="stroke:#000000; fill:none; stroke-width:0.90000074" points="17.716549999999998, 0 31.0039625, 0 31.0039625, 17.716549999999998 41.01381325, 17.716549999999998 41.01381325, 39.330741 36.58467575, 39.330741 36.58467575, 48.189016 41.01381325, 48.189016 41.01381325, 57.047291 51.99807425, 57.047291 51.99807425, 48.189016 56.42721175, 48.189016 56.42721175, 39.330741 51.99807425, 39.330741 51.99807425, 17.716549999999998 62.007925, 17.716549999999998 62.007925, 0 86.811095, 0 86.811095, 17.716549999999998 111.614265, 17.716549999999998 111.614265, 0 136.417435, 0 136.417435, 17.716549999999998 161.220605, 17.716549999999998 161.220605, 0 186.023775, 0 186.023775, 17.716549999999998 196.03362575, 17.716549999999998 196.03362575, 39.330741 191.60448825, 39.330741 191.60448825, 48.189016 196.03362575, 48.189016 196.03362575, 57.047291 207.01788675, 57.047291 207.01788675, 48.189016 211.44702425, 48.189016 211.44702425, 39.330741 207.01788675, 39.330741 207.01788675, 17.716549999999998 217.0277375, 17.716549999999998 217.0277375, 0 230.31515000000002, 0 230.31515000000002, 31.889789999999998 248.0317, 31.889789999999998 248.0317, 41.27956149999999 234.92145299999999, 41.27956149999999 234.92145299999999, 54.389808499999994 248.0317, 54.389808499999994 248.0317, 63.779579999999996 230.31515000000002, 63.779579999999996 230.31515000000002, 88.58275 248.0317, 88.58275 248.0317, 113.38592 230.31515000000002, 113.38592 230.31515000000002, 138.18909000000002 248.0317, 138.18909000000002 248.0317, 162.99226 230.31515000000002, 162.99226 230.31515000000002, 187.79543 248.0317, 187.79543 248.0317, 212.59860000000003 230.31515000000002, 212.59860000000003 230.31515000000002, 237.40177 248.0317, 237.40177 248.0317, 262.20494 230.31515000000002, 262.20494 230.31515000000002, 287.00811 248.0317, 287.00811 248.0317, 311.81128 230.31515000000002, 311.81128 230.31515000000002, 336.61445000000003 248.0317, 336.61445000000003 248.0317, 361.41762000000006 230.31515000000002, 361.41762000000006 230.31515000000002, 386.22079 248.0317, 386.22079 248.0317, 411.02396000000005 230.31515000000002, 411.02396000000005 230.31515000000002, 435.82713 248.0317, 435.82713 248.0317, 445.2169015 234.92145299999999, 445.2169015 234.92145299999999, 458.32714849999996 248.0317, 458.32714849999996 248.0317, 467.71691999999996 230.31515000000002, 467.71691999999996 230.31515000000002, 499.60671 217.0277375, 499.60671 217.0277375, 481.89016000000004 207.01788675, 481.89016000000004 207.01788675, 460.27596900000003 211.44702425, 460.27596900000003 211.44702425, 451.41769400000004 207.01788675, 451.41769400000004 207.01788675, 442.55941900000005 196.03362575, 442.55941900000005 196.03362575, 451.41769400000004 191.60448825, 451.41769400000004 191.60448825, 460.27596900000003 196.03362575, 460.27596900000003 196.03362575, 481.89016000000004 186.023775, 481.89016000000004 186.023775, 499.60671 161.220605, 499.60671 161.220605, 481.89016000000004 136.417435, 481.89016000000004 136.417435, 499.60671 111.614265, 499.60671 111.614265, 481.89016000000004 86.811095, 481.89016000000004 86.811095, 499.60671 62.007925, 499.60671 62.007925, 481.89016000000004 51.99807425, 481.89016000000004 51.99807425, 460.27596900000003 56.42721175, 460.27596900000003 56.42721175, 451.41769400000004 51.99807425, 451.41769400000004 51.99807425, 442.55941900000005 41.01381325, 442.55941900000005 41.01381325, 451.41769400000004 36.58467575, 451.41769400000004 36.58467575, 460.27596900000003 41.01381325, 460.27596900000003 41.01381325, 481.89016000000004 31.0039625, 481.89016000000004 31.0039625, 499.60671 17.716549999999998, 499.60671 17.716549999999998, 467.71691999999996 0, 467.71691999999996 0, 458.32714849999996 13.110247000000001, 458.32714849999996 13.110247000000001, 445.2169015 0, 445.2169015 0, 435.82713 17.716549999999998, 435.82713 17.716549999999998, 411.02396000000005 0, 411.02396000000005 0, 386.22079 17.716549999999998, 386.22079 17.716549999999998, 361.41762000000006 0, 361.41762000000006 0, 336.61445000000003 17.716549999999998, 336.61445000000003 17.716549999999998, 311.81128 0, 311.81128 0, 287.00811 17.716549999999998, 287.00811 17.716549999999998, 262.20494 0, 262.20494 0, 237.40177 17.716549999999998, 237.40177 17.716549999999998, 212.59860000000003 0, 212.59860000000003 0, 187.79543 17.716549999999998, 187.79543 17.716549999999998, 162.99226 0, 162.99226 0, 138.18909000000002 17.716549999999998, 138.18909000000002 17.716549999999998, 113.38592 0, 113.38592 0, 88.58275 17.716549999999998, 88.58275 17.716549999999998, 63.779579999999996 0, 63.779579999999996 0, 54.389808499999994 13.110247000000001, 54.389808499999994 13.110247000000001, 41.27956149999999 0, 41.27956149999999 0, 31.889789999999998 17.716549999999998, 31.889789999999998 "/> 
</g>
<!-- Left--> 
<g transform="translate(518.5634185, 22.5000185) " > 
<polygon style="stroke:#000000; fill:none; stroke-width:0.90000074" points="0, 17.716549999999998 38.0905825, 17.716549999999998 38.0905825, 0 50.580750249999994, 0 50.580750249999994, 13.110247000000001 63.690997249999995, 13.110247000000001 63.690997249999995, 0 76.181165, 0 76.181165, 17.716549999999998 100.98433499999999, 17.716549999999998 100.98433499999999, 0 113.47450274999997, 0 113.47450274999997, 13.110247000000001 126.58474974999999, 13.110247000000001 126.58474974999999, 0 139.0749175, 0 139.0749175, 17.716549999999998 177.1655, 17.716549999999998 177.1655, 31.889789999999998 159.44895000000002, 31.889789999999998 159.44895000000002, 42.34255449999999 137.83475900000002, 42.34255449999999 137.83475900000002, 37.913416999999995 128.97648400000003, 37.913416999999995 128.97648400000003, 42.34255449999999 120.11820900000002, 42.34255449999999 120.11820900000002, 53.326815499999995 128.97648400000003, 53.326815499999995 128.97648400000003, 57.75595299999999 137.83475900000002, 57.75595299999999 137.83475900000002, 53.326815499999995 159.44895000000002, 53.326815499999995 159.44895000000002, 63.779579999999996 177.1655, 63.779579999999996 177.1655, 88.58275 159.44895000000002, 88.58275 159.44895000000002, 113.38592 177.1655, 113.38592 177.1655, 138.18909000000002 159.44895000000002, 138.18909000000002 159.44895000000002, 162.99226 177.1655, 162.99226 177.1655, 187.79543 159.44895000000002, 187.79543 159.44895000000002, 212.59860000000003 177.1655, 212.59860000000003 177.1655, 237.40177 159.44895000000002, 237.40177 159.44895000000002, 262.20494 177.1655, 262.20494 177.1655, 287.00811 159.44895000000002, 287.00811 159.44895000000002, 311.81128 177.1655, 311.81128 177.1655, 336.61445000000003 159.44895000000002, 336.61445000000003 159.44895000000002, 361.41762000000006 177.1655, 361.41762000000006 177.1655, 386.22079 159.44895000000002, 386.22079 159.44895000000002, 411.02396000000005 177.1655, 411.02396000000005 177.1655, 435.82713 159.44895000000002, 435.82713 159.44895000000002, 446.2798945 137.83475900000002, 446.2798945 137.83475900000002, 441.850757 128.97648400000003, 441.850757 128.97648400000003, 446.2798945 120.11820900000002, 446.2798945 120.11820900000002, 457.26415549999996 128.97648400000003, 457.26415549999996 128.97648400000003, 461.693293 137.83475900000002, 461.693293 137.83475900000002, 457.26415549999996 159.44895000000002, 457.26415549999996 159.44895000000002, 467.71691999999996 177.1655, 467.71691999999996 177.16549999999998, 481.89016000000004 139.0749175, 481.89016000000004 139.0749175, 499.60671 126.58474974999999, 499.60671 126.58474974999999, 486.496463 113.47450274999997, 486.496463 113.47450274999997, 499.60671 100.98433499999999, 499.60671 100.98433499999999, 481.89016000000004 76.181165, 481.89016000000004 76.181165, 499.60671 63.690997249999995, 499.60671 63.690997249999995, 486.496463 50.580750249999994, 486.496463 50.580750249999994, 499.60671 38.0905825, 499.60671 38.0905825, 481.89016000000004 0, 481.89016000000004 0, 467.71691999999996 17.716549999999998, 467.71691999999996 17.716549999999998, 457.26415549999996 39.330741, 457.26415549999996 39.330741, 461.693293 48.189016, 461.693293 48.189016, 457.26415549999996 57.047291, 457.26415549999996 57.047291, 446.2798945 48.189016, 446.2798945 48.189016, 441.850757 39.330741, 441.850757 39.330741, 446.2798945 17.716549999999998, 446.2798945 17.716549999999998, 435.82713 0, 435.82713 0, 411.02396000000005 17.716549999999998, 411.02396000000005 17.716549999999998, 386.22079 0, 386.22079 0, 361.41762000000006 17.716549999999998, 361.41762000000006 17.716549999999998, 336.61445000000003 0, 336.61445000000003 0, 311.81128 17.716549999999998, 311.81128 17.716549999999998, 287.00811 0, 287.00811 0, 262.20494 17.716549999999998, 262.20494 17.716549999999998, 237.40177 0, 237.40177 0, 212.59860000000003 17.716549999999998, 212.59860000000003 17.716549999999998, 187.79543 0, 187.79543 0, 162.99226 17.716549999999998, 162.99226 17.716549999999998, 138.18909000000002 0, 138.18909000000002 0, 113.38592 17.716549999999998, 113.38592 17.716549999999998, 88.58275 0, 88.58275 0, 63.779579999999996 17.716549999999998, 63.779579999999996 17.716549999999998, 53.326815499999995 39.330741, 53.326815499999995 39.330741, 57.75595299999999 48.189016, 57.75595299999999 48.189016, 53.326815499999995 57.047291, 53.326815499999995 57.047291, 42.34255449999999 48.189016, 42.34255449999999 48.189016, 37.913416999999995 39.330741, 37.913416999999995 39.330741, 42.34255449999999 17.716549999999998, 42.34255449999999 17.716549999999998, 31.889789999999998 0, 31.889789999999998 "/> 
</g>
<!-- Right--> 
<g transform="translate(518.5634185, 522.1067284999999) " > 
<polygon style="stroke:#000000; fill:none; stroke-width:0.90000074" points="0, 17.716549999999998 38.0905825, 17.716549999999998 38.0905825, 0 50.580750249999994, 0 50.580750249999994, 13.110247000000001 63.690997249999995, 13.110247000000001 63.690997249999995, 0 76.181165, 0 76.181165, 17.716549999999998 100.98433499999999, 17.716549999999998 100.98433499999999, 0 113.47450274999997, 0 113.47450274999997, 13.110247000000001 126.58474974999999, 13.110247000000001 126.58474974999999, 0 139.0749175, 0 139.0749175, 17.716549999999998 177.1655, 17.716549999999998 177.1655, 31.889789999999998 159.44895000000002, 31.889789999999998 159.44895000000002, 42.34255449999999 137.83475900000002, 42.34255449999999 137.83475900000002, 37.913416999999995 128.97648400000003, 37.913416999999995 128.97648400000003, 42.34255449999999 120.11820900000002, 42.34255449999999 120.11820900000002, 53.326815499999995 128.97648400000003, 53.326815499999995 128.97648400000003, 57.75595299999999 137.83475900000002, 57.75595299999999 137.83475900000002, 53.326815499999995 159.44895000000002, 53.326815499999995 159.44895000000002, 63.779579999999996 177.1655, 63.779579999999996 177.1655, 88.58275 159.44895000000002, 88.58275 159.44895000000002, 113.38592 177.1655, 113.38592 177.1655, 138.18909000000002 159.44895000000002, 138.18909000000002 159.44895000000002, 162.99226 177.1655, 162.99226 177.1655, 187.79543 159.44895000000002, 187.79543 159.44895000000002, 212.59860000000003 177.1655, 212.59860000000003 177.1655, 237.40177 159.44895000000002, 237.40177 159.44895000000002, 262.20494 177.1655, 262.20494 177.1655, 287.00811 159.44895000000002, 287.00811 159.44895000000002, 311.81128 177.1655, 311.81128 177.1655, 336.61445000000003 159.44895000000002, 336.61445000000003 159.44895000000002, 361.41762000000006 177.1655, 361.41762000000006 177.1655, 386.22079 159.44895000000002, 386.22079 159.44895000000002, 411.02396000000005 177.1655, 411.02396000000005 177.1655, 435.82713 159.44895000000002, 435.82713 159.44895000000002, 446.2798945 137.83475900000002, 446.2798945 137.83475900000002, 441.850757 128.97648400000003, 441.850757 128.97648400000003, 446.2798945 120.11820900000002, 446.2798945 120.11820900000002, 457.26415549999996 128.97648400000003, 457.26415549999996 128.97648400000003, 461.693293 137.83475900000002, 461.693293 137.83475900000002, 457.26415549999996 159.44895000000002, 457.26415549999996 159.44895000000002, 467.71691999999996 177.1655, 467.71691999999996 177.16549999999998, 481.89016000000004 139.0749175, 481.89016000000004 139.0749175, 499.60671 126.58474974999999, 499.60671 126.58474974999999, 486.496463 113.47450274999997, 486.496463 113.47450274999997, 499.60671 100.98433499999999, 499.60671 100.98433499999999, 481.89016000000004 76.181165, 481.89016000000004 76.181165, 499.60671 63.690997249999995, 499.60671 63.690997249999995, 486.496463 50.580750249999994, 486.496463 50.580750249999994, 499.60671 38.0905825, 499.60671 38.0905825, 481.89016000000004 0, 481.89016000000004 0, 467.71691999999996 17.716549999999998, 467.71691999999996 17.716549999999998, 457.26415549999996 39.330741, 457.26415549999996 39.330741, 461.693293 48.189016, 461.693293 48.189016, 457.26415549999996 57.047291, 457.26415549999996 57.047291, 446.2798945 48.189016, 446.2798945 48.189016, 441.850757 39.330741, 441.850757 39.330741, 446.2798945 17.716549999999998, 446.2798945 17.716549999999998, 435.82713 0, 435.82713 0, 411.02396000000005 17.716549999999998, 411.02396000000005 17.716549999999998, 386.22079 0, 386.22079 0, 361.41762000000006 17.716549999999998, 361.41762000000006 17.716549999999998, 336.61445000000003 0, 336.61445000000003 0, 311.81128 17.716549999999998, 311.81128 17.716549999999998, 287.00811 0, 287.00811 0, 262.20494 17.716549999999998, 262.20494 17.716549999999998, 237.40177 0, 237.40177 0, 212.59860000000003 17.716549999999998, 212.59860000000003 17.716549999999998, 187.79543 0, 187.79543 0, 162.99226 17.716549999999998, 162.99226 17.716549999999998, 138.18909000000002 0, 138.18909000000002 0, 113.38592 17.716549999999998, 113.38592 17.716549999999998, 88.58275 0, 88.58275 0, 63.779579999999996 17.716549999999998, 63.779579999999996 17.716549999999998, 53.326815499999995 39.330741, 53.326815499999995 39.330741, 57.75595299999999 48.189016, 57.75595299999999 48.189016, 53.326815499999995 57.047291, 53.326815499999995 57.047291, 42.34255449999999 48.189016, 42.34255449999999 48.189016, 37.913416999999995 39.330741, 37.913416999999995 39.330741, 42.34255449999999 17.716549999999998, 42.34255449999999 17.716549999999998, 31.889789999999998 0, 31.889789999999998 "/> 
</g>
<!-- Top--> 
<g transform="translate(22.5000185, 522.1067284999999) " > 
<polygon style="stroke:#000000; fill:none; stroke-width:0.90000074" points="0, 17.716549999999998 31.0039625, 17.716549999999998 31.0039625, 0 39.95082025, 0 39.95082025, 13.110247000000001 53.06106725, 13.110247000000001 53.06106725, 0 62.007925, 0 62.007925, 17.716549999999998 86.811095, 17.716549999999998 86.811095, 0 111.614265, 0 111.614265, 17.716549999999998 136.417435, 17.716549999999998 136.417435, 0 161.220605, 0 161.220605, 17.716549999999998 186.023775, 17.716549999999998 186.023775, 0 194.97063275, 0 194.97063275, 13.110247000000001 208.08087975, 13.110247000000001 208.08087975, 0 217.0277375, 0 217.0277375, 17.716549999999998 248.0317, 17.716549999999998 248.0317, 38.0905825 230.31515000000002, 38.0905825 230.31515000000002, 51.64374324999999 208.700959, 51.64374324999999 208.700959, 47.21460575 199.84268400000002, 47.21460575 199.84268400000002, 51.64374324999999 190.98440900000003, 51.64374324999999 190.98440900000003, 62.62800425 199.84268400000002, 62.62800425 199.84268400000002, 67.05714175 208.700959, 67.05714175 208.700959, 62.62800425 230.31515000000002, 62.62800425 230.31515000000002, 76.181165 248.0317, 76.181165 248.0317, 100.98433499999999 230.31515000000002, 100.98433499999999 230.31515000000002, 114.53749574999998 208.700959, 114.53749574999998 208.700959, 110.10835824999998 199.84268400000002, 110.10835824999998 199.84268400000002, 114.53749574999998 190.98440900000003, 114.53749574999998 190.98440900000003, 125.52175674999998 199.84268400000002, 125.52175674999998 199.84268400000002, 129.95089424999998 208.700959, 129.95089424999998 208.700959, 125.52175674999998 230.31515000000002, 125.52175674999998 230.31515000000002, 139.0749175 248.0317, 139.0749175 248.0317, 159.44895000000002 217.0277375, 159.44895000000002 217.0277375, 177.1655 208.08087975, 177.1655 208.08087975, 164.055253 194.97063275, 164.055253 194.97063275, 177.1655 186.023775, 177.1655 186.023775, 159.44895000000002 161.220605, 159.44895000000002 161.220605, 177.1655 136.417435, 177.1655 136.417435, 159.44895000000002 111.614265, 159.44895000000002 111.614265, 177.1655 86.811095, 177.1655 86.811095, 159.44895000000002 62.007925, 159.44895000000002 62.007925, 177.1655 53.06106725, 177.1655 53.06106725, 164.055253 39.95082025, 164.055253 39.95082025, 177.1655 31.0039625, 177.1655 31.0039625, 159.44895000000002 0, 159.44894999999997 0, 139.0749175 17.716549999999998, 139.0749175 17.716549999999998, 125.52175674999998 39.330741, 125.52175674999998 39.330741, 129.95089424999998 48.189016, 129.95089424999998 48.189016, 125.52175674999998 57.047291, 125.52175674999998 57.047291, 114.53749574999998 48.189016, 114.53749574999998 48.189016, 110.10835824999998 39.330741, 110.10835824999998 39.330741, 114.53749574999998 17.716549999999998, 114.53749574999998 17.716549999999998, 100.98433499999999 0, 100.98433499999999 0, 76.181165 17.716549999999998, 76.181165 17.716549999999998, 62.62800425 39.330741, 62.62800425 39.330741, 67.05714175 48.189016, 67.05714175 48.189016, 62.62800425 57.047291, 62.62800425 57.047291, 51.64374324999999 48.189016, 51.64374324999999 48.189016, 47.21460575 39.330741, 47.21460575 39.330741, 51.64374324999999 17.716549999999998, 51.64374324999999 17.716549999999998, 38.0905825 0, 38.0905825 "/> 
</g>
<!-- Bottom--> 
<g transform="translate(270.53171849999995, 522.1067284999999) " > 
<polygon style="stroke:#000000; fill:none; stroke-width:0.90000074" points="0, 17.716549999999998 31.0039625, 17.716549999999998 31.0039625, 0 39.95082025, 0 39.95082025, 13.110247000000001 53.06106725, 13.110247000000001 53.06106725, 0 62.007925, 0 62.007925, 17.716549999999998 86.811095, 17.716549999999998 86.811095, 0 111.614265, 0 111.614265, 17.716549999999998 136.417435, 17.716549999999998 136.417435, 0 161.220605, 0 161.220605, 17.716549999999998 186.023775, 17.716549999999998 186.023775, 0 194.97063275, 0 194.97063275, 13.110247000000001 208.08087975, 13.110247000000001 208.08087975, 0 217.0277375, 0 217.0277375, 17.716549999999998 248.0317, 17.716549999999998 248.0317, 38.0905825 230.31515000000002, 38.0905825 230.31515000000002, 51.64374324999999 208.700959, 51.64374324999999 208.700959, 47.21460575 199.84268400000002, 47.21460575 199.84268400000002, 51.64374324999999 190.98440900000003, 51.64374324999999 190.98440900000003, 62.62800425 199.84268400000002, 62.62800425 199.84268400000002, 67.05714175 208.700959, 67.05714175 208.700959, 62.62800425 230.31515000000002, 62.62800425 230.31515000000002, 76.181165 248.0317, 76.181165 248.0317, 100.98433499999999 230.31515000000002, 100.98433499999999 230.31515000000002, 114.53749574999998 208.700959, 114.53749574999998 208.700959, 110.10835824999998 199.84268400000002, 110.10835824999998 199.84268400000002, 114.53749574999998 190.98440900000003, 114.53749574999998 190.98440900000003, 125.52175674999998 199.84268400000002, 125.52175674999998 199.84268400000002, 129.95089424999998 208.700959, 129.95089424999998 208.700959, 125.52175674999998 230.31515000000002, 125.52175674999998 230.31515000000002, 139.0749175 248.0317, 139.0749175 248.0317, 159.44895000000002 217.0277375, 159.44895000000002 217.0277375, 177.1655 208.08087975, 177.1655 208.08087975, 164.055253 194.97063275, 164.055253 194.97063275, 177.1655 186.023775, 177.1655 186.023775, 159.44895000000002 161.220605, 159.44895000000002 161.220605, 177.1655 136.417435, 177.1655 136.417435, 159.44895000000002 111.614265, 159.44895000000002 111.614265, 177.1655 86.811095, 177.1655 86.811095, 159.44895000000002 62.007925, 159.44895000000002 62.007925, 177.1655 53.06106725, 177.1655 53.06106725, 164.055253 39.95082025, 164.055253 39.95082025, 177.1655 31.0039625, 177.1655 31.0039625, 159.44895000000002 0, 159.44894999999997 0, 139.0749175 17.716549999999998, 139.0749175 17.716549999999998, 125.52175674999998 39.330741, 125.52175674999998 39.330741, 129.95089424999998 48.189016, 129.95089424999998 48.189016, 125.52175674999998 57.047291, 125.52175674999998 57.047291, 114.53749574999998 48.189016, 114.53749574999998 48.189016, 110.10835824999998 39.330741, 110.10835824999998 39.330741, 114.53749574999998 17.716549999999998, 114.53749574999998 17.716549999999998, 100.98433499999999 0, 100.98433499999999 0, 76.181165 17.716549999999998, 76.181165 17.716549999999998, 62.62800425 39.330741, 62.62800425 39.330741, 67.05714175 48.189016, 67.05714175 48.189016, 62.62800425 57.047291, 62.62800425 57.047291, 51.64374324999999 48.189016, 51.64374324999999 48.189016, 47.21460575 39.330741, 47.21460575 39.330741, 51.64374324999999 17.716549999999998, 51.64374324999999 17.716549999999998, 38.0905825 0, 38.0905825 "/> 
</g></svg>