<svg xmlns="http://www.w3.org/2000/svg" version="1.1" width="190.7mm" height="224.7mm" viewBox = " 0 0 675.709217 796.181757" >
<!-- Front--> 
<g transform="translate(22.5000185, 22.5000185) " > 
<polygon style="stroke:#000000; fill:none; stroke-width:0.90000074" points="10.62993, 0 27.4606525, 0 27.4606525, 10.62993 35.69884825, 10.62993 35.69884825, 39.33074100000001 31.26971075, 39.33074100000001 31.26971075, 48.18901600000001 35.69884825, 48.18901600000001 35.69884825, 57.04729100000001 46.68310925, 57.04729100000001 46.68310925, 48.18901600000001 51.11224675, 48.18901600000001 51.11224675, 39.33074100000001 46.68310925, 39.33074100000001 46.68310925, 10.62993 54.921305, 10.62993 54.921305, 0 72.637855, 0 72.637855, 10.62993 90.35440499999999, 10.62993 90.35440499999999, 0 108.070955, 0 108.070955, 10.62993 125.78750499999998, 10.62993 125.78750499999998, 0 143.504055, 0 143.504055, 10.62993 161.22060499999998, 10.62993 161.22060499999998, 0 178.937155, 0 178.937155, 10.62993 196.65370499999997, 10.62993 196.65370499999997, 0 214.37025499999996, 0 214.37025499999996, 10.62993 222.60845074999995, 10.62993 222.60845074999995, 39.33074100000001 218.17931324999995, 39.33074100000001 218.17931324999995, 48.18901600000001 222.60845074999995, 48.18901600000001 222.60845074999995, 57.04729100000001 233.59271174999995, 57.04729100000001 233.59271174999995, 48.18901600000001 238.02184924999995, 48.18901600000001 238.02184924999995, 39.33074100000001 233.59271174999995, 39.33074100000001 233.59271174999995, 10.62993 241.83090749999997, 10.62993 241.83090749999997, 0 258.66163, 0 258.66163, 27.4606525 269.29156, 27.4606525 269.29156, 34.63585525 256.181313, 34.63585525 256.181313, 47.74610225 269.29156, 47.74610225 269.29156, 54.921305 258.66163, 54.921305 258.66163, 72.637855 269.29156, 72.637855 269.29156, 90.35440499999999 258.66163, 90.35440499999999 258.66163, 108.070955 269.29156, 108.070955 269.29156, 125.78750499999998 258.66163, 125.78750499999998 258.66163, 143.504055 269.29156, 143.504055 269.29156, 161.22060499999998 258.66163, 161.22060499999998 258.66163, 178.937155 269.29156, 178.937155 269.29156, 196.65370499999997 258.66163, 196.65370499999997 258.66163, 214.37025499999996 269.29156, 214.37025499999996 269.29156, 232.08680499999997 258.66163, 232.08680499999997 258.66163, 249.80335499999998 269.29156, 249.80335499999998 269.29156, 267.519905 258.66163, 267.519905 258.66163, 285.236455 269.29156, 285.236455 269.29156, 302.95300499999996 258.66163, 302.95300499999996 258.66163, 320.669555 269.29156, 320.669555 269.29156, 327.84475775 256.181313, 327.84475775 256.181313, 340.95500474999994 269.29156, 340.95500474999994 269.29156, 348.1302075 258.66163, 348.1302075 258.66162999999995, 375.59086 241.83090749999997, 375.59086 241.83090749999997, 364.96093 233.59271174999995, 364.96093 233.59271174999995, 336.26011900000003 238.02184924999995, 336.26011900000003 238.02184924999995, 327.401844 233.59271174999995, 327.401844 233.59271174999995, 318.543569 222.60845074999995, 318.543569 222.60845074999995, 327.401844 218.17931324999995, 327.401844 218.17931324999995, 336.26011900000003 222.60845074999995, 336.26011900000003 222.60845074999995, 364.96093 214.37025499999996, 364.96093 214.37025499999996, 375.59086 196.65370499999997, 375.59086 196.65370499999997, 364.96093 178.937155, 364.96093 178.937155, 375.59086 161.22060499999998, 375.59086 161.22060499999998, 364.96093 143.504055, 364.96093 143.504055, 375.59086 125.78750499999998, 375.59086 125.78750499999998, 364.96093 108.070955, 364.96093 108.070955, 375.59086 90.35440499999999, 375.59086 90.35440499999999, 364.96093 72.637855, 364.96093 72.637855, 375.59086 54.921305, 375.59086 54.921305, 364.96093 46.68310925, 364.96093 46.68310925, 336.26011900000003 51.11224675, 336.26011900000003 51.11224675, 327.401844 46.68310925, 327.401844 46.68310925, 318.543569 35.69884825, 318.543569 35.69884825, 327.401844 31.26971075, 327.401844 31.26971075, 336.26011900000003 35.69884825, 336.26011900000003 35.69884825, 364.96093 27.4606525, 364.96093 27.4606525, 375.59086 10.62993, 375.59085999999996 10.62993, 348.1302075 0, 348.1302075 0, 340.95500474999994 13.110247000000001, 340.95500474999994 13.110247000000001, 327.84475775 0, 327.84475775 0, 320.669555 10.62993, 320.669555 10.62993, 302.95300499999996 0, 302.95300499999996 0, 285.236455 10.62993, 285.236455 10.62993, 267.519905 0, 267.519905 0, 249.80335499999998 10.62993, 249.80335499999998 10.62993, 232.08680499999997 0, 232.08680499999997 0, 214.37025499999996 10.62993, 214.37025499999996 10.62993, 196.65370499999997 0, 196.65370499999997 0, 178.937155 10.62993, 178.937155 10.62993, 161.22060499999998 0, 161.22060499999998 0, 143.504055 10.62993, 143.504055 10.62993, 125.78750499999998 0, 125.78750499999998 0, 108.070955 10.62993, 108.070955 10.62993, 90.35440499999999 0, 90.35440499999999 0, 72.637855 10.62993, 72.637855 10.62993, 54.921305 0, 54.921305 0, 47.74610225 13.110247000000001, 47.74610225 13.110247000000001, 34.63585525 0, 34.63585525 0, 27.4606525 10.62993, 27.4606525 "/> 
</g>
<!-- Back--> 
<g transform="translate(291.79157849999996, 22.5000185) " > 
<polygon style="stroke:#000000; fill:none; stroke-width:0.90000074" points="10.62993, 0 27.4606525, 0 27.4606525, 10.62993 35.69884825, 10.62993 35.69884825, 39.33074100000001 31.26971075, 39.33074100000001 31.26971075, 48.18901600000001 35.69884825, 48.18901600000001 35.69884825, 57.04729100000001 46.68310925, 57.04729100000001 46.68310925, 48.18901600000001 51.11224675, 48.18901600000001 51.11224675, 39.33074100000001 46.68310925, 39.33074100000001 46.68310925, 10.62993 54.921305, 10.62993 54.921305, 0 72.637855, 0 72.637855, 10.62993 90.35440499999999, 10.62993 90.35440499999999, 0 108.070955, 0 108.070955, 10.62993 125.78750499999998, 10.62993 125.78750499999998, 0 143.504055, 0 143.504055, 10.62993 161.22060499999998, 10.62993 161.22060499999998, 0 178.937155, 0 178.937155, 10.62993 196.65370499999997, 10.62993 196.65370499999997, 0 214.37025499999996, 0 214.37025499999996, 10.62993 222.60845074999995, 10.62993 222.60845074999995, 39.33074100000001 218.17931324999995, 39.33074100000001 218.17931324999995, 48.18901600000001 222.60845074999995, 48.18901600000001 222.60845074999995, 57.04729100000001 233.59271174999995, 57.04729100000001 233.59271174999995, 48.18901600000001 238.02184924999995, 48.18901600000001 238.02184924999995, 39.33074100000001 233.59271174999995, 39.33074100000001 233.59271174999995, 10.62993 241.83090749999997, 10.62993 241.83090749999997, 0 258.66163, 0 258.66163, 27.4606525 269.29156, 27.4606525 269.29156, 34.63585525 256.181313, 34.63585525 256.181313, 47.74610225 269.29156, 47.74610225 269.29156, 54.921305 258.66163, 54.921305 258.66163, 72.637855 269.29156, 72.637855 269.29156, 90.35440499999999 258.66163, 90.35440499999999 258.66163, 108.070955 269.29156, 108.070955 269.29156, 125.78750499999998 258.66163, 125.78750499999998 258.66163, 143.504055 269.29156, 143.504055 269.29156, 161.22060499999998 258.66163, 161.22060499999998 258.66163, 178.937155 269.29156, 178.937155 269.29156, 196.65370499999997 258.66163, 196.65370499999997 258.66163, 214.37025499999996 269.29156, 214.37025499999996 269.29156, 232.08680499999997 258.66163, 232.08680499999997 258.66163, 249.80335499999998 269.29156, 249.80335499999998 269.29156, 267.519905 258.66163, 267.519905 258.66163, 285.236455 269.29156, 285.236455 269.29156, 302.95300499999996 258.66163, 302.95300499999996 258.66163, 320.669555 269.29156, 320.669555 269.29156, 327.84475775 256.181313, 327.84475775 256.181313, 340.95500474999994 269.29156, 340.95500474999994 269.29156, 348.1302075 258.66163, 348.1302075 258.66162999999995, 375.59086 241.83090749999997, 375.59086 241.83090749999997, 364.96093 233.59271174999995, 364.96093 233.59271174999995, 336.26011900000003 238.02184924999995, 336.26011900000003 238.02184924999995, 327.401844 233.59271174999995, 327.401844 233.59271174999995, 318.543569 222.60845074999995, 318.543569 222.60845074999995, 327.401844 218.17931324999995, 327.401844 218.17931324999995, 336.26011900000003 222.60845074999995, 336.26011900000003 222.60845074999995, 364.96093 214.37025499999996, 364.96093 214.37025499999996, 375.59086 196.65370499999997, 375.59086 196.65370499999997, 364.96093 178.937155, 364.96093 178.937155, 375.59086 161.22060499999998, 375.59086 161.22060499999998, 364.96093 143.504055, 364.96093 143.504055, 375.59086 125.78750499999998, 375.59086 125.78750499999998, 364.96093 108.070955, 364.96093 108.070955, 375.59086 90.35440499999999, 375.59086 90.35440499999999, 364.96093 72.637855, 364.96093 72.637855, 375.59086 54.921305, 375.59086 54.921305, 364.96093 46.68310925, 364.96093 46.68310925, 336.26011900000003 51.11224675, 336.26011900000003 51.11224675, 327.401844 46.68310925, 327.401844 46.68310925, 318.543569 35.69884825, 318.543569 35.69884825, 327.401844 31.26971075, 327.401844 31.26971075, 336.26011900000003 35.69884825, 336.26011900000003 35.69884825, 364.96093 27.4606525, 364.96093 27.4606525, 375.59086 10.62993, 375.59085999999996 10.62993, 348.1302075 0, 348.1302075 0, 340.95500474999994 13.110247000000001, 340.95500474999994 13.110247000000001, 327.84475775 0, 327.84475775 0, 320.669555 10.62993, 320.669555 10.62993, 302.95300499999996 0, 302.95300499999996 0, 285.236455 10.62993, 285.236455 10.62993, 267.519905 0, 267.519905 0, 249.80335499999998 10.62993, 249.80335499999998 10.62993, 232.08680499999997 0, 232.08680499999997 0, 214.37025499999996 10.62993, 214.37025499999996 10.62993, 196.65370499999997 0, 196.65370499999997 0, 178.937155 10.62993, 178.937155 10.62993, 161.22060499999998 0, 161.22060499999998 0, 143.504055 10.62993, 143.504055 10.62993, 125.78750499999998 0, 125.78750499999998 0, 108.070955 10.62993, 108.070955 10.62993, 90.35440499999999 0, 90.35440499999999 0, 72.637855 10.62993, 72.637855 10.62993, 54.921305 0, 54.921305 0, 47.74610225 13.110247000000001, 47.74610225 13.110247000000001, 34.63585525 0, 34.63585525 0, 27.4606525 10.62993, 27.4606525 "/> 
</g>
<!-- Left--> 
<g transform="translate(561.0831385, 22.5000185) " > 
<polygon style="stroke:#000000; fill:none; stroke-width:0.90000074" points="0, 10.62993 18.425212000000002, 10.62993 18.425212000000002, 0 36.850424000000004, 0 36.850424000000004, 10.62993 40.5708995, 10.62993 40.5708995, 39.33074100000001 36.14176200000001, 39.33074100000001 36.14176200000001, 48.18901600000001 40.5708995, 48.18901600000001 40.5708995, 57.04729100000001 51.55516050000001, 57.04729100000001 51.55516050000001, 48.18901600000001 55.984298, 48.18901600000001 55.984298, 39.33074100000001 51.55516050000001, 39.33074100000001 51.55516050000001, 10.62993 55.275636000000006, 10.62993 55.275636000000006, 0 73.70084800000001, 0 73.70084800000001, 10.62993 92.12606, 10.62993 92.12606, 27.4606525 81.49613, 27.4606525 81.49613, 35.69884825 52.795318999999985, 35.69884825 52.795318999999985, 31.26971075 43.937043999999986, 31.26971075 43.937043999999986, 35.69884825 35.07876899999999, 35.69884825 35.07876899999999, 46.68310925 43.937043999999986, 46.68310925 43.937043999999986, 51.11224675 52.795318999999985, 51.11224675 52.795318999999985, 46.68310925 81.49613, 46.68310925 81.49613, 54.921305 92.12606, 54.921305 92.12606, 72.637855 81.49613, 72.637855 81.49613, 90.35440499999999 92.12606, 90.35440499999999 92.12606, 108.070955 81.49613, 108.070955 81.49613, 125.78750499999998 92.12606, 125.78750499999998 92.12606, 143.504055 81.49613, 143.504055 81.49613, 161.22060499999998 92.12606, 161.22060499999998 92.12606, 178.937155 81.49613, 178.937155 81.49613, 196.65370499999997 92.12606, 196.65370499999997 92.12606, 214.37025499999996 81.49613, 214.37025499999996 81.49613, 232.08680499999997 92.12606, 232.08680499999997 92.12606, 249.80335499999998 81.49613, 249.80335499999998 81.49613, 267.519905 92.12606, 267.519905 92.12606, 285.236455 81.49613, 285.236455 81.49613, 302.95300499999996 92.12606, 302.95300499999996 92.12606, 320.669555 81.49613, 320.669555 81.49613, 328.90775075 52.795318999999985, 328.90775075 52.795318999999985, 324.47861324999997 43.937043999999986, 324.47861324999997 43.937043999999986, 328.90775075 35.07876899999999, 328.90775075 35.07876899999999, 339.89201174999994 43.937043999999986, 339.89201174999994 43.937043999999986, 344.32114924999996 52.795318999999985, 344.32114924999996 52.795318999999985, 339.89201174999994 81.49613, 339.89201174999994 81.49613, 348.1302075 92.12606, 348.1302075 92.12606000000001, 364.96093 73.70084800000001, 364.96093 73.70084800000001, 375.59086 55.275636000000006, 375.59086 55.275636000000006, 364.96093 51.55516050000001, 364.96093 51.55516050000001, 336.26011900000003 55.984298, 336.26011900000003 55.984298, 327.401844 51.55516050000001, 327.401844 51.55516050000001, 318.543569 40.5708995, 318.543569 40.5708995, 327.401844 36.14176200000001, 327.401844 36.14176200000001, 336.26011900000003 40.5708995, 336.26011900000003 40.5708995, 364.96093 36.850424000000004, 364.96093 36.850424000000004, 375.59086 18.425212000000002, 375.59086 18.425212000000002, 364.96093 0, 364.96092999999996 0, 348.1302075 10.62993, 348.1302075 10.62993, 339.89201174999994 39.33074100000001, 339.89201174999994 39.33074100000001, 344.32114924999996 48.18901600000001, 344.32114924999996 48.18901600000001, 339.89201174999994 57.04729100000001, 339.89201174999994 57.04729100000001, 328.90775075 48.18901600000001, 328.90775075 48.18901600000001, 324.47861324999997 39.33074100000001, 324.47861324999997 39.33074100000001, 328.90775075 10.62993, 328.90775075 10.62993, 320.669555 0, 320.669555 0, 302.95300499999996 10.62993, 302.95300499999996 10.62993, 285.236455 0, 285.236455 0, 267.519905 10.62993, 267.519905 10.62993, 249.80335499999998 0, 249.80335499999998 0, 232.08680499999997 10.62993, 232.08680499999997 10.62993, 214.37025499999996 0, 214.37025499999996 0, 196.65370499999997 10.62993, 196.65370499999997 10.62993, 178.937155 0, 178.937155 0, 161.22060499999998 10.62993, 161.22060499999998 10.62993, 143.504055 0, 143.504055 0, 125.78750499999998 10.62993, 125.78750499999998 10.62993, 108.070955 0, 108.070955 0, 90.35440499999999 10.62993, 90.35440499999999 10.62993, 72.637855 0, 72.637855 0, 54.921305 10.62993, 54.921305 10.62993, 46.68310925 39.33074100000001, 46.68310925 39.33074100000001, 51.11224675 48.18901600000001, 51.11224675 48.18901600000001, 46.68310925 57.04729100000001, 46.68310925 57.04729100000001, 35.69884825 48.18901600000001, 35.69884825 48.18901600000001, 31.26971075 39.33074100000001, 31.26971075 39.33074100000001, 35.69884825 10.62993, 35.69884825 10.62993, 27.4606525 0, 27.4606525 "/> 
</g>
<!-- Right--> 
<g transform="translate(561.0831385, 398.0908785) " > 
<polygon style="stroke:#000000; fill:none; stroke-width:0.90000074" points="0, 10.62993 18.425212000000002, 10.62993 18.425212000000002, 0 36.850424000000004, 0 36.850424000000004, 10.62993 40.5708995, 10.62993 40.5708995, 39.33074100000001 36.14176200000001, 39.33074100000001 36.14176200000001, 48.18901600000001 40.5708995, 48.18901600000001 40.5708995, 57.04729100000001 51.55516050000001, 57.04729100000001 51.55516050000001, 48.18901600000001 55.984298, 48.18901600000001 55.984298, 39.33074100000001 51.55516050000001, 39.33074100000001 51.55516050000001, 10.62993 55.275636000000006, 10.62993 55.275636000000006, 0 73.70084800000001, 0 73.70084800000001, 10.62993 92.12606, 10.62993 92.12606, 27.4606525 81.49613, 27.4606525 81.49613, 35.69884825 52.795318999999985, 35.69884825 52.795318999999985, 31.26971075 43.937043999999986, 31.26971075 43.937043999999986, 35.69884825 35.07876899999999, 35.69884825 35.07876899999999, 46.68310925 43.937043999999986, 46.68310925 43.937043999999986, 51.11224675 52.795318999999985, 51.11224675 52.795318999999985, 46.68310925 81.49613, 46.68310925 81.49613, 54.921305 92.12606, 54.921305 92.12606, 72.637855 81.49613, 72.637855 81.49613, 90.35440499999999 92.12606, 90.35440499999999 92.12606, 108.070955 81.49613, 108.070955 81.49613, 125.78750499999998 92.12606, 125.78750499999998 92.12606, 143.504055 81.49613, 143.504055 81.49613, 161.22060499999998 92.12606, 161.22060499999998 92.12606, 178.937155 81.49613, 178.937155 81.49613, 196.65370499999997 92.12606, 196.65370499999997 92.12606, 214.37025499999996 81.49613, 214.37025499999996 81.49613, 232.08680499999997 92.12606, 232.08680499999997 92.12606, 249.80335499999998 81.49613, 249.80335499999998 81.49613, 267.519905 92.12606, 267.519905 92.12606, 285.236455 81.49613, 285.236455 81.49613, 302.95300499999996 92.12606, 302.95300499999996 92.12606, 320.669555 81.49613, 320.669555 81.49613, 328.90775075 52.795318999999985, 328.90775075 52.795318999999985, 324.47861324999997 43.937043999999986, 324.47861324999997 43.937043999999986, 328.90775075 35.07876899999999, 328.90775075 35.07876899999999, 339.89201174999994 43.937043999999986, 339.89201174999994 43.937043999999986, 344.32114924999996 52.795318999999985, 344.32114924999996 52.795318999999985, 339.89201174999994 81.49613, 339.89201174999994 81.49613, 348.1302075 92.12606, 348.1302075 92.12606000000001, 364.96093 73.70084800000001, 364.96093 73.70084800000001, 375.59086 55.275636000000006, 375.59086 55.275636000000006, 364.96093 51.55516050000001, 364.96093 51.55516050000001, 336.26011900000003 55.984298, 336.26011900000003 55.984298, 327.401844 51.55516050000001, 327.401844 51.55516050000001, 318.543569 40.5708995, 318.543569 40.5708995, 327.401844 36.14176200000001, 327.401844 36.14176200000001, 336.26011900000003 40.5708995, 336.26011900000003 40.5708995, 364.96093 36.850424000000004, 364.96093 36.850424000000004, 375.59086 18.425212000000002, 375.59086 18.425212000000002, 364.96093 0, 364.96092999999996 0, 348.1302075 10.62993, 348.1302075 10.62993, 339.89201174999994 39.33074100000001, 339.89201174999994 39.33074100000001, 344.32114924999996 48.18901600000001, 344.32114924999996 48.18901600000001, 339.89201174999994 57.04729100000001, 339.89201174999994 57.04729100000001, 328.90775075 48.18901600000001, 328.90775075 48.18901600000001, 324.47861324999997 39.33074100000001, 324.47861324999997 39.33074100000001, 328.90775075 10.62993, 328.90775075 10.62993, 320.669555 0, 320.669555 0, 302.95300499999996 10.62993, 302.95300499999996 10.62993, 285.236455 0, 285.236455 0, 267.519905 10.62993, 267.519905 10.62993, 249.80335499999998 0, 249.80335499999998 0, 232.08680499999997 10.62993, 232.08680499999997 10.62993, 214.37025499999996 0, 214.37025499999996 0, 196.65370499999997 10.62993, 196.65370499999997 10.62993, 178.937155 0, 178.937155 0, 161.22060499999998 10.62993, 161.22060499999998 10.62993, 143.504055 0, 143.504055 0, 125.78750499999998 10.62993, 125.78750499999998 10.62993, 108.070955 0, 108.070955 0, 90.35440499999999 10.62993, 90.35440499999999 10.62993, 72.637855 0, 72.637855 0, 54.921305 10.62993, 54.921305 10.62993, 46.68310925 39.33074100000001, 46.68310925 39.33074100000001, 51.11224675 48.18901600000001, 51.11224675 48.18901600000001, 46.68310925 57.04729100000001, 46.68310925 57.04729100000001, 35.69884825 48.18901600000001, 35.69884825 48.18901600000001, 31.26971075 39.33074100000001, 31.26971075 39.33074100000001, 35.69884825 10.62993, 35.69884825 10.62993, 27.4606525 0, 27.4606525 "/> 
</g>
<!-- Top--> 
<g transform="translate(22.5000185, 398.0908785) " > 
<polygon style="stroke:#000000; fill:none; stroke-width:0.90000074" points="0, 10.62993 27.4606525, 10.62993 27.4606525, 0 34.63585525, 0 34.63585525, 13.110247000000001 47.74610225, 13.110247000000001 47.74610225, 0 54.921305, 0 54.921305, 10.62993 72.637855, 10.62993 72.637855, 0 90.35440499999999, 0 90.35440499999999, 10.62993 108.070955, 10.62993 108.070955, 0 125.78750499999998, 0 125.78750499999998, 10.62993 143.504055, 10.62993 143.504055, 0 161.22060499999998, 0 161.22060499999998, 10.62993 178.937155, 10.62993 178.937155, 0 196.65370499999997, 0 196.65370499999997, 10.62993 214.37025499999996, 10.62993 214.37025499999996, 0 221.54545774999994, 0 221.54545774999994, 13.110247000000001 234.65570474999996, 13.110247000000001 234.65570474999996, 0 241.83090749999997, 0 241.83090749999997, 10.62993 269.29156, 10.62993 269.29156, 18.425212000000002 258.66163, 18.425212000000002 258.66163, 36.850424000000004 269.29156, 36.850424000000004 269.29156, 39.507906500000004 256.181313, 39.507906500000004 256.181313, 52.618153500000005 269.29156, 52.618153500000005 269.29156, 55.275636000000006 258.66163, 55.275636000000006 258.66163, 73.70084800000001 269.29156, 73.70084800000001 269.29155999999995, 81.49613 241.83090749999997, 81.49613 241.83090749999997, 92.12606 234.65570474999996, 92.12606 234.65570474999996, 79.015813 221.54545774999994, 79.015813 221.54545774999994, 92.12606 214.37025499999996, 92.12606 214.37025499999996, 81.49613 196.65370499999997, 81.49613 196.65370499999997, 92.12606 178.937155, 92.12606 178.937155, 81.49613 161.22060499999998, 81.49613 161.22060499999998, 92.12606 143.504055, 92.12606 143.504055, 81.49613 125.78750499999998, 81.49613 125.78750499999998, 92.12606 108.070955, 92.12606 108.070955, 81.49613 90.35440499999999, 81.49613 90.35440499999999, 92.12606 72.637855, 92.12606 72.637855, 81.49613 54.921305, 81.49613 54.921305, 92.12606 47.74610225, 92.12606 47.74610225, 79.015813 34.63585525, 79.015813 34.63585525, 92.12606 27.4606525, 92.12606 27.4606525, 81.49613 0, 81.49613000000001 0, 73.70084800000001 10.62993, 73.70084800000001 10.62993, 55.275636000000006 0, 55.275636000000006 0, 52.618153500000005 13.110247000000001, 52.618153500000005 13.110247000000001, 39.507906500000004 0, 39.507906500000004 0, 36.850424000000004 10.62993, 36.850424000000004 10.62993, 18.425212000000002 0, 18.425212000000002 "/> 
</g>
<!-- Bottom--> 
<g transform="translate(291.79157849999996, 398.0908785) " > 
<polygon style="stroke:#000000; fill:none; stroke-width:0.90000074" points="0, 10.62993 27.4606525, 10.62993 27.4606525, 0 34.63585525, 0 34.63585525, 13.110247000000001 47.74610225, 13.110247000000001 47.74610225, 0 54.921305, 0 54.921305, 10.62993 72.637855, 10.62993 72.637855, 0 90.35440499999999, 0 90.35440499999999, 10.62993 108.070955, 10.62993 108.070955, 0 125.78750499999998, 0 125.78750499999998, 10.62993 143.504055, 10.62993 143.504055, 0 161.22060499999998, 0 161.22060499999998, 10.62993 178.937155, 10.62993 178.937155, 0 196.65370499999997, 0 196.65370499999997, 10.62993 214.37025499999996, 10.62993 214.37025499999996, 0 221.54545774999994, 0 221.54545774999994, 13.110247000000001 234.65570474999996, 13.110247000000001 234.65570474999996, 0 241.83090749999997, 0 241.83090749999997, 10.62993 269.29156, 10.62993 269.29156, 18.425212000000002 258.66163, 18.425212000000002 258.66163, 36.850424000000004 269.29156, 36.850424000000004 269.29156, 39.507906500000004 256.181313, 39.507906500000004 256.181313, 52.618153500000005 269.29156, 52.618153500000005 269.29156, 55.275636000000006 258.66163, 55.275636000000006 258.66163, 73.70084800000001 269.29156, 73.70084800000001 269.29155999999995, 81.49613 241.83090749999997, 81.49613 241.83090749999997, 92.12606 234.65570474999996, 92.12606 234.65570474999996, 79.015813 221.54545774999994, 79.015813 221.54545774999994, 92.12606 214.37025499999996, 92.12606 214.37025499999996, 81.49613 196.65370499999997, 81.49613 196.65370499999997, 92.12606 178.937155, 92.12606 178.937155, 81.49613 161.22060499999998, 81.49613 161.22060499999998, 92.12606 143.504055, 92.12606 143.504055, 81.49613 125.78750499999998, 81.49613 125.78750499999998, 92.12606 108.070955, 92.12606 108.070955, 81.49613 90.35440499999999, 81.49613 90.35440499999999, 92.12606 72.637855, 92.12606 72.637855, 81.49613 54.921305, 81.49613 54.921305, 92.12606 47.74610225, 92.12606 47.74610225, 79.015813 34.63585525, 79.015813 34.63585525, 92.12606 27.4606525, 92.12606 27.4606525, 81.49613 0, 81.49613000000001 0, 73.70084800000001 10.62993, 73.70084800000001 10.62993, 55.275636000000006 0, 55.275636000000006 0, 52.618153500000005 13.110247000000001, 52.618153500000005 13.110247000000001, 39.507906500000004 0, 39.507906500000004 0, 36.850424000000004 10.62993, 36.850424000000004 10.62993, 18.425212000000002 0, 18.425212000000002 "/> 
</g></svg>