<svg xmlns="http://www.w3.org/2000/svg" version="1.1" width="220.7mm" height="264.7mm" viewBox = " 0 0 782.008517 937.9141569999999" >
<!-- Front--> 
<g transform="translate(22.5000185, 22.5000185) " > 
<polygon style="stroke:#000000; fill:none; stroke-width:0.90000074" points="0, 0 23.031515, 0 23.031515, 10.62993 46.06303, 10.62993 46.06303, 0 63.779579999999996, 0 63.779579999999996, 10.62993 81.49613, 10.62993 81.49613, 0 99.21267999999999, 0 99.21267999999999, 10.62993 116.92922999999999, 10.62993 116.92922999999999, 0 134.64578, 0 134.64578, 10.62993 152.36233, 10.62993 152.36233, 0 170.07887999999997, 0 170.07887999999997, 10.62993 187.79542999999998, 10.62993 187.79542999999998, 0 205.51197999999997, 0 205.51197999999997, 10.62993 223.22852999999998, 10.62993 223.22852999999998, 0 240.94508, 0 240.94508, 10.62993 258.66162999999995, 10.62993 258.66162999999995, 0 276.37817999999993, 0 276.37817999999993, 10.62993 299.40969499999994, 10.62993 299.40969499999994, 0 322.44121, 0 322.44121, 27.4606525 311.81128, 27.4606525 311.81128, 54.921305 322.44121, 54.921305 322.44121, 72.637855 311.81128, 72.637855 311.81128, 90.35440499999999 322.44121, 90.35440499999999 322.44121, 108.070955 311.81128, 108.070955 311.81128, 125.78750499999998 322.44121, 125.78750499999998 322.44121, 143.504055 311.81128, 143.504055 311.81128, 161.22060499999998 322.44121, 161.22060499999998 322.44121, 178.937155 311.81128, 178.937155 311.81128, 196.65370499999997 322.44121, 196.65370499999997 322.44121, 214.37025499999996 311.81128, 214.37025499999996 311.81128, 232.08680499999997 322.44121, 232.08680499999997 322.44121, 249.80335499999998 311.81128, 249.80335499999998 311.81128, 267.519905 322.44121, 267.519905 322.44121, 285.236455 311.81128, 285.236455 311.81128, 302.95300499999996 322.44121, 302.95300499999996 322.44121, 320.669555 311.81128, 320.669555 311.81128, 338.386105 322.44121, 338.386105 322.44121, 356.10265499999997 311.81128, 356.10265499999997 311.81128, 373.81920499999995 322.44121, 373.81920499999995 322.44121, 391.535755 311.81128, 391.535755 311.81128, 418.9964075 322.44121, 418.9964075 322.44120999999996, 446.45706 299.40969499999994, 446.45706 299.40969499999994, 435.82713 276.37817999999993, 435.82713 276.37817999999993, 446.45706 258.66162999999995, 446.45706 258.66162999999995, 435.82713 240.94508, 435.82713 240.94508, 446.45706 223.22852999999998, 446.45706 223.22852999999998, 435.82713 205.51197999999997, 435.82713 205.51197999999997, 446.45706 187.79542999999998, 446.45706 187.79542999999998, 435.82713 170.07887999999997, 435.82713 170.07887999999997, 446.45706 152.36233, 446.45706 152.36233, 435.82713 134.64578, 435.82713 134.64578, 446.45706 116.92922999999999, 446.45706 116.92922999999999, 435.82713 99.21267999999999, 435.82713 99.21267999999999, 446.45706 81.49613, 446.45706 81.49613, 435.82713 63.779579999999996, 435.82713 63.779579999999996, 446.45706 46.06303, 446.45706 46.06303, 435.82713 23.031515, 435.82713 23.031515, 446.45706 0, 446.45705999999996 0, 418.9964075 10.62993, 418.9964075 10.62993, 391.535755 0, 391.535755 0, 373.81920499999995 10.62993, 373.81920499999995 10.62993, 356.10265499999997 0, 356.10265499999997 0, 338.386105 10.62993, 338.386105 10.62993, 320.669555 0, 320.669555 0, 302.95300499999996 10.62993, 302.95300499999996 10.62993, 285.236455 0, 285.236455 0, 267.519905 10.62993, 267.519905 10.62993, 249.80335499999998 0, 249.80335499999998 0, 232.08680499999997 10.62993, 232.08680499999997 10.62993, 214.37025499999996 0, 214.37025499999996 0, 196.65370499999997 10.62993, 196.65370499999997 10.62993, 178.937155 0, 178.937155 0, 161.22060499999998 10.62993, 161.22060499999998 10.62993, 143.504055 0, 143.504055 0, 125.78750499999998 10.62993, 125.78750499999998 10.62993, 108.070955 0, 108.070955 0, 90.35440499999999 10.62993, 90.35440499999999 10.62993, 72.637855 0, 72.637855 0, 54.921305 10.62993, 54.921305 10.62993, 27.4606525 0, 27.4606525 "/> 
</g>
<!-- Back--> 
<g transform="translate(344.94122849999997, 22.5000185) " > 
<polygon style="stroke:#000000; fill:none; stroke-width:0.90000074" points="0, 0 23.031515, 0 23.031515, 10.62993 46.06303, 10.62993 46.06303, 0 63.779579999999996, 0 63.779579999999996, 10.62993 81.49613, 10.62993 81.49613, 0 99.21267999999999, 0 99.21267999999999, 10.62993 116.92922999999999, 10.62993 116.92922999999999, 0 134.64578, 0 134.64578, 10.62993 152.36233, 10.62993 152.36233, 0 170.07887999999997, 0 170.07887999999997, 10.62993 187.79542999999998, 10.62993 187.79542999999998, 0 205.51197999999997, 0 205.51197999999997, 10.62993 223.22852999999998, 10.62993 223.22852999999998, 0 240.94508, 0 240.94508, 10.62993 258.66162999999995, 10.62993 258.66162999999995, 0 276.37817999999993, 0 276.37817999999993, 10.62993 299.40969499999994, 10.62993 299.40969499999994, 0 322.44121, 0 322.44121, 27.4606525 311.81128, 27.4606525 311.81128, 54.921305 322.44121, 54.921305 322.44121, 72.637855 311.81128, 72.637855 311.81128, 90.35440499999999 322.44121, 90.35440499999999 322.44121, 108.070955 311.81128, 108.070955 311.81128, 125.78750499999998 322.44121, 125.78750499999998 322.44121, 143.504055 311.81128, 143.504055 311.81128, 161.22060499999998 322.44121, 161.22060499999998 322.44121, 178.937155 311.81128, 178.937155 311.81128, 196.65370499999997 322.44121, 196.65370499999997 322.44121, 214.37025499999996 311.81128, 214.37025499999996 311.81128, 232.08680499999997 322.44121, 232.08680499999997 322.44121, 249.80335499999998 311.81128, 249.80335499999998 311.81128, 267.519905 322.44121, 267.519905 322.44121, 285.236455 311.81128, 285.236455 311.81128, 302.95300499999996 322.44121, 302.95300499999996 322.44121, 320.669555 311.81128, 320.669555 311.81128, 338.386105 322.44121, 338.386105 322.44121, 356.10265499999997 311.81128, 356.10265499999997 311.81128, 373.81920499999995 322.44121, 373.81920499999995 322.44121, 391.535755 311.81128, 391.535755 311.81128, 418.9964075 322.44121, 418.9964075 322.44120999999996, 446.45706 299.40969499999994, 446.45706 299.40969499999994, 435.82713 276.37817999999993, 435.82713 276.37817999999993, 446.45706 258.66162999999995, 446.45706 258.66162999999995, 435.82713 240.94508, 435.82713 240.94508, 446.45706 223.22852999999998, 446.45706 223.22852999999998, 435.82713 205.51197999999997, 435.82713 205.51197999999997, 446.45706 187.79542999999998, 446.45706 187.79542999999998, 435.82713 170.07887999999997, 435.82713 170.07887999999997, 446.45706 152.36233, 446.45706 152.36233, 435.82713 134.64578, 435.82713 134.64578, 446.45706 116.92922999999999, 446.45706 116.92922999999999, 435.82713 99.21267999999999, 435.82713 99.21267999999999, 446.45706 81.49613, 446.45706 81.49613, 435.82713 63.779579999999996, 435.82713 63.779579999999996, 446.45706 46.06303, 446.45706 46.06303, 435.82713 23.031515, 435.82713 23.031515, 446.45706 0, 446.45705999999996 0, 418.9964075 10.62993, 418.9964075 10.62993, 391.535755 0, 391.535755 0, 373.81920499999995 10.62993, 373.81920499999995 10.62993, 356.10265499999997 0, 356.10265499999997 0, 338.386105 10.62993, 338.386105 10.62993, 320.669555 0, 320.669555 0, 302.95300499999996 10.62993, 302.95300499999996 10.62993, 285.236455 0, 285.236455 0, 267.519905 10.62993, 267.519905 10.62993, 249.80335499999998 0, 249.80335499999998 0, 232.08680499999997 10.62993, 232.08680499999997 10.62993, 214.37025499999996 0, 214.37025499999996 0, 196.65370499999997 10.62993, 196.65370499999997 10.62993, 178.937155 0, 178.937155 0, 161.22060499999998 10.62993, 161.22060499999998 10.62993, 143.504055 0, 143.504055 0, 125.78750499999998 10.62993, 125.78750499999998 10.62993, 108.070955 0, 108.070955 0, 90.35440499999999 10.62993, 90.35440499999999 10.62993, 72.637855 0, 72.637855 0, 54.921305 10.62993, 54.921305 10.62993, 27.4606525 0, 27.4606525 "/> 
</g>
<!-- Left--> 
<g transform="translate(667.3824384999999, 22.5000185) " > 
<polygon style="stroke:#000000; fill:none; stroke-width:0.90000074" points="10.62993, 0 18.425212000000002, 0 18.425212000000002, 10.62993 36.850424000000004, 10.62993 36.850424000000004, 0 55.275636000000006, 0 55.275636000000006, 10.62993 73.70084800000001, 10.62993 73.70084800000001, 0 81.49613, 0 81.49613, 27.4606525 92.12606, 27.4606525 92.12606, 54.921305 81.49613, 54.921305 81.49613, 72.637855 92.12606, 72.637855 92.12606, 90.35440499999999 81.49613, 90.35440499999999 81.49613, 108.070955 92.12606, 108.070955 92.12606, 125.78750499999998 81.49613, 125.78750499999998 81.49613, 143.504055 92.12606, 143.504055 92.12606, 161.22060499999998 81.49613, 161.22060499999998 81.49613, 178.937155 92.12606, 178.937155 92.12606, 196.65370499999997 81.49613, 196.65370499999997 81.49613, 214.37025499999996 92.12606, 214.37025499999996 92.12606, 232.08680499999997 81.49613, 232.08680499999997 81.49613, 249.80335499999998 92.12606, 249.80335499999998 92.12606, 267.519905 81.49613, 267.519905 81.49613, 285.236455 92.12606, 285.236455 92.12606, 302.95300499999996 81.49613, 302.95300499999996 81.49613, 320.669555 92.12606, 320.669555 92.12606, 338.386105 81.49613, 338.386105 81.49613, 356.10265499999997 92.12606, 356.10265499999997 92.12606, 373.81920499999995 81.49613, 373.81920499999995 81.49613, 391.535755 92.12606, 391.535755 92.12606, 418.9964075 81.49613, 418.9964075 81.49613000000001, 446.45706 73.70084800000001, 446.45706 73.70084800000001, 435.82713 55.275636000000006, 435.82713 55.275636000000006, 446.45706 36.850424000000004, 446.45706 36.850424000000004, 435.82713 18.425212000000002, 435.82713 18.425212000000002, 446.45706 10.62993, 446.45705999999996 10.62993, 418.9964075 0, 418.9964075 0, 391.535755 10.62993, 391.535755 10.62993, 373.81920499999995 0, 373.81920499999995 0, 356.10265499999997 10.62993, 356.10265499999997 10.62993, 338.386105 0, 338.386105 0, 320.669555 10.62993, 320.669555 10.62993, 302.95300499999996 0, 302.95300499999996 0, 285.236455 10.62993, 285.236455 10.62993, 267.519905 0, 267.519905 0, 249.80335499999998 10.62993, 249.80335499999998 10.62993, 232.08680499999997 0, 232.08680499999997 0, 214.37025499999996 10.62993, 214.37025499999996 10.62993, 196.65370499999997 0, 196.65370499999997 0, 178.937155 10.62993, 178.937155 10.62993, 161.22060499999998 0, 161.22060499999998 0, 143.504055 10.62993, 143.504055 10.62993, 125.78750499999998 0, 125.78750499999998 0, 108.070955 10.62993, 108.070955 10.62993, 90.35440499999999 0, 90.35440499999999 0, 72.637855 10.62993, 72.637855 10.62993, 54.921305 0, 54.921305 0, 27.4606525 10.62993, 27.4606525 "/> 
</g>
<!-- Right--> 
<g transform="translate(667.3824384999999, 468.95707849999997) " > 
<polygon style="stroke:#000000; fill:none; stroke-width:0.90000074" points="10.62993, 0 18.425212000000002, 0 18.425212000000002, 10.62993 36.850424000000004, 10.62993 36.850424000000004, 0 55.275636000000006, 0 55.275636000000006, 10.62993 73.70084800000001, 10.62993 73.70084800000001, 0 81.49613, 0 81.49613, 27.4606525 92.12606, 27.4606525 92.12606, 54.921305 81.49613, 54.921305 81.49613, 72.637855 92.12606, 72.637855 92.12606, 90.35440499999999 81.49613, 90.35440499999999 81.49613, 108.070955 92.12606, 108.070955 92.12606, 125.78750499999998 81.49613, 125.78750499999998 81.49613, 143.504055 92.12606, 143.504055 92.12606, 161.22060499999998 81.49613, 161.22060499999998 81.49613, 178.937155 92.12606, 178.937155 92.12606, 196.65370499999997 81.49613, 196.65370499999997 81.49613, 214.37025499999996 92.12606, 214.37025499999996 92.12606, 232.08680499999997 81.49613, 232.08680499999997 81.49613, 249.80335499999998 92.12606, 249.80335499999998 92.12606, 267.519905 81.49613, 267.519905 81.49613, 285.236455 92.12606, 285.236455 92.12606, 302.95300499999996 81.49613, 302.95300499999996 81.49613, 320.669555 92.12606, 320.669555 92.12606, 338.386105 81.49613, 338.386105 81.49613, 356.10265499999997 92.12606, 356.10265499999997 92.12606, 373.81920499999995 81.49613, 373.81920499999995 81.49613, 391.535755 92.12606, 391.535755 92.12606, 418.9964075 81.49613, 418.9964075 81.49613000000001, 446.45706 73.70084800000001, 446.45706 73.70084800000001, 435.82713 55.275636000000006, 435.82713 55.275636000000006, 446.45706 36.850424000000004, 446.45706 36.850424000000004, 435.82713 18.425212000000002, 435.82713 18.425212000000002, 446.45706 10.62993, 446.45705999999996 10.62993, 418.9964075 0, 418.9964075 0, 391.535755 10.62993, 391.535755 10.62993, 373.81920499999995 0, 373.81920499999995 0, 356.10265499999997 10.62993, 356.10265499999997 10.62993, 338.386105 0, 338.386105 0, 320.669555 10.62993, 320.669555 10.62993, 302.95300499999996 0, 302.95300499999996 0, 285.236455 10.62993, 285.236455 10.62993, 267.519905 0, 267.519905 0, 249.80335499999998 10.62993, 249.80335499999998 10.62993, 232.08680499999997 0, 232.08680499999997 0, 214.37025499999996 10.62993, 214.37025499999996 10.62993, 196.65370499999997 0, 196.65370499999997 0, 178.937155 10.62993, 178.937155 10.62993, 161.22060499999998 0, 161.22060499999998 0, 143.504055 10.62993, 143.504055 10.62993, 125.78750499999998 0, 125.78750499999998 0, 108.070955 10.62993, 108.070955 10.62993, 90.35440499999999 0, 90.35440499999999 0, 72.637855 10.62993, 72.637855 10.62993, 54.921305 0, 54.921305 0, 27.4606525 10.62993, 27.4606525 "/> 
</g>
<!-- Top--> 
<g transform="translate(22.5000185, 468.95707849999997) " > 
<polygon style="stroke:#000000; fill:none; stroke-width:0.90000074" points="10.62993, 10.62993 23.031515, 10.62993 23.031515, 0 46.06303, 0 46.06303, 10.62993 63.779579999999996, 10.62993 63.779579999999996, 0 81.49613, 0 81.49613, 10.62993 99.21267999999999, 10.62993 99.21267999999999, 0 116.92922999999999, 0 116.92922999999999, 10.62993 134.64578, 10.62993 134.64578, 0 152.36233, 0 152.36233, 10.62993 170.07887999999997, 10.62993 170.07887999999997, 0 187.79542999999998, 0 187.79542999999998, 10.62993 205.51197999999997, 10.62993 205.51197999999997, 0 223.22852999999998, 0 223.22852999999998, 10.62993 240.94508, 10.62993 240.94508, 0 258.66162999999995, 0 258.66162999999995, 10.62993 276.37817999999993, 10.62993 276.37817999999993, 0 299.40969499999994, 0 299.40969499999994, 10.62993 311.81128, 10.62993 311.81128, 18.425212000000002 322.44121, 18.425212000000002 322.44121, 36.850424000000004 311.81128, 36.850424000000004 311.81128, 55.275636000000006 322.44121, 55.275636000000006 322.44121, 73.70084800000001 311.81128, 73.70084800000001 311.81127999999995, 81.49613 299.40969499999994, 81.49613 299.40969499999994, 92.12606 276.37817999999993, 92.12606 276.37817999999993, 81.49613 258.66162999999995, 81.49613 258.66162999999995, 92.12606 240.94508, 92.12606 240.94508, 81.49613 223.22852999999998, 81.49613 223.22852999999998, 92.12606 205.51197999999997, 92.12606 205.51197999999997, 81.49613 187.79542999999998, 81.49613 187.79542999999998, 92.12606 170.07887999999997, 92.12606 170.07887999999997, 81.49613 152.36233, 81.49613 152.36233, 92.12606 134.64578, 92.12606 134.64578, 81.49613 116.92922999999999, 81.49613 116.92922999999999, 92.12606 99.21267999999999, 92.12606 99.21267999999999, 81.49613 81.49613, 81.49613 81.49613, 92.12606 63.779579999999996, 92.12606 63.779579999999996, 81.49613 46.06303, 81.49613 46.06303, 92.12606 23.031515, 92.12606 23.031515, 81.49613 10.62993, 81.49613000000001 10.62993, 73.70084800000001 0, 73.70084800000001 0, 55.275636000000006 10.62993, 55.275636000000006 10.62993, 36.850424000000004 0, 36.850424000000004 0, 18.425212000000002 10.62993, 18.425212000000002 "/> 
</g>
<!-- Bottom--> 
<g transform="translate(344.94122849999997, 468.95707849999997) " > 
<polygon style="stroke:#000000; fill:none; stroke-width:0.90000074" points="10.62993, 10.62993 23.031515, 10.62993 23.031515, 0 46.06303, 0 46.06303, 10.62993 63.779579999999996, 10.62993 63.779579999999996, 0 81.49613, 0 81.49613, 10.62993 99.21267999999999, 10.62993 99.21267999999999, 0 116.92922999999999, 0 116.92922999999999, 10.62993 134.64578, 10.62993 134.64578, 0 152.36233, 0 152.36233, 10.62993 170.07887999999997, 10.62993 170.07887999999997, 0 187.79542999999998, 0 187.79542999999998, 10.62993 205.51197999999997, 10.62993 205.51197999999997, 0 223.22852999999998, 0 223.22852999999998, 10.62993 240.94508, 10.62993 240.94508, 0 258.66162999999995, 0 258.66162999999995, 10.62993 276.37817999999993, 10.62993 276.37817999999993, 0 299.40969499999994, 0 299.40969499999994, 10.62993 311.81128, 10.62993 311.81128, 18.425212000000002 322.44121, 18.425212000000002 322.44121, 36.850424000000004 311.81128, 36.850424000000004 311.81128, 55.275636000000006 322.44121, 55.275636000000006 322.44121, 73.70084800000001 311.81128, 73.70084800000001 311.81127999999995, 81.49613 299.40969499999994, 81.49613 299.40969499999994, 92.12606 276.37817999999993, 92.12606 276.37817999999993, 81.49613 258.66162999999995, 81.49613 258.66162999999995, 92.12606 240.94508, 92.12606 240.94508, 81.49613 223.22852999999998, 81.49613 223.22852999999998, 92.12606 205.51197999999997, 92.12606 205.51197999999997, 81.49613 187.79542999999998, 81.49613 187.79542999999998, 92.12606 170.07887999999997, 92.12606 170.07887999999997, 81.49613 152.36233, 81.49613 152.36233, 92.12606 134.64578, 92.12606 134.64578, 81.49613 116.92922999999999, 81.49613 116.92922999999999, 92.12606 99.21267999999999, 92.12606 99.21267999999999, 81.49613 81.49613, 81.49613 81.49613, 92.12606 63.779579999999996, 92.12606 63.779579999999996, 81.49613 46.06303, 81.49613 46.06303, 92.12606 23.031515, 92.12606 23.031515, 81.49613 10.62993, 81.49613000000001 10.62993, 73.70084800000001 0, 73.70084800000001 0, 55.275636000000006 10.62993, 55.275636000000006 10.62993, 36.850424000000004 0, 36.850424000000004 0, 18.425212000000002 10.62993, 18.425212000000002 "/> 
</g></svg>