<svg xmlns="http://www.w3.org/2000/svg" version="1.1" width="202.7mm" height="232.7mm" viewBox = " 0 0 718.228937 824.528237" >
<!-- Front--> 
<g transform="translate(22.5000185, 22.5000185) " > 
<polygon style="stroke:#000000; fill:none; stroke-width:0.90000074" points="0, 0 33.661445, 0 33.661445, 17.716549999999998 67.32289, 17.716549999999998 67.32289, 0 88.58275, 0 88.58275, 17.716549999999998 109.84261000000001, 17.716549999999998 109.84261000000001, 0 131.10246999999998, 0 131.10246999999998, 17.716549999999998 152.36233, 17.716549999999998 152.36233, 0 173.62219, 0 173.62219, 17.716549999999998 194.88205, 17.716549999999998 194.88205, 0 216.14191, 0 216.14191, 17.716549999999998 249.803355, 17.716549999999998 249.803355, 0 283.46479999999997, 0 283.46479999999997, 28.34648 265.74825, 28.34648 265.74825, 56.69296 283.46479999999997, 56.69296 283.46479999999997, 77.95282 265.74825, 77.95282 265.74825, 99.21268 283.46479999999997, 99.21268 283.46479999999997, 120.47254 265.74825, 120.47254 265.74825, 141.73239999999998 283.46479999999997, 141.73239999999998 283.46479999999997, 162.99226 265.74825, 162.99226 265.74825, 184.25212 283.46479999999997, 184.25212 283.46479999999997, 205.51198 265.74825, 205.51198 265.74825, 226.77184 283.46479999999997, 226.77184 283.46479999999997, 248.0317 265.74825, 248.0317 265.74825, 269.29156 283.46479999999997, 269.29156 283.46479999999997, 290.55142 265.74825, 290.55142 265.74825, 311.81128 283.46479999999997, 311.81128 283.46479999999997, 333.07114 265.74825, 333.07114 265.74825, 361.41762 283.46479999999997, 361.41762 283.46479999999997, 389.7641 249.803355, 389.7641 249.803355, 372.04755 216.14191, 372.04755 216.14191, 389.7641 194.88205, 389.7641 194.88205, 372.04755 173.62219, 372.04755 173.62219, 389.7641 152.36233, 389.7641 152.36233, 372.04755 131.10246999999998, 372.04755 131.10246999999998, 389.7641 109.84261000000001, 389.7641 109.84261000000001, 372.04755 88.58275, 372.04755 88.58275, 389.7641 67.32289, 389.7641 67.32289, 372.04755 33.661445, 372.04755 33.661445, 389.7641 0, 389.7641 0, 361.41762 17.716549999999998, 361.41762 17.716549999999998, 333.07114 0, 333.07114 0, 311.81128 17.716549999999998, 311.81128 17.716549999999998, 290.55142 0, 290.55142 0, 269.29156 17.716549999999998, 269.29156 17.716549999999998, 248.0317 0, 248.0317 0, 226.77184 17.716549999999998, 226.77184 17.716549999999998, 205.51198 0, 205.51198 0, 184.25212 17.716549999999998, 184.25212 17.716549999999998, 162.99226 0, 162.99226 0, 141.73239999999998 17.716549999999998, 141.73239999999998 17.716549999999998, 120.47254 0, 120.47254 0, 99.21268 17.716549999999998, 99.21268 17.716549999999998, 77.95282 0, 77.95282 0, 56.69296 17.716549999999998, 56.69296 17.716549999999998, 28.34648 0, 28.34648 "/> 
</g>
<!-- Back--> 
<g transform="translate(305.9648185, 22.5000185) " > 
<polygon style="stroke:#000000; fill:none; stroke-width:0.90000074" points="0, 0 33.661445, 0 33.661445, 17.716549999999998 67.32289, 17.716549999999998 67.32289, 0 88.58275, 0 88.58275, 17.716549999999998 109.84261000000001, 17.716549999999998 109.84261000000001, 0 131.10246999999998, 0 131.10246999999998, 17.716549999999998 152.36233, 17.716549999999998 152.36233, 0 173.62219, 0 173.62219, 17.716549999999998 194.88205, 17.716549999999998 194.88205, 0 216.14191, 0 216.14191, 17.716549999999998 249.803355, 17.716549999999998 249.803355, 0 283.46479999999997, 0 283.46479999999997, 28.34648 265.74825, 28.34648 265.74825, 56.69296 283.46479999999997, 56.69296 283.46479999999997, 77.95282 265.74825, 77.95282 265.74825, 99.21268 283.46479999999997, 99.21268 283.46479999999997, 120.47254 265.74825, 120.47254 265.74825, 141.73239999999998 283.46479999999997, 141.73239999999998 283.46479999999997, 162.99226 265.74825, 162.99226 265.74825, 184.25212 283.46479999999997, 184.25212 283.46479999999997, 205.51198 265.74825, 205.51198 265.74825, 226.77184 283.46479999999997, 226.77184 283.46479999999997, 248.0317 265.74825, 248.0317 265.74825, 269.29156 283.46479999999997, 269.29156 283.46479999999997, 290.55142 265.74825, 290.55142 265.74825, 311.81128 283.46479999999997, 311.81128 283.46479999999997, 333.07114 265.74825, 333.07114 265.74825, 361.41762 283.46479999999997, 361.41762 283.46479999999997, 389.7641 249.803355, 389.7641 249.803355, 372.04755 216.14191, 372.04755 216.14191, 389.7641 194.88205, 389.7641 194.88205, 372.04755 173.62219, 372.04755 173.62219, 389.7641 152.36233, 389.7641 152.36233, 372.04755 131.10246999999998, 372.04755 131.10246999999998, 389.7641 109.84261000000001, 389.7641 109.84261000000001, 372.04755 88.58275, 372.04755 88.58275, 389.7641 67.32289, 389.7641 67.32289, 372.04755 33.661445, 372.04755 33.661445, 389.7641 0, 389.7641 0, 361.41762 17.716549999999998, 361.41762 17.716549999999998, 333.07114 0, 333.07114 0, 311.81128 17.716549999999998, 311.81128 17.716549999999998, 290.55142 0, 290.55142 0, 269.29156 17.716549999999998, 269.29156 17.716549999999998, 248.0317 0, 248.0317 0, 226.77184 17.716549999999998, 226.77184 17.716549999999998, 205.51198 0, 205.51198 0, 184.25212 17.716549999999998, 184.25212 17.716549999999998, 162.99226 0, 162.99226 0, 141.73239999999998 17.716549999999998, 141.73239999999998 17.716549999999998, 120.47254 0, 120.47254 0, 99.21268 17.716549999999998, 99.21268 17.716549999999998, 77.95282 0, 77.95282 0, 56.69296 17.716549999999998, 56.69296 17.716549999999998, 28.34648 0, 28.34648 "/> 
</g>
<!-- Left--> 
<g transform="translate(589.4296185, 22.5000185) " > 
<polygon style="stroke:#000000; fill:none; stroke-width:0.90000074" points="17.716549999999998, 0 21.25986, 0 21.25986, 17.716549999999998 42.51972, 17.716549999999998 42.51972, 0 63.779579999999996, 0 63.779579999999996, 17.716549999999998 85.03944, 17.716549999999998 85.03944, 0 88.58275, 0 88.58275, 28.34648 106.2993, 28.34648 106.2993, 56.69296 88.58275, 56.69296 88.58275, 77.95282 106.2993, 77.95282 106.2993, 99.21268 88.58275, 99.21268 88.58275, 120.47254 106.2993, 120.47254 106.2993, 141.73239999999998 88.58275, 141.73239999999998 88.58275, 162.99226 106.2993, 162.99226 106.2993, 184.25212 88.58275, 184.25212 88.58275, 205.51198 106.2993, 205.51198 106.2993, 226.77184 88.58275, 226.77184 88.58275, 248.0317 106.2993, 248.0317 106.2993, 269.29156 88.58275, 269.29156 88.58275, 290.55142 106.2993, 290.55142 106.2993, 311.81128 88.58275, 311.81128 88.58275, 333.07114 106.2993, 333.07114 106.2993, 361.41762 88.58275, 361.41762 88.58275, 389.7641 85.03944, 389.7641 85.03944, 372.04755 63.779579999999996, 372.04755 63.779579999999996, 389.7641 42.51972, 389.7641 42.51972, 372.04755 21.25986, 372.04755 21.25986, 389.7641 17.716549999999998, 389.7641 17.716549999999998, 361.41762 0, 361.41762 0, 333.07114 17.716549999999998, 333.07114 17.716549999999998, 311.81128 0, 311.81128 0, 290.55142 17.716549999999998, 290.55142 17.716549999999998, 269.29156 0, 269.29156 0, 248.0317 17.716549999999998, 248.0317 17.716549999999998, 226.77184 0, 226.77184 0, 205.51198 17.716549999999998, 205.51198 17.716549999999998, 184.25212 0, 184.25212 0, 162.99226 17.716549999999998, 162.99226 17.716549999999998, 141.73239999999998 0, 141.73239999999998 0, 120.47254 17.716549999999998, 120.47254 17.716549999999998, 99.21268 0, 99.21268 0, 77.95282 17.716549999999998, 77.95282 17.716549999999998, 56.69296 0, 56.69296 0, 28.34648 17.716549999999998, 28.34648 "/> 
</g>
<!-- Right--> 
<g transform="translate(589.4296185, 412.2641185) " > 
<polygon style="stroke:#000000; fill:none; stroke-width:0.90000074" points="17.716549999999998, 0 21.25986, 0 21.25986, 17.716549999999998 42.51972, 17.716549999999998 42.51972, 0 63.779579999999996, 0 63.779579999999996, 17.716549999999998 85.03944, 17.716549999999998 85.03944, 0 88.58275, 0 88.58275, 28.34648 106.2993, 28.34648 106.2993, 56.69296 88.58275, 56.69296 88.58275, 77.95282 106.2993, 77.95282 106.2993, 99.21268 88.58275, 99.21268 88.58275, 120.47254 106.2993, 120.47254 106.2993, 141.73239999999998 88.58275, 141.73239999999998 88.58275, 162.99226 106.2993, 162.99226 106.2993, 184.25212 88.58275, 184.25212 88.58275, 205.51198 106.2993, 205.51198 106.2993, 226.77184 88.58275, 226.77184 88.58275, 248.0317 106.2993, 248.0317 106.2993, 269.29156 88.58275, 269.29156 88.58275, 290.55142 106.2993, 290.55142 106.2993, 311.81128 88.58275, 311.81128 88.58275, 333.07114 106.2993, 333.07114 106.2993, 361.41762 88.58275, 361.41762 88.58275, 389.7641 85.03944, 389.7641 85.03944, 372.04755 63.779579999999996, 372.04755 63.779579999999996, 389.7641 42.51972, 389.7641 42.51972, 372.04755 21.25986, 372.04755 21.25986, 389.7641 17.716549999999998, 389.7641 17.716549999999998, 361.41762 0, 361.41762 0, 333.07114 17.716549999999998, 333.07114 17.716549999999998, 311.81128 0, 311.81128 0, 290.55142 17.716549999999998, 290.55142 17.716549999999998, 269.29156 0, 269.29156 0, 248.0317 17.716549999999998, 248.0317 17.716549999999998, 226.77184 0, 226.77184 0, 205.51198 17.716549999999998, 205.51198 17.716549999999998, 184.25212 0, 184.25212 0, 162.99226 17.716549999999998, 162.99226 17.716549999999998, 141.73239999999998 0, 141.73239999999998 0, 120.47254 17.716549999999998, 120.47254 17.716549999999998, 99.21268 0, 99.21268 0, 77.95282 17.716549999999998, 77.95282 17.716549999999998, 56.69296 0, 56.69296 0, 28.34648 17.716549999999998, 28.34648 "/> 
</g>
<!-- Top--> 
<g transform="translate(22.5000185, 412.2641185) " > 
<polygon style="stroke:#000000; fill:none; stroke-width:0.90000074" points="17.716549999999998, 17.716549999999998 33.661445, 17.716549999999998 33.661445, 0 67.32289, 0 67.32289, 17.716549999999998 88.58275, 17.716549999999998 88.58275, 0 109.84261000000001, 0 109.84261000000001, 17.716549999999998 131.10246999999998, 17.716549999999998 131.10246999999998, 0 152.36233, 0 152.36233, 17.716549999999998 173.62219, 17.716549999999998 173.62219, 0 194.88205, 0 194.88205, 17.716549999999998 216.14191, 17.716549999999998 216.14191, 0 249.803355, 0 249.803355, 17.716549999999998 265.74825, 17.716549999999998 265.74825, 21.25986 283.46479999999997, 21.25986 283.46479999999997, 42.51972 265.74825, 42.51972 265.74825, 63.779579999999996 283.46479999999997, 63.779579999999996 283.46479999999997, 85.03944 265.74825, 85.03944 265.74825, 88.58275 249.803355, 88.58275 249.803355, 106.2993 216.14191, 106.2993 216.14191, 88.58275 194.88205, 88.58275 194.88205, 106.2993 173.62219, 106.2993 173.62219, 88.58275 152.36233, 88.58275 152.36233, 106.2993 131.10246999999998, 106.2993 131.10246999999998, 88.58275 109.84261000000001, 88.58275 109.84261000000001, 106.2993 88.58275, 106.2993 88.58275, 88.58275 67.32289, 88.58275 67.32289, 106.2993 33.661445, 106.2993 33.661445, 88.58275 17.716549999999998, 88.58275 17.716549999999998, 85.03944 0, 85.03944 0, 63.779579999999996 17.716549999999998, 63.779579999999996 17.716549999999998, 42.51972 0, 42.51972 0, 21.25986 17.716549999999998, 21.25986 "/> 
</g>
<!-- Bottom--> 
<g transform="translate(305.9648185, 412.2641185) " > 
<polygon style="stroke:#000000; fill:none; stroke-width:0.90000074" points="17.716549999999998, 17.716549999999998 33.661445, 17.716549999999998 33.661445, 0 67.32289, 0 67.32289, 17.716549999999998 88.58275, 17.716549999999998 88.58275, 0 109.84261000000001, 0 109.84261000000001, 17.716549999999998 131.10246999999998, 17.716549999999998 131.10246999999998, 0 152.36233, 0 152.36233, 17.716549999999998 173.62219, 17.716549999999998 173.62219, 0 194.88205, 0 194.88205, 17.716549999999998 216.14191, 17.716549999999998 216.14191, 0 249.803355, 0 249.803355, 17.716549999999998 265.74825, 17.716549999999998 265.74825, 21.25986 283.46479999999997, 21.25986 283.46479999999997, 42.51972 265.74825, 42.51972 265.74825, 63.779579999999996 283.46479999999997, 63.779579999999996 283.46479999999997, 85.03944 265.74825, 85.03944 265.74825, 88.58275 249.803355, 88.58275 249.803355, 106.2993 216.14191, 106.2993 216.14191, 88.58275 194.88205, 88.58275 194.88205, 106.2993 173.62219, 106.2993 173.62219, 88.58275 152.36233, 88.58275 152.36233, 106.2993 131.10246999999998, 106.2993 131.10246999999998, 88.58275 109.84261000000001, 88.58275 109.84261000000001, 106.2993 88.58275, 106.2993 88.58275, 88.58275 67.32289, 88.58275 67.32289, 106.2993 33.661445, 106.2993 33.661445, 88.58275 17.716549999999998, 88.58275 17.716549999999998, 85.03944 0, 85.03944 0, 63.779579999999996 17.716549999999998, 63.779579999999996 17.716549999999998, 42.51972 0, 42.51972 0, 21.25986 17.716549999999998, 21.25986 "/> 
</g></svg>