<svg xmlns="http://www.w3.org/2000/svg" version="1.1" width="172.7mm" height="262.7mm" viewBox = " 0 0 611.929637 930.8275369999999" >
<!-- Front--> 
<g transform="translate(22.5000185, 22.5000185) " > 
<polygon style="stroke:#000000; fill:none; stroke-width:0.90000074" points="17.716549999999998, 0 46.06303, 0 46.06303, 17.716549999999998 63.602414499999995, 17.716549999999998 63.602414499999995, 39.330741 59.173277, 39.330741 59.173277, 48.189016 63.602414499999995, 48.189016 63.602414499999995, 57.047291 74.5866755, 57.047291 74.5866755, 48.189016 79.015813, 48.189016 79.015813, 39.330741 74.5866755, 39.330741 74.5866755, 17.716549999999998 92.12606, 17.716549999999998 92.12606, 0 120.47254, 0 120.47254, 17.716549999999998 138.0119245, 17.716549999999998 138.0119245, 39.330741 133.582787, 39.330741 133.582787, 48.189016 138.0119245, 48.189016 138.0119245, 57.047291 148.9961855, 57.047291 148.9961855, 48.189016 153.425323, 48.189016 153.425323, 39.330741 148.9961855, 39.330741 148.9961855, 17.716549999999998 166.53557, 17.716549999999998 166.53557, 0 194.88205, 0 194.88205, 46.9488575 212.5986, 46.9488575 212.5986, 63.86816275 199.48835300000002, 63.86816275 199.48835300000002, 76.97840975 212.5986, 76.97840975 212.5986, 93.897715 194.88205, 93.897715 194.88205, 122.244195 212.5986, 122.244195 212.5986, 150.590675 194.88205, 150.590675 194.88205, 178.93715500000002 212.5986, 178.93715500000002 212.5986, 207.283635 194.88205, 207.283635 194.88205, 235.630115 212.5986, 235.630115 212.5986, 263.976595 194.88205, 263.976595 194.88205, 292.323075 212.5986, 292.323075 212.5986, 320.669555 194.88205, 320.669555 194.88205, 349.016035 212.5986, 349.016035 212.5986, 365.93534025 199.48835300000002, 365.93534025 199.48835300000002, 379.04558725 212.5986, 379.04558725 212.5986, 395.9648925 194.88205, 395.9648925 194.88205, 442.91375 166.53557, 442.91375 166.53557, 425.1972 148.9961855, 425.1972 148.9961855, 403.583009 153.425323, 403.583009 153.425323, 394.724734 148.9961855, 394.724734 148.9961855, 385.866459 138.0119245, 385.866459 138.0119245, 394.724734 133.582787, 394.724734 133.582787, 403.583009 138.0119245, 403.583009 138.0119245, 425.1972 120.47254, 425.1972 120.47254, 442.91375 92.12606, 442.91375 92.12606, 425.1972 74.5866755, 425.1972 74.5866755, 403.583009 79.015813, 403.583009 79.015813, 394.724734 74.5866755, 394.724734 74.5866755, 385.866459 63.602414499999995, 385.866459 63.602414499999995, 394.724734 59.173277, 394.724734 59.173277, 403.583009 63.602414499999995, 403.583009 63.602414499999995, 425.1972 46.06303, 425.1972 46.06303, 442.91375 17.716549999999998, 442.91375 17.716549999999998, 395.9648925 0, 395.9648925 0, 379.04558725 13.110247000000001, 379.04558725 13.110247000000001, 365.93534025 0, 365.93534025 0, 349.016035 17.716549999999998, 349.016035 17.716549999999998, 320.669555 0, 320.669555 0, 292.323075 17.716549999999998, 292.323075 17.716549999999998, 263.976595 0, 263.976595 0, 235.630115 17.716549999999998, 235.630115 17.716549999999998, 207.283635 0, 207.283635 0, 178.93715500000002 17.716549999999998, 178.93715500000002 17.716549999999998, 150.590675 0, 150.590675 0, 122.244195 17.716549999999998, 122.244195 17.716549999999998, 93.897715 0, 93.897715 0, 76.97840975 13.110247000000001, 76.97840975 13.110247000000001, 63.86816275 0, 63.86816275 0, 46.9488575 17.716549999999998, 46.9488575 "/> 
</g>
<!-- Back--> 
<g transform="translate(235.0986185, 22.5000185) " > 
<polygon style="stroke:#000000; fill:none; stroke-width:0.90000074" points="17.716549999999998, 0 46.06303, 0 46.06303, 17.716549999999998 63.602414499999995, 17.716549999999998 63.602414499999995, 39.330741 59.173277, 39.330741 59.173277, 48.189016 63.602414499999995, 48.189016 63.602414499999995, 57.047291 74.5866755, 57.047291 74.5866755, 48.189016 79.015813, 48.189016 79.015813, 39.330741 74.5866755, 39.330741 74.5866755, 17.716549999999998 92.12606, 17.716549999999998 92.12606, 0 120.47254, 0 120.47254, 17.716549999999998 138.0119245, 17.716549999999998 138.0119245, 39.330741 133.582787, 39.330741 133.582787, 48.189016 138.0119245, 48.189016 138.0119245, 57.047291 148.9961855, 57.047291 148.9961855, 48.189016 153.425323, 48.189016 153.425323, 39.330741 148.9961855, 39.330741 148.9961855, 17.716549999999998 166.53557, 17.716549999999998 166.53557, 0 194.88205, 0 194.88205, 46.9488575 212.5986, 46.9488575 212.5986, 63.86816275 199.48835300000002, 63.86816275 199.48835300000002, 76.97840975 212.5986, 76.97840975 212.5986, 93.897715 194.88205, 93.897715 194.88205, 122.244195 212.5986, 122.244195 212.5986, 150.590675 194.88205, 150.590675 194.88205, 178.93715500000002 212.5986, 178.93715500000002 212.5986, 207.283635 194.88205, 207.283635 194.88205, 235.630115 212.5986, 235.630115 212.5986, 263.976595 194.88205, 263.976595 194.88205, 292.323075 212.5986, 292.323075 212.5986, 320.669555 194.88205, 320.669555 194.88205, 349.016035 212.5986, 349.016035 212.5986, 365.93534025 199.48835300000002, 365.93534025 199.48835300000002, 379.04558725 212.5986, 379.04558725 212.5986, 395.9648925 194.88205, 395.9648925 194.88205, 442.91375 166.53557, 442.91375 166.53557, 425.1972 148.9961855, 425.1972 148.9961855, 403.583009 153.425323, 403.583009 153.425323, 394.724734 148.9961855, 394.724734 148.9961855, 385.866459 138.0119245, 385.866459 138.0119245, 394.724734 133.582787, 394.724734 133.582787, 403.583009 138.0119245, 403.583009 138.0119245, 425.1972 120.47254, 425.1972 120.47254, 442.91375 92.12606, 442.91375 92.12606, 425.1972 74.5866755, 425.1972 74.5866755, 403.583009 79.015813, 403.583009 79.015813, 394.724734 74.5866755, 394.724734 74.5866755, 385.866459 63.602414499999995, 385.866459 63.602414499999995, 394.724734 59.173277, 394.724734 59.173277, 403.583009 63.602414499999995, 403.583009 63.602414499999995, 425.1972 46.06303, 425.1972 46.06303, 442.91375 17.716549999999998, 442.91375 17.716549999999998, 395.9648925 0, 395.9648925 0, 379.04558725 13.110247000000001, 379.04558725 13.110247000000001, 365.93534025 0, 365.93534025 0, 349.016035 17.716549999999998, 349.016035 17.716549999999998, 320.669555 0, 320.669555 0, 292.323075 17.716549999999998, 292.323075 17.716549999999998, 263.976595 0, 263.976595 0, 235.630115 17.716549999999998, 235.630115 17.716549999999998, 207.283635 0, 207.283635 0, 178.93715500000002 17.716549999999998, 178.93715500000002 17.716549999999998, 150.590675 0, 150.590675 0, 122.244195 17.716549999999998, 122.244195 17.716549999999998, 93.897715 0, 93.897715 0, 76.97840975 13.110247000000001, 76.97840975 13.110247000000001, 63.86816275 0, 63.86816275 0, 46.9488575 17.716549999999998, 46.9488575 "/> 
</g>
<!-- Left--> 
<g transform="translate(447.69721849999996, 22.5000185) " > 
<polygon style="stroke:#000000; fill:none; stroke-width:0.90000074" points="0, 17.716549999999998 28.34648, 17.716549999999998 28.34648, 0 56.69296, 0 56.69296, 17.716549999999998 65.37406949999999, 17.716549999999998 65.37406949999999, 39.330741 60.944931999999994, 39.330741 60.944931999999994, 48.189016 65.37406949999999, 48.189016 65.37406949999999, 57.047291 76.3583305, 57.047291 76.3583305, 48.189016 80.78746799999999, 48.189016 80.78746799999999, 39.330741 76.3583305, 39.330741 76.3583305, 17.716549999999998 85.03944, 17.716549999999998 85.03944, 0 113.38592, 0 113.38592, 17.716549999999998 141.73239999999998, 17.716549999999998 141.73239999999998, 46.9488575 124.01584999999999, 46.9488575 124.01584999999999, 64.93115575 102.40165899999998, 64.93115575 102.40165899999998, 60.502018250000006 93.54338399999997, 60.502018250000006 93.54338399999997, 64.93115575 84.68510899999998, 64.93115575 84.68510899999998, 75.91541675 93.54338399999997, 75.91541675 93.54338399999997, 80.34455425 102.40165899999998, 80.34455425 102.40165899999998, 75.91541675 124.01584999999999, 75.91541675 124.01584999999999, 93.897715 141.73239999999998, 93.897715 141.73239999999998, 122.244195 124.01584999999999, 122.244195 124.01584999999999, 150.590675 141.73239999999998, 150.590675 141.73239999999998, 178.93715500000002 124.01584999999999, 178.93715500000002 124.01584999999999, 207.283635 141.73239999999998, 207.283635 141.73239999999998, 235.630115 124.01584999999999, 235.630115 124.01584999999999, 263.976595 141.73239999999998, 263.976595 141.73239999999998, 292.323075 124.01584999999999, 292.323075 124.01584999999999, 320.669555 141.73239999999998, 320.669555 141.73239999999998, 349.016035 124.01584999999999, 349.016035 124.01584999999999, 366.99833325000003 102.40165899999998, 366.99833325000003 102.40165899999998, 362.56919575 93.54338399999997, 362.56919575 93.54338399999997, 366.99833325000003 84.68510899999998, 366.99833325000003 84.68510899999998, 377.98259425 93.54338399999997, 377.98259425 93.54338399999997, 382.41173175 102.40165899999998, 382.41173175 102.40165899999998, 377.98259425 124.01584999999999, 377.98259425 124.01584999999999, 395.9648925 141.73239999999998, 395.9648925 141.73239999999998, 425.1972 113.38592, 425.1972 113.38592, 442.91375 85.03944, 442.91375 85.03944, 425.1972 76.3583305, 425.1972 76.3583305, 403.583009 80.78746799999999, 403.583009 80.78746799999999, 394.724734 76.3583305, 394.724734 76.3583305, 385.866459 65.37406949999999, 385.866459 65.37406949999999, 394.724734 60.944931999999994, 394.724734 60.944931999999994, 403.583009 65.37406949999999, 403.583009 65.37406949999999, 425.1972 56.69296, 425.1972 56.69296, 442.91375 28.34648, 442.91375 28.34648, 425.1972 0, 425.1972 0, 395.9648925 17.716549999999998, 395.9648925 17.716549999999998, 377.98259425 39.330741, 377.98259425 39.330741, 382.41173175 48.189016, 382.41173175 48.189016, 377.98259425 57.047291, 377.98259425 57.047291, 366.99833325000003 48.189016, 366.99833325000003 48.189016, 362.56919575 39.330741, 362.56919575 39.330741, 366.99833325000003 17.716549999999998, 366.99833325000003 17.716549999999998, 349.016035 0, 349.016035 0, 320.669555 17.716549999999998, 320.669555 17.716549999999998, 292.323075 0, 292.323075 0, 263.976595 17.716549999999998, 263.976595 17.716549999999998, 235.630115 0, 235.630115 0, 207.283635 17.716549999999998, 207.283635 17.716549999999998, 178.93715500000002 0, 178.93715500000002 0, 150.590675 17.716549999999998, 150.590675 17.716549999999998, 122.244195 0, 122.244195 0, 93.897715 17.716549999999998, 93.897715 17.716549999999998, 75.91541675 39.330741, 75.91541675 39.330741, 80.34455425 48.189016, 80.34455425 48.189016, 75.91541675 57.047291, 75.91541675 57.047291, 64.93115575 48.189016, 64.93115575 48.189016, 60.502018250000006 39.330741, 60.502018250000006 39.330741, 64.93115575 17.716549999999998, 64.93115575 17.716549999999998, 46.9488575 0, 46.9488575 "/> 
</g>
<!-- Right--> 
<g transform="translate(447.69721849999996, 465.41376849999995) " > 
<polygon style="stroke:#000000; fill:none; stroke-width:0.90000074" points="0, 17.716549999999998 28.34648, 17.716549999999998 28.34648, 0 56.69296, 0 56.69296, 17.716549999999998 65.37406949999999, 17.716549999999998 65.37406949999999, 39.330741 60.944931999999994, 39.330741 60.944931999999994, 48.189016 65.37406949999999, 48.189016 65.37406949999999, 57.047291 76.3583305, 57.047291 76.3583305, 48.189016 80.78746799999999, 48.189016 80.78746799999999, 39.330741 76.3583305, 39.330741 76.3583305, 17.716549999999998 85.03944, 17.716549999999998 85.03944, 0 113.38592, 0 113.38592, 17.716549999999998 141.73239999999998, 17.716549999999998 141.73239999999998, 46.9488575 124.01584999999999, 46.9488575 124.01584999999999, 64.93115575 102.40165899999998, 64.93115575 102.40165899999998, 60.502018250000006 93.54338399999997, 60.502018250000006 93.54338399999997, 64.93115575 84.68510899999998, 64.93115575 84.68510899999998, 75.91541675 93.54338399999997, 75.91541675 93.54338399999997, 80.34455425 102.40165899999998, 80.34455425 102.40165899999998, 75.91541675 124.01584999999999, 75.91541675 124.01584999999999, 93.897715 141.73239999999998, 93.897715 141.73239999999998, 122.244195 124.01584999999999, 122.244195 124.01584999999999, 150.590675 141.73239999999998, 150.590675 141.73239999999998, 178.93715500000002 124.01584999999999, 178.93715500000002 124.01584999999999, 207.283635 141.73239999999998, 207.283635 141.73239999999998, 235.630115 124.01584999999999, 235.630115 124.01584999999999, 263.976595 141.73239999999998, 263.976595 141.73239999999998, 292.323075 124.01584999999999, 292.323075 124.01584999999999, 320.669555 141.73239999999998, 320.669555 141.73239999999998, 349.016035 124.01584999999999, 349.016035 124.01584999999999, 366.99833325000003 102.40165899999998, 366.99833325000003 102.40165899999998, 362.56919575 93.54338399999997, 362.56919575 93.54338399999997, 366.99833325000003 84.68510899999998, 366.99833325000003 84.68510899999998, 377.98259425 93.54338399999997, 377.98259425 93.54338399999997, 382.41173175 102.40165899999998, 382.41173175 102.40165899999998, 377.98259425 124.01584999999999, 377.98259425 124.01584999999999, 395.9648925 141.73239999999998, 395.9648925 141.73239999999998, 425.1972 113.38592, 425.1972 113.38592, 442.91375 85.03944, 442.91375 85.03944, 425.1972 76.3583305, 425.1972 76.3583305, 403.583009 80.78746799999999, 403.583009 80.78746799999999, 394.724734 76.3583305, 394.724734 76.3583305, 385.866459 65.37406949999999, 385.866459 65.37406949999999, 394.724734 60.944931999999994, 394.724734 60.944931999999994, 403.583009 65.37406949999999, 403.583009 65.37406949999999, 425.1972 56.69296, 425.1972 56.69296, 442.91375 28.34648, 442.91375 28.34648, 425.1972 0, 425.1972 0, 395.9648925 17.716549999999998, 395.9648925 17.716549999999998, 377.98259425 39.330741, 377.98259425 39.330741, 382.41173175 48.189016, 382.41173175 48.189016, 377.98259425 57.047291, 377.98259425 57.047291, 366.99833325000003 48.189016, 366.99833325000003 48.189016, 362.56919575 39.330741, 362.56919575 39.330741, 366.99833325000003 17.716549999999998, 366.99833325000003 17.716549999999998, 349.016035 0, 349.016035 0, 320.669555 17.716549999999998, 320.669555 17.716549999999998, 292.323075 0, 292.323075 0, 263.976595 17.716549999999998, 263.976595 17.716549999999998, 235.630115 0, 235.630115 0, 207.283635 17.716549999999998, 207.283635 17.716549999999998, 178.93715500000002 0, 178.93715500000002 0, 150.590675 17.716549999999998, 150.590675 17.716549999999998, 122.244195 0, 122.244195 0, 93.897715 17.716549999999998, 93.897715 17.716549999999998, 75.91541675 39.330741, 75.91541675 39.330741, 80.34455425 48.189016, 80.34455425 48.189016, 75.91541675 57.047291, 75.91541675 57.047291, 64.93115575 48.189016, 64.93115575 48.189016, 60.502018250000006 39.330741, 60.502018250000006 39.330741, 64.93115575 17.716549999999998, 64.93115575 17.716549999999998, 46.9488575 0, 46.9488575 "/> 
</g>
<!-- Top--> 
<g transform="translate(22.5000185, 465.41376849999995) " > 
<polygon style="stroke:#000000; fill:none; stroke-width:0.90000074" points="0, 17.716549999999998 46.06303, 17.716549999999998 46.06303, 0 62.539421499999996, 0 62.539421499999996, 13.110247000000001 75.64966849999999, 13.110247000000001 75.64966849999999, 0 92.12606, 0 92.12606, 17.716549999999998 120.47254, 17.716549999999998 120.47254, 0 136.9489315, 0 136.9489315, 13.110247000000001 150.0591785, 13.110247000000001 150.0591785, 0 166.53557, 0 166.53557, 17.716549999999998 212.5986, 17.716549999999998 212.5986, 28.34648 194.88205, 28.34648 194.88205, 56.69296 212.5986, 56.69296 212.5986, 64.31107649999998 199.48835300000002, 64.31107649999998 199.48835300000002, 77.4213235 212.5986, 77.4213235 212.5986, 85.03944 194.88205, 85.03944 194.88205, 113.38592 212.5986, 113.38592 212.59859999999998, 124.01584999999999 166.53557, 124.01584999999999 166.53557, 141.73239999999998 150.0591785, 141.73239999999998 150.0591785, 128.62215299999997 136.9489315, 128.62215299999997 136.9489315, 141.73239999999998 120.47254, 141.73239999999998 120.47254, 124.01584999999999 92.12606, 124.01584999999999 92.12606, 141.73239999999998 75.64966849999999, 141.73239999999998 75.64966849999999, 128.62215299999997 62.539421499999996, 128.62215299999997 62.539421499999996, 141.73239999999998 46.06303, 141.73239999999998 46.06303, 124.01584999999999 0, 124.01584999999999 0, 113.38592 17.716549999999998, 113.38592 17.716549999999998, 85.03944 0, 85.03944 0, 77.4213235 13.110247000000001, 77.4213235 13.110247000000001, 64.31107649999998 0, 64.31107649999998 0, 56.69296 17.716549999999998, 56.69296 17.716549999999998, 28.34648 0, 28.34648 "/> 
</g>
<!-- Bottom--> 
<g transform="translate(235.0986185, 465.41376849999995) " > 
<polygon style="stroke:#000000; fill:none; stroke-width:0.90000074" points="0, 17.716549999999998 46.06303, 17.716549999999998 46.06303, 0 62.539421499999996, 0 62.539421499999996, 13.110247000000001 75.64966849999999, 13.110247000000001 75.64966849999999, 0 92.12606, 0 92.12606, 17.716549999999998 120.47254, 17.716549999999998 120.47254, 0 136.9489315, 0 136.9489315, 13.110247000000001 150.0591785, 13.110247000000001 150.0591785, 0 166.53557, 0 166.53557, 17.716549999999998 212.5986, 17.716549999999998 212.5986, 28.34648 194.88205, 28.34648 194.88205, 56.69296 212.5986, 56.69296 212.5986, 64.31107649999998 199.48835300000002, 64.31107649999998 199.48835300000002, 77.4213235 212.5986, 77.4213235 212.5986, 85.03944 194.88205, 85.03944 194.88205, 113.38592 212.5986, 113.38592 212.59859999999998, 124.01584999999999 166.53557, 124.01584999999999 166.53557, 141.73239999999998 150.0591785, 141.73239999999998 150.0591785, 128.62215299999997 136.9489315, 128.62215299999997 136.9489315, 141.73239999999998 120.47254, 141.73239999999998 120.47254, 124.01584999999999 92.12606, 124.01584999999999 92.12606, 141.73239999999998 75.64966849999999, 141.73239999999998 75.64966849999999, 128.62215299999997 62.539421499999996, 128.62215299999997 62.539421499999996, 141.73239999999998 46.06303, 141.73239999999998 46.06303, 124.01584999999999 0, 124.01584999999999 0, 113.38592 17.716549999999998, 113.38592 17.716549999999998, 85.03944 0, 85.03944 0, 77.4213235 13.110247000000001, 77.4213235 13.110247000000001, 64.31107649999998 0, 64.31107649999998 0, 56.69296 17.716549999999998, 56.69296 17.716549999999998, 28.34648 0, 28.34648 "/> 
</g></svg>