<svg xmlns="http://www.w3.org/2000/svg" version="1.1" width="202.7mm" height="291.7mm" viewBox = " 0 0 718.228937 1033.583527" >
<!-- Front--> 
<g transform="translate(22.5000185, 22.5000185) " > 
<polygon style="stroke:#000000; fill:none; stroke-width:0.90000074" points="17.716549999999998, 0 31.0039625, 0 31.0039625, 17.716549999999998 41.01381325, 17.716549999999998 41.01381325, 39.330741 36.58467575, 39.330741 36.58467575, 48.189016 41.01381325, 48.189016 41.01381325, 57.047291 51.99807425, 57.047291 51.99807425, 48.189016 56.42721175, 48.189016 56.42721175, 39.330741 51.99807425, 39.330741 51.99807425, 17.716549999999998 62.007925, 17.716549999999998 62.007925, 0 86.811095, 0 86.811095, 17.716549999999998 111.614265, 17.716549999999998 111.614265, 0 136.417435, 0 136.417435, 17.716549999999998 161.220605, 17.716549999999998 161.220605, 0 186.023775, 0 186.023775, 17.716549999999998 196.03362575, 17.716549999999998 196.03362575, 39.330741 191.60448825, 39.330741 191.60448825, 48.189016 196.03362575, 48.189016 196.03362575, 57.047291 207.01788675, 57.047291 207.01788675, 48.189016 211.44702425, 48.189016 211.44702425, 39.330741 207.01788675, 39.330741 207.01788675, 17.716549999999998 217.0277375, 17.716549999999998 217.0277375, 0 230.31515000000002, 0 230.31515000000002, 42.96263375 248.0317, 42.96263375 248.0317, 57.888827125 234.92145299999999, 57.888827125 234.92145299999999, 70.99907412499999 248.0317, 70.99907412499999 248.0317, 85.9252675 230.31515000000002, 85.9252675 230.31515000000002, 110.72843750000001 248.0317, 110.72843750000001 248.0317, 135.5316075 230.31515000000002, 135.5316075 230.31515000000002, 160.33477750000003 248.0317, 160.33477750000003 248.0317, 185.1379475 230.31515000000002, 185.1379475 230.31515000000002, 209.94111750000002 248.0317, 209.94111750000002 248.0317, 234.74428750000004 230.31515000000002, 234.74428750000004 230.31515000000002, 259.5474575 248.0317, 259.5474575 248.0317, 284.35062750000003 230.31515000000002, 284.35062750000003 230.31515000000002, 309.1537975 248.0317, 309.1537975 248.0317, 333.9569675 230.31515000000002, 333.9569675 230.31515000000002, 358.76013750000004 248.0317, 358.76013750000004 248.0317, 383.56330750000006 230.31515000000002, 383.56330750000006 230.31515000000002, 408.36647750000003 248.0317, 408.36647750000003 248.0317, 423.29267087500006 234.92145299999999, 423.29267087500006 234.92145299999999, 436.402917875 248.0317, 436.402917875 248.0317, 451.32911125 230.31515000000002, 451.32911125 230.31515000000002, 494.291745 217.0277375, 494.291745 217.0277375, 476.575195 207.01788675, 476.575195 207.01788675, 454.961004 211.44702425, 454.961004 211.44702425, 446.102729 207.01788675, 446.102729 207.01788675, 437.244454 196.03362575, 437.244454 196.03362575, 446.102729 191.60448825, 446.102729 191.60448825, 454.961004 196.03362575, 454.961004 196.03362575, 476.575195 186.023775, 476.575195 186.023775, 494.291745 161.220605, 494.291745 161.220605, 476.575195 136.417435, 476.575195 136.417435, 494.291745 111.614265, 494.291745 111.614265, 476.575195 86.811095, 476.575195 86.811095, 494.291745 62.007925, 494.291745 62.007925, 476.575195 51.99807425, 476.575195 51.99807425, 454.961004 56.42721175, 454.961004 56.42721175, 446.102729 51.99807425, 446.102729 51.99807425, 437.244454 41.01381325, 437.244454 41.01381325, 446.102729 36.58467575, 446.102729 36.58467575, 454.961004 41.01381325, 454.961004 41.01381325, 476.575195 31.0039625, 476.575195 31.0039625, 494.291745 17.716549999999998, 494.291745 17.716549999999998, 451.32911125 0, 451.32911125 0, 436.402917875 13.110247000000001, 436.402917875 13.110247000000001, 423.29267087500006 0, 423.29267087500006 0, 408.36647750000003 17.716549999999998, 408.36647750000003 17.716549999999998, 383.56330750000006 0, 383.56330750000006 0, 358.76013750000004 17.716549999999998, 358.76013750000004 17.716549999999998, 333.9569675 0, 333.9569675 0, 309.1537975 17.716549999999998, 309.1537975 17.716549999999998, 284.35062750000003 0, 284.35062750000003 0, 259.5474575 17.716549999999998, 259.5474575 17.716549999999998, 234.74428750000004 0, 234.74428750000004 0, 209.94111750000002 17.716549999999998, 209.94111750000002 17.716549999999998, 185.1379475 0, 185.1379475 0, 160.33477750000003 17.716549999999998, 160.33477750000003 17.716549999999998, 135.5316075 0, 135.5316075 0, 110.72843750000001 17.716549999999998, 110.72843750000001 17.716549999999998, 85.9252675 0, 85.9252675 0, 70.99907412499999 13.110247000000001, 70.99907412499999 13.110247000000001, 57.888827125 0, 57.888827125 0, 42.96263375 17.716549999999998, 42.96263375 "/> 
</g>
<!-- Back--> 
<g transform="translate(270.53171849999995, 22.5000185) " > 
<polygon style="stroke:#000000; fill:none; stroke-width:0.90000074" points="17.716549999999998, 0 31.0039625, 0 31.0039625, 17.716549999999998 41.01381325, 17.716549999999998 41.01381325, 39.330741 36.58467575, 39.330741 36.58467575, 48.189016 41.01381325, 48.189016 41.01381325, 57.047291 51.99807425, 57.047291 51.99807425, 48.189016 56.42721175, 48.189016 56.42721175, 39.330741 51.99807425, 39.330741 51.99807425, 17.716549999999998 62.007925, 17.716549999999998 62.007925, 0 86.811095, 0 86.811095, 17.716549999999998 111.614265, 17.716549999999998 111.614265, 0 136.417435, 0 136.417435, 17.716549999999998 161.220605, 17.716549999999998 161.220605, 0 186.023775, 0 186.023775, 17.716549999999998 196.03362575, 17.716549999999998 196.03362575, 39.330741 191.60448825, 39.330741 191.60448825, 48.189016 196.03362575, 48.189016 196.03362575, 57.047291 207.01788675, 57.047291 207.01788675, 48.189016 211.44702425, 48.189016 211.44702425, 39.330741 207.01788675, 39.330741 207.01788675, 17.716549999999998 217.0277375, 17.716549999999998 217.0277375, 0 230.31515000000002, 0 230.31515000000002, 42.96263375 248.0317, 42.96263375 248.0317, 57.888827125 234.92145299999999, 57.888827125 234.92145299999999, 70.99907412499999 248.0317, 70.99907412499999 248.0317, 85.9252675 230.31515000000002, 85.9252675 230.31515000000002, 110.72843750000001 248.0317, 110.72843750000001 248.0317, 135.5316075 230.31515000000002, 135.5316075 230.31515000000002, 160.33477750000003 248.0317, 160.33477750000003 248.0317, 185.1379475 230.31515000000002, 185.1379475 230.31515000000002, 209.94111750000002 248.0317, 209.94111750000002 248.0317, 234.74428750000004 230.31515000000002, 234.74428750000004 230.31515000000002, 259.5474575 248.0317, 259.5474575 248.0317, 284.35062750000003 230.31515000000002, 284.35062750000003 230.31515000000002, 309.1537975 248.0317, 309.1537975 248.0317, 333.9569675 230.31515000000002, 333.9569675 230.31515000000002, 358.76013750000004 248.0317, 358.76013750000004 248.0317, 383.56330750000006 230.31515000000002, 383.56330750000006 230.31515000000002, 408.36647750000003 248.0317, 408.36647750000003 248.0317, 423.29267087500006 234.92145299999999, 423.29267087500006 234.92145299999999, 436.402917875 248.0317, 436.402917875 248.0317, 451.32911125 230.31515000000002, 451.32911125 230.31515000000002, 494.291745 217.0277375, 494.291745 217.0277375, 476.575195 207.01788675, 476.575195 207.01788675, 454.961004 211.44702425, 454.961004 211.44702425, 446.102729 207.01788675, 446.102729 207.01788675, 437.244454 196.03362575, 437.244454 196.03362575, 446.102729 191.60448825, 446.102729 191.60448825, 454.961004 196.03362575, 454.961004 196.03362575, 476.575195 186.023775, 476.575195 186.023775, 494.291745 161.220605, 494.291745 161.220605, 476.575195 136.417435, 476.575195 136.417435, 494.291745 111.614265, 494.291745 111.614265, 476.575195 86.811095, 476.575195 86.811095, 494.291745 62.007925, 494.291745 62.007925, 476.575195 51.99807425, 476.575195 51.99807425, 454.961004 56.42721175, 454.961004 56.42721175, 446.102729 51.99807425, 446.102729 51.99807425, 437.244454 41.01381325, 437.244454 41.01381325, 446.102729 36.58467575, 446.102729 36.58467575, 454.961004 41.01381325, 454.961004 41.01381325, 476.575195 31.0039625, 476.575195 31.0039625, 494.291745 17.716549999999998, 494.291745 17.716549999999998, 451.32911125 0, 451.32911125 0, 436.402917875 13.110247000000001, 436.402917875 13.110247000000001, 423.29267087500006 0, 423.29267087500006 0, 408.36647750000003 17.716549999999998, 408.36647750000003 17.716549999999998, 383.56330750000006 0, 383.56330750000006 0, 358.76013750000004 17.716549999999998, 358.76013750000004 17.716549999999998, 333.9569675 0, 333.9569675 0, 309.1537975 17.716549999999998, 309.1537975 17.716549999999998, 284.35062750000003 0, 284.35062750000003 0, 259.5474575 17.716549999999998, 259.5474575 17.716549999999998, 234.74428750000004 0, 234.74428750000004 0, 209.94111750000002 17.716549999999998, 209.94111750000002 17.716549999999998, 185.1379475 0, 185.1379475 0, 160.33477750000003 17.716549999999998, 160.33477750000003 17.716549999999998, 135.5316075 0, 135.5316075 0, 110.72843750000001 17.716549999999998, 110.72843750000001 17.716549999999998, 85.9252675 0, 85.9252675 0, 70.99907412499999 13.110247000000001, 70.99907412499999 13.110247000000001, 57.888827125 0, 57.888827125 0, 42.96263375 17.716549999999998, 42.96263375 "/> 
</g>
<!-- Left--> 
<g transform="translate(518.5634185, 22.5000185) " > 
<polygon style="stroke:#000000; fill:none; stroke-width:0.90000074" points="0, 17.716549999999998 38.0905825, 17.716549999999998 38.0905825, 0 50.580750249999994, 0 50.580750249999994, 13.110247000000001 63.690997249999995, 13.110247000000001 63.690997249999995, 0 76.181165, 0 76.181165, 17.716549999999998 100.98433499999999, 17.716549999999998 100.98433499999999, 0 113.47450274999997, 0 113.47450274999997, 13.110247000000001 126.58474974999999, 13.110247000000001 126.58474974999999, 0 139.0749175, 0 139.0749175, 17.716549999999998 177.1655, 17.716549999999998 177.1655, 42.96263375 159.44895000000002, 42.96263375 159.44895000000002, 58.951820125 137.83475900000002, 58.951820125 137.83475900000002, 54.522682625 128.97648400000003, 54.522682625 128.97648400000003, 58.951820125 120.11820900000002, 58.951820125 120.11820900000002, 69.936081125 128.97648400000003, 69.936081125 128.97648400000003, 74.365218625 137.83475900000002, 74.365218625 137.83475900000002, 69.936081125 159.44895000000002, 69.936081125 159.44895000000002, 85.9252675 177.1655, 85.9252675 177.1655, 110.72843750000001 159.44895000000002, 110.72843750000001 159.44895000000002, 135.5316075 177.1655, 135.5316075 177.1655, 160.33477750000003 159.44895000000002, 160.33477750000003 159.44895000000002, 185.1379475 177.1655, 185.1379475 177.1655, 209.94111750000002 159.44895000000002, 209.94111750000002 159.44895000000002, 234.74428750000004 177.1655, 234.74428750000004 177.1655, 259.5474575 159.44895000000002, 259.5474575 159.44895000000002, 284.35062750000003 177.1655, 284.35062750000003 177.1655, 309.1537975 159.44895000000002, 309.1537975 159.44895000000002, 333.9569675 177.1655, 333.9569675 177.1655, 358.76013750000004 159.44895000000002, 358.76013750000004 159.44895000000002, 383.56330750000006 177.1655, 383.56330750000006 177.1655, 408.36647750000003 159.44895000000002, 408.36647750000003 159.44895000000002, 424.35566387500006 137.83475900000002, 424.35566387500006 137.83475900000002, 419.92652637500004 128.97648400000003, 419.92652637500004 128.97648400000003, 424.35566387500006 120.11820900000002, 424.35566387500006 120.11820900000002, 435.339924875 128.97648400000003, 435.339924875 128.97648400000003, 439.76906237500003 137.83475900000002, 439.76906237500003 137.83475900000002, 435.339924875 159.44895000000002, 435.339924875 159.44895000000002, 451.32911125 177.1655, 451.32911125 177.16549999999998, 476.575195 139.0749175, 476.575195 139.0749175, 494.291745 126.58474974999999, 494.291745 126.58474974999999, 481.181498 113.47450274999997, 481.181498 113.47450274999997, 494.291745 100.98433499999999, 494.291745 100.98433499999999, 476.575195 76.181165, 476.575195 76.181165, 494.291745 63.690997249999995, 494.291745 63.690997249999995, 481.181498 50.580750249999994, 481.181498 50.580750249999994, 494.291745 38.0905825, 494.291745 38.0905825, 476.575195 0, 476.575195 0, 451.32911125 17.716549999999998, 451.32911125 17.716549999999998, 435.339924875 39.330741, 435.339924875 39.330741, 439.76906237500003 48.189016, 439.76906237500003 48.189016, 435.339924875 57.047291, 435.339924875 57.047291, 424.35566387500006 48.189016, 424.35566387500006 48.189016, 419.92652637500004 39.330741, 419.92652637500004 39.330741, 424.35566387500006 17.716549999999998, 424.35566387500006 17.716549999999998, 408.36647750000003 0, 408.36647750000003 0, 383.56330750000006 17.716549999999998, 383.56330750000006 17.716549999999998, 358.76013750000004 0, 358.76013750000004 0, 333.9569675 17.716549999999998, 333.9569675 17.716549999999998, 309.1537975 0, 309.1537975 0, 284.35062750000003 17.716549999999998, 284.35062750000003 17.716549999999998, 259.5474575 0, 259.5474575 0, 234.74428750000004 17.716549999999998, 234.74428750000004 17.716549999999998, 209.94111750000002 0, 209.94111750000002 0, 185.1379475 17.716549999999998, 185.1379475 17.716549999999998, 160.33477750000003 0, 160.33477750000003 0, 135.5316075 17.716549999999998, 135.5316075 17.716549999999998, 110.72843750000001 0, 110.72843750000001 0, 85.9252675 17.716549999999998, 85.9252675 17.716549999999998, 69.936081125 39.330741, 69.936081125 39.330741, 74.365218625 48.189016, 74.365218625 48.189016, 69.936081125 57.047291, 69.936081125 57.047291, 58.951820125 48.189016, 58.951820125 48.189016, 54.522682625 39.330741, 54.522682625 39.330741, 58.951820125 17.716549999999998, 58.951820125 17.716549999999998, 42.96263375 0, 42.96263375 "/> 
</g>
<!-- Right--> 
<g transform="translate(518.5634185, 516.7917635) " > 
<polygon style="stroke:#000000; fill:none; stroke-width:0.90000074" points="0, 17.716549999999998 38.0905825, 17.716549999999998 38.0905825, 0 50.580750249999994, 0 50.580750249999994, 13.110247000000001 63.690997249999995, 13.110247000000001 63.690997249999995, 0 76.181165, 0 76.181165, 17.716549999999998 100.98433499999999, 17.716549999999998 100.98433499999999, 0 113.47450274999997, 0 113.47450274999997, 13.110247000000001 126.58474974999999, 13.110247000000001 126.58474974999999, 0 139.0749175, 0 139.0749175, 17.716549999999998 177.1655, 17.716549999999998 177.1655, 42.96263375 159.44895000000002, 42.96263375 159.44895000000002, 58.951820125 137.83475900000002, 58.951820125 137.83475900000002, 54.522682625 128.97648400000003, 54.522682625 128.97648400000003, 58.951820125 120.11820900000002, 58.951820125 120.11820900000002, 69.936081125 128.97648400000003, 69.936081125 128.97648400000003, 74.365218625 137.83475900000002, 74.365218625 137.83475900000002, 69.936081125 159.44895000000002, 69.936081125 159.44895000000002, 85.9252675 177.1655, 85.9252675 177.1655, 110.72843750000001 159.44895000000002, 110.72843750000001 159.44895000000002, 135.5316075 177.1655, 135.5316075 177.1655, 160.33477750000003 159.44895000000002, 160.33477750000003 159.44895000000002, 185.1379475 177.1655, 185.1379475 177.1655, 209.94111750000002 159.44895000000002, 209.94111750000002 159.44895000000002, 234.74428750000004 177.1655, 234.74428750000004 177.1655, 259.5474575 159.44895000000002, 259.5474575 159.44895000000002, 284.35062750000003 177.1655, 284.35062750000003 177.1655, 309.1537975 159.44895000000002, 309.1537975 159.44895000000002, 333.9569675 177.1655, 333.9569675 177.1655, 358.76013750000004 159.44895000000002, 358.76013750000004 159.44895000000002, 383.56330750000006 177.1655, 383.56330750000006 177.1655, 408.36647750000003 159.44895000000002, 408.36647750000003 159.44895000000002, 424.35566387500006 137.83475900000002, 424.35566387500006 137.83475900000002, 419.92652637500004 128.97648400000003, 419.92652637500004 128.97648400000003, 424.35566387500006 120.11820900000002, 424.35566387500006 120.11820900000002, 435.339924875 128.97648400000003, 435.339924875 128.97648400000003, 439.76906237500003 137.83475900000002, 439.76906237500003 137.83475900000002, 435.339924875 159.44895000000002, 435.339924875 159.44895000000002, 451.32911125 177.1655, 451.32911125 177.16549999999998, 476.575195 139.0749175, 476.575195 139.0749175, 494.291745 126.58474974999999, 494.291745 126.58474974999999, 481.181498 113.47450274999997, 481.181498 113.47450274999997, 494.291745 100.98433499999999, 494.291745 100.98433499999999, 476.575195 76.181165, 476.575195 76.181165, 494.291745 63.690997249999995, 494.291745 63.690997249999995, 481.181498 50.580750249999994, 481.181498 50.580750249999994, 494.291745 38.0905825, 494.291745 38.0905825, 476.575195 0, 476.575195 0, 451.32911125 17.716549999999998, 451.32911125 17.716549999999998, 435.339924875 39.330741, 435.339924875 39.330741, 439.76906237500003 48.189016, 439.76906237500003 48.189016, 435.339924875 57.047291, 435.339924875 57.047291, 424.35566387500006 48.189016, 424.35566387500006 48.189016, 419.92652637500004 39.330741, 419.92652637500004 39.330741, 424.35566387500006 17.716549999999998, 424.35566387500006 17.716549999999998, 408.36647750000003 0, 408.36647750000003 0, 383.56330750000006 17.716549999999998, 383.56330750000006 17.716549999999998, 358.76013750000004 0, 358.76013750000004 0, 333.9569675 17.716549999999998, 333.9569675 17.716549999999998, 309.1537975 0, 309.1537975 0, 284.35062750000003 17.716549999999998, 284.35062750000003 17.716549999999998, 259.5474575 0, 259.5474575 0, 234.74428750000004 17.716549999999998, 234.74428750000004 17.716549999999998, 209.94111750000002 0, 209.94111750000002 0, 185.1379475 17.716549999999998, 185.1379475 17.716549999999998, 160.33477750000003 0, 160.33477750000003 0, 135.5316075 17.716549999999998, 135.5316075 17.716549999999998, 110.72843750000001 0, 110.72843750000001 0, 85.9252675 17.716549999999998, 85.9252675 17.716549999999998, 69.936081125 39.330741, 69.936081125 39.330741, 74.365218625 48.189016, 74.365218625 48.189016, 69.936081125 57.047291, 69.936081125 57.047291, 58.951820125 48.189016, 58.951820125 48.189016, 54.522682625 39.330741, 54.522682625 39.330741, 58.951820125 17.716549999999998, 58.951820125 17.716549999999998, 42.96263375 0, 42.96263375 "/> 
</g>
<!-- Top--> 
<g transform="translate(22.5000185, 516.7917635) " > 
<polygon style="stroke:#000000; fill:none; stroke-width:0.90000074" points="0, 17.716549999999998 31.0039625, 17.716549999999998 31.0039625, 0 39.95082025, 0 39.95082025, 13.110247000000001 53.06106725, 13.110247000000001 53.06106725, 0 62.007925, 0 62.007925, 17.716549999999998 86.811095, 17.716549999999998 86.811095, 0 111.614265, 0 111.614265, 17.716549999999998 136.417435, 17.716549999999998 136.417435, 0 161.220605, 0 161.220605, 17.716549999999998 186.023775, 17.716549999999998 186.023775, 0 194.97063275, 0 194.97063275, 13.110247000000001 208.08087975, 13.110247000000001 208.08087975, 0 217.0277375, 0 217.0277375, 17.716549999999998 248.0317, 17.716549999999998 248.0317, 38.0905825 230.31515000000002, 38.0905825 230.31515000000002, 51.64374324999999 208.700959, 51.64374324999999 208.700959, 47.21460575 199.84268400000002, 47.21460575 199.84268400000002, 51.64374324999999 190.98440900000003, 51.64374324999999 190.98440900000003, 62.62800425 199.84268400000002, 62.62800425 199.84268400000002, 67.05714175 208.700959, 67.05714175 208.700959, 62.62800425 230.31515000000002, 62.62800425 230.31515000000002, 76.181165 248.0317, 76.181165 248.0317, 100.98433499999999 230.31515000000002, 100.98433499999999 230.31515000000002, 114.53749574999998 208.700959, 114.53749574999998 208.700959, 110.10835824999998 199.84268400000002, 110.10835824999998 199.84268400000002, 114.53749574999998 190.98440900000003, 114.53749574999998 190.98440900000003, 125.52175674999998 199.84268400000002, 125.52175674999998 199.84268400000002, 129.95089424999998 208.700959, 129.95089424999998 208.700959, 125.52175674999998 230.31515000000002, 125.52175674999998 230.31515000000002, 139.0749175 248.0317, 139.0749175 248.0317, 159.44895000000002 217.0277375, 159.44895000000002 217.0277375, 177.1655 208.08087975, 177.1655 208.08087975, 164.055253 194.97063275, 164.055253 194.97063275, 177.1655 186.023775, 177.1655 186.023775, 159.44895000000002 161.220605, 159.44895000000002 161.220605, 177.1655 136.417435, 177.1655 136.417435, 159.44895000000002 111.614265, 159.44895000000002 111.614265, 177.1655 86.811095, 177.1655 86.811095, 159.44895000000002 62.007925, 159.44895000000002 62.007925, 177.1655 53.06106725, 177.1655 53.06106725, 164.055253 39.95082025, 164.055253 39.95082025, 177.1655 31.0039625, 177.1655 31.0039625, 159.44895000000002 0, 159.44894999999997 0, 139.0749175 17.716549999999998, 139.0749175 17.716549999999998, 125.52175674999998 39.330741, 125.52175674999998 39.330741, 129.95089424999998 48.189016, 129.95089424999998 48.189016, 125.52175674999998 57.047291, 125.52175674999998 57.047291, 114.53749574999998 48.189016, 114.53749574999998 48.189016, 110.10835824999998 39.330741, 110.10835824999998 39.330741, 114.53749574999998 17.716549999999998, 114.53749574999998 17.716549999999998, 100.98433499999999 0, 100.98433499999999 0, 76.181165 17.716549999999998, 76.181165 17.716549999999998, 62.62800425 39.330741, 62.62800425 39.330741, 67.05714175 48.189016, 67.05714175 48.189016, 62.62800425 57.047291, 62.62800425 57.047291, 51.64374324999999 48.189016, 51.64374324999999 48.189016, 47.21460575 39.330741, 47.21460575 39.330741, 51.64374324999999 17.716549999999998, 51.64374324999999 17.716549999999998, 38.0905825 0, 38.0905825 "/> 
</g>
<!-- Bottom--> 
<g transform="translate(270.53171849999995, 516.7917635) " > 
<polygon style="stroke:#000000; fill:none; stroke-width:0.90000074" points="0, 17.716549999999998 31.0039625, 17.716549999999998 31.0039625, 0 39.95082025, 0 39.95082025, 13.110247000000001 53.06106725, 13.110247000000001 53.06106725, 0 62.007925, 0 62.007925, 17.716549999999998 86.811095, 17.716549999999998 86.811095, 0 111.614265, 0 111.614265, 17.716549999999998 136.417435, 17.716549999999998 136.417435, 0 161.220605, 0 161.220605, 17.716549999999998 186.023775, 17.716549999999998 186.023775, 0 194.97063275, 0 194.97063275, 13.110247000000001 208.08087975, 13.110247000000001 208.08087975, 0 217.0277375, 0 217.0277375, 17.716549999999998 248.0317, 17.716549999999998 248.0317, 38.0905825 230.31515000000002, 38.0905825 230.31515000000002, 51.64374324999999 208.700959, 51.64374324999999 208.700959, 47.21460575 199.84268400000002, 47.21460575 199.84268400000002, 51.64374324999999 190.98440900000003, 51.64374324999999 190.98440900000003, 62.62800425 199.84268400000002, 62.62800425 199.84268400000002, 67.05714175 208.700959, 67.05714175 208.700959, 62.62800425 230.31515000000002, 62.62800425 230.31515000000002, 76.181165 248.0317, 76.181165 248.0317, 100.98433499999999 230.31515000000002, 100.98433499999999 230.31515000000002, 114.53749574999998 208.700959, 114.53749574999998 208.700959, 110.10835824999998 199.84268400000002, 110.10835824999998 199.84268400000002, 114.53749574999998 190.98440900000003, 114.53749574999998 190.98440900000003, 125.52175674999998 199.84268400000002, 125.52175674999998 199.84268400000002, 129.95089424999998 208.700959, 129.95089424999998 208.700959, 125.52175674999998 230.31515000000002, 125.52175674999998 230.31515000000002, 139.0749175 248.0317, 139.0749175 248.0317, 159.44895000000002 217.0277375, 159.44895000000002 217.0277375, 177.1655 208.08087975, 177.1655 208.08087975, 164.055253 194.97063275, 164.055253 194.97063275, 177.1655 186.023775, 177.1655 186.023775, 159.44895000000002 161.220605, 159.44895000000002 161.220605, 177.1655 136.417435, 177.1655 136.417435, 159.44895000000002 111.614265, 159.44895000000002 111.614265, 177.1655 86.811095, 177.1655 86.811095, 159.44895000000002 62.007925, 159.44895000000002 62.007925, 177.1655 53.06106725, 177.1655 53.06106725, 164.055253 39.95082025, 164.055253 39.95082025, 177.1655 31.0039625, 177.1655 31.0039625, 159.44895000000002 0, 159.44894999999997 0, 139.0749175 17.716549999999998, 139.0749175 17.716549999999998, 125.52175674999998 39.330741, 125.52175674999998 39.330741, 129.95089424999998 48.189016, 129.95089424999998 48.189016, 125.52175674999998 57.047291, 125.52175674999998 57.047291, 114.53749574999998 48.189016, 114.53749574999998 48.189016, 110.10835824999998 39.330741, 110.10835824999998 39.330741, 114.53749574999998 17.716549999999998, 114.53749574999998 17.716549999999998, 100.98433499999999 0, 100.98433499999999 0, 76.181165 17.716549999999998, 76.181165 17.716549999999998, 62.62800425 39.330741, 62.62800425 39.330741, 67.05714175 48.189016, 67.05714175 48.189016, 62.62800425 57.047291, 62.62800425 57.047291, 51.64374324999999 48.189016, 51.64374324999999 48.189016, 47.21460575 39.330741, 47.21460575 39.330741, 51.64374324999999 17.716549999999998, 51.64374324999999 17.716549999999998, 38.0905825 0, 38.0905825 "/> 
</g></svg>