<svg xmlns="http://www.w3.org/2000/svg" version="1.1" width="202.7mm" height="272.7mm" viewBox = " 0 0 718.228937 966.260637" >
<!-- Front--> 
<g transform="translate(22.5000185, 22.5000185) " > 
<polygon style="stroke:#000000; fill:none; stroke-width:0.90000074" points="17.716549999999998, 0 53.14965, 0 53.14965, 17.716549999999998 74.2323445, 17.716549999999998 74.2323445, 39.330741 69.803207, 39.330741 69.803207, 48.189016 74.2323445, 48.189016 74.2323445, 57.047291 85.2166055, 57.047291 85.2166055, 48.189016 89.645743, 48.189016 89.645743, 39.330741 85.2166055, 39.330741 85.2166055, 17.716549999999998 106.2993, 17.716549999999998 106.2993, 0 141.73239999999998, 0 141.73239999999998, 17.716549999999998 162.8150945, 17.716549999999998 162.8150945, 39.330741 158.385957, 39.330741 158.385957, 48.189016 162.8150945, 48.189016 162.8150945, 57.047291 173.7993555, 57.047291 173.7993555, 48.189016 178.228493, 48.189016 178.228493, 39.330741 173.7993555, 39.330741 173.7993555, 17.716549999999998 194.88205, 17.716549999999998 194.88205, 0 230.31515000000002, 0 230.31515000000002, 53.14965 248.0317, 53.14965 248.0317, 73.1693515 234.92145299999999, 73.1693515 234.92145299999999, 86.27959849999999 248.0317, 86.27959849999999 248.0317, 106.2993 230.31515000000002, 106.2993 230.31515000000002, 141.73239999999998 248.0317, 141.73239999999998 248.0317, 177.1655 230.31515000000002, 177.1655 230.31515000000002, 212.59859999999998 248.0317, 212.59859999999998 248.0317, 248.0317 230.31515000000002, 248.0317 230.31515000000002, 283.46479999999997 248.0317, 283.46479999999997 248.0317, 318.8979 230.31515000000002, 318.8979 230.31515000000002, 354.33099999999996 248.0317, 354.33099999999996 248.0317, 374.35070149999996 234.92145299999999, 374.35070149999996 234.92145299999999, 387.4609484999999 248.0317, 387.4609484999999 248.0317, 407.48064999999997 230.31515000000002, 407.48064999999997 230.31515000000002, 460.6303 194.88205, 460.6303 194.88205, 442.91375 173.7993555, 442.91375 173.7993555, 421.299559 178.228493, 421.299559 178.228493, 412.441284 173.7993555, 412.441284 173.7993555, 403.583009 162.8150945, 403.583009 162.8150945, 412.441284 158.385957, 412.441284 158.385957, 421.299559 162.8150945, 421.299559 162.8150945, 442.91375 141.73239999999998, 442.91375 141.73239999999998, 460.6303 106.2993, 460.6303 106.2993, 442.91375 85.2166055, 442.91375 85.2166055, 421.299559 89.645743, 421.299559 89.645743, 412.441284 85.2166055, 412.441284 85.2166055, 403.583009 74.2323445, 403.583009 74.2323445, 412.441284 69.803207, 412.441284 69.803207, 421.299559 74.2323445, 421.299559 74.2323445, 442.91375 53.14965, 442.91375 53.14965, 460.6303 17.716549999999998, 460.6303 17.716549999999998, 407.48064999999997 0, 407.48064999999997 0, 387.4609484999999 13.110247000000001, 387.4609484999999 13.110247000000001, 374.35070149999996 0, 374.35070149999996 0, 354.33099999999996 17.716549999999998, 354.33099999999996 17.716549999999998, 318.8979 0, 318.8979 0, 283.46479999999997 17.716549999999998, 283.46479999999997 17.716549999999998, 248.0317 0, 248.0317 0, 212.59859999999998 17.716549999999998, 212.59859999999998 17.716549999999998, 177.1655 0, 177.1655 0, 141.73239999999998 17.716549999999998, 141.73239999999998 17.716549999999998, 106.2993 0, 106.2993 0, 86.27959849999999 13.110247000000001, 86.27959849999999 13.110247000000001, 73.1693515 0, 73.1693515 0, 53.14965 17.716549999999998, 53.14965 "/> 
</g>
<!-- Back--> 
<g transform="translate(270.53171849999995, 22.5000185) " > 
<polygon style="stroke:#000000; fill:none; stroke-width:0.90000074" points="17.716549999999998, 0 53.14965, 0 53.14965, 17.716549999999998 74.2323445, 17.716549999999998 74.2323445, 39.330741 69.803207, 39.330741 69.803207, 48.189016 74.2323445, 48.189016 74.2323445, 57.047291 85.2166055, 57.047291 85.2166055, 48.189016 89.645743, 48.189016 89.645743, 39.330741 85.2166055, 39.330741 85.2166055, 17.716549999999998 106.2993, 17.716549999999998 106.2993, 0 141.73239999999998, 0 141.73239999999998, 17.716549999999998 162.8150945, 17.716549999999998 162.8150945, 39.330741 158.385957, 39.330741 158.385957, 48.189016 162.8150945, 48.189016 162.8150945, 57.047291 173.7993555, 57.047291 173.7993555, 48.189016 178.228493, 48.189016 178.228493, 39.330741 173.7993555, 39.330741 173.7993555, 17.716549999999998 194.88205, 17.716549999999998 194.88205, 0 230.31515000000002, 0 230.31515000000002, 53.14965 248.0317, 53.14965 248.0317, 73.1693515 234.92145299999999, 73.1693515 234.92145299999999, 86.27959849999999 248.0317, 86.27959849999999 248.0317, 106.2993 230.31515000000002, 106.2993 230.31515000000002, 141.73239999999998 248.0317, 141.73239999999998 248.0317, 177.1655 230.31515000000002, 177.1655 230.31515000000002, 212.59859999999998 248.0317, 212.59859999999998 248.0317, 248.0317 230.31515000000002, 248.0317 230.31515000000002, 283.46479999999997 248.0317, 283.46479999999997 248.0317, 318.8979 230.31515000000002, 318.8979 230.31515000000002, 354.33099999999996 248.0317, 354.33099999999996 248.0317, 374.35070149999996 234.92145299999999, 374.35070149999996 234.92145299999999, 387.4609484999999 248.0317, 387.4609484999999 248.0317, 407.48064999999997 230.31515000000002, 407.48064999999997 230.31515000000002, 460.6303 194.88205, 460.6303 194.88205, 442.91375 173.7993555, 442.91375 173.7993555, 421.299559 178.228493, 421.299559 178.228493, 412.441284 173.7993555, 412.441284 173.7993555, 403.583009 162.8150945, 403.583009 162.8150945, 412.441284 158.385957, 412.441284 158.385957, 421.299559 162.8150945, 421.299559 162.8150945, 442.91375 141.73239999999998, 442.91375 141.73239999999998, 460.6303 106.2993, 460.6303 106.2993, 442.91375 85.2166055, 442.91375 85.2166055, 421.299559 89.645743, 421.299559 89.645743, 412.441284 85.2166055, 412.441284 85.2166055, 403.583009 74.2323445, 403.583009 74.2323445, 412.441284 69.803207, 412.441284 69.803207, 421.299559 74.2323445, 421.299559 74.2323445, 442.91375 53.14965, 442.91375 53.14965, 460.6303 17.716549999999998, 460.6303 17.716549999999998, 407.48064999999997 0, 407.48064999999997 0, 387.4609484999999 13.110247000000001, 387.4609484999999 13.110247000000001, 374.35070149999996 0, 374.35070149999996 0, 354.33099999999996 17.716549999999998, 354.33099999999996 17.716549999999998, 318.8979 0, 318.8979 0, 283.46479999999997 17.716549999999998, 283.46479999999997 17.716549999999998, 248.0317 0, 248.0317 0, 212.59859999999998 17.716549999999998, 212.59859999999998 17.716549999999998, 177.1655 0, 177.1655 0, 141.73239999999998 17.716549999999998, 141.73239999999998 17.716549999999998, 106.2993 0, 106.2993 0, 86.27959849999999 13.110247000000001, 86.27959849999999 13.110247000000001, 73.1693515 0, 73.1693515 0, 53.14965 17.716549999999998, 53.14965 "/> 
</g>
<!-- Left--> 
<g transform="translate(518.5634185, 22.5000185) " > 
<polygon style="stroke:#000000; fill:none; stroke-width:0.90000074" points="0, 17.716549999999998 35.433099999999996, 17.716549999999998 35.433099999999996, 0 70.86619999999999, 0 70.86619999999999, 17.716549999999998 83.09061949999999, 17.716549999999998 83.09061949999999, 39.330741 78.66148199999999, 39.330741 78.66148199999999, 48.189016 83.09061949999999, 48.189016 83.09061949999999, 57.047291 94.07488049999999, 57.047291 94.07488049999999, 48.189016 98.50401799999999, 48.189016 98.50401799999999, 39.330741 94.07488049999999, 39.330741 94.07488049999999, 17.716549999999998 106.29929999999999, 17.716549999999998 106.29929999999999, 0 141.73239999999998, 0 141.73239999999998, 17.716549999999998 177.1655, 17.716549999999998 177.1655, 53.14965 159.44895000000002, 53.14965 159.44895000000002, 74.2323445 137.83475900000002, 74.2323445 137.83475900000002, 69.803207 128.97648400000003, 69.803207 128.97648400000003, 74.2323445 120.11820900000002, 74.2323445 120.11820900000002, 85.2166055 128.97648400000003, 85.2166055 128.97648400000003, 89.645743 137.83475900000002, 89.645743 137.83475900000002, 85.2166055 159.44895000000002, 85.2166055 159.44895000000002, 106.2993 177.1655, 106.2993 177.1655, 141.73239999999998 159.44895000000002, 141.73239999999998 159.44895000000002, 177.1655 177.1655, 177.1655 177.1655, 212.59859999999998 159.44895000000002, 212.59859999999998 159.44895000000002, 248.0317 177.1655, 248.0317 177.1655, 283.46479999999997 159.44895000000002, 283.46479999999997 159.44895000000002, 318.8979 177.1655, 318.8979 177.1655, 354.33099999999996 159.44895000000002, 354.33099999999996 159.44895000000002, 375.41369449999996 137.83475900000002, 375.41369449999996 137.83475900000002, 370.98455699999994 128.97648400000003, 370.98455699999994 128.97648400000003, 375.41369449999996 120.11820900000002, 375.41369449999996 120.11820900000002, 386.3979554999999 128.97648400000003, 386.3979554999999 128.97648400000003, 390.82709299999993 137.83475900000002, 390.82709299999993 137.83475900000002, 386.3979554999999 159.44895000000002, 386.3979554999999 159.44895000000002, 407.48064999999997 177.1655, 407.48064999999997 177.16549999999998, 442.91375 141.73239999999998, 442.91375 141.73239999999998, 460.6303 106.29929999999999, 460.6303 106.29929999999999, 442.91375 94.07488049999999, 442.91375 94.07488049999999, 421.299559 98.50401799999999, 421.299559 98.50401799999999, 412.441284 94.07488049999999, 412.441284 94.07488049999999, 403.583009 83.09061949999999, 403.583009 83.09061949999999, 412.441284 78.66148199999999, 412.441284 78.66148199999999, 421.299559 83.09061949999999, 421.299559 83.09061949999999, 442.91375 70.86619999999999, 442.91375 70.86619999999999, 460.6303 35.433099999999996, 460.6303 35.433099999999996, 442.91375 0, 442.91375 0, 407.48064999999997 17.716549999999998, 407.48064999999997 17.716549999999998, 386.3979554999999 39.330741, 386.3979554999999 39.330741, 390.82709299999993 48.189016, 390.82709299999993 48.189016, 386.3979554999999 57.047291, 386.3979554999999 57.047291, 375.41369449999996 48.189016, 375.41369449999996 48.189016, 370.98455699999994 39.330741, 370.98455699999994 39.330741, 375.41369449999996 17.716549999999998, 375.41369449999996 17.716549999999998, 354.33099999999996 0, 354.33099999999996 0, 318.8979 17.716549999999998, 318.8979 17.716549999999998, 283.46479999999997 0, 283.46479999999997 0, 248.0317 17.716549999999998, 248.0317 17.716549999999998, 212.59859999999998 0, 212.59859999999998 0, 177.1655 17.716549999999998, 177.1655 17.716549999999998, 141.73239999999998 0, 141.73239999999998 0, 106.2993 17.716549999999998, 106.2993 17.716549999999998, 85.2166055 39.330741, 85.2166055 39.330741, 89.645743 48.189016, 89.645743 48.189016, 85.2166055 57.047291, 85.2166055 57.047291, 74.2323445 48.189016, 74.2323445 48.189016, 69.803207 39.330741, 69.803207 39.330741, 74.2323445 17.716549999999998, 74.2323445 17.716549999999998, 53.14965 0, 53.14965 "/> 
</g>
<!-- Right--> 
<g transform="translate(518.5634185, 483.1303185) " > 
<polygon style="stroke:#000000; fill:none; stroke-width:0.90000074" points="0, 17.716549999999998 35.433099999999996, 17.716549999999998 35.433099999999996, 0 70.86619999999999, 0 70.86619999999999, 17.716549999999998 83.09061949999999, 17.716549999999998 83.09061949999999, 39.330741 78.66148199999999, 39.330741 78.66148199999999, 48.189016 83.09061949999999, 48.189016 83.09061949999999, 57.047291 94.07488049999999, 57.047291 94.07488049999999, 48.189016 98.50401799999999, 48.189016 98.50401799999999, 39.330741 94.07488049999999, 39.330741 94.07488049999999, 17.716549999999998 106.29929999999999, 17.716549999999998 106.29929999999999, 0 141.73239999999998, 0 141.73239999999998, 17.716549999999998 177.1655, 17.716549999999998 177.1655, 53.14965 159.44895000000002, 53.14965 159.44895000000002, 74.2323445 137.83475900000002, 74.2323445 137.83475900000002, 69.803207 128.97648400000003, 69.803207 128.97648400000003, 74.2323445 120.11820900000002, 74.2323445 120.11820900000002, 85.2166055 128.97648400000003, 85.2166055 128.97648400000003, 89.645743 137.83475900000002, 89.645743 137.83475900000002, 85.2166055 159.44895000000002, 85.2166055 159.44895000000002, 106.2993 177.1655, 106.2993 177.1655, 141.73239999999998 159.44895000000002, 141.73239999999998 159.44895000000002, 177.1655 177.1655, 177.1655 177.1655, 212.59859999999998 159.44895000000002, 212.59859999999998 159.44895000000002, 248.0317 177.1655, 248.0317 177.1655, 283.46479999999997 159.44895000000002, 283.46479999999997 159.44895000000002, 318.8979 177.1655, 318.8979 177.1655, 354.33099999999996 159.44895000000002, 354.33099999999996 159.44895000000002, 375.41369449999996 137.83475900000002, 375.41369449999996 137.83475900000002, 370.98455699999994 128.97648400000003, 370.98455699999994 128.97648400000003, 375.41369449999996 120.11820900000002, 375.41369449999996 120.11820900000002, 386.3979554999999 128.97648400000003, 386.3979554999999 128.97648400000003, 390.82709299999993 137.83475900000002, 390.82709299999993 137.83475900000002, 386.3979554999999 159.44895000000002, 386.3979554999999 159.44895000000002, 407.48064999999997 177.1655, 407.48064999999997 177.16549999999998, 442.91375 141.73239999999998, 442.91375 141.73239999999998, 460.6303 106.29929999999999, 460.6303 106.29929999999999, 442.91375 94.07488049999999, 442.91375 94.07488049999999, 421.299559 98.50401799999999, 421.299559 98.50401799999999, 412.441284 94.07488049999999, 412.441284 94.07488049999999, 403.583009 83.09061949999999, 403.583009 83.09061949999999, 412.441284 78.66148199999999, 412.441284 78.66148199999999, 421.299559 83.09061949999999, 421.299559 83.09061949999999, 442.91375 70.86619999999999, 442.91375 70.86619999999999, 460.6303 35.433099999999996, 460.6303 35.433099999999996, 442.91375 0, 442.91375 0, 407.48064999999997 17.716549999999998, 407.48064999999997 17.716549999999998, 386.3979554999999 39.330741, 386.3979554999999 39.330741, 390.82709299999993 48.189016, 390.82709299999993 48.189016, 386.3979554999999 57.047291, 386.3979554999999 57.047291, 375.41369449999996 48.189016, 375.41369449999996 48.189016, 370.98455699999994 39.330741, 370.98455699999994 39.330741, 375.41369449999996 17.716549999999998, 375.41369449999996 17.716549999999998, 354.33099999999996 0, 354.33099999999996 0, 318.8979 17.716549999999998, 318.8979 17.716549999999998, 283.46479999999997 0, 283.46479999999997 0, 248.0317 17.716549999999998, 248.0317 17.716549999999998, 212.59859999999998 0, 212.59859999999998 0, 177.1655 17.716549999999998, 177.1655 17.716549999999998, 141.73239999999998 0, 141.73239999999998 0, 106.2993 17.716549999999998, 106.2993 17.716549999999998, 85.2166055 39.330741, 85.2166055 39.330741, 89.645743 48.189016, 89.645743 48.189016, 85.2166055 57.047291, 85.2166055 57.047291, 74.2323445 48.189016, 74.2323445 48.189016, 69.803207 39.330741, 69.803207 39.330741, 74.2323445 17.716549999999998, 74.2323445 17.716549999999998, 53.14965 0, 53.14965 "/> 
</g>
<!-- Top--> 
<g transform="translate(22.5000185, 483.1303185) " > 
<polygon style="stroke:#000000; fill:none; stroke-width:0.90000074" points="0, 17.716549999999998 53.14965, 17.716549999999998 53.14965, 0 73.1693515, 0 73.1693515, 13.110247000000001 86.27959849999999, 13.110247000000001 86.27959849999999, 0 106.2993, 0 106.2993, 17.716549999999998 141.73239999999998, 17.716549999999998 141.73239999999998, 0 161.75210149999998, 0 161.75210149999998, 13.110247000000001 174.8623485, 13.110247000000001 174.8623485, 0 194.88205, 0 194.88205, 17.716549999999998 248.0317, 17.716549999999998 248.0317, 35.433099999999996 230.31515000000002, 35.433099999999996 230.31515000000002, 70.86619999999999 248.0317, 70.86619999999999 248.0317, 82.0276265 234.92145299999999, 82.0276265 234.92145299999999, 95.13787349999998 248.0317, 95.13787349999998 248.0317, 106.29929999999999 230.31515000000002, 106.29929999999999 230.31515000000002, 141.73239999999998 248.0317, 141.73239999999998 248.0317, 159.44895000000002 194.88205, 159.44895000000002 194.88205, 177.1655 174.8623485, 177.1655 174.8623485, 164.055253 161.75210149999998, 164.055253 161.75210149999998, 177.1655 141.73239999999998, 177.1655 141.73239999999998, 159.44895000000002 106.2993, 159.44895000000002 106.2993, 177.1655 86.27959849999999, 177.1655 86.27959849999999, 164.055253 73.1693515, 164.055253 73.1693515, 177.1655 53.14965, 177.1655 53.14965, 159.44895000000002 0, 159.44894999999997 0, 141.73239999999998 17.716549999999998, 141.73239999999998 17.716549999999998, 106.29929999999999 0, 106.29929999999999 0, 95.13787349999998 13.110247000000001, 95.13787349999998 13.110247000000001, 82.0276265 0, 82.0276265 0, 70.86619999999999 17.716549999999998, 70.86619999999999 17.716549999999998, 35.433099999999996 0, 35.433099999999996 "/> 
</g>
<!-- Bottom--> 
<g transform="translate(270.53171849999995, 483.1303185) " > 
<polygon style="stroke:#000000; fill:none; stroke-width:0.90000074" points="0, 17.716549999999998 53.14965, 17.716549999999998 53.14965, 0 73.1693515, 0 73.1693515, 13.110247000000001 86.27959849999999, 13.110247000000001 86.27959849999999, 0 106.2993, 0 106.2993, 17.716549999999998 141.73239999999998, 17.716549999999998 141.73239999999998, 0 161.75210149999998, 0 161.75210149999998, 13.110247000000001 174.8623485, 13.110247000000001 174.8623485, 0 194.88205, 0 194.88205, 17.716549999999998 248.0317, 17.716549999999998 248.0317, 35.433099999999996 230.31515000000002, 35.433099999999996 230.31515000000002, 70.86619999999999 248.0317, 70.86619999999999 248.0317, 82.0276265 234.92145299999999, 82.0276265 234.92145299999999, 95.13787349999998 248.0317, 95.13787349999998 248.0317, 106.29929999999999 230.31515000000002, 106.29929999999999 230.31515000000002, 141.73239999999998 248.0317, 141.73239999999998 248.0317, 159.44895000000002 194.88205, 159.44895000000002 194.88205, 177.1655 174.8623485, 177.1655 174.8623485, 164.055253 161.75210149999998, 164.055253 161.75210149999998, 177.1655 141.73239999999998, 177.1655 141.73239999999998, 159.44895000000002 106.2993, 159.44895000000002 106.2993, 177.1655 86.27959849999999, 177.1655 86.27959849999999, 164.055253 73.1693515, 164.055253 73.1693515, 177.1655 53.14965, 177.1655 53.14965, 159.44895000000002 0, 159.44894999999997 0, 141.73239999999998 17.716549999999998, 141.73239999999998 17.716549999999998, 106.29929999999999 0, 106.29929999999999 0, 95.13787349999998 13.110247000000001, 95.13787349999998 13.110247000000001, 82.0276265 0, 82.0276265 0, 70.86619999999999 17.716549999999998, 70.86619999999999 17.716549999999998, 35.433099999999996 0, 35.433099999999996 "/> 
</g></svg>