<svg xmlns="http://www.w3.org/2000/svg" version="1.1" width="202.7mm" height="296.7mm" viewBox = " 0 0 718.228937 1051.3000769999999" >
<!-- Front--> 
<g transform="translate(22.5000185, 22.5000185) " > 
<polygon style="stroke:#000000; fill:none; stroke-width:0.90000074" points="17.716549999999998, 0 53.14965, 0 53.14965, 17.716549999999998 74.2323445, 17.716549999999998 74.2323445, 39.330741 69.803207, 39.330741 69.803207, 48.189016 74.2323445, 48.189016 74.2323445, 57.047291 85.2166055, 57.047291 85.2166055, 48.189016 89.645743, 48.189016 89.645743, 39.330741 85.2166055, 39.330741 85.2166055, 17.716549999999998 106.2993, 17.716549999999998 106.2993, 0 141.73239999999998, 0 141.73239999999998, 17.716549999999998 162.8150945, 17.716549999999998 162.8150945, 39.330741 158.385957, 39.330741 158.385957, 48.189016 162.8150945, 48.189016 162.8150945, 57.047291 173.7993555, 57.047291 173.7993555, 48.189016 178.228493, 48.189016 178.228493, 39.330741 173.7993555, 39.330741 173.7993555, 17.716549999999998 194.88205, 17.716549999999998 194.88205, 0 230.31515000000002, 0 230.31515000000002, 46.06303 248.0317, 46.06303 248.0317, 62.539421499999996 234.92145299999999, 62.539421499999996 234.92145299999999, 75.64966849999999 248.0317, 75.64966849999999 248.0317, 92.12606 230.31515000000002, 92.12606 230.31515000000002, 127.55915999999999 248.0317, 127.55915999999999 248.0317, 162.99226 230.31515000000002, 162.99226 230.31515000000002, 198.42535999999998 248.0317, 198.42535999999998 248.0317, 233.85845999999998 230.31515000000002, 233.85845999999998 230.31515000000002, 269.29156 248.0317, 269.29156 248.0317, 304.72466 230.31515000000002, 304.72466 230.31515000000002, 340.15775999999994 248.0317, 340.15775999999994 248.0317, 375.59085999999996 230.31515000000002, 375.59085999999996 230.31515000000002, 411.02395999999993 248.0317, 411.02395999999993 248.0317, 427.50035149999997 234.92145299999999, 427.50035149999997 234.92145299999999, 440.6105984999999 248.0317, 440.6105984999999 248.0317, 457.0869899999999 230.31515000000002, 457.0869899999999 230.31515000000002, 503.15002 194.88205, 503.15002 194.88205, 485.43347 173.7993555, 485.43347 173.7993555, 463.819279 178.228493, 463.819279 178.228493, 454.961004 173.7993555, 454.961004 173.7993555, 446.102729 162.8150945, 446.102729 162.8150945, 454.961004 158.385957, 454.961004 158.385957, 463.819279 162.8150945, 463.819279 162.8150945, 485.43347 141.73239999999998, 485.43347 141.73239999999998, 503.15002 106.2993, 503.15002 106.2993, 485.43347 85.2166055, 485.43347 85.2166055, 463.819279 89.645743, 463.819279 89.645743, 454.961004 85.2166055, 454.961004 85.2166055, 446.102729 74.2323445, 446.102729 74.2323445, 454.961004 69.803207, 454.961004 69.803207, 463.819279 74.2323445, 463.819279 74.2323445, 485.43347 53.14965, 485.43347 53.14965, 503.15002 17.716549999999998, 503.1500199999999 17.716549999999998, 457.0869899999999 0, 457.0869899999999 0, 440.6105984999999 13.110247000000001, 440.6105984999999 13.110247000000001, 427.50035149999997 0, 427.50035149999997 0, 411.02395999999993 17.716549999999998, 411.02395999999993 17.716549999999998, 375.59085999999996 0, 375.59085999999996 0, 340.15775999999994 17.716549999999998, 340.15775999999994 17.716549999999998, 304.72466 0, 304.72466 0, 269.29156 17.716549999999998, 269.29156 17.716549999999998, 233.85845999999998 0, 233.85845999999998 0, 198.42535999999998 17.716549999999998, 198.42535999999998 17.716549999999998, 162.99226 0, 162.99226 0, 127.55915999999999 17.716549999999998, 127.55915999999999 17.716549999999998, 92.12606 0, 92.12606 0, 75.64966849999999 13.110247000000001, 75.64966849999999 13.110247000000001, 62.539421499999996 0, 62.539421499999996 0, 46.06303 17.716549999999998, 46.06303 "/> 
</g>
<!-- Back--> 
<g transform="translate(270.53171849999995, 22.5000185) " > 
<polygon style="stroke:#000000; fill:none; stroke-width:0.90000074" points="17.716549999999998, 0 53.14965, 0 53.14965, 17.716549999999998 74.2323445, 17.716549999999998 74.2323445, 39.330741 69.803207, 39.330741 69.803207, 48.189016 74.2323445, 48.189016 74.2323445, 57.047291 85.2166055, 57.047291 85.2166055, 48.189016 89.645743, 48.189016 89.645743, 39.330741 85.2166055, 39.330741 85.2166055, 17.716549999999998 106.2993, 17.716549999999998 106.2993, 0 141.73239999999998, 0 141.73239999999998, 17.716549999999998 162.8150945, 17.716549999999998 162.8150945, 39.330741 158.385957, 39.330741 158.385957, 48.189016 162.8150945, 48.189016 162.8150945, 57.047291 173.7993555, 57.047291 173.7993555, 48.189016 178.228493, 48.189016 178.228493, 39.330741 173.7993555, 39.330741 173.7993555, 17.716549999999998 194.88205, 17.716549999999998 194.88205, 0 230.31515000000002, 0 230.31515000000002, 46.06303 248.0317, 46.06303 248.0317, 62.539421499999996 234.92145299999999, 62.539421499999996 234.92145299999999, 75.64966849999999 248.0317, 75.64966849999999 248.0317, 92.12606 230.31515000000002, 92.12606 230.31515000000002, 127.55915999999999 248.0317, 127.55915999999999 248.0317, 162.99226 230.31515000000002, 162.99226 230.31515000000002, 198.42535999999998 248.0317, 198.42535999999998 248.0317, 233.85845999999998 230.31515000000002, 233.85845999999998 230.31515000000002, 269.29156 248.0317, 269.29156 248.0317, 304.72466 230.31515000000002, 304.72466 230.31515000000002, 340.15775999999994 248.0317, 340.15775999999994 248.0317, 375.59085999999996 230.31515000000002, 375.59085999999996 230.31515000000002, 411.02395999999993 248.0317, 411.02395999999993 248.0317, 427.50035149999997 234.92145299999999, 427.50035149999997 234.92145299999999, 440.6105984999999 248.0317, 440.6105984999999 248.0317, 457.0869899999999 230.31515000000002, 457.0869899999999 230.31515000000002, 503.15002 194.88205, 503.15002 194.88205, 485.43347 173.7993555, 485.43347 173.7993555, 463.819279 178.228493, 463.819279 178.228493, 454.961004 173.7993555, 454.961004 173.7993555, 446.102729 162.8150945, 446.102729 162.8150945, 454.961004 158.385957, 454.961004 158.385957, 463.819279 162.8150945, 463.819279 162.8150945, 485.43347 141.73239999999998, 485.43347 141.73239999999998, 503.15002 106.2993, 503.15002 106.2993, 485.43347 85.2166055, 485.43347 85.2166055, 463.819279 89.645743, 463.819279 89.645743, 454.961004 85.2166055, 454.961004 85.2166055, 446.102729 74.2323445, 446.102729 74.2323445, 454.961004 69.803207, 454.961004 69.803207, 463.819279 74.2323445, 463.819279 74.2323445, 485.43347 53.14965, 485.43347 53.14965, 503.15002 17.716549999999998, 503.1500199999999 17.716549999999998, 457.0869899999999 0, 457.0869899999999 0, 440.6105984999999 13.110247000000001, 440.6105984999999 13.110247000000001, 427.50035149999997 0, 427.50035149999997 0, 411.02395999999993 17.716549999999998, 411.02395999999993 17.716549999999998, 375.59085999999996 0, 375.59085999999996 0, 340.15775999999994 17.716549999999998, 340.15775999999994 17.716549999999998, 304.72466 0, 304.72466 0, 269.29156 17.716549999999998, 269.29156 17.716549999999998, 233.85845999999998 0, 233.85845999999998 0, 198.42535999999998 17.716549999999998, 198.42535999999998 17.716549999999998, 162.99226 0, 162.99226 0, 127.55915999999999 17.716549999999998, 127.55915999999999 17.716549999999998, 92.12606 0, 92.12606 0, 75.64966849999999 13.110247000000001, 75.64966849999999 13.110247000000001, 62.539421499999996 0, 62.539421499999996 0, 46.06303 17.716549999999998, 46.06303 "/> 
</g>
<!-- Left--> 
<g transform="translate(518.5634185, 22.5000185) " > 
<polygon style="stroke:#000000; fill:none; stroke-width:0.90000074" points="0, 17.716549999999998 35.433099999999996, 17.716549999999998 35.433099999999996, 0 70.86619999999999, 0 70.86619999999999, 17.716549999999998 83.09061949999999, 17.716549999999998 83.09061949999999, 39.330741 78.66148199999999, 39.330741 78.66148199999999, 48.189016 83.09061949999999, 48.189016 83.09061949999999, 57.047291 94.07488049999999, 57.047291 94.07488049999999, 48.189016 98.50401799999999, 48.189016 98.50401799999999, 39.330741 94.07488049999999, 39.330741 94.07488049999999, 17.716549999999998 106.29929999999999, 17.716549999999998 106.29929999999999, 0 141.73239999999998, 0 141.73239999999998, 17.716549999999998 177.1655, 17.716549999999998 177.1655, 46.06303 159.44895000000002, 46.06303 159.44895000000002, 63.602414499999995 137.83475900000002, 63.602414499999995 137.83475900000002, 59.173277 128.97648400000003, 59.173277 128.97648400000003, 63.602414499999995 120.11820900000002, 63.602414499999995 120.11820900000002, 74.5866755 128.97648400000003, 74.5866755 128.97648400000003, 79.015813 137.83475900000002, 79.015813 137.83475900000002, 74.5866755 159.44895000000002, 74.5866755 159.44895000000002, 92.12606 177.1655, 92.12606 177.1655, 127.55915999999999 159.44895000000002, 127.55915999999999 159.44895000000002, 162.99226 177.1655, 162.99226 177.1655, 198.42535999999998 159.44895000000002, 198.42535999999998 159.44895000000002, 233.85845999999998 177.1655, 233.85845999999998 177.1655, 269.29156 159.44895000000002, 269.29156 159.44895000000002, 304.72466 177.1655, 304.72466 177.1655, 340.15775999999994 159.44895000000002, 340.15775999999994 159.44895000000002, 375.59085999999996 177.1655, 375.59085999999996 177.1655, 411.02395999999993 159.44895000000002, 411.02395999999993 159.44895000000002, 428.56334449999997 137.83475900000002, 428.56334449999997 137.83475900000002, 424.13420699999995 128.97648400000003, 424.13420699999995 128.97648400000003, 428.56334449999997 120.11820900000002, 428.56334449999997 120.11820900000002, 439.5476054999999 128.97648400000003, 439.5476054999999 128.97648400000003, 443.97674299999994 137.83475900000002, 443.97674299999994 137.83475900000002, 439.5476054999999 159.44895000000002, 439.5476054999999 159.44895000000002, 457.0869899999999 177.1655, 457.0869899999999 177.16549999999998, 485.43347 141.73239999999998, 485.43347 141.73239999999998, 503.15002 106.29929999999999, 503.15002 106.29929999999999, 485.43347 94.07488049999999, 485.43347 94.07488049999999, 463.819279 98.50401799999999, 463.819279 98.50401799999999, 454.961004 94.07488049999999, 454.961004 94.07488049999999, 446.102729 83.09061949999999, 446.102729 83.09061949999999, 454.961004 78.66148199999999, 454.961004 78.66148199999999, 463.819279 83.09061949999999, 463.819279 83.09061949999999, 485.43347 70.86619999999999, 485.43347 70.86619999999999, 503.15002 35.433099999999996, 503.15002 35.433099999999996, 485.43347 0, 485.43346999999994 0, 457.0869899999999 17.716549999999998, 457.0869899999999 17.716549999999998, 439.5476054999999 39.330741, 439.5476054999999 39.330741, 443.97674299999994 48.189016, 443.97674299999994 48.189016, 439.5476054999999 57.047291, 439.5476054999999 57.047291, 428.56334449999997 48.189016, 428.56334449999997 48.189016, 424.13420699999995 39.330741, 424.13420699999995 39.330741, 428.56334449999997 17.716549999999998, 428.56334449999997 17.716549999999998, 411.02395999999993 0, 411.02395999999993 0, 375.59085999999996 17.716549999999998, 375.59085999999996 17.716549999999998, 340.15775999999994 0, 340.15775999999994 0, 304.72466 17.716549999999998, 304.72466 17.716549999999998, 269.29156 0, 269.29156 0, 233.85845999999998 17.716549999999998, 233.85845999999998 17.716549999999998, 198.42535999999998 0, 198.42535999999998 0, 162.99226 17.716549999999998, 162.99226 17.716549999999998, 127.55915999999999 0, 127.55915999999999 0, 92.12606 17.716549999999998, 92.12606 17.716549999999998, 74.5866755 39.330741, 74.5866755 39.330741, 79.015813 48.189016, 79.015813 48.189016, 74.5866755 57.047291, 74.5866755 57.047291, 63.602414499999995 48.189016, 63.602414499999995 48.189016, 59.173277 39.330741, 59.173277 39.330741, 63.602414499999995 17.716549999999998, 63.602414499999995 17.716549999999998, 46.06303 0, 46.06303 "/> 
</g>
<!-- Right--> 
<g transform="translate(518.5634185, 525.6500384999999) " > 
<polygon style="stroke:#000000; fill:none; stroke-width:0.90000074" points="0, 17.716549999999998 35.433099999999996, 17.716549999999998 35.433099999999996, 0 70.86619999999999, 0 70.86619999999999, 17.716549999999998 83.09061949999999, 17.716549999999998 83.09061949999999, 39.330741 78.66148199999999, 39.330741 78.66148199999999, 48.189016 83.09061949999999, 48.189016 83.09061949999999, 57.047291 94.07488049999999, 57.047291 94.07488049999999, 48.189016 98.50401799999999, 48.189016 98.50401799999999, 39.330741 94.07488049999999, 39.330741 94.07488049999999, 17.716549999999998 106.29929999999999, 17.716549999999998 106.29929999999999, 0 141.73239999999998, 0 141.73239999999998, 17.716549999999998 177.1655, 17.716549999999998 177.1655, 46.06303 159.44895000000002, 46.06303 159.44895000000002, 63.602414499999995 137.83475900000002, 63.602414499999995 137.83475900000002, 59.173277 128.97648400000003, 59.173277 128.97648400000003, 63.602414499999995 120.11820900000002, 63.602414499999995 120.11820900000002, 74.5866755 128.97648400000003, 74.5866755 128.97648400000003, 79.015813 137.83475900000002, 79.015813 137.83475900000002, 74.5866755 159.44895000000002, 74.5866755 159.44895000000002, 92.12606 177.1655, 92.12606 177.1655, 127.55915999999999 159.44895000000002, 127.55915999999999 159.44895000000002, 162.99226 177.1655, 162.99226 177.1655, 198.42535999999998 159.44895000000002, 198.42535999999998 159.44895000000002, 233.85845999999998 177.1655, 233.85845999999998 177.1655, 269.29156 159.44895000000002, 269.29156 159.44895000000002, 304.72466 177.1655, 304.72466 177.1655, 340.15775999999994 159.44895000000002, 340.15775999999994 159.44895000000002, 375.59085999999996 177.1655, 375.59085999999996 177.1655, 411.02395999999993 159.44895000000002, 411.02395999999993 159.44895000000002, 428.56334449999997 137.83475900000002, 428.56334449999997 137.83475900000002, 424.13420699999995 128.97648400000003, 424.13420699999995 128.97648400000003, 428.56334449999997 120.11820900000002, 428.56334449999997 120.11820900000002, 439.5476054999999 128.97648400000003, 439.5476054999999 128.97648400000003, 443.97674299999994 137.83475900000002, 443.97674299999994 137.83475900000002, 439.5476054999999 159.44895000000002, 439.5476054999999 159.44895000000002, 457.0869899999999 177.1655, 457.0869899999999 177.16549999999998, 485.43347 141.73239999999998, 485.43347 141.73239999999998, 503.15002 106.29929999999999, 503.15002 106.29929999999999, 485.43347 94.07488049999999, 485.43347 94.07488049999999, 463.819279 98.50401799999999, 463.819279 98.50401799999999, 454.961004 94.07488049999999, 454.961004 94.07488049999999, 446.102729 83.09061949999999, 446.102729 83.09061949999999, 454.961004 78.66148199999999, 454.961004 78.66148199999999, 463.819279 83.09061949999999, 463.819279 83.09061949999999, 485.43347 70.86619999999999, 485.43347 70.86619999999999, 503.15002 35.433099999999996, 503.15002 35.433099999999996, 485.43347 0, 485.43346999999994 0, 457.0869899999999 17.716549999999998, 457.0869899999999 17.716549999999998, 439.5476054999999 39.330741, 439.5476054999999 39.330741, 443.97674299999994 48.189016, 443.97674299999994 48.189016, 439.5476054999999 57.047291, 439.5476054999999 57.047291, 428.56334449999997 48.189016, 428.56334449999997 48.189016, 424.13420699999995 39.330741, 424.13420699999995 39.330741, 428.56334449999997 17.716549999999998, 428.56334449999997 17.716549999999998, 411.02395999999993 0, 411.02395999999993 0, 375.59085999999996 17.716549999999998, 375.59085999999996 17.716549999999998, 340.15775999999994 0, 340.15775999999994 0, 304.72466 17.716549999999998, 304.72466 17.716549999999998, 269.29156 0, 269.29156 0, 233.85845999999998 17.716549999999998, 233.85845999999998 17.716549999999998, 198.42535999999998 0, 198.42535999999998 0, 162.99226 17.716549999999998, 162.99226 17.716549999999998, 127.55915999999999 0, 127.55915999999999 0, 92.12606 17.716549999999998, 92.12606 17.716549999999998, 74.5866755 39.330741, 74.5866755 39.330741, 79.015813 48.189016, 79.015813 48.189016, 74.5866755 57.047291, 74.5866755 57.047291, 63.602414499999995 48.189016, 63.602414499999995 48.189016, 59.173277 39.330741, 59.173277 39.330741, 63.602414499999995 17.716549999999998, 63.602414499999995 17.716549999999998, 46.06303 0, 46.06303 "/> 
</g>
<!-- Top--> 
<g transform="translate(22.5000185, 525.6500384999999) " > 
<polygon style="stroke:#000000; fill:none; stroke-width:0.90000074" points="0, 17.716549999999998 53.14965, 17.716549999999998 53.14965, 0 73.1693515, 0 73.1693515, 13.110247000000001 86.27959849999999, 13.110247000000001 86.27959849999999, 0 106.2993, 0 106.2993, 17.716549999999998 141.73239999999998, 17.716549999999998 141.73239999999998, 0 161.75210149999998, 0 161.75210149999998, 13.110247000000001 174.8623485, 13.110247000000001 174.8623485, 0 194.88205, 0 194.88205, 17.716549999999998 248.0317, 17.716549999999998 248.0317, 35.433099999999996 230.31515000000002, 35.433099999999996 230.31515000000002, 70.86619999999999 248.0317, 70.86619999999999 248.0317, 82.0276265 234.92145299999999, 82.0276265 234.92145299999999, 95.13787349999998 248.0317, 95.13787349999998 248.0317, 106.29929999999999 230.31515000000002, 106.29929999999999 230.31515000000002, 141.73239999999998 248.0317, 141.73239999999998 248.0317, 159.44895000000002 194.88205, 159.44895000000002 194.88205, 177.1655 174.8623485, 177.1655 174.8623485, 164.055253 161.75210149999998, 164.055253 161.75210149999998, 177.1655 141.73239999999998, 177.1655 141.73239999999998, 159.44895000000002 106.2993, 159.44895000000002 106.2993, 177.1655 86.27959849999999, 177.1655 86.27959849999999, 164.055253 73.1693515, 164.055253 73.1693515, 177.1655 53.14965, 177.1655 53.14965, 159.44895000000002 0, 159.44894999999997 0, 141.73239999999998 17.716549999999998, 141.73239999999998 17.716549999999998, 106.29929999999999 0, 106.29929999999999 0, 95.13787349999998 13.110247000000001, 95.13787349999998 13.110247000000001, 82.0276265 0, 82.0276265 0, 70.86619999999999 17.716549999999998, 70.86619999999999 17.716549999999998, 35.433099999999996 0, 35.433099999999996 "/> 
</g>
<!-- Bottom--> 
<g transform="translate(270.53171849999995, 525.6500384999999) " > 
<polygon style="stroke:#000000; fill:none; stroke-width:0.90000074" points="0, 17.716549999999998 53.14965, 17.716549999999998 53.14965, 0 73.1693515, 0 73.1693515, 13.110247000000001 86.27959849999999, 13.110247000000001 86.27959849999999, 0 106.2993, 0 106.2993, 17.716549999999998 141.73239999999998, 17.716549999999998 141.73239999999998, 0 161.75210149999998, 0 161.75210149999998, 13.110247000000001 174.8623485, 13.110247000000001 174.8623485, 0 194.88205, 0 194.88205, 17.716549999999998 248.0317, 17.716549999999998 248.0317, 35.433099999999996 230.31515000000002, 35.433099999999996 230.31515000000002, 70.86619999999999 248.0317, 70.86619999999999 248.0317, 82.0276265 234.92145299999999, 82.0276265 234.92145299999999, 95.13787349999998 248.0317, 95.13787349999998 248.0317, 106.29929999999999 230.31515000000002, 106.29929999999999 230.31515000000002, 141.73239999999998 248.0317, 141.73239999999998 248.0317, 159.44895000000002 194.88205, 159.44895000000002 194.88205, 177.1655 174.8623485, 177.1655 174.8623485, 164.055253 161.75210149999998, 164.055253 161.75210149999998, 177.1655 141.73239999999998, 177.1655 141.73239999999998, 159.44895000000002 106.2993, 159.44895000000002 106.2993, 177.1655 86.27959849999999, 177.1655 86.27959849999999, 164.055253 73.1693515, 164.055253 73.1693515, 177.1655 53.14965, 177.1655 53.14965, 159.44895000000002 0, 159.44894999999997 0, 141.73239999999998 17.716549999999998, 141.73239999999998 17.716549999999998, 106.29929999999999 0, 106.29929999999999 0, 95.13787349999998 13.110247000000001, 95.13787349999998 13.110247000000001, 82.0276265 0, 82.0276265 0, 70.86619999999999 17.716549999999998, 70.86619999999999 17.716549999999998, 35.433099999999996 0, 35.433099999999996 "/> 
</g></svg>