<svg xmlns="http://www.w3.org/2000/svg" version="1.1" width="202.7mm" height="284.7mm" viewBox = " 0 0 718.228937 1008.780357" >
<!-- Front--> 
<g transform="translate(22.5000185, 22.5000185) " > 
<polygon style="stroke:#000000; fill:none; stroke-width:0.90000074" points="17.716549999999998, 0 31.0039625, 0 31.0039625, 17.716549999999998 41.01381325, 17.716549999999998 41.01381325, 39.330741 36.58467575, 39.330741 36.58467575, 48.189016 41.01381325, 48.189016 41.01381325, 57.047291 51.99807425, 57.047291 51.99807425, 48.189016 56.42721175, 48.189016 56.42721175, 39.330741 51.99807425, 39.330741 51.99807425, 17.716549999999998 62.007925, 17.716549999999998 62.007925, 0 86.811095, 0 86.811095, 17.716549999999998 111.614265, 17.716549999999998 111.614265, 0 136.417435, 0 136.417435, 17.716549999999998 161.220605, 17.716549999999998 161.220605, 0 186.023775, 0 186.023775, 17.716549999999998 196.03362575, 17.716549999999998 196.03362575, 39.330741 191.60448825, 39.330741 191.60448825, 48.189016 196.03362575, 48.189016 196.03362575, 57.047291 207.01788675, 57.047291 207.01788675, 48.189016 211.44702425, 48.189016 211.44702425, 39.330741 207.01788675, 39.330741 207.01788675, 17.716549999999998 217.0277375, 17.716549999999998 217.0277375, 0 230.31515000000002, 0 230.31515000000002, 39.8622375 248.0317, 39.8622375 248.0317, 53.23823275 234.92145299999999, 53.23823275 234.92145299999999, 66.34847975 248.0317, 66.34847975 248.0317, 79.724475 230.31515000000002, 79.724475 230.31515000000002, 104.527645 248.0317, 104.527645 248.0317, 129.330815 230.31515000000002, 129.330815 230.31515000000002, 154.133985 248.0317, 154.133985 248.0317, 178.93715500000002 230.31515000000002, 178.93715500000002 230.31515000000002, 203.74032499999998 248.0317, 203.74032499999998 248.0317, 228.543495 230.31515000000002, 228.543495 230.31515000000002, 253.34666500000003 248.0317, 253.34666500000003 248.0317, 278.149835 230.31515000000002, 278.149835 230.31515000000002, 302.953005 248.0317, 302.953005 248.0317, 327.756175 230.31515000000002, 327.756175 230.31515000000002, 352.559345 248.0317, 352.559345 248.0317, 377.36251500000003 230.31515000000002, 377.36251500000003 230.31515000000002, 402.165685 248.0317, 402.165685 248.0317, 415.54168025 234.92145299999999, 415.54168025 234.92145299999999, 428.65192724999997 248.0317, 428.65192724999997 248.0317, 442.02792250000005 230.31515000000002, 442.02792250000005 230.31515000000002, 481.89016 217.0277375, 481.89016 217.0277375, 464.17361 207.01788675, 464.17361 207.01788675, 442.559419 211.44702425, 442.559419 211.44702425, 433.701144 207.01788675, 433.701144 207.01788675, 424.842869 196.03362575, 424.842869 196.03362575, 433.701144 191.60448825, 433.701144 191.60448825, 442.559419 196.03362575, 442.559419 196.03362575, 464.17361 186.023775, 464.17361 186.023775, 481.89016 161.220605, 481.89016 161.220605, 464.17361 136.417435, 464.17361 136.417435, 481.89016 111.614265, 481.89016 111.614265, 464.17361 86.811095, 464.17361 86.811095, 481.89016 62.007925, 481.89016 62.007925, 464.17361 51.99807425, 464.17361 51.99807425, 442.559419 56.42721175, 442.559419 56.42721175, 433.701144 51.99807425, 433.701144 51.99807425, 424.842869 41.01381325, 424.842869 41.01381325, 433.701144 36.58467575, 433.701144 36.58467575, 442.559419 41.01381325, 442.559419 41.01381325, 464.17361 31.0039625, 464.17361 31.0039625, 481.89016 17.716549999999998, 481.89016000000004 17.716549999999998, 442.02792250000005 0, 442.02792250000005 0, 428.65192724999997 13.110247000000001, 428.65192724999997 13.110247000000001, 415.54168025 0, 415.54168025 0, 402.165685 17.716549999999998, 402.165685 17.716549999999998, 377.36251500000003 0, 377.36251500000003 0, 352.559345 17.716549999999998, 352.559345 17.716549999999998, 327.756175 0, 327.756175 0, 302.953005 17.716549999999998, 302.953005 17.716549999999998, 278.149835 0, 278.149835 0, 253.34666500000003 17.716549999999998, 253.34666500000003 17.716549999999998, 228.543495 0, 228.543495 0, 203.74032499999998 17.716549999999998, 203.74032499999998 17.716549999999998, 178.93715500000002 0, 178.93715500000002 0, 154.133985 17.716549999999998, 154.133985 17.716549999999998, 129.330815 0, 129.330815 0, 104.527645 17.716549999999998, 104.527645 17.716549999999998, 79.724475 0, 79.724475 0, 66.34847975 13.110247000000001, 66.34847975 13.110247000000001, 53.23823275 0, 53.23823275 0, 39.8622375 17.716549999999998, 39.8622375 "/> 
</g>
<!-- Back--> 
<g transform="translate(270.53171849999995, 22.5000185) " > 
<polygon style="stroke:#000000; fill:none; stroke-width:0.90000074" points="17.716549999999998, 0 31.0039625, 0 31.0039625, 17.716549999999998 41.01381325, 17.716549999999998 41.01381325, 39.330741 36.58467575, 39.330741 36.58467575, 48.189016 41.01381325, 48.189016 41.01381325, 57.047291 51.99807425, 57.047291 51.99807425, 48.189016 56.42721175, 48.189016 56.42721175, 39.330741 51.99807425, 39.330741 51.99807425, 17.716549999999998 62.007925, 17.716549999999998 62.007925, 0 86.811095, 0 86.811095, 17.716549999999998 111.614265, 17.716549999999998 111.614265, 0 136.417435, 0 136.417435, 17.716549999999998 161.220605, 17.716549999999998 161.220605, 0 186.023775, 0 186.023775, 17.716549999999998 196.03362575, 17.716549999999998 196.03362575, 39.330741 191.60448825, 39.330741 191.60448825, 48.189016 196.03362575, 48.189016 196.03362575, 57.047291 207.01788675, 57.047291 207.01788675, 48.189016 211.44702425, 48.189016 211.44702425, 39.330741 207.01788675, 39.330741 207.01788675, 17.716549999999998 217.0277375, 17.716549999999998 217.0277375, 0 230.31515000000002, 0 230.31515000000002, 39.8622375 248.0317, 39.8622375 248.0317, 53.23823275 234.92145299999999, 53.23823275 234.92145299999999, 66.34847975 248.0317, 66.34847975 248.0317, 79.724475 230.31515000000002, 79.724475 230.31515000000002, 104.527645 248.0317, 104.527645 248.0317, 129.330815 230.31515000000002, 129.330815 230.31515000000002, 154.133985 248.0317, 154.133985 248.0317, 178.93715500000002 230.31515000000002, 178.93715500000002 230.31515000000002, 203.74032499999998 248.0317, 203.74032499999998 248.0317, 228.543495 230.31515000000002, 228.543495 230.31515000000002, 253.34666500000003 248.0317, 253.34666500000003 248.0317, 278.149835 230.31515000000002, 278.149835 230.31515000000002, 302.953005 248.0317, 302.953005 248.0317, 327.756175 230.31515000000002, 327.756175 230.31515000000002, 352.559345 248.0317, 352.559345 248.0317, 377.36251500000003 230.31515000000002, 377.36251500000003 230.31515000000002, 402.165685 248.0317, 402.165685 248.0317, 415.54168025 234.92145299999999, 415.54168025 234.92145299999999, 428.65192724999997 248.0317, 428.65192724999997 248.0317, 442.02792250000005 230.31515000000002, 442.02792250000005 230.31515000000002, 481.89016 217.0277375, 481.89016 217.0277375, 464.17361 207.01788675, 464.17361 207.01788675, 442.559419 211.44702425, 442.559419 211.44702425, 433.701144 207.01788675, 433.701144 207.01788675, 424.842869 196.03362575, 424.842869 196.03362575, 433.701144 191.60448825, 433.701144 191.60448825, 442.559419 196.03362575, 442.559419 196.03362575, 464.17361 186.023775, 464.17361 186.023775, 481.89016 161.220605, 481.89016 161.220605, 464.17361 136.417435, 464.17361 136.417435, 481.89016 111.614265, 481.89016 111.614265, 464.17361 86.811095, 464.17361 86.811095, 481.89016 62.007925, 481.89016 62.007925, 464.17361 51.99807425, 464.17361 51.99807425, 442.559419 56.42721175, 442.559419 56.42721175, 433.701144 51.99807425, 433.701144 51.99807425, 424.842869 41.01381325, 424.842869 41.01381325, 433.701144 36.58467575, 433.701144 36.58467575, 442.559419 41.01381325, 442.559419 41.01381325, 464.17361 31.0039625, 464.17361 31.0039625, 481.89016 17.716549999999998, 481.89016000000004 17.716549999999998, 442.02792250000005 0, 442.02792250000005 0, 428.65192724999997 13.110247000000001, 428.65192724999997 13.110247000000001, 415.54168025 0, 415.54168025 0, 402.165685 17.716549999999998, 402.165685 17.716549999999998, 377.36251500000003 0, 377.36251500000003 0, 352.559345 17.716549999999998, 352.559345 17.716549999999998, 327.756175 0, 327.756175 0, 302.953005 17.716549999999998, 302.953005 17.716549999999998, 278.149835 0, 278.149835 0, 253.34666500000003 17.716549999999998, 253.34666500000003 17.716549999999998, 228.543495 0, 228.543495 0, 203.74032499999998 17.716549999999998, 203.74032499999998 17.716549999999998, 178.93715500000002 0, 178.93715500000002 0, 154.133985 17.716549999999998, 154.133985 17.716549999999998, 129.330815 0, 129.330815 0, 104.527645 17.716549999999998, 104.527645 17.716549999999998, 79.724475 0, 79.724475 0, 66.34847975 13.110247000000001, 66.34847975 13.110247000000001, 53.23823275 0, 53.23823275 0, 39.8622375 17.716549999999998, 39.8622375 "/> 
</g>
<!-- Left--> 
<g transform="translate(518.5634185, 22.5000185) " > 
<polygon style="stroke:#000000; fill:none; stroke-width:0.90000074" points="0, 17.716549999999998 38.0905825, 17.716549999999998 38.0905825, 0 50.580750249999994, 0 50.580750249999994, 13.110247000000001 63.690997249999995, 13.110247000000001 63.690997249999995, 0 76.181165, 0 76.181165, 17.716549999999998 100.98433499999999, 17.716549999999998 100.98433499999999, 0 113.47450274999997, 0 113.47450274999997, 13.110247000000001 126.58474974999999, 13.110247000000001 126.58474974999999, 0 139.0749175, 0 139.0749175, 17.716549999999998 177.1655, 17.716549999999998 177.1655, 39.8622375 159.44895000000002, 39.8622375 159.44895000000002, 54.30122575 137.83475900000002, 54.30122575 137.83475900000002, 49.872088250000004 128.97648400000003, 49.872088250000004 128.97648400000003, 54.30122575 120.11820900000002, 54.30122575 120.11820900000002, 65.28548675 128.97648400000003, 65.28548675 128.97648400000003, 69.71462425 137.83475900000002, 69.71462425 137.83475900000002, 65.28548675 159.44895000000002, 65.28548675 159.44895000000002, 79.724475 177.1655, 79.724475 177.1655, 104.527645 159.44895000000002, 104.527645 159.44895000000002, 129.330815 177.1655, 129.330815 177.1655, 154.133985 159.44895000000002, 154.133985 159.44895000000002, 178.93715500000002 177.1655, 178.93715500000002 177.1655, 203.74032499999998 159.44895000000002, 203.74032499999998 159.44895000000002, 228.543495 177.1655, 228.543495 177.1655, 253.34666500000003 159.44895000000002, 253.34666500000003 159.44895000000002, 278.149835 177.1655, 278.149835 177.1655, 302.953005 159.44895000000002, 302.953005 159.44895000000002, 327.756175 177.1655, 327.756175 177.1655, 352.559345 159.44895000000002, 352.559345 159.44895000000002, 377.36251500000003 177.1655, 377.36251500000003 177.1655, 402.165685 159.44895000000002, 402.165685 159.44895000000002, 416.60467325 137.83475900000002, 416.60467325 137.83475900000002, 412.17553575 128.97648400000003, 412.17553575 128.97648400000003, 416.60467325 120.11820900000002, 416.60467325 120.11820900000002, 427.58893424999997 128.97648400000003, 427.58893424999997 128.97648400000003, 432.01807175 137.83475900000002, 432.01807175 137.83475900000002, 427.58893424999997 159.44895000000002, 427.58893424999997 159.44895000000002, 442.02792250000005 177.1655, 442.02792250000005 177.16549999999998, 464.17361 139.0749175, 464.17361 139.0749175, 481.89016 126.58474974999999, 481.89016 126.58474974999999, 468.77991299999996 113.47450274999997, 468.77991299999996 113.47450274999997, 481.89016 100.98433499999999, 481.89016 100.98433499999999, 464.17361 76.181165, 464.17361 76.181165, 481.89016 63.690997249999995, 481.89016 63.690997249999995, 468.77991299999996 50.580750249999994, 468.77991299999996 50.580750249999994, 481.89016 38.0905825, 481.89016 38.0905825, 464.17361 0, 464.17361000000005 0, 442.02792250000005 17.716549999999998, 442.02792250000005 17.716549999999998, 427.58893424999997 39.330741, 427.58893424999997 39.330741, 432.01807175 48.189016, 432.01807175 48.189016, 427.58893424999997 57.047291, 427.58893424999997 57.047291, 416.60467325 48.189016, 416.60467325 48.189016, 412.17553575 39.330741, 412.17553575 39.330741, 416.60467325 17.716549999999998, 416.60467325 17.716549999999998, 402.165685 0, 402.165685 0, 377.36251500000003 17.716549999999998, 377.36251500000003 17.716549999999998, 352.559345 0, 352.559345 0, 327.756175 17.716549999999998, 327.756175 17.716549999999998, 302.953005 0, 302.953005 0, 278.149835 17.716549999999998, 278.149835 17.716549999999998, 253.34666500000003 0, 253.34666500000003 0, 228.543495 17.716549999999998, 228.543495 17.716549999999998, 203.74032499999998 0, 203.74032499999998 0, 178.93715500000002 17.716549999999998, 178.93715500000002 17.716549999999998, 154.133985 0, 154.133985 0, 129.330815 17.716549999999998, 129.330815 17.716549999999998, 104.527645 0, 104.527645 0, 79.724475 17.716549999999998, 79.724475 17.716549999999998, 65.28548675 39.330741, 65.28548675 39.330741, 69.71462425 48.189016, 69.71462425 48.189016, 65.28548675 57.047291, 65.28548675 57.047291, 54.30122575 48.189016, 54.30122575 48.189016, 49.872088250000004 39.330741, 49.872088250000004 39.330741, 54.30122575 17.716549999999998, 54.30122575 17.716549999999998, 39.8622375 0, 39.8622375 "/> 
</g>
<!-- Right--> 
<g transform="translate(518.5634185, 504.3901785) " > 
<polygon style="stroke:#000000; fill:none; stroke-width:0.90000074" points="0, 17.716549999999998 38.0905825, 17.716549999999998 38.0905825, 0 50.580750249999994, 0 50.580750249999994, 13.110247000000001 63.690997249999995, 13.110247000000001 63.690997249999995, 0 76.181165, 0 76.181165, 17.716549999999998 100.98433499999999, 17.716549999999998 100.98433499999999, 0 113.47450274999997, 0 113.47450274999997, 13.110247000000001 126.58474974999999, 13.110247000000001 126.58474974999999, 0 139.0749175, 0 139.0749175, 17.716549999999998 177.1655, 17.716549999999998 177.1655, 39.8622375 159.44895000000002, 39.8622375 159.44895000000002, 54.30122575 137.83475900000002, 54.30122575 137.83475900000002, 49.872088250000004 128.97648400000003, 49.872088250000004 128.97648400000003, 54.30122575 120.11820900000002, 54.30122575 120.11820900000002, 65.28548675 128.97648400000003, 65.28548675 128.97648400000003, 69.71462425 137.83475900000002, 69.71462425 137.83475900000002, 65.28548675 159.44895000000002, 65.28548675 159.44895000000002, 79.724475 177.1655, 79.724475 177.1655, 104.527645 159.44895000000002, 104.527645 159.44895000000002, 129.330815 177.1655, 129.330815 177.1655, 154.133985 159.44895000000002, 154.133985 159.44895000000002, 178.93715500000002 177.1655, 178.93715500000002 177.1655, 203.74032499999998 159.44895000000002, 203.74032499999998 159.44895000000002, 228.543495 177.1655, 228.543495 177.1655, 253.34666500000003 159.44895000000002, 253.34666500000003 159.44895000000002, 278.149835 177.1655, 278.149835 177.1655, 302.953005 159.44895000000002, 302.953005 159.44895000000002, 327.756175 177.1655, 327.756175 177.1655, 352.559345 159.44895000000002, 352.559345 159.44895000000002, 377.36251500000003 177.1655, 377.36251500000003 177.1655, 402.165685 159.44895000000002, 402.165685 159.44895000000002, 416.60467325 137.83475900000002, 416.60467325 137.83475900000002, 412.17553575 128.97648400000003, 412.17553575 128.97648400000003, 416.60467325 120.11820900000002, 416.60467325 120.11820900000002, 427.58893424999997 128.97648400000003, 427.58893424999997 128.97648400000003, 432.01807175 137.83475900000002, 432.01807175 137.83475900000002, 427.58893424999997 159.44895000000002, 427.58893424999997 159.44895000000002, 442.02792250000005 177.1655, 442.02792250000005 177.16549999999998, 464.17361 139.0749175, 464.17361 139.0749175, 481.89016 126.58474974999999, 481.89016 126.58474974999999, 468.77991299999996 113.47450274999997, 468.77991299999996 113.47450274999997, 481.89016 100.98433499999999, 481.89016 100.98433499999999, 464.17361 76.181165, 464.17361 76.181165, 481.89016 63.690997249999995, 481.89016 63.690997249999995, 468.77991299999996 50.580750249999994, 468.77991299999996 50.580750249999994, 481.89016 38.0905825, 481.89016 38.0905825, 464.17361 0, 464.17361000000005 0, 442.02792250000005 17.716549999999998, 442.02792250000005 17.716549999999998, 427.58893424999997 39.330741, 427.58893424999997 39.330741, 432.01807175 48.189016, 432.01807175 48.189016, 427.58893424999997 57.047291, 427.58893424999997 57.047291, 416.60467325 48.189016, 416.60467325 48.189016, 412.17553575 39.330741, 412.17553575 39.330741, 416.60467325 17.716549999999998, 416.60467325 17.716549999999998, 402.165685 0, 402.165685 0, 377.36251500000003 17.716549999999998, 377.36251500000003 17.716549999999998, 352.559345 0, 352.559345 0, 327.756175 17.716549999999998, 327.756175 17.716549999999998, 302.953005 0, 302.953005 0, 278.149835 17.716549999999998, 278.149835 17.716549999999998, 253.34666500000003 0, 253.34666500000003 0, 228.543495 17.716549999999998, 228.543495 17.716549999999998, 203.74032499999998 0, 203.74032499999998 0, 178.93715500000002 17.716549999999998, 178.93715500000002 17.716549999999998, 154.133985 0, 154.133985 0, 129.330815 17.716549999999998, 129.330815 17.716549999999998, 104.527645 0, 104.527645 0, 79.724475 17.716549999999998, 79.724475 17.716549999999998, 65.28548675 39.330741, 65.28548675 39.330741, 69.71462425 48.189016, 69.71462425 48.189016, 65.28548675 57.047291, 65.28548675 57.047291, 54.30122575 48.189016, 54.30122575 48.189016, 49.872088250000004 39.330741, 49.872088250000004 39.330741, 54.30122575 17.716549999999998, 54.30122575 17.716549999999998, 39.8622375 0, 39.8622375 "/> 
</g>
<!-- Top--> 
<g transform="translate(22.5000185, 504.3901785) " > 
<polygon style="stroke:#000000; fill:none; stroke-width:0.90000074" points="0, 17.716549999999998 31.0039625, 17.716549999999998 31.0039625, 0 39.95082025, 0 39.95082025, 13.110247000000001 53.06106725, 13.110247000000001 53.06106725, 0 62.007925, 0 62.007925, 17.716549999999998 86.811095, 17.716549999999998 86.811095, 0 111.614265, 0 111.614265, 17.716549999999998 136.417435, 17.716549999999998 136.417435, 0 161.220605, 0 161.220605, 17.716549999999998 186.023775, 17.716549999999998 186.023775, 0 194.97063275, 0 194.97063275, 13.110247000000001 208.08087975, 13.110247000000001 208.08087975, 0 217.0277375, 0 217.0277375, 17.716549999999998 248.0317, 17.716549999999998 248.0317, 38.0905825 230.31515000000002, 38.0905825 230.31515000000002, 51.64374324999999 208.700959, 51.64374324999999 208.700959, 47.21460575 199.84268400000002, 47.21460575 199.84268400000002, 51.64374324999999 190.98440900000003, 51.64374324999999 190.98440900000003, 62.62800425 199.84268400000002, 62.62800425 199.84268400000002, 67.05714175 208.700959, 67.05714175 208.700959, 62.62800425 230.31515000000002, 62.62800425 230.31515000000002, 76.181165 248.0317, 76.181165 248.0317, 100.98433499999999 230.31515000000002, 100.98433499999999 230.31515000000002, 114.53749574999998 208.700959, 114.53749574999998 208.700959, 110.10835824999998 199.84268400000002, 110.10835824999998 199.84268400000002, 114.53749574999998 190.98440900000003, 114.53749574999998 190.98440900000003, 125.52175674999998 199.84268400000002, 125.52175674999998 199.84268400000002, 129.95089424999998 208.700959, 129.95089424999998 208.700959, 125.52175674999998 230.31515000000002, 125.52175674999998 230.31515000000002, 139.0749175 248.0317, 139.0749175 248.0317, 159.44895000000002 217.0277375, 159.44895000000002 217.0277375, 177.1655 208.08087975, 177.1655 208.08087975, 164.055253 194.97063275, 164.055253 194.97063275, 177.1655 186.023775, 177.1655 186.023775, 159.44895000000002 161.220605, 159.44895000000002 161.220605, 177.1655 136.417435, 177.1655 136.417435, 159.44895000000002 111.614265, 159.44895000000002 111.614265, 177.1655 86.811095, 177.1655 86.811095, 159.44895000000002 62.007925, 159.44895000000002 62.007925, 177.1655 53.06106725, 177.1655 53.06106725, 164.055253 39.95082025, 164.055253 39.95082025, 177.1655 31.0039625, 177.1655 31.0039625, 159.44895000000002 0, 159.44894999999997 0, 139.0749175 17.716549999999998, 139.0749175 17.716549999999998, 125.52175674999998 39.330741, 125.52175674999998 39.330741, 129.95089424999998 48.189016, 129.95089424999998 48.189016, 125.52175674999998 57.047291, 125.52175674999998 57.047291, 114.53749574999998 48.189016, 114.53749574999998 48.189016, 110.10835824999998 39.330741, 110.10835824999998 39.330741, 114.53749574999998 17.716549999999998, 114.53749574999998 17.716549999999998, 100.98433499999999 0, 100.98433499999999 0, 76.181165 17.716549999999998, 76.181165 17.716549999999998, 62.62800425 39.330741, 62.62800425 39.330741, 67.05714175 48.189016, 67.05714175 48.189016, 62.62800425 57.047291, 62.62800425 57.047291, 51.64374324999999 48.189016, 51.64374324999999 48.189016, 47.21460575 39.330741, 47.21460575 39.330741, 51.64374324999999 17.716549999999998, 51.64374324999999 17.716549999999998, 38.0905825 0, 38.0905825 "/> 
</g>
<!-- Bottom--> 
<g transform="translate(270.53171849999995, 504.3901785) " > 
<polygon style="stroke:#000000; fill:none; stroke-width:0.90000074" points="0, 17.716549999999998 31.0039625, 17.716549999999998 31.0039625, 0 39.95082025, 0 39.95082025, 13.110247000000001 53.06106725, 13.110247000000001 53.06106725, 0 62.007925, 0 62.007925, 17.716549999999998 86.811095, 17.716549999999998 86.811095, 0 111.614265, 0 111.614265, 17.716549999999998 136.417435, 17.716549999999998 136.417435, 0 161.220605, 0 161.220605, 17.716549999999998 186.023775, 17.716549999999998 186.023775, 0 194.97063275, 0 194.97063275, 13.110247000000001 208.08087975, 13.110247000000001 208.08087975, 0 217.0277375, 0 217.0277375, 17.716549999999998 248.0317, 17.716549999999998 248.0317, 38.0905825 230.31515000000002, 38.0905825 230.31515000000002, 51.64374324999999 208.700959, 51.64374324999999 208.700959, 47.21460575 199.84268400000002, 47.21460575 199.84268400000002, 51.64374324999999 190.98440900000003, 51.64374324999999 190.98440900000003, 62.62800425 199.84268400000002, 62.62800425 199.84268400000002, 67.05714175 208.700959, 67.05714175 208.700959, 62.62800425 230.31515000000002, 62.62800425 230.31515000000002, 76.181165 248.0317, 76.181165 248.0317, 100.98433499999999 230.31515000000002, 100.98433499999999 230.31515000000002, 114.53749574999998 208.700959, 114.53749574999998 208.700959, 110.10835824999998 199.84268400000002, 110.10835824999998 199.84268400000002, 114.53749574999998 190.98440900000003, 114.53749574999998 190.98440900000003, 125.52175674999998 199.84268400000002, 125.52175674999998 199.84268400000002, 129.95089424999998 208.700959, 129.95089424999998 208.700959, 125.52175674999998 230.31515000000002, 125.52175674999998 230.31515000000002, 139.0749175 248.0317, 139.0749175 248.0317, 159.44895000000002 217.0277375, 159.44895000000002 217.0277375, 177.1655 208.08087975, 177.1655 208.08087975, 164.055253 194.97063275, 164.055253 194.97063275, 177.1655 186.023775, 177.1655 186.023775, 159.44895000000002 161.220605, 159.44895000000002 161.220605, 177.1655 136.417435, 177.1655 136.417435, 159.44895000000002 111.614265, 159.44895000000002 111.614265, 177.1655 86.811095, 177.1655 86.811095, 159.44895000000002 62.007925, 159.44895000000002 62.007925, 177.1655 53.06106725, 177.1655 53.06106725, 164.055253 39.95082025, 164.055253 39.95082025, 177.1655 31.0039625, 177.1655 31.0039625, 159.44895000000002 0, 159.44894999999997 0, 139.0749175 17.716549999999998, 139.0749175 17.716549999999998, 125.52175674999998 39.330741, 125.52175674999998 39.330741, 129.95089424999998 48.189016, 129.95089424999998 48.189016, 125.52175674999998 57.047291, 125.52175674999998 57.047291, 114.53749574999998 48.189016, 114.53749574999998 48.189016, 110.10835824999998 39.330741, 110.10835824999998 39.330741, 114.53749574999998 17.716549999999998, 114.53749574999998 17.716549999999998, 100.98433499999999 0, 100.98433499999999 0, 76.181165 17.716549999999998, 76.181165 17.716549999999998, 62.62800425 39.330741, 62.62800425 39.330741, 67.05714175 48.189016, 67.05714175 48.189016, 62.62800425 57.047291, 62.62800425 57.047291, 51.64374324999999 48.189016, 51.64374324999999 48.189016, 47.21460575 39.330741, 47.21460575 39.330741, 51.64374324999999 17.716549999999998, 51.64374324999999 17.716549999999998, 38.0905825 0, 38.0905825 "/> 
</g></svg>