<svg xmlns="http://www.w3.org/2000/svg" version="1.1" width="202.7mm" height="232.7mm" viewBox = " 0 0 718.228937 824.528237" >
<!-- Front--> 
<g transform="translate(22.5000185, 22.5000185) " > 
<polygon style="stroke:#000000; fill:none; stroke-width:0.90000074" points="17.716549999999998, 0 33.661445, 0 33.661445, 17.716549999999998 45.000037, 17.716549999999998 45.000037, 39.330741 40.5708995, 39.330741 40.5708995, 48.189016 45.000037, 48.189016 45.000037, 57.047291 55.984298, 57.047291 55.984298, 48.189016 60.4134355, 48.189016 60.4134355, 39.330741 55.984298, 39.330741 55.984298, 17.716549999999998 67.32289, 17.716549999999998 67.32289, 0 88.58275, 0 88.58275, 17.716549999999998 109.84261000000001, 17.716549999999998 109.84261000000001, 0 131.10246999999998, 0 131.10246999999998, 17.716549999999998 152.36233, 17.716549999999998 152.36233, 0 173.62219, 0 173.62219, 17.716549999999998 194.88205, 17.716549999999998 194.88205, 0 216.14191, 0 216.14191, 17.716549999999998 227.480502, 17.716549999999998 227.480502, 39.330741 223.0513645, 39.330741 223.0513645, 48.189016 227.480502, 48.189016 227.480502, 57.047291 238.464763, 57.047291 238.464763, 48.189016 242.8939005, 48.189016 242.8939005, 39.330741 238.464763, 39.330741 238.464763, 17.716549999999998 249.803355, 17.716549999999998 249.803355, 0 265.74825, 0 265.74825, 28.34648 283.46479999999997, 28.34648 283.46479999999997, 35.9645965 270.35455299999995, 35.9645965 270.35455299999995, 49.0748435 283.46479999999997, 49.0748435 283.46479999999997, 56.69296 265.74825, 56.69296 265.74825, 77.95282 283.46479999999997, 77.95282 283.46479999999997, 99.21268 265.74825, 99.21268 265.74825, 120.47254 283.46479999999997, 120.47254 283.46479999999997, 141.73239999999998 265.74825, 141.73239999999998 265.74825, 162.99226 283.46479999999997, 162.99226 283.46479999999997, 184.25212 265.74825, 184.25212 265.74825, 205.51198 283.46479999999997, 205.51198 283.46479999999997, 226.77184 265.74825, 226.77184 265.74825, 248.0317 283.46479999999997, 248.0317 283.46479999999997, 269.29156 265.74825, 269.29156 265.74825, 290.55142 283.46479999999997, 290.55142 283.46479999999997, 311.81128 265.74825, 311.81128 265.74825, 333.07114 283.46479999999997, 333.07114 283.46479999999997, 340.6892565 270.35455299999995, 340.6892565 270.35455299999995, 353.79950349999996 283.46479999999997, 353.79950349999996 283.46479999999997, 361.41762 265.74825, 361.41762 265.74825, 389.7641 249.803355, 389.7641 249.803355, 372.04755 238.464763, 372.04755 238.464763, 350.433359 242.8939005, 350.433359 242.8939005, 341.575084 238.464763, 341.575084 238.464763, 332.716809 227.480502, 332.716809 227.480502, 341.575084 223.0513645, 341.575084 223.0513645, 350.433359 227.480502, 350.433359 227.480502, 372.04755 216.14191, 372.04755 216.14191, 389.7641 194.88205, 389.7641 194.88205, 372.04755 173.62219, 372.04755 173.62219, 389.7641 152.36233, 389.7641 152.36233, 372.04755 131.10246999999998, 372.04755 131.10246999999998, 389.7641 109.84261000000001, 389.7641 109.84261000000001, 372.04755 88.58275, 372.04755 88.58275, 389.7641 67.32289, 389.7641 67.32289, 372.04755 55.984298, 372.04755 55.984298, 350.433359 60.4134355, 350.433359 60.4134355, 341.575084 55.984298, 341.575084 55.984298, 332.716809 45.000037, 332.716809 45.000037, 341.575084 40.5708995, 341.575084 40.5708995, 350.433359 45.000037, 350.433359 45.000037, 372.04755 33.661445, 372.04755 33.661445, 389.7641 17.716549999999998, 389.7641 17.716549999999998, 361.41762 0, 361.41762 0, 353.79950349999996 13.110247000000001, 353.79950349999996 13.110247000000001, 340.6892565 0, 340.6892565 0, 333.07114 17.716549999999998, 333.07114 17.716549999999998, 311.81128 0, 311.81128 0, 290.55142 17.716549999999998, 290.55142 17.716549999999998, 269.29156 0, 269.29156 0, 248.0317 17.716549999999998, 248.0317 17.716549999999998, 226.77184 0, 226.77184 0, 205.51198 17.716549999999998, 205.51198 17.716549999999998, 184.25212 0, 184.25212 0, 162.99226 17.716549999999998, 162.99226 17.716549999999998, 141.73239999999998 0, 141.73239999999998 0, 120.47254 17.716549999999998, 120.47254 17.716549999999998, 99.21268 0, 99.21268 0, 77.95282 17.716549999999998, 77.95282 17.716549999999998, 56.69296 0, 56.69296 0, 49.0748435 13.110247000000001, 49.0748435 13.110247000000001, 35.9645965 0, 35.9645965 0, 28.34648 17.716549999999998, 28.34648 "/> 
</g>
<!-- Back--> 
<g transform="translate(305.9648185, 22.5000185) " > 
<polygon style="stroke:#000000; fill:none; stroke-width:0.90000074" points="17.716549999999998, 0 33.661445, 0 33.661445, 17.716549999999998 45.000037, 17.716549999999998 45.000037, 39.330741 40.5708995, 39.330741 40.5708995, 48.189016 45.000037, 48.189016 45.000037, 57.047291 55.984298, 57.047291 55.984298, 48.189016 60.4134355, 48.189016 60.4134355, 39.330741 55.984298, 39.330741 55.984298, 17.716549999999998 67.32289, 17.716549999999998 67.32289, 0 88.58275, 0 88.58275, 17.716549999999998 109.84261000000001, 17.716549999999998 109.84261000000001, 0 131.10246999999998, 0 131.10246999999998, 17.716549999999998 152.36233, 17.716549999999998 152.36233, 0 173.62219, 0 173.62219, 17.716549999999998 194.88205, 17.716549999999998 194.88205, 0 216.14191, 0 216.14191, 17.716549999999998 227.480502, 17.716549999999998 227.480502, 39.330741 223.0513645, 39.330741 223.0513645, 48.189016 227.480502, 48.189016 227.480502, 57.047291 238.464763, 57.047291 238.464763, 48.189016 242.8939005, 48.189016 242.8939005, 39.330741 238.464763, 39.330741 238.464763, 17.716549999999998 249.803355, 17.716549999999998 249.803355, 0 265.74825, 0 265.74825, 28.34648 283.46479999999997, 28.34648 283.46479999999997, 35.9645965 270.35455299999995, 35.9645965 270.35455299999995, 49.0748435 283.46479999999997, 49.0748435 283.46479999999997, 56.69296 265.74825, 56.69296 265.74825, 77.95282 283.46479999999997, 77.95282 283.46479999999997, 99.21268 265.74825, 99.21268 265.74825, 120.47254 283.46479999999997, 120.47254 283.46479999999997, 141.73239999999998 265.74825, 141.73239999999998 265.74825, 162.99226 283.46479999999997, 162.99226 283.46479999999997, 184.25212 265.74825, 184.25212 265.74825, 205.51198 283.46479999999997, 205.51198 283.46479999999997, 226.77184 265.74825, 226.77184 265.74825, 248.0317 283.46479999999997, 248.0317 283.46479999999997, 269.29156 265.74825, 269.29156 265.74825, 290.55142 283.46479999999997, 290.55142 283.46479999999997, 311.81128 265.74825, 311.81128 265.74825, 333.07114 283.46479999999997, 333.07114 283.46479999999997, 340.6892565 270.35455299999995, 340.6892565 270.35455299999995, 353.79950349999996 283.46479999999997, 353.79950349999996 283.46479999999997, 361.41762 265.74825, 361.41762 265.74825, 389.7641 249.803355, 389.7641 249.803355, 372.04755 238.464763, 372.04755 238.464763, 350.433359 242.8939005, 350.433359 242.8939005, 341.575084 238.464763, 341.575084 238.464763, 332.716809 227.480502, 332.716809 227.480502, 341.575084 223.0513645, 341.575084 223.0513645, 350.433359 227.480502, 350.433359 227.480502, 372.04755 216.14191, 372.04755 216.14191, 389.7641 194.88205, 389.7641 194.88205, 372.04755 173.62219, 372.04755 173.62219, 389.7641 152.36233, 389.7641 152.36233, 372.04755 131.10246999999998, 372.04755 131.10246999999998, 389.7641 109.84261000000001, 389.7641 109.84261000000001, 372.04755 88.58275, 372.04755 88.58275, 389.7641 67.32289, 389.7641 67.32289, 372.04755 55.984298, 372.04755 55.984298, 350.433359 60.4134355, 350.433359 60.4134355, 341.575084 55.984298, 341.575084 55.984298, 332.716809 45.000037, 332.716809 45.000037, 341.575084 40.5708995, 341.575084 40.5708995, 350.433359 45.000037, 350.433359 45.000037, 372.04755 33.661445, 372.04755 33.661445, 389.7641 17.716549999999998, 389.7641 17.716549999999998, 361.41762 0, 361.41762 0, 353.79950349999996 13.110247000000001, 353.79950349999996 13.110247000000001, 340.6892565 0, 340.6892565 0, 333.07114 17.716549999999998, 333.07114 17.716549999999998, 311.81128 0, 311.81128 0, 290.55142 17.716549999999998, 290.55142 17.716549999999998, 269.29156 0, 269.29156 0, 248.0317 17.716549999999998, 248.0317 17.716549999999998, 226.77184 0, 226.77184 0, 205.51198 17.716549999999998, 205.51198 17.716549999999998, 184.25212 0, 184.25212 0, 162.99226 17.716549999999998, 162.99226 17.716549999999998, 141.73239999999998 0, 141.73239999999998 0, 120.47254 17.716549999999998, 120.47254 17.716549999999998, 99.21268 0, 99.21268 0, 77.95282 17.716549999999998, 77.95282 17.716549999999998, 56.69296 0, 56.69296 0, 49.0748435 13.110247000000001, 49.0748435 13.110247000000001, 35.9645965 0, 35.9645965 0, 28.34648 17.716549999999998, 28.34648 "/> 
</g>
<!-- Left--> 
<g transform="translate(589.4296185, 22.5000185) " > 
<polygon style="stroke:#000000; fill:none; stroke-width:0.90000074" points="0, 17.716549999999998 21.25986, 17.716549999999998 21.25986, 0 42.51972, 0 42.51972, 17.716549999999998 47.6575195, 17.716549999999998 47.6575195, 39.330741 43.228382, 39.330741 43.228382, 48.189016 47.6575195, 48.189016 47.6575195, 57.047291 58.6417805, 57.047291 58.6417805, 48.189016 63.070918, 48.189016 63.070918, 39.330741 58.6417805, 39.330741 58.6417805, 17.716549999999998 63.779579999999996, 17.716549999999998 63.779579999999996, 0 85.03944, 0 85.03944, 17.716549999999998 106.2993, 17.716549999999998 106.2993, 28.34648 88.58275, 28.34648 88.58275, 37.0275895 66.968559, 37.0275895 66.968559, 32.598452 58.110284, 32.598452 58.110284, 37.0275895 49.252009, 37.0275895 49.252009, 48.0118505 58.110284, 48.0118505 58.110284, 52.440988 66.968559, 52.440988 66.968559, 48.0118505 88.58275, 48.0118505 88.58275, 56.69296 106.2993, 56.69296 106.2993, 77.95282 88.58275, 77.95282 88.58275, 99.21268 106.2993, 99.21268 106.2993, 120.47254 88.58275, 120.47254 88.58275, 141.73239999999998 106.2993, 141.73239999999998 106.2993, 162.99226 88.58275, 162.99226 88.58275, 184.25212 106.2993, 184.25212 106.2993, 205.51198 88.58275, 205.51198 88.58275, 226.77184 106.2993, 226.77184 106.2993, 248.0317 88.58275, 248.0317 88.58275, 269.29156 106.2993, 269.29156 106.2993, 290.55142 88.58275, 290.55142 88.58275, 311.81128 106.2993, 311.81128 106.2993, 333.07114 88.58275, 333.07114 88.58275, 341.7522495 66.968559, 341.7522495 66.968559, 337.323112 58.110284, 337.323112 58.110284, 341.7522495 49.252009, 341.7522495 49.252009, 352.73651049999995 58.110284, 352.73651049999995 58.110284, 357.165648 66.968559, 357.165648 66.968559, 352.73651049999995 88.58275, 352.73651049999995 88.58275, 361.41762 106.2993, 361.41762 106.2993, 372.04755 85.03944, 372.04755 85.03944, 389.7641 63.779579999999996, 389.7641 63.779579999999996, 372.04755 58.6417805, 372.04755 58.6417805, 350.433359 63.070918, 350.433359 63.070918, 341.575084 58.6417805, 341.575084 58.6417805, 332.716809 47.6575195, 332.716809 47.6575195, 341.575084 43.228382, 341.575084 43.228382, 350.433359 47.6575195, 350.433359 47.6575195, 372.04755 42.51972, 372.04755 42.51972, 389.7641 21.25986, 389.7641 21.25986, 372.04755 0, 372.04755 0, 361.41762 17.716549999999998, 361.41762 17.716549999999998, 352.73651049999995 39.330741, 352.73651049999995 39.330741, 357.165648 48.189016, 357.165648 48.189016, 352.73651049999995 57.047291, 352.73651049999995 57.047291, 341.7522495 48.189016, 341.7522495 48.189016, 337.323112 39.330741, 337.323112 39.330741, 341.7522495 17.716549999999998, 341.7522495 17.716549999999998, 333.07114 0, 333.07114 0, 311.81128 17.716549999999998, 311.81128 17.716549999999998, 290.55142 0, 290.55142 0, 269.29156 17.716549999999998, 269.29156 17.716549999999998, 248.0317 0, 248.0317 0, 226.77184 17.716549999999998, 226.77184 17.716549999999998, 205.51198 0, 205.51198 0, 184.25212 17.716549999999998, 184.25212 17.716549999999998, 162.99226 0, 162.99226 0, 141.73239999999998 17.716549999999998, 141.73239999999998 17.716549999999998, 120.47254 0, 120.47254 0, 99.21268 17.716549999999998, 99.21268 17.716549999999998, 77.95282 0, 77.95282 0, 56.69296 17.716549999999998, 56.69296 17.716549999999998, 48.0118505 39.330741, 48.0118505 39.330741, 52.440988 48.189016, 52.440988 48.189016, 48.0118505 57.047291, 48.0118505 57.047291, 37.0275895 48.189016, 37.0275895 48.189016, 32.598452 39.330741, 32.598452 39.330741, 37.0275895 17.716549999999998, 37.0275895 17.716549999999998, 28.34648 0, 28.34648 "/> 
</g>
<!-- Right--> 
<g transform="translate(589.4296185, 412.2641185) " > 
<polygon style="stroke:#000000; fill:none; stroke-width:0.90000074" points="0, 17.716549999999998 21.25986, 17.716549999999998 21.25986, 0 42.51972, 0 42.51972, 17.716549999999998 47.6575195, 17.716549999999998 47.6575195, 39.330741 43.228382, 39.330741 43.228382, 48.189016 47.6575195, 48.189016 47.6575195, 57.047291 58.6417805, 57.047291 58.6417805, 48.189016 63.070918, 48.189016 63.070918, 39.330741 58.6417805, 39.330741 58.6417805, 17.716549999999998 63.779579999999996, 17.716549999999998 63.779579999999996, 0 85.03944, 0 85.03944, 17.716549999999998 106.2993, 17.716549999999998 106.2993, 28.34648 88.58275, 28.34648 88.58275, 37.0275895 66.968559, 37.0275895 66.968559, 32.598452 58.110284, 32.598452 58.110284, 37.0275895 49.252009, 37.0275895 49.252009, 48.0118505 58.110284, 48.0118505 58.110284, 52.440988 66.968559, 52.440988 66.968559, 48.0118505 88.58275, 48.0118505 88.58275, 56.69296 106.2993, 56.69296 106.2993, 77.95282 88.58275, 77.95282 88.58275, 99.21268 106.2993, 99.21268 106.2993, 120.47254 88.58275, 120.47254 88.58275, 141.73239999999998 106.2993, 141.73239999999998 106.2993, 162.99226 88.58275, 162.99226 88.58275, 184.25212 106.2993, 184.25212 106.2993, 205.51198 88.58275, 205.51198 88.58275, 226.77184 106.2993, 226.77184 106.2993, 248.0317 88.58275, 248.0317 88.58275, 269.29156 106.2993, 269.29156 106.2993, 290.55142 88.58275, 290.55142 88.58275, 311.81128 106.2993, 311.81128 106.2993, 333.07114 88.58275, 333.07114 88.58275, 341.7522495 66.968559, 341.7522495 66.968559, 337.323112 58.110284, 337.323112 58.110284, 341.7522495 49.252009, 341.7522495 49.252009, 352.73651049999995 58.110284, 352.73651049999995 58.110284, 357.165648 66.968559, 357.165648 66.968559, 352.73651049999995 88.58275, 352.73651049999995 88.58275, 361.41762 106.2993, 361.41762 106.2993, 372.04755 85.03944, 372.04755 85.03944, 389.7641 63.779579999999996, 389.7641 63.779579999999996, 372.04755 58.6417805, 372.04755 58.6417805, 350.433359 63.070918, 350.433359 63.070918, 341.575084 58.6417805, 341.575084 58.6417805, 332.716809 47.6575195, 332.716809 47.6575195, 341.575084 43.228382, 341.575084 43.228382, 350.433359 47.6575195, 350.433359 47.6575195, 372.04755 42.51972, 372.04755 42.51972, 389.7641 21.25986, 389.7641 21.25986, 372.04755 0, 372.04755 0, 361.41762 17.716549999999998, 361.41762 17.716549999999998, 352.73651049999995 39.330741, 352.73651049999995 39.330741, 357.165648 48.189016, 357.165648 48.189016, 352.73651049999995 57.047291, 352.73651049999995 57.047291, 341.7522495 48.189016, 341.7522495 48.189016, 337.323112 39.330741, 337.323112 39.330741, 341.7522495 17.716549999999998, 341.7522495 17.716549999999998, 333.07114 0, 333.07114 0, 311.81128 17.716549999999998, 311.81128 17.716549999999998, 290.55142 0, 290.55142 0, 269.29156 17.716549999999998, 269.29156 17.716549999999998, 248.0317 0, 248.0317 0, 226.77184 17.716549999999998, 226.77184 17.716549999999998, 205.51198 0, 205.51198 0, 184.25212 17.716549999999998, 184.25212 17.716549999999998, 162.99226 0, 162.99226 0, 141.73239999999998 17.716549999999998, 141.73239999999998 17.716549999999998, 120.47254 0, 120.47254 0, 99.21268 17.716549999999998, 99.21268 17.716549999999998, 77.95282 0, 77.95282 0, 56.69296 17.716549999999998, 56.69296 17.716549999999998, 48.0118505 39.330741, 48.0118505 39.330741, 52.440988 48.189016, 52.440988 48.189016, 48.0118505 57.047291, 48.0118505 57.047291, 37.0275895 48.189016, 37.0275895 48.189016, 32.598452 39.330741, 32.598452 39.330741, 37.0275895 17.716549999999998, 37.0275895 17.716549999999998, 28.34648 0, 28.34648 "/> 
</g>
<!-- Top--> 
<g transform="translate(22.5000185, 412.2641185) " > 
<polygon style="stroke:#000000; fill:none; stroke-width:0.90000074" points="0, 17.716549999999998 33.661445, 17.716549999999998 33.661445, 0 43.937044, 0 43.937044, 13.110247000000001 57.047291, 13.110247000000001 57.047291, 0 67.32289, 0 67.32289, 17.716549999999998 88.58275, 17.716549999999998 88.58275, 0 109.84261000000001, 0 109.84261000000001, 17.716549999999998 131.10246999999998, 17.716549999999998 131.10246999999998, 0 152.36233, 0 152.36233, 17.716549999999998 173.62219, 17.716549999999998 173.62219, 0 194.88205, 0 194.88205, 17.716549999999998 216.14191, 17.716549999999998 216.14191, 0 226.417509, 0 226.417509, 13.110247000000001 239.527756, 13.110247000000001 239.527756, 0 249.803355, 0 249.803355, 17.716549999999998 283.46479999999997, 17.716549999999998 283.46479999999997, 21.25986 265.74825, 21.25986 265.74825, 42.51972 283.46479999999997, 42.51972 283.46479999999997, 46.5945265 270.35455299999995, 46.5945265 270.35455299999995, 59.7047735 283.46479999999997, 59.7047735 283.46479999999997, 63.779579999999996 265.74825, 63.779579999999996 265.74825, 85.03944 283.46479999999997, 85.03944 283.46479999999997, 88.58275 249.803355, 88.58275 249.803355, 106.2993 239.527756, 106.2993 239.527756, 93.189053 226.417509, 93.189053 226.417509, 106.2993 216.14191, 106.2993 216.14191, 88.58275 194.88205, 88.58275 194.88205, 106.2993 173.62219, 106.2993 173.62219, 88.58275 152.36233, 88.58275 152.36233, 106.2993 131.10246999999998, 106.2993 131.10246999999998, 88.58275 109.84261000000001, 88.58275 109.84261000000001, 106.2993 88.58275, 106.2993 88.58275, 88.58275 67.32289, 88.58275 67.32289, 106.2993 57.047291, 106.2993 57.047291, 93.189053 43.937044, 93.189053 43.937044, 106.2993 33.661445, 106.2993 33.661445, 88.58275 0, 88.58275 0, 85.03944 17.716549999999998, 85.03944 17.716549999999998, 63.779579999999996 0, 63.779579999999996 0, 59.7047735 13.110247000000001, 59.7047735 13.110247000000001, 46.5945265 0, 46.5945265 0, 42.51972 17.716549999999998, 42.51972 17.716549999999998, 21.25986 0, 21.25986 "/> 
</g>
<!-- Bottom--> 
<g transform="translate(305.9648185, 412.2641185) " > 
<polygon style="stroke:#000000; fill:none; stroke-width:0.90000074" points="0, 17.716549999999998 33.661445, 17.716549999999998 33.661445, 0 43.937044, 0 43.937044, 13.110247000000001 57.047291, 13.110247000000001 57.047291, 0 67.32289, 0 67.32289, 17.716549999999998 88.58275, 17.716549999999998 88.58275, 0 109.84261000000001, 0 109.84261000000001, 17.716549999999998 131.10246999999998, 17.716549999999998 131.10246999999998, 0 152.36233, 0 152.36233, 17.716549999999998 173.62219, 17.716549999999998 173.62219, 0 194.88205, 0 194.88205, 17.716549999999998 216.14191, 17.716549999999998 216.14191, 0 226.417509, 0 226.417509, 13.110247000000001 239.527756, 13.110247000000001 239.527756, 0 249.803355, 0 249.803355, 17.716549999999998 283.46479999999997, 17.716549999999998 283.46479999999997, 21.25986 265.74825, 21.25986 265.74825, 42.51972 283.46479999999997, 42.51972 283.46479999999997, 46.5945265 270.35455299999995, 46.5945265 270.35455299999995, 59.7047735 283.46479999999997, 59.7047735 283.46479999999997, 63.779579999999996 265.74825, 63.779579999999996 265.74825, 85.03944 283.46479999999997, 85.03944 283.46479999999997, 88.58275 249.803355, 88.58275 249.803355, 106.2993 239.527756, 106.2993 239.527756, 93.189053 226.417509, 93.189053 226.417509, 106.2993 216.14191, 106.2993 216.14191, 88.58275 194.88205, 88.58275 194.88205, 106.2993 173.62219, 106.2993 173.62219, 88.58275 152.36233, 88.58275 152.36233, 106.2993 131.10246999999998, 106.2993 131.10246999999998, 88.58275 109.84261000000001, 88.58275 109.84261000000001, 106.2993 88.58275, 106.2993 88.58275, 88.58275 67.32289, 88.58275 67.32289, 106.2993 57.047291, 106.2993 57.047291, 93.189053 43.937044, 93.189053 43.937044, 106.2993 33.661445, 106.2993 33.661445, 88.58275 0, 88.58275 0, 85.03944 17.716549999999998, 85.03944 17.716549999999998, 63.779579999999996 0, 63.779579999999996 0, 59.7047735 13.110247000000001, 59.7047735 13.110247000000001, 46.5945265 0, 46.5945265 0, 42.51972 17.716549999999998, 42.51972 17.716549999999998, 21.25986 0, 21.25986 "/> 
</g></svg>