<?xml version="1.0" encoding="UTF-8" standalone="no"?>
<!-- Created with Inkscape (http://www.inkscape.org/) -->

<svg
   xmlns:dc="http://purl.org/dc/elements/1.1/"
   xmlns:cc="http://creativecommons.org/ns#"
   xmlns:rdf="http://www.w3.org/1999/02/22-rdf-syntax-ns#"
   xmlns:svg="http://www.w3.org/2000/svg"
   xmlns="http://www.w3.org/2000/svg"
   xmlns:sodipodi="http://sodipodi.sourceforge.net/DTD/sodipodi-0.dtd"
   xmlns:inkscape="http://www.inkscape.org/namespaces/inkscape"
   width="32in"
   height="18in"
   viewBox="0 0 2880.0001 1620"
   id="svg4863"
   version="1.1"
   inkscape:version="0.91 r13725"
   sodipodi:docname="drawing.svg">
  <defs
     id="defs4865" />
  <sodipodi:namedview
     id="base"
     pagecolor="#ffffff"
     bordercolor="#666666"
     borderopacity="1.0"
     inkscape:pageopacity="0.0"
     inkscape:pageshadow="2"
     inkscape:zoom="0.7"
     inkscape:cx="1187.5149"
     inkscape:cy="1298.6836"
     inkscape:document-units="in"
     inkscape:current-layer="layer1"
     showgrid="false"
     units="in"
     inkscape:window-width="1366"
     inkscape:window-height="692"
     inkscape:window-x="0"
     inkscape:window-y="24"
     inkscape:window-maximized="1" />
  <metadata
     id="metadata4868">
    <rdf:RDF>
      <cc:Work
         rdf:about="">
        <dc:format>image/svg+xml</dc:format>
        <dc:type
           rdf:resource="http://purl.org/dc/dcmitype/StillImage" />
        <dc:title />
      </cc:Work>
    </rdf:RDF>
  </metadata>
  <g
     inkscape:label="Layer 1"
     inkscape:groupmode="layer"
     id="layer1"
     transform="translate(0,567.63785)">
    <rect
       style="fill:#808080;fill-opacity:1;stroke:none;stroke-width:0.27260262;stroke-miterlimit:4;stroke-dasharray:none;stroke-opacity:1"
       id="rect6523"
       width="94.197708"
       height="128.21356"
       x="1318.6354"
       y="-196.46724" />
    <ellipse
       style="fill:#808080;fill-opacity:1;stroke:none;stroke-width:1;stroke-miterlimit:4;stroke-dasharray:none;stroke-opacity:1"
       id="path4297-3-7"
       cx="441.10803"
       cy="-314.33197"
       rx="8.5041618"
       ry="8.5039701" />
    <ellipse
       style="fill:#808080;fill-opacity:1;stroke:none;stroke-width:1;stroke-miterlimit:4;stroke-dasharray:none;stroke-opacity:1"
       id="path4297-3-7-1"
       cx="440.87057"
       cy="-227.40828"
       rx="8.5041618"
       ry="8.5039701" />
    <ellipse
       style="fill:#808080;fill-opacity:1;stroke:none;stroke-width:1;stroke-miterlimit:4;stroke-dasharray:none;stroke-opacity:1"
       id="path4297-3-7-2"
       cx="660.29034"
       cy="-226.8452"
       rx="8.5041618"
       ry="8.5039701" />
    <ellipse
       style="fill:#808080;fill-opacity:1;stroke:none;stroke-width:1;stroke-miterlimit:4;stroke-dasharray:none;stroke-opacity:1"
       id="path4297-3-7-7"
       cx="660.29034"
       cy="-314.2887"
       rx="8.5041618"
       ry="8.5039701" />
    <path
       id="polygon6"
       d="M 125.24535,-461.27789 142.25367,-461.27789 142.25367,-442.38017 154.34848,-442.38017 154.34848,-419.32497 149.62394,-419.32497 149.62394,-409.87611 154.34848,-409.87611 154.34848,-400.42725 166.06533,-400.42725 166.06533,-409.87611 170.78987,-409.87611 170.78987,-419.32497 166.06533,-419.32497 166.06533,-442.38017 178.16014,-442.38017 178.16014,-461.27789 200.8379,-461.27789 200.8379,-442.38017 223.51566,-442.38017 223.51566,-461.27789 246.19343,-461.27789 246.19343,-442.38017 268.87119,-442.38017 268.87119,-461.27789 291.54896,-461.27789 291.54896,-442.38017 314.22673,-442.38017 314.22673,-461.27789 336.90449,-461.27789 336.90449,-442.38017 348.99929,-442.38017 348.99929,-419.32497 344.27476,-419.32497 344.27476,-409.87611 348.99929,-409.87611 348.99929,-400.42725 360.71614,-400.42725 360.71614,-409.87611 365.44068,-409.87611 365.44068,-419.32497 360.71614,-419.32497 360.71614,-442.38017 372.81094,-442.38017 372.81094,-461.27789 389.81927,-461.27789 389.81927,-431.04155 408.71741,-431.04155 408.71741,-422.91554 394.73278,-422.91554 394.73278,-408.93123 408.71741,-408.93123 408.71741,-400.80521 389.81927,-400.80521 389.81927,-378.12795 408.71741,-378.12795 408.71741,-355.4507 389.81927,-355.4507 389.81927,-332.77344 408.71741,-332.77344 408.71741,-310.09619 389.81927,-310.09619 389.81927,-287.41893 408.71741,-287.41893 408.71741,-264.74172 389.81927,-264.74172 389.81927,-242.06442 408.71741,-242.06442 408.71741,-219.38712 389.81927,-219.38712 389.81927,-196.70993 408.71741,-196.70993 408.71741,-174.03264 389.81927,-174.03264 389.81927,-151.35544 408.71741,-151.35544 408.71741,-128.67815 389.81927,-128.67815 389.81927,-106.00085 408.71741,-106.00085 408.71741,-97.874847 394.73278,-97.874847 394.73278,-83.890587 408.71741,-83.890587 408.71741,-75.764597 389.81927,-75.764597 389.81927,-45.528227 372.81094,-45.528227 372.81094,-64.425887 360.71614,-64.425887 360.71614,-87.481107 365.44068,-87.481107 365.44068,-96.929987 360.71614,-96.929987 360.71614,-106.37888 348.99929,-106.37888 348.99929,-96.929987 344.27476,-96.929987 344.27476,-87.481107 348.99929,-87.481107 348.99929,-64.425887 336.90449,-64.425887 336.90449,-45.528227 314.22673,-45.528227 314.22673,-64.425887 291.54896,-64.425887 291.54896,-45.528227 268.87119,-45.528227 268.87119,-64.425887 246.19343,-64.425887 246.19343,-45.528227 223.51566,-45.528227 223.51566,-64.425887 200.8379,-64.425887 200.8379,-45.528227 178.16014,-45.528227 178.16014,-64.425887 166.06533,-64.425887 166.06533,-87.481107 170.78987,-87.481107 170.78987,-96.929987 166.06533,-96.929987 166.06533,-106.37888 154.34848,-106.37888 154.34848,-96.929987 149.62394,-96.929987 149.62394,-87.481107 154.34848,-87.481107 154.34848,-64.425887 142.25367,-64.425887 142.25367,-45.528227 125.24535,-45.528227 125.24535,-75.764597 106.34721,-75.764597 106.34721,-83.890587 120.33183,-83.890587 120.33183,-97.874847 106.34721,-97.874847 106.34721,-106.00085 125.24535,-106.00085 125.24535,-128.67815 106.34721,-128.67815 106.34721,-151.35544 125.24535,-151.35544 125.24535,-174.03264 106.34721,-174.03264 106.34721,-196.70993 125.24535,-196.70993 125.24535,-219.38712 106.34721,-219.38712 106.34721,-242.06442 125.24535,-242.06442 125.24535,-264.74172 106.34721,-264.74172 106.34721,-287.41893 125.24535,-287.41893 125.24535,-310.09619 106.34721,-310.09619 106.34721,-332.77344 125.24535,-332.77344 125.24535,-355.4507 106.34721,-355.4507 106.34721,-378.12795 125.24535,-378.12795 125.24535,-400.80521 106.34721,-400.80521 106.34721,-408.93123 120.33183,-408.93123 120.33183,-422.91554 106.34721,-422.91554 106.34721,-431.04155 125.24535,-431.04155 Z"
       style="fill:none;stroke:#000000;stroke-width:0.09600146;stroke-miterlimit:4;stroke-dasharray:none;stroke-opacity:1"
       inkscape:connector-curvature="0" />
    <path
       inkscape:connector-curvature="0"
       id="polygon22"
       d="M 178.14214,-45.336127 178.14214,-26.454358 200.81272,-26.454358 200.81272,-45.336127 223.48329,-45.336127 223.48329,-26.454358 246.15385,-26.454358 246.15385,-45.336127 268.82443,-45.336127 268.82443,-26.454358 291.495,-26.454358 291.495,-45.336127 314.16558,-45.336127 314.16558,-26.454358 336.83614,-26.454358 336.83614,-45.336127 347.79358,-45.336127 347.79358,-31.3636 361.77378,-31.3636 361.77378,-45.336127 372.73122,-45.336127 372.73122,-26.454358 408.62629,-26.454358 408.62629,-22.678027 389.73415,-22.678027 389.73415,-0.019929 408.62629,-0.019929 408.62629,4.322805 394.64609,4.322805 394.64609,18.295328 408.62629,18.295328 408.62629,22.638062 389.73415,22.638062 389.73415,45.296159 408.62629,45.296159 408.62629,49.072491 372.73122,49.072491 372.73122,67.954257 361.77378,67.954257 361.77378,53.981733 347.79358,53.981733 347.79358,67.954257 336.83614,67.954257 336.83614,49.072491 314.16558,49.072491 314.16558,67.954257 291.495,67.954257 291.495,49.072491 268.82443,49.072491 268.82443,67.954257 246.15385,67.954257 246.15385,49.072491 223.48329,49.072491 223.48329,67.954257 200.81272,67.954257 200.81272,49.072491 178.14214,49.072491 178.14214,67.954257 167.1847,67.954257 167.1847,53.981733 153.20451,53.981733 153.20451,67.954257 142.24707,67.954257 142.24707,49.072491 106.352,49.072491 106.352,45.296159 125.24414,45.296159 125.24414,22.638062 106.352,22.638062 106.352,18.295328 120.33218,18.295328 120.33218,4.322805 106.352,4.322805 106.352,-0.019929 125.24414,-0.019929 125.24414,-22.678027 106.352,-22.678027 106.352,-26.454358 142.24707,-26.454358 142.24707,-45.336127 153.20451,-45.336127 153.20451,-31.3636 167.1847,-31.3636 167.1847,-45.336127 Z"
       style="fill:none;fill-opacity:1;stroke:#000000;stroke-width:0.09600146;stroke-miterlimit:4;stroke-dasharray:none;stroke-opacity:1" />
    <path
       style="fill:none;fill-opacity:1;stroke:#000000;stroke-width:0.09600146;stroke-miterlimit:4;stroke-dasharray:none;stroke-opacity:1"
       d="M 106.3519,-45.432227 125.15428,-45.432227 125.15428,67.954363 106.3519,67.954363 Z"
       id="rect4172"
       inkscape:connector-curvature="0" />
    <path
       style="fill:none;fill-opacity:1;stroke:#000000;stroke-width:0.09600146;stroke-miterlimit:4;stroke-dasharray:none;stroke-opacity:1"
       d="M 389.82398,-45.336227 408.6264,-45.336227 408.6264,67.954363 389.82398,67.954363 Z"
       id="rect4172-3"
       inkscape:connector-curvature="0" />
    <path
       inkscape:connector-curvature="0"
       style="fill:none;fill-opacity:1;stroke:#000000;stroke-width:0.09600146;stroke-miterlimit:4;stroke-dasharray:none;stroke-opacity:1"
       d="M 125.2512,49.153558 388.94052,49.153558 388.94052,67.95319 125.2512,67.95319 Z"
       id="rect4251" />
    <path
       inkscape:connector-curvature="0"
       style="fill:none;stroke:#000000;stroke-width:0.09600146;stroke-miterlimit:4;stroke-dasharray:none;stroke-opacity:1"
       d="M 480.51232,67.95415 469.55488,67.95415 469.55488,53.981733 455.5747,53.981733 455.5747,67.95415 444.61726,67.95415 444.61726,49.072491 408.72218,49.072491 408.72218,45.296159 427.61432,45.296159 427.61432,22.638062 408.72218,22.638062 408.72218,18.295222 422.70236,18.295222 422.70236,4.322805 408.72218,4.322805 408.72218,-0.020036 427.61432,-0.020036 427.61432,-22.678133 408.72218,-22.678133 408.72218,-26.454465 444.61726,-26.454465 444.61726,-45.336127 455.5747,-45.336127 455.5747,-31.363707 469.55488,-31.363707 469.55488,-45.336127 480.51232,-45.336127 480.51232,-26.454465 503.18289,-26.454465 503.18289,-45.336127 525.85347,-45.336127 525.85347,-26.454465 548.52405,-26.454465 548.52405,-45.336127 571.19461,-45.336127 571.19461,-26.454465 593.86519,-26.454465 593.86519,-45.336127 616.53576,-45.336127 616.53576,-26.454465 639.20632,-26.454465 639.20632,-45.336127 650.16377,-45.336127 650.16377,-31.363707 664.14396,-31.363707 664.14396,-45.336127 675.1014,-45.336127 675.1014,-26.454465 710.99648,-26.454465 710.99648,-22.678133 692.10433,-22.678133 692.10433,-0.020036 710.99648,-0.020036 710.99648,4.322805 697.01629,4.322805 697.01629,18.295222 710.99648,18.295222 710.99648,22.638062 692.10433,22.638062 692.10433,45.296159 710.99648,45.296159 710.99648,49.072491 675.1014,49.072491 675.1014,67.95415 664.14396,67.95415 664.14396,53.981733 650.16377,53.981733 650.16377,67.95415 639.20632,67.95415 639.20632,49.072491 616.53576,49.072491 616.53576,67.95415 593.86519,67.95415 593.86519,49.072491 571.19461,49.072491 571.19461,67.95415 548.52405,67.95415 548.52405,49.072491 525.85347,49.072491 525.85347,67.95415 503.18289,67.95415 503.18289,49.072491 480.51232,49.072491 Z"
       id="polygon26" />
    <path
       style="fill:none;fill-opacity:1;stroke:#000000;stroke-width:0.09600146;stroke-miterlimit:4;stroke-dasharray:none;stroke-opacity:1"
       d="M 710.99661,67.954363 692.19418,67.954363 692.19418,-45.336227 710.99661,-45.336227 Z"
       id="rect4172-7"
       inkscape:connector-curvature="0" />
    <path
       style="fill:none;fill-opacity:1;stroke:#000000;stroke-width:0.09600146;stroke-miterlimit:4;stroke-dasharray:none;stroke-opacity:1"
       d="M 427.5245,67.954363 408.72208,67.954363 408.72208,-45.336227 427.5245,-45.336227 Z"
       id="rect4172-3-5"
       inkscape:connector-curvature="0" />
    <path
       inkscape:connector-curvature="0"
       style="fill:none;fill-opacity:1;stroke:#000000;stroke-width:0.09600146;stroke-miterlimit:4;stroke-dasharray:none;stroke-opacity:1"
       d="M 692.09722,-26.535532 427.62148,-26.535532 427.62148,-45.335057 692.09722,-45.335057 Z"
       id="rect4251-3" />
    <path
       sodipodi:nodetypes="ccccccccccccccccccccccccccccccccccccccccccccccccccccccccccccccccc"
       inkscape:connector-curvature="0"
       id="polygon18"
       d="M 711.0973,-442.38017 733.77507,-442.38017 733.77507,-461.27789 805.7612,-461.27789 C 805.37987,-322.69529 805.64665,-184.11138 805.53513,-45.528207 L 733.77507,-45.528207 733.77507,-64.425927 711.0973,-64.425927 711.0973,-75.764547 729.99544,-75.764547 729.99544,-85.024427 753.05116,-85.024427 753.05116,-80.299997 762.50022,-80.299997 762.50022,-85.024427 771.9493,-85.024427 771.9493,-96.741007 762.50022,-96.741007 762.50022,-101.46544 753.05116,-101.46544 753.05116,-96.741007 729.99544,-96.741007 729.99544,-106.00089 711.0973,-106.00089 711.0973,-128.67815 729.99544,-128.67815 729.99544,-151.3554 711.0973,-151.3554 711.0973,-174.03266 729.99544,-174.03266 729.99544,-196.70991 711.0973,-196.70991 711.0973,-219.38717 729.99544,-219.38717 729.99544,-242.06442 711.0973,-242.06442 711.0973,-264.74168 729.99544,-264.74168 729.99544,-287.41893 711.0973,-287.41893 711.0973,-310.09619 729.99544,-310.09619 729.99544,-332.77344 711.0973,-332.77344 711.0973,-355.4507 729.99544,-355.4507 729.99544,-378.12795 711.0973,-378.12795 711.0973,-400.80521 729.99544,-400.80521 729.99544,-410.06509 753.05116,-410.06509 753.05116,-405.34065 762.50022,-405.34065 762.50022,-410.06509 771.9493,-410.06509 771.9493,-421.78167 762.50022,-421.78167 762.50022,-426.5061 753.05116,-426.5061 753.05116,-421.78167 729.99544,-421.78167 729.99544,-431.04155 711.0973,-431.04155 Z"
       style="fill:none;stroke:#000000;stroke-width:0.09600146;stroke-miterlimit:4;stroke-dasharray:none;stroke-opacity:1" />
    <path
       sodipodi:nodetypes="ccccccccccccccccccccccccccccccccccccccccccccccccccccccccccccccccc"
       inkscape:connector-curvature="0"
       id="polygon18-6"
       d="M 900.52137,-64.425927 877.84361,-64.425927 877.84361,-45.528207 805.85747,-45.528207 C 806.2388,-184.11081 805.97202,-322.69472 806.08354,-461.27789 L 877.84361,-461.27789 877.84361,-442.38017 900.52138,-442.38017 900.52138,-431.04155 881.62325,-431.04155 881.62325,-421.78167 858.56751,-421.78167 858.56751,-426.5061 849.11845,-426.5061 849.11845,-421.78167 839.66937,-421.78167 839.66937,-410.06509 849.11845,-410.06509 849.11845,-405.34065 858.56751,-405.34065 858.56751,-410.06509 881.62325,-410.06509 881.62325,-400.80521 900.52138,-400.80521 900.52138,-378.12795 881.62325,-378.12795 881.62325,-355.4507 900.52138,-355.4507 900.52138,-332.77344 881.62325,-332.77344 881.62325,-310.09619 900.52138,-310.09619 900.52138,-287.41893 881.62325,-287.41893 881.62325,-264.74168 900.52138,-264.74168 900.52138,-242.06442 881.62325,-242.06442 881.62325,-219.38717 900.52138,-219.38717 900.52138,-196.70991 881.62325,-196.70991 881.62325,-174.03266 900.52138,-174.03266 900.52138,-151.3554 881.62325,-151.3554 881.62325,-128.67815 900.52138,-128.67815 900.52138,-106.00089 881.62325,-106.00089 881.62325,-96.741007 858.56751,-96.741007 858.56751,-101.46544 849.11845,-101.46544 849.11845,-96.741007 839.66937,-96.741007 839.66937,-85.024427 849.11845,-85.024427 849.11845,-80.299997 858.56751,-80.299997 858.56751,-85.024427 881.62325,-85.024427 881.62325,-75.764547 900.52138,-75.764547 Z"
       style="fill:none;stroke:#000000;stroke-width:0.09600146;stroke-miterlimit:4;stroke-dasharray:none;stroke-opacity:1" />
    <path
       inkscape:connector-curvature="0"
       style="fill:#808080;fill-opacity:1;stroke:none;stroke-width:0.09000008;stroke-miterlimit:4;stroke-dasharray:none;stroke-opacity:1"
       d="M 559.84909,-7.589446 A 18.898123,18.897697 0 0 0 540.95069,11.308533 18.898123,18.897697 0 0 0 559.84909,30.206512 18.898123,18.897697 0 0 0 578.74541,11.308533 18.898123,18.897697 0 0 0 559.84909,-7.589446 Z M 559.84909,-0.028996 A 11.338873,11.338618 0 0 1 571.18688,11.308533 11.338873,11.338618 0 0 1 559.84909,22.648195 11.338873,11.338618 0 0 1 548.50922,11.308533 11.338873,11.338618 0 0 1 559.84909,-0.028996 Z"
       id="path4732" />
    <rect
       style="fill:none;stroke:#000000;stroke-width:0.09600146;stroke-miterlimit:4;stroke-dasharray:none;stroke-opacity:1"
       id="rect4734-3"
       width="18.898123"
       height="18.897697"
       x="626.01843"
       y="16.22242" />
    <rect
       style="fill:none;stroke:#000000;stroke-width:0.09600146;stroke-miterlimit:4;stroke-dasharray:none;stroke-opacity:1"
       id="rect4734-7"
       width="18.898123"
       height="18.897697"
       x="626.01843"
       y="-12.502083" />
    <rect
       style="fill:none;stroke:#000000;stroke-width:0.09600146;stroke-miterlimit:4;stroke-dasharray:none;stroke-opacity:1"
       id="rect4734-3-3"
       width="18.898123"
       height="18.897697"
       x="474.83331"
       y="16.22242" />
    <rect
       style="fill:none;stroke:#000000;stroke-width:0.09600146;stroke-miterlimit:4;stroke-dasharray:none;stroke-opacity:1"
       id="rect4734-7-6"
       width="18.898123"
       height="18.897697"
       x="474.83331"
       y="-12.502083" />
    <ellipse
       style="fill:none;fill-opacity:1;stroke:#000000;stroke-width:0.09600146;stroke-miterlimit:4;stroke-dasharray:none;stroke-opacity:1"
       id="path4527"
       cx="559.84802"
       cy="11.308537"
       rx="11.287242"
       ry="11.286988" />
    <ellipse
       style="fill:none;fill-opacity:1;stroke:#000000;stroke-width:0.09600146;stroke-miterlimit:4;stroke-dasharray:none;stroke-opacity:1"
       id="path6131"
       cx="331.28452"
       cy="372.45792"
       transform="scale(1,-1)"
       rx="9.449069"
       ry="9.4488554" />
    <path
       inkscape:connector-curvature="0"
       style="fill:#808080;fill-opacity:1;stroke:none;stroke-width:0.09000008;stroke-miterlimit:4;stroke-dasharray:none;stroke-opacity:1"
       d="M 352.07232,-355.44951 352.07232,-298.75756 310.49623,-298.75756 310.49623,-355.44951 352.07232,-355.44951 Z M 348.29305,-351.65984 314.2755,-351.65984 314.2755,-342.96604 348.29305,-342.96604 348.29305,-351.65984 Z"
       id="rect6133" />
    <rect
       style="color:#000000;clip-rule:nonzero;display:inline;overflow:visible;visibility:visible;opacity:1;isolation:auto;mix-blend-mode:normal;color-interpolation:sRGB;color-interpolation-filters:linearRGB;solid-color:#000000;solid-opacity:1;fill:none;fill-opacity:1;fill-rule:nonzero;stroke:#000000;stroke-width:0.09600146;stroke-linecap:butt;stroke-linejoin:miter;stroke-miterlimit:4;stroke-dasharray:none;stroke-dashoffset:0;stroke-opacity:1;color-rendering:auto;image-rendering:auto;shape-rendering:auto;text-rendering:auto;enable-background:accumulate"
       id="rect6327-6"
       width="34.016647"
       height="8.6929483"
       x="314.29184"
       y="342.94412"
       transform="scale(1,-1)" />
    <rect
       style="fill:none;fill-opacity:1;stroke:#000000;stroke-width:0.09600146;stroke-miterlimit:4;stroke-dasharray:none;stroke-opacity:1"
       id="rect4425"
       width="415.56735"
       height="302.1879"
       x="-461.27792"
       y="-711.00128"
       transform="matrix(0,1,-1,0,0,0)" />
    <path
       style="visibility:visible;fill:none;fill-rule:evenodd;stroke:none;stroke-width:0.09000008;stroke-linejoin:round;stroke-miterlimit:4;stroke-dasharray:none"
       inkscape:connector-curvature="0"
       id="path1055"
       d="M 445.49039,-227.49486 445.49039,-227.49486 C 445.49039,-224.85293 443.37477,-222.73079 440.82739,-222.73079 L 440.82739,-222.73079 C 438.36637,-222.73079 436.25075,-224.85293 436.25075,-227.49486 L 436.25075,-227.49486 C 436.25075,-230.09348 438.36637,-232.08581 440.82739,-232.08581 L 440.82739,-232.08581 C 443.37477,-232.08581 445.49039,-230.09348 445.49039,-227.49486 Z" />
    <path
       style="visibility:visible;fill:none;fill-rule:evenodd;stroke:#000000;stroke-width:0.09600146;stroke-linejoin:round;stroke-miterlimit:4;stroke-dasharray:none"
       inkscape:connector-curvature="0"
       d="M 445.49039,-227.49486 445.49039,-227.49486 C 445.49039,-224.85293 443.37477,-222.73079 440.82739,-222.73079 L 440.82739,-222.73079 C 438.36637,-222.73079 436.25075,-224.85293 436.25075,-227.49486 L 436.25075,-227.49486 C 436.25075,-230.09348 438.36637,-232.08581 440.82739,-232.08581 L 440.82739,-232.08581 C 443.37477,-232.08581 445.49039,-230.09348 445.49039,-227.49486 Z"
       id="Drawing_179_0" />
    <path
       style="visibility:visible;fill:none;fill-rule:evenodd;stroke:none;stroke-width:0.09000008;stroke-linejoin:round;stroke-miterlimit:4;stroke-dasharray:none"
       inkscape:connector-curvature="0"
       id="path1074"
       d="M 664.95337,-226.84526 664.95337,-226.84526 C 664.95337,-224.28994 662.96728,-222.08108 660.37674,-222.08108 L 660.37674,-222.08108 C 657.82936,-222.08108 655.62739,-224.28994 655.62739,-226.84526 L 655.62739,-226.84526 C 655.62739,-229.44388 657.82936,-231.60933 660.37674,-231.60933 L 660.37674,-231.60933 C 662.96728,-231.60933 664.95337,-229.44388 664.95337,-226.84526 Z" />
    <path
       style="visibility:visible;fill:none;fill-rule:evenodd;stroke:#000000;stroke-width:0.09600146;stroke-linejoin:round;stroke-miterlimit:4;stroke-dasharray:none"
       inkscape:connector-curvature="0"
       d="M 664.95337,-226.84526 664.95337,-226.84526 C 664.95337,-224.28994 662.96728,-222.08108 660.37674,-222.08108 L 660.37674,-222.08108 C 657.82936,-222.08108 655.62739,-224.28994 655.62739,-226.84526 L 655.62739,-226.84526 C 655.62739,-229.44388 657.82936,-231.60933 660.37674,-231.60933 L 660.37674,-231.60933 C 662.96728,-231.60933 664.95337,-229.44388 664.95337,-226.84526 Z"
       id="Drawing_183_0" />
    <path
       style="visibility:visible;fill:none;fill-rule:evenodd;stroke:none;stroke-width:0.09000008;stroke-linejoin:round;stroke-miterlimit:4;stroke-dasharray:none"
       inkscape:connector-curvature="0"
       id="path1093"
       d="M 445.87897,-314.37535 445.87897,-314.37535 C 445.87897,-311.73342 443.677,-309.61117 441.08644,-309.61117 L 441.08644,-309.61117 C 438.53906,-309.61117 436.33709,-311.73342 436.33709,-314.37535 L 436.33709,-314.37535 C 436.33709,-316.93055 438.53906,-319.0528 441.08644,-319.0528 L 441.08644,-319.0528 C 443.677,-319.0528 445.87897,-316.93055 445.87897,-314.37535 Z" />
    <path
       style="visibility:visible;fill:none;fill-rule:evenodd;stroke:#000000;stroke-width:0.09600146;stroke-linejoin:round;stroke-miterlimit:4;stroke-dasharray:none"
       inkscape:connector-curvature="0"
       d="M 445.87897,-314.37535 445.87897,-314.37535 C 445.87897,-311.73342 443.677,-309.61117 441.08644,-309.61117 L 441.08644,-309.61117 C 438.53906,-309.61117 436.33709,-311.73342 436.33709,-314.37535 L 436.33709,-314.37535 C 436.33709,-316.93055 438.53906,-319.0528 441.08644,-319.0528 L 441.08644,-319.0528 C 443.677,-319.0528 445.87897,-316.93055 445.87897,-314.37535 Z"
       id="Drawing_187_0" />
    <path
       style="visibility:visible;fill:none;fill-rule:evenodd;stroke:none;stroke-width:0.09000008;stroke-linejoin:round;stroke-miterlimit:4;stroke-dasharray:none"
       inkscape:connector-curvature="0"
       id="path1112"
       d="M 664.9102,-314.20201 664.9102,-314.20201 C 664.9102,-311.6467 662.79459,-309.61117 660.24721,-309.61117 L 660.24721,-309.61117 C 657.57031,-309.61117 655.67057,-311.6467 655.67057,-314.20201 L 655.67057,-314.20201 C 655.67057,-316.75733 657.57031,-318.96619 660.24721,-318.96619 L 660.24721,-318.96619 C 662.79459,-318.96619 664.9102,-316.75733 664.9102,-314.20201 Z" />
    <path
       style="visibility:visible;fill:none;fill-rule:evenodd;stroke:#000000;stroke-width:0.09600146;stroke-linejoin:round;stroke-miterlimit:4;stroke-dasharray:none"
       inkscape:connector-curvature="0"
       d="M 664.9102,-314.20201 664.9102,-314.20201 C 664.9102,-311.6467 662.79459,-309.61117 660.24721,-309.61117 L 660.24721,-309.61117 C 657.57031,-309.61117 655.67057,-311.6467 655.67057,-314.20201 L 655.67057,-314.20201 C 655.67057,-316.75733 657.57031,-318.96619 660.24721,-318.96619 L 660.24721,-318.96619 C 662.79459,-318.96619 664.9102,-316.75733 664.9102,-314.20201 Z"
       id="Drawing_191_0" />
    <rect
       style="opacity:0.98000004;fill:none;fill-opacity:1;stroke:#000000;stroke-width:0.09600146;stroke-miterlimit:4;stroke-dasharray:none;stroke-opacity:1"
       id="rect29024-2"
       width="18.897707"
       height="18.898132"
       x="64.60833"
       y="661.90924"
       transform="matrix(0,-1,1,0,0,0)" />
    <path
       style="opacity:0.98000004;fill:none;fill-opacity:1;stroke:#000000;stroke-width:0.09600146;stroke-miterlimit:4;stroke-dasharray:none;stroke-opacity:1"
       d="M 711.09261,-45.336227 711.09261,-7.565339 748.86651,-7.565339 748.86651,11.355573 767.74824,11.355573 767.74824,-7.565339 767.76284,-7.565339 767.76284,-45.336227 711.09263,-45.336227 Z"
       id="rect29139-9"
       inkscape:connector-curvature="0" />
    <rect
       style="fill:none;fill-opacity:1;stroke:#000000;stroke-width:0.08651701;stroke-miterlimit:4;stroke-dasharray:none;stroke-opacity:1"
       id="rect4861"
       width="793.63525"
       height="529.04944"
       x="106.89088"
       y="-461.28262" />
    <ellipse
       style="fill:#808080;fill-opacity:1;stroke:none;stroke-width:1;stroke-miterlimit:4;stroke-dasharray:none;stroke-opacity:1"
       id="path4297-3-7-9"
       cx="441.10803"
       cy="214.99631"
       rx="8.5041618"
       ry="8.5039701" />
    <ellipse
       style="fill:#808080;fill-opacity:1;stroke:none;stroke-width:1;stroke-miterlimit:4;stroke-dasharray:none;stroke-opacity:1"
       id="path4297-3-7-1-3"
       cx="440.87057"
       cy="301.91998"
       rx="8.5041618"
       ry="8.5039701" />
    <ellipse
       style="fill:#808080;fill-opacity:1;stroke:none;stroke-width:1;stroke-miterlimit:4;stroke-dasharray:none;stroke-opacity:1"
       id="path4297-3-7-2-6"
       cx="660.29034"
       cy="302.48309"
       rx="8.5041618"
       ry="8.5039701" />
    <ellipse
       style="fill:#808080;fill-opacity:1;stroke:none;stroke-width:1;stroke-miterlimit:4;stroke-dasharray:none;stroke-opacity:1"
       id="path4297-3-7-7-0"
       cx="660.29034"
       cy="215.03963"
       rx="8.5041618"
       ry="8.5039701" />
    <path
       id="polygon6-6"
       d="M 125.24535,68.050407 142.25367,68.050407 142.25367,86.94812 154.34848,86.94812 154.34848,110.00333 149.62394,110.00333 149.62394,119.45218 154.34848,119.45218 154.34848,128.90104 166.06533,128.90104 166.06533,119.45218 170.78987,119.45218 170.78987,110.00333 166.06533,110.00333 166.06533,86.94812 178.16014,86.94812 178.16014,68.050407 200.8379,68.050407 200.8379,86.94812 223.51566,86.94812 223.51566,68.050407 246.19343,68.050407 246.19343,86.94812 268.87119,86.94812 268.87119,68.050407 291.54896,68.050407 291.54896,86.94812 314.22673,86.94812 314.22673,68.050407 336.90449,68.050407 336.90449,86.94812 348.99929,86.94812 348.99929,110.00333 344.27476,110.00333 344.27476,119.45218 348.99929,119.45218 348.99929,128.90104 360.71614,128.90104 360.71614,119.45218 365.44068,119.45218 365.44068,110.00333 360.71614,110.00333 360.71614,86.94812 372.81094,86.94812 372.81094,68.050407 389.81927,68.050407 389.81927,98.286747 408.71741,98.286747 408.71741,106.41276 394.73278,106.41276 394.73278,120.39707 408.71741,120.39707 408.71741,128.52309 389.81927,128.52309 389.81927,151.20034 408.71741,151.20034 408.71741,173.87759 389.81927,173.87759 389.81927,196.55485 408.71741,196.55485 408.71741,219.2321 389.81927,219.2321 389.81927,241.90936 408.71741,241.90936 408.71741,264.58657 389.81927,264.58657 389.81927,287.26387 408.71741,287.26387 408.71741,309.94116 389.81927,309.94116 389.81927,332.61836 408.71741,332.61836 408.71741,355.29565 389.81927,355.29565 389.81927,377.97284 408.71741,377.97284 408.71741,400.65014 389.81927,400.65014 389.81927,423.32744 408.71741,423.32744 408.71741,431.45344 394.73278,431.45344 394.73278,445.43769 408.71741,445.43769 408.71741,453.56369 389.81927,453.56369 389.81927,483.80005 372.81094,483.80005 372.81094,464.9024 360.71614,464.9024 360.71614,441.84718 365.44068,441.84718 365.44068,432.39829 360.71614,432.39829 360.71614,422.94941 348.99929,422.94941 348.99929,432.39829 344.27476,432.39829 344.27476,441.84718 348.99929,441.84718 348.99929,464.9024 336.90449,464.9024 336.90449,483.80005 314.22673,483.80005 314.22673,464.9024 291.54896,464.9024 291.54896,483.80005 268.87119,483.80005 268.87119,464.9024 246.19343,464.9024 246.19343,483.80005 223.51566,483.80005 223.51566,464.9024 200.8379,464.9024 200.8379,483.80005 178.16014,483.80005 178.16014,464.9024 166.06533,464.9024 166.06533,441.84718 170.78987,441.84718 170.78987,432.39829 166.06533,432.39829 166.06533,422.94941 154.34848,422.94941 154.34848,432.39829 149.62394,432.39829 149.62394,441.84718 154.34848,441.84718 154.34848,464.9024 142.25367,464.9024 142.25367,483.80005 125.24535,483.80005 125.24535,453.56369 106.34721,453.56369 106.34721,445.43769 120.33183,445.43769 120.33183,431.45344 106.34721,431.45344 106.34721,423.32744 125.24535,423.32744 125.24535,400.65014 106.34721,400.65014 106.34721,377.97284 125.24535,377.97284 125.24535,355.29565 106.34721,355.29565 106.34721,332.61836 125.24535,332.61836 125.24535,309.94116 106.34721,309.94116 106.34721,287.26387 125.24535,287.26387 125.24535,264.58657 106.34721,264.58657 106.34721,241.90936 125.24535,241.90936 125.24535,219.2321 106.34721,219.2321 106.34721,196.55485 125.24535,196.55485 125.24535,173.87759 106.34721,173.87759 106.34721,151.20034 125.24535,151.20034 125.24535,128.52309 106.34721,128.52309 106.34721,120.39707 120.33183,120.39707 120.33183,106.41276 106.34721,106.41276 106.34721,98.286747 125.24535,98.286747 Z"
       style="fill:none;stroke:#000000;stroke-width:0.09600146;stroke-miterlimit:4;stroke-dasharray:none;stroke-opacity:1"
       inkscape:connector-curvature="0" />
    <path
       inkscape:connector-curvature="0"
       id="polygon22-2"
       d="M 178.14214,483.99216 178.14214,502.87393 200.81272,502.87393 200.81272,483.99216 223.48329,483.99216 223.48329,502.87393 246.15385,502.87393 246.15385,483.99216 268.82443,483.99216 268.82443,502.87393 291.495,502.87393 291.495,483.99216 314.16558,483.99216 314.16558,502.87393 336.83614,502.87393 336.83614,483.99216 347.79358,483.99216 347.79358,497.96469 361.77378,497.96469 361.77378,483.99216 372.73122,483.99216 372.73122,502.87393 408.62629,502.87393 408.62629,506.65026 389.73415,506.65026 389.73415,529.30836 408.62629,529.30836 408.62629,533.65109 394.64609,533.65109 394.64609,547.62361 408.62629,547.62361 408.62629,551.96635 389.73415,551.96635 389.73415,574.62445 408.62629,574.62445 408.62629,578.40078 372.73122,578.40078 372.73122,597.28254 361.77378,597.28254 361.77378,583.31002 347.79358,583.31002 347.79358,597.28254 336.83614,597.28254 336.83614,578.40078 314.16558,578.40078 314.16558,597.28254 291.495,597.28254 291.495,578.40078 268.82443,578.40078 268.82443,597.28254 246.15385,597.28254 246.15385,578.40078 223.48329,578.40078 223.48329,597.28254 200.81272,597.28254 200.81272,578.40078 178.14214,578.40078 178.14214,597.28254 167.1847,597.28254 167.1847,583.31002 153.20451,583.31002 153.20451,597.28254 142.24707,597.28254 142.24707,578.40078 106.352,578.40078 106.352,574.62445 125.24414,574.62445 125.24414,551.96635 106.352,551.96635 106.352,547.62361 120.33218,547.62361 120.33218,533.65109 106.352,533.65109 106.352,529.30836 125.24414,529.30836 125.24414,506.65026 106.352,506.65026 106.352,502.87393 142.24707,502.87393 142.24707,483.99216 153.20451,483.99216 153.20451,497.96469 167.1847,497.96469 167.1847,483.99216 Z"
       style="fill:none;fill-opacity:1;stroke:#000000;stroke-width:0.09600146;stroke-miterlimit:4;stroke-dasharray:none;stroke-opacity:1" />
    <path
       style="fill:none;fill-opacity:1;stroke:#000000;stroke-width:0.09600146;stroke-miterlimit:4;stroke-dasharray:none;stroke-opacity:1"
       d="M 106.3519,483.89605 125.15428,483.89605 125.15428,597.28265 106.3519,597.28265 Z"
       id="rect4172-6"
       inkscape:connector-curvature="0" />
    <path
       style="fill:none;fill-opacity:1;stroke:#000000;stroke-width:0.09600146;stroke-miterlimit:4;stroke-dasharray:none;stroke-opacity:1"
       d="M 389.82398,483.99206 408.6264,483.99206 408.6264,597.28265 389.82398,597.28265 Z"
       id="rect4172-3-1"
       inkscape:connector-curvature="0" />
    <path
       inkscape:connector-curvature="0"
       style="fill:none;fill-opacity:1;stroke:#000000;stroke-width:0.09600146;stroke-miterlimit:4;stroke-dasharray:none;stroke-opacity:1"
       d="M 125.2512,578.48184 388.94052,578.48184 388.94052,597.28148 125.2512,597.28148 Z"
       id="rect4251-8" />
    <path
       inkscape:connector-curvature="0"
       style="fill:none;stroke:#000000;stroke-width:0.09600146;stroke-miterlimit:4;stroke-dasharray:none;stroke-opacity:1"
       d="M 480.51232,597.28244 469.55488,597.28244 469.55488,583.31002 455.5747,583.31002 455.5747,597.28244 444.61726,597.28244 444.61726,578.40078 408.72218,578.40078 408.72218,574.62445 427.61432,574.62445 427.61432,551.96635 408.72218,551.96635 408.72218,547.62351 422.70236,547.62351 422.70236,533.65109 408.72218,533.65109 408.72218,529.30825 427.61432,529.30825 427.61432,506.65015 408.72218,506.65015 408.72218,502.87382 444.61726,502.87382 444.61726,483.99216 455.5747,483.99216 455.5747,497.96458 469.55488,497.96458 469.55488,483.99216 480.51232,483.99216 480.51232,502.87382 503.18289,502.87382 503.18289,483.99216 525.85347,483.99216 525.85347,502.87382 548.52405,502.87382 548.52405,483.99216 571.19461,483.99216 571.19461,502.87382 593.86519,502.87382 593.86519,483.99216 616.53576,483.99216 616.53576,502.87382 639.20632,502.87382 639.20632,483.99216 650.16377,483.99216 650.16377,497.96458 664.14396,497.96458 664.14396,483.99216 675.1014,483.99216 675.1014,502.87382 710.99648,502.87382 710.99648,506.65015 692.10433,506.65015 692.10433,529.30825 710.99648,529.30825 710.99648,533.65109 697.01629,533.65109 697.01629,547.62351 710.99648,547.62351 710.99648,551.96635 692.10433,551.96635 692.10433,574.62445 710.99648,574.62445 710.99648,578.40078 675.1014,578.40078 675.1014,597.28244 664.14396,597.28244 664.14396,583.31002 650.16377,583.31002 650.16377,597.28244 639.20632,597.28244 639.20632,578.40078 616.53576,578.40078 616.53576,597.28244 593.86519,597.28244 593.86519,578.40078 571.19461,578.40078 571.19461,597.28244 548.52405,597.28244 548.52405,578.40078 525.85347,578.40078 525.85347,597.28244 503.18289,597.28244 503.18289,578.40078 480.51232,578.40078 Z"
       id="polygon26-7" />
    <path
       style="fill:none;fill-opacity:1;stroke:#000000;stroke-width:0.09600146;stroke-miterlimit:4;stroke-dasharray:none;stroke-opacity:1"
       d="M 710.99661,597.28265 692.19418,597.28265 692.19418,483.99206 710.99661,483.99206 Z"
       id="rect4172-7-9"
       inkscape:connector-curvature="0" />
    <path
       style="fill:none;fill-opacity:1;stroke:#000000;stroke-width:0.09600146;stroke-miterlimit:4;stroke-dasharray:none;stroke-opacity:1"
       d="M 427.5245,597.28265 408.72208,597.28265 408.72208,483.99206 427.5245,483.99206 Z"
       id="rect4172-3-5-2"
       inkscape:connector-curvature="0" />
    <path
       inkscape:connector-curvature="0"
       style="fill:none;fill-opacity:1;stroke:#000000;stroke-width:0.09600146;stroke-miterlimit:4;stroke-dasharray:none;stroke-opacity:1"
       d="M 692.09722,502.79275 427.62148,502.79275 427.62148,483.99323 692.09722,483.99323 Z"
       id="rect4251-3-0" />
    <path
       sodipodi:nodetypes="ccccccccccccccccccccccccccccccccccccccccccccccccccccccccccccccccc"
       inkscape:connector-curvature="0"
       id="polygon18-2"
       d="M 711.0973,86.94812 733.77507,86.94812 733.77507,68.050407 805.7612,68.050407 C 805.37987,206.633 805.64665,345.21691 805.53513,483.80008 L 733.77507,483.80008 733.77507,464.90236 711.0973,464.90236 711.0973,453.56374 729.99544,453.56374 729.99544,444.30386 753.05116,444.30386 753.05116,449.02829 762.50022,449.02829 762.50022,444.30386 771.9493,444.30386 771.9493,432.58728 762.50022,432.58728 762.50022,427.86285 753.05116,427.86285 753.05116,432.58728 729.99544,432.58728 729.99544,423.3274 711.0973,423.3274 711.0973,400.65014 729.99544,400.65014 729.99544,377.97289 711.0973,377.97289 711.0973,355.29563 729.99544,355.29563 729.99544,332.61838 711.0973,332.61838 711.0973,309.94112 729.99544,309.94112 729.99544,287.26387 711.0973,287.26387 711.0973,264.58661 729.99544,264.58661 729.99544,241.90936 711.0973,241.90936 711.0973,219.2321 729.99544,219.2321 729.99544,196.55485 711.0973,196.55485 711.0973,173.87759 729.99544,173.87759 729.99544,151.20034 711.0973,151.20034 711.0973,128.52309 729.99544,128.52309 729.99544,119.26321 753.05116,119.26321 753.05116,123.98764 762.50022,123.98764 762.50022,119.26321 771.9493,119.26321 771.9493,107.54663 762.50022,107.54663 762.50022,102.8222 753.05116,102.8222 753.05116,107.54663 729.99544,107.54663 729.99544,98.286747 711.0973,98.286747 Z"
       style="fill:none;stroke:#000000;stroke-width:0.09600146;stroke-miterlimit:4;stroke-dasharray:none;stroke-opacity:1" />
    <path
       sodipodi:nodetypes="ccccccccccccccccccccccccccccccccccccccccccccccccccccccccccccccccc"
       inkscape:connector-curvature="0"
       id="polygon18-6-3"
       d="M 900.52137,464.90236 877.84361,464.90236 877.84361,483.80008 805.85747,483.80008 C 806.2388,345.21748 805.97202,206.63357 806.08354,68.050407 L 877.84361,68.050407 877.84361,86.94812 900.52138,86.94812 900.52138,98.286747 881.62325,98.286747 881.62325,107.54663 858.56751,107.54663 858.56751,102.8222 849.11845,102.8222 849.11845,107.54663 839.66937,107.54663 839.66937,119.26321 849.11845,119.26321 849.11845,123.98764 858.56751,123.98764 858.56751,119.26321 881.62325,119.26321 881.62325,128.52309 900.52138,128.52309 900.52138,151.20034 881.62325,151.20034 881.62325,173.87759 900.52138,173.87759 900.52138,196.55485 881.62325,196.55485 881.62325,219.2321 900.52138,219.2321 900.52138,241.90936 881.62325,241.90936 881.62325,264.58661 900.52138,264.58661 900.52138,287.26387 881.62325,287.26387 881.62325,309.94112 900.52138,309.94112 900.52138,332.61838 881.62325,332.61838 881.62325,355.29563 900.52138,355.29563 900.52138,377.97289 881.62325,377.97289 881.62325,400.65014 900.52138,400.65014 900.52138,423.3274 881.62325,423.3274 881.62325,432.58728 858.56751,432.58728 858.56751,427.86285 849.11845,427.86285 849.11845,432.58728 839.66937,432.58728 839.66937,444.30386 849.11845,444.30386 849.11845,449.02829 858.56751,449.02829 858.56751,444.30386 881.62325,444.30386 881.62325,453.56374 900.52138,453.56374 Z"
       style="fill:none;stroke:#000000;stroke-width:0.09600146;stroke-miterlimit:4;stroke-dasharray:none;stroke-opacity:1" />
    <path
       inkscape:connector-curvature="0"
       style="fill:#808080;fill-opacity:1;stroke:none;stroke-width:0.09000008;stroke-miterlimit:4;stroke-dasharray:none;stroke-opacity:1"
       d="M 559.84909,521.73884 A 18.898123,18.897697 0 0 0 540.95069,540.63682 18.898123,18.897697 0 0 0 559.84909,559.5348 18.898123,18.897697 0 0 0 578.74541,540.63682 18.898123,18.897697 0 0 0 559.84909,521.73884 Z M 559.84909,529.29929 A 11.338873,11.338618 0 0 1 571.18688,540.63682 11.338873,11.338618 0 0 1 559.84909,551.97648 11.338873,11.338618 0 0 1 548.50922,540.63682 11.338873,11.338618 0 0 1 559.84909,529.29929 Z"
       id="path4732-7" />
    <rect
       style="fill:none;stroke:#000000;stroke-width:0.09600146;stroke-miterlimit:4;stroke-dasharray:none;stroke-opacity:1"
       id="rect4734-3-5"
       width="18.898123"
       height="18.897697"
       x="626.01843"
       y="545.55072" />
    <rect
       style="fill:none;stroke:#000000;stroke-width:0.09600146;stroke-miterlimit:4;stroke-dasharray:none;stroke-opacity:1"
       id="rect4734-7-9"
       width="18.898123"
       height="18.897697"
       x="626.01843"
       y="516.82623" />
    <rect
       style="fill:none;stroke:#000000;stroke-width:0.09600146;stroke-miterlimit:4;stroke-dasharray:none;stroke-opacity:1"
       id="rect4734-3-3-2"
       width="18.898123"
       height="18.897697"
       x="474.83331"
       y="545.55072" />
    <rect
       style="fill:none;stroke:#000000;stroke-width:0.09600146;stroke-miterlimit:4;stroke-dasharray:none;stroke-opacity:1"
       id="rect4734-7-6-2"
       width="18.898123"
       height="18.897697"
       x="474.83331"
       y="516.82623" />
    <ellipse
       style="fill:none;fill-opacity:1;stroke:#000000;stroke-width:0.09600146;stroke-miterlimit:4;stroke-dasharray:none;stroke-opacity:1"
       id="path4527-8"
       cx="559.84802"
       cy="540.63684"
       rx="11.287242"
       ry="11.286988" />
    <ellipse
       style="fill:none;fill-opacity:1;stroke:#000000;stroke-width:0.09600146;stroke-miterlimit:4;stroke-dasharray:none;stroke-opacity:1"
       id="path6131-9"
       cx="331.28452"
       cy="-156.87038"
       transform="scale(1,-1)"
       rx="9.449069"
       ry="9.4488554" />
    <path
       inkscape:connector-curvature="0"
       style="fill:#808080;fill-opacity:1;stroke:none;stroke-width:0.09000008;stroke-miterlimit:4;stroke-dasharray:none;stroke-opacity:1"
       d="M 352.07232,173.87878 352.07232,230.57073 310.49623,230.57073 310.49623,173.87878 352.07232,173.87878 Z M 348.29305,177.66845 314.2755,177.66845 314.2755,186.36225 348.29305,186.36225 348.29305,177.66845 Z"
       id="rect6133-7" />
    <rect
       style="color:#000000;clip-rule:nonzero;display:inline;overflow:visible;visibility:visible;opacity:1;isolation:auto;mix-blend-mode:normal;color-interpolation:sRGB;color-interpolation-filters:linearRGB;solid-color:#000000;solid-opacity:1;fill:none;fill-opacity:1;fill-rule:nonzero;stroke:#000000;stroke-width:0.09600146;stroke-linecap:butt;stroke-linejoin:miter;stroke-miterlimit:4;stroke-dasharray:none;stroke-dashoffset:0;stroke-opacity:1;color-rendering:auto;image-rendering:auto;shape-rendering:auto;text-rendering:auto;enable-background:accumulate"
       id="rect6327-6-3"
       width="34.016647"
       height="8.6929483"
       x="314.29184"
       y="-186.38417"
       transform="scale(1,-1)" />
    <rect
       style="fill:none;fill-opacity:1;stroke:#000000;stroke-width:0.09600146;stroke-miterlimit:4;stroke-dasharray:none;stroke-opacity:1"
       id="rect4425-6"
       width="415.56735"
       height="302.1879"
       x="68.050362"
       y="-711.00128"
       transform="matrix(0,1,-1,0,0,0)" />
    <path
       style="visibility:visible;fill:none;fill-rule:evenodd;stroke:none;stroke-width:0.09000008;stroke-linejoin:round;stroke-miterlimit:4;stroke-dasharray:none"
       inkscape:connector-curvature="0"
       id="path1055-1"
       d="M 445.49039,301.83343 445.49039,301.83343 C 445.49039,304.47536 443.37477,306.5975 440.82739,306.5975 L 440.82739,306.5975 C 438.36637,306.5975 436.25075,304.47536 436.25075,301.83343 L 436.25075,301.83343 C 436.25075,299.23481 438.36637,297.24248 440.82739,297.24248 L 440.82739,297.24248 C 443.37477,297.24248 445.49039,299.23481 445.49039,301.83343 Z" />
    <path
       style="visibility:visible;fill:none;fill-rule:evenodd;stroke:#000000;stroke-width:0.09600146;stroke-linejoin:round;stroke-miterlimit:4;stroke-dasharray:none"
       inkscape:connector-curvature="0"
       d="M 445.49039,301.83343 445.49039,301.83343 C 445.49039,304.47536 443.37477,306.5975 440.82739,306.5975 L 440.82739,306.5975 C 438.36637,306.5975 436.25075,304.47536 436.25075,301.83343 L 436.25075,301.83343 C 436.25075,299.23481 438.36637,297.24248 440.82739,297.24248 L 440.82739,297.24248 C 443.37477,297.24248 445.49039,299.23481 445.49039,301.83343 Z"
       id="Drawing_179_0-2" />
    <path
       style="visibility:visible;fill:none;fill-rule:evenodd;stroke:none;stroke-width:0.09000008;stroke-linejoin:round;stroke-miterlimit:4;stroke-dasharray:none"
       inkscape:connector-curvature="0"
       id="path1074-9"
       d="M 664.95337,302.48303 664.95337,302.48303 C 664.95337,305.03834 662.96728,307.2472 660.37674,307.2472 L 660.37674,307.2472 C 657.82936,307.2472 655.62739,305.03834 655.62739,302.48303 L 655.62739,302.48303 C 655.62739,299.88441 657.82936,297.71896 660.37674,297.71896 L 660.37674,297.71896 C 662.96728,297.71896 664.95337,299.88441 664.95337,302.48303 Z" />
    <path
       style="visibility:visible;fill:none;fill-rule:evenodd;stroke:#000000;stroke-width:0.09600146;stroke-linejoin:round;stroke-miterlimit:4;stroke-dasharray:none"
       inkscape:connector-curvature="0"
       d="M 664.95337,302.48303 664.95337,302.48303 C 664.95337,305.03834 662.96728,307.2472 660.37674,307.2472 L 660.37674,307.2472 C 657.82936,307.2472 655.62739,305.03834 655.62739,302.48303 L 655.62739,302.48303 C 655.62739,299.88441 657.82936,297.71896 660.37674,297.71896 L 660.37674,297.71896 C 662.96728,297.71896 664.95337,299.88441 664.95337,302.48303 Z"
       id="Drawing_183_0-3" />
    <path
       style="visibility:visible;fill:none;fill-rule:evenodd;stroke:none;stroke-width:0.09000008;stroke-linejoin:round;stroke-miterlimit:4;stroke-dasharray:none"
       inkscape:connector-curvature="0"
       id="path1093-1"
       d="M 445.87897,214.95294 445.87897,214.95294 C 445.87897,217.59487 443.677,219.71712 441.08644,219.71712 L 441.08644,219.71712 C 438.53906,219.71712 436.33709,217.59487 436.33709,214.95294 L 436.33709,214.95294 C 436.33709,212.39773 438.53906,210.27549 441.08644,210.27549 L 441.08644,210.27549 C 443.677,210.27549 445.87897,212.39773 445.87897,214.95294 Z" />
    <path
       style="visibility:visible;fill:none;fill-rule:evenodd;stroke:#000000;stroke-width:0.09600146;stroke-linejoin:round;stroke-miterlimit:4;stroke-dasharray:none"
       inkscape:connector-curvature="0"
       d="M 445.87897,214.95294 445.87897,214.95294 C 445.87897,217.59487 443.677,219.71712 441.08644,219.71712 L 441.08644,219.71712 C 438.53906,219.71712 436.33709,217.59487 436.33709,214.95294 L 436.33709,214.95294 C 436.33709,212.39773 438.53906,210.27549 441.08644,210.27549 L 441.08644,210.27549 C 443.677,210.27549 445.87897,212.39773 445.87897,214.95294 Z"
       id="Drawing_187_0-9" />
    <path
       style="visibility:visible;fill:none;fill-rule:evenodd;stroke:none;stroke-width:0.09000008;stroke-linejoin:round;stroke-miterlimit:4;stroke-dasharray:none"
       inkscape:connector-curvature="0"
       id="path1112-4"
       d="M 664.9102,215.12628 664.9102,215.12628 C 664.9102,217.68159 662.79459,219.71712 660.24721,219.71712 L 660.24721,219.71712 C 657.57031,219.71712 655.67057,217.68159 655.67057,215.12628 L 655.67057,215.12628 C 655.67057,212.57096 657.57031,210.3621 660.24721,210.3621 L 660.24721,210.3621 C 662.79459,210.3621 664.9102,212.57096 664.9102,215.12628 Z" />
    <path
       style="visibility:visible;fill:none;fill-rule:evenodd;stroke:#000000;stroke-width:0.09600146;stroke-linejoin:round;stroke-miterlimit:4;stroke-dasharray:none"
       inkscape:connector-curvature="0"
       d="M 664.9102,215.12628 664.9102,215.12628 C 664.9102,217.68159 662.79459,219.71712 660.24721,219.71712 L 660.24721,219.71712 C 657.57031,219.71712 655.67057,217.68159 655.67057,215.12628 L 655.67057,215.12628 C 655.67057,212.57096 657.57031,210.3621 660.24721,210.3621 L 660.24721,210.3621 C 662.79459,210.3621 664.9102,212.57096 664.9102,215.12628 Z"
       id="Drawing_191_0-7" />
    <rect
       style="opacity:0.98000004;fill:none;fill-opacity:1;stroke:#000000;stroke-width:0.09600146;stroke-miterlimit:4;stroke-dasharray:none;stroke-opacity:1"
       id="rect29024-2-8"
       width="18.897707"
       height="18.898132"
       x="-464.71997"
       y="661.90924"
       transform="matrix(0,-1,1,0,0,0)" />
    <path
       style="opacity:0.98000004;fill:none;fill-opacity:1;stroke:#000000;stroke-width:0.09600146;stroke-miterlimit:4;stroke-dasharray:none;stroke-opacity:1"
       d="M 711.09261,483.99206 711.09261,521.76295 748.86651,521.76295 748.86651,540.68386 767.74824,540.68386 767.74824,521.76295 767.76284,521.76295 767.76284,483.99206 711.09263,483.99206 Z"
       id="rect29139-9-4"
       inkscape:connector-curvature="0" />
    <rect
       style="fill:none;fill-opacity:1;stroke:#000000;stroke-width:0.08651701;stroke-miterlimit:4;stroke-dasharray:none;stroke-opacity:1"
       id="rect4861-5"
       width="793.63525"
       height="529.04944"
       x="106.89088"
       y="68.045662" />
    <circle
       style="fill:#808080;fill-opacity:1;stroke:none;stroke-width:1;stroke-miterlimit:4;stroke-dasharray:none;stroke-opacity:1"
       id="path4297-3-6"
       cx="1586.2166"
       cy="21.189667"
       r="8.5039635" />
    <circle
       style="fill:#808080;fill-opacity:1;stroke:none;stroke-width:1;stroke-miterlimit:4;stroke-dasharray:none;stroke-opacity:1"
       id="path4297-3-7-0"
       cx="1770.4889"
       cy="21.497871"
       r="8.5039635" />
    <circle
       style="fill:#808080;fill-opacity:1;stroke:none;stroke-width:1;stroke-miterlimit:4;stroke-dasharray:none;stroke-opacity:1"
       id="path4297-3"
       cx="1770.6431"
       cy="-196.98021"
       r="8.5039635" />
    <circle
       style="fill:#808080;fill-opacity:1;stroke:none;stroke-width:1;stroke-miterlimit:4;stroke-dasharray:none;stroke-opacity:1"
       id="path4297"
       cx="1586.3707"
       cy="-197.28841"
       r="8.5039635" />
    <polygon
       id="polygon10"
       points="230.31515,435.82713 248.0317,435.82713 248.0317,445.2169 234.92145,445.2169 234.92145,458.32715 248.0317,458.32715 248.0317,467.71692 230.31515,467.71692 230.31515,499.60671 217.02774,499.60671 217.02774,481.89016 207.01789,481.89016 207.01789,460.27597 211.44702,460.27597 211.44702,451.41769 207.01789,451.41769 207.01789,442.55942 196.03363,442.55942 196.03363,451.41769 191.60449,451.41769 191.60449,460.27597 196.03363,460.27597 196.03363,481.89016 186.02378,481.89016 186.02378,499.60671 161.22061,499.60671 161.22061,481.89016 136.41744,481.89016 136.41744,499.60671 111.61427,499.60671 111.61427,481.89016 86.811095,481.89016 86.811095,499.60671 62.007925,499.60671 62.007925,481.89016 51.998074,481.89016 51.998074,460.27597 56.427212,460.27597 56.427212,451.41769 51.998074,451.41769 51.998074,442.55942 41.013813,442.55942 41.013813,451.41769 36.584676,451.41769 36.584676,460.27597 41.013813,460.27597 41.013813,481.89016 31.003963,481.89016 31.003963,499.60671 17.71655,499.60671 17.71655,467.71692 0,467.71692 0,458.32715 13.110247,458.32715 13.110247,445.2169 0,445.2169 0,435.82713 17.71655,435.82713 17.71655,411.02396 0,411.02396 0,386.22079 17.71655,386.22079 17.71655,361.41762 0,361.41762 0,336.61445 17.71655,336.61445 17.71655,311.81128 0,311.81128 0,287.00811 17.71655,287.00811 17.71655,262.20494 0,262.20494 0,237.40177 17.71655,237.40177 17.71655,212.5986 0,212.5986 0,187.79543 17.71655,187.79543 17.71655,162.99226 0,162.99226 0,138.18909 17.71655,138.18909 17.71655,113.38592 0,113.38592 0,88.58275 17.71655,88.58275 17.71655,63.77958 0,63.77958 0,54.389808 13.110247,54.389808 13.110247,41.279561 0,41.279561 0,31.88979 17.71655,31.88979 17.71655,0 31.003963,0 31.003963,17.71655 41.013813,17.71655 41.013813,39.330741 36.584676,39.330741 36.584676,48.189016 41.013813,48.189016 41.013813,57.047291 51.998074,57.047291 51.998074,48.189016 56.427212,48.189016 56.427212,39.330741 51.998074,39.330741 51.998074,17.71655 62.007925,17.71655 62.007925,0 86.811095,0 86.811095,17.71655 111.61427,17.71655 111.61427,0 136.41744,0 136.41744,17.71655 161.22061,17.71655 161.22061,0 186.02378,0 186.02378,17.71655 196.03363,17.71655 196.03363,39.330741 191.60449,39.330741 191.60449,48.189016 196.03363,48.189016 196.03363,57.047291 207.01789,57.047291 207.01789,48.189016 211.44702,48.189016 211.44702,39.330741 207.01789,39.330741 207.01789,17.71655 217.02774,17.71655 217.02774,0 230.31515,0 230.31515,31.88979 248.0317,31.88979 248.0317,41.279561 234.92145,41.279561 234.92145,54.389808 248.0317,54.389808 248.0317,63.77958 230.31515,63.77958 230.31515,88.58275 248.0317,88.58275 248.0317,113.38592 230.31515,113.38592 230.31515,138.18909 248.0317,138.18909 248.0317,162.99226 230.31515,162.99226 230.31515,187.79543 248.0317,187.79543 248.0317,212.5986 230.31515,212.5986 230.31515,237.40177 248.0317,237.40177 248.0317,262.20494 230.31515,262.20494 230.31515,287.00811 248.0317,287.00811 248.0317,311.81128 230.31515,311.81128 230.31515,336.61445 248.0317,336.61445 248.0317,361.41762 230.31515,361.41762 230.31515,386.22079 248.0317,386.22079 248.0317,411.02396 230.31515,411.02396 "
       style="fill:none;stroke:#000000;stroke-width:0.09000001;stroke-miterlimit:4;stroke-dasharray:none"
       transform="matrix(-1.0666699,0,0,1.0666699,1545.2625,-271.34081)" />
    <rect
       style="fill:none;fill-opacity:1;stroke:#000000;stroke-width:0.09600031;stroke-miterlimit:4;stroke-dasharray:none;stroke-opacity:1"
       id="rect6129"
       width="94.48848"
       height="7.5590777"
       x="1318.49"
       y="60.646599"
       transform="scale(1,-1)" />
    <circle
       style="fill:none;fill-opacity:1;stroke:#000000;stroke-width:0.09600031;stroke-miterlimit:4;stroke-dasharray:none;stroke-opacity:1"
       id="path6131-3"
       cx="1487.1707"
       cy="187.26111"
       r="9.4488478"
       transform="scale(1,-1)" />
    <path
       inkscape:connector-curvature="0"
       style="fill:#808080;fill-opacity:1;stroke:none;stroke-width:0.09;stroke-miterlimit:4;stroke-dasharray:none;stroke-opacity:1"
       d="M 1507.958,-170.25272 1507.958,-113.56082 1466.3829,-113.56082 1466.3829,-170.25272 1507.958,-170.25272 Z M 1504.1789,-166.46305 1470.1621,-166.46305 1470.1621,-157.76927 1504.1789,-157.76927 1504.1789,-166.46305 Z"
       id="rect6133-6" />
    <rect
       style="color:#000000;clip-rule:nonzero;display:inline;overflow:visible;visibility:visible;opacity:1;isolation:auto;mix-blend-mode:normal;color-interpolation:sRGB;color-interpolation-filters:linearRGB;solid-color:#000000;solid-opacity:1;fill:none;fill-opacity:1;fill-rule:nonzero;stroke:#000000;stroke-width:0.09600031;stroke-linecap:butt;stroke-linejoin:miter;stroke-miterlimit:4;stroke-dasharray:none;stroke-dashoffset:0;stroke-opacity:1;color-rendering:auto;image-rendering:auto;shape-rendering:auto;text-rendering:auto;enable-background:accumulate"
       id="rect6327-6-1"
       width="34.01585"
       height="8.6929398"
       x="1470.1785"
       y="157.74734"
       transform="scale(1,-1)" />
    <polygon
       id="polygon22-0"
       points="62.007925,159.44895 62.007925,177.1655 53.061067,177.1655 53.061067,164.05525 39.95082,164.05525 39.95082,177.1655 31.003963,177.1655 31.003963,159.44895 0,159.44895 0,139.07492 17.71655,139.07492 17.71655,125.52176 39.330741,125.52176 39.330741,129.95089 48.189016,129.95089 48.189016,125.52176 57.047291,125.52176 57.047291,114.5375 48.189016,114.5375 48.189016,110.10836 39.330741,110.10836 39.330741,114.5375 17.71655,114.5375 17.71655,100.98433 0,100.98433 0,76.181165 17.71655,76.181165 17.71655,62.628004 39.330741,62.628004 39.330741,67.057142 48.189016,67.057142 48.189016,62.628004 57.047291,62.628004 57.047291,51.643743 48.189016,51.643743 48.189016,47.214606 39.330741,47.214606 39.330741,51.643743 17.71655,51.643743 17.71655,38.090582 0,38.090582 0,17.71655 31.003963,17.71655 31.003963,0 39.95082,0 39.95082,13.110247 53.061067,13.110247 53.061067,0 62.007925,0 62.007925,17.71655 86.811095,17.71655 86.811095,0 111.61427,0 111.61427,17.71655 136.41744,17.71655 136.41744,0 161.22061,0 161.22061,17.71655 186.02378,17.71655 186.02378,0 194.97063,0 194.97063,13.110247 208.08088,13.110247 208.08088,0 217.02774,0 217.02774,17.71655 248.0317,17.71655 248.0317,38.090582 230.31515,38.090582 230.31515,51.643743 208.70096,51.643743 208.70096,47.214606 199.84268,47.214606 199.84268,51.643743 190.98441,51.643743 190.98441,62.628004 199.84268,62.628004 199.84268,67.057142 208.70096,67.057142 208.70096,62.628004 230.31515,62.628004 230.31515,76.181165 248.0317,76.181165 248.0317,100.98433 230.31515,100.98433 230.31515,114.5375 208.70096,114.5375 208.70096,110.10836 199.84268,110.10836 199.84268,114.5375 190.98441,114.5375 190.98441,125.52176 199.84268,125.52176 199.84268,129.95089 208.70096,129.95089 208.70096,125.52176 230.31515,125.52176 230.31515,139.07492 248.0317,139.07492 248.0317,159.44895 217.02774,159.44895 217.02774,177.1655 208.08088,177.1655 208.08088,164.05525 194.97063,164.05525 194.97063,177.1655 186.02378,177.1655 186.02378,159.44895 161.22061,159.44895 161.22061,177.1655 136.41744,177.1655 136.41744,159.44895 111.61427,159.44895 111.61427,177.1655 86.811095,177.1655 86.811095,159.44895 "
       style="fill:none;stroke:#000000;stroke-width:0.09;stroke-miterlimit:4;stroke-dasharray:none;stroke-opacity:1"
       transform="matrix(1.06667,0,0,1.06667,1546.2759,-461.24858)" />
    <path
       inkscape:connector-curvature="0"
       style="fill:#808080;fill-opacity:1;stroke:none;stroke-width:0.09;stroke-miterlimit:4;stroke-dasharray:none;stroke-opacity:1"
       d="M 1678.5609,-385.65844 A 18.897697,18.897697 0 0 0 1659.6629,-366.76046 18.897697,18.897697 0 0 0 1678.5609,-347.86248 18.897697,18.897697 0 0 0 1697.4567,-366.76046 18.897697,18.897697 0 0 0 1678.5609,-385.65844 Z M 1678.5609,-378.09799 A 11.338618,11.338618 0 0 1 1689.8984,-366.76046 11.338618,11.338618 0 0 1 1678.5609,-355.4208 11.338618,11.338618 0 0 1 1667.2212,-366.76046 11.338618,11.338618 0 0 1 1678.5609,-378.09799 Z"
       id="path4732-6" />
    <rect
       style="fill:none;stroke:#000000;stroke-width:0.09600031;stroke-miterlimit:4;stroke-dasharray:none;stroke-opacity:1"
       id="rect4734-3-32"
       width="18.897697"
       height="18.897697"
       x="1714.4768"
       y="-347.8623" />
    <rect
       style="fill:none;stroke:#000000;stroke-width:0.09600031;stroke-miterlimit:4;stroke-dasharray:none;stroke-opacity:1"
       id="rect4734-7-0"
       width="18.897697"
       height="18.897697"
       x="1714.4768"
       y="-404.55539" />
    <rect
       style="fill:none;stroke:#000000;stroke-width:0.09600031;stroke-miterlimit:4;stroke-dasharray:none;stroke-opacity:1"
       id="rect4734-3-3-6"
       width="18.897697"
       height="18.897697"
       x="1623.7677"
       y="-347.8623" />
    <rect
       style="fill:none;stroke:#000000;stroke-width:0.09600031;stroke-miterlimit:4;stroke-dasharray:none;stroke-opacity:1"
       id="rect4734-7-6-1"
       width="18.897697"
       height="18.897697"
       x="1623.7677"
       y="-404.55539" />
    <path
       style="fill:none;stroke:#000000;stroke-width:0.09600031;stroke-miterlimit:4;stroke-dasharray:none;stroke-opacity:1"
       d="M 1811.3238,-347.38336 1811.3238,-328.48539 1811.3238,-271.79141 1830.2218,-271.79141 1830.2218,-328.48539 1868.0156,-328.48539 1868.0156,-271.79141 1886.9136,-271.79141 1886.9136,-347.38336 1830.2218,-347.38336 1811.3238,-347.38336 Z"
       id="rect4808"
       inkscape:connector-curvature="0" />
    <path
       style="fill:none;stroke:#000000;stroke-width:0.09600031;stroke-miterlimit:4;stroke-dasharray:none;stroke-opacity:1"
       d="M 1811.3238,-422.97527 1811.3238,-404.07729 1811.3238,-347.38336 1830.2218,-347.38336 1830.2218,-404.07729 1868.0156,-404.07729 1868.0156,-347.38336 1886.9136,-347.38336 1886.9136,-422.97527 1830.2218,-422.97527 1811.3238,-422.97527 Z"
       id="rect4808-9"
       inkscape:connector-curvature="0" />
    <circle
       style="fill:none;stroke:#000000;stroke-width:0.09600031;stroke-miterlimit:4;stroke-dasharray:none;stroke-opacity:1"
       id="path4730-1"
       cx="1678.5598"
       cy="-366.76001"
       r="11.338617" />
    <polygon
       id="polygon26-5"
       points="190.98441,125.52176 199.84268,125.52176 199.84268,129.95089 208.70096,129.95089 208.70096,125.52176 230.31515,125.52176 230.31515,139.07492 248.0317,139.07492 248.0317,159.44895 217.02774,159.44895 217.02774,177.1655 208.08088,177.1655 208.08088,164.05525 194.97063,164.05525 194.97063,177.1655 186.02378,177.1655 186.02378,159.44895 161.22061,159.44895 161.22061,177.1655 136.41744,177.1655 136.41744,159.44895 111.61427,159.44895 111.61427,177.1655 86.811095,177.1655 86.811095,159.44895 62.007925,159.44895 62.007925,177.1655 53.061067,177.1655 53.061067,164.05525 39.95082,164.05525 39.95082,177.1655 31.003963,177.1655 31.003963,159.44895 0,159.44895 0,139.07492 17.71655,139.07492 17.71655,125.52176 39.330741,125.52176 39.330741,129.95089 48.189016,129.95089 48.189016,125.52176 57.047291,125.52176 57.047291,114.5375 48.189016,114.5375 48.189016,110.10836 39.330741,110.10836 39.330741,114.5375 17.71655,114.5375 17.71655,100.98433 0,100.98433 0,76.181165 17.71655,76.181165 17.71655,62.628004 39.330741,62.628004 39.330741,67.057142 48.189016,67.057142 48.189016,62.628004 57.047291,62.628004 57.047291,51.643743 48.189016,51.643743 48.189016,47.214606 39.330741,47.214606 39.330741,51.643743 17.71655,51.643743 17.71655,38.090582 0,38.090582 0,17.71655 31.003963,17.71655 31.003963,0 39.95082,0 39.95082,13.110247 53.061067,13.110247 53.061067,0 62.007925,0 62.007925,17.71655 86.811095,17.71655 86.811095,0 111.61427,0 111.61427,17.71655 136.41744,17.71655 136.41744,0 161.22061,0 161.22061,17.71655 186.02378,17.71655 186.02378,0 194.97063,0 194.97063,13.110247 208.08088,13.110247 208.08088,0 217.02774,0 217.02774,17.71655 248.0317,17.71655 248.0317,38.090582 230.31515,38.090582 230.31515,51.643743 208.70096,51.643743 208.70096,47.214606 199.84268,47.214606 199.84268,51.643743 190.98441,51.643743 190.98441,62.628004 199.84268,62.628004 199.84268,67.057142 208.70096,67.057142 208.70096,62.628004 230.31515,62.628004 230.31515,76.181165 248.0317,76.181165 248.0317,100.98433 230.31515,100.98433 230.31515,114.5375 208.70096,114.5375 208.70096,110.10836 199.84268,110.10836 199.84268,114.5375 190.98441,114.5375 "
       style="fill:none;stroke:#000000;stroke-width:0.09;stroke-miterlimit:4;stroke-dasharray:none"
       transform="matrix(1.06667,0,0,1.06667,1280.6945,-461.27793)" />
    <polygon
       id="polygon14"
       points="159.44895,237.40177 159.44895,262.20494 177.1655,262.20494 177.1655,287.00811 159.44895,287.00811 159.44895,311.81128 177.1655,311.81128 177.1655,336.61445 159.44895,336.61445 159.44895,361.41762 177.1655,361.41762 177.1655,386.22079 159.44895,386.22079 159.44895,411.02396 177.1655,411.02396 177.1655,435.82713 159.44895,435.82713 159.44895,446.27989 137.83476,446.27989 137.83476,441.85076 128.97648,441.85076 128.97648,446.27989 120.11821,446.27989 120.11821,457.26416 128.97648,457.26416 128.97648,461.69329 137.83476,461.69329 137.83476,457.26416 159.44895,457.26416 159.44895,467.71692 177.1655,467.71692 177.1655,481.89016 139.07492,481.89016 139.07492,499.60671 126.58475,499.60671 126.58475,486.49646 113.4745,486.49646 113.4745,499.60671 100.98433,499.60671 100.98433,481.89016 76.181165,481.89016 76.181165,499.60671 63.690997,499.60671 63.690997,486.49646 50.58075,486.49646 50.58075,499.60671 38.090582,499.60671 38.090582,481.89016 0,481.89016 0,467.71692 17.71655,467.71692 17.71655,457.26416 39.330741,457.26416 39.330741,461.69329 48.189016,461.69329 48.189016,457.26416 57.047291,457.26416 57.047291,446.27989 48.189016,446.27989 48.189016,441.85076 39.330741,441.85076 39.330741,446.27989 17.71655,446.27989 17.71655,435.82713 0,435.82713 0,411.02396 17.71655,411.02396 17.71655,386.22079 0,386.22079 0,361.41762 17.71655,361.41762 17.71655,336.61445 0,336.61445 0,311.81128 17.71655,311.81128 17.71655,287.00811 0,287.00811 0,262.20494 17.71655,262.20494 17.71655,237.40177 0,237.40177 0,212.5986 17.71655,212.5986 17.71655,187.79543 0,187.79543 0,162.99226 17.71655,162.99226 17.71655,138.18909 0,138.18909 0,113.38592 17.71655,113.38592 17.71655,88.58275 0,88.58275 0,63.77958 17.71655,63.77958 17.71655,53.326815 39.330741,53.326815 39.330741,57.755953 48.189016,57.755953 48.189016,53.326815 57.047291,53.326815 57.047291,42.342554 48.189016,42.342554 48.189016,37.913417 39.330741,37.913417 39.330741,42.342554 17.71655,42.342554 17.71655,31.88979 0,31.88979 0,17.71655 38.090582,17.71655 38.090582,0 50.58075,0 50.58075,13.110247 63.690997,13.110247 63.690997,0 76.181165,0 76.181165,17.71655 100.98433,17.71655 100.98433,0 113.4745,0 113.4745,13.110247 126.58475,13.110247 126.58475,0 139.07492,0 139.07492,17.71655 177.1655,17.71655 177.1655,31.88979 159.44895,31.88979 159.44895,42.342554 137.83476,42.342554 137.83476,37.913417 128.97648,37.913417 128.97648,42.342554 120.11821,42.342554 120.11821,53.326815 128.97648,53.326815 128.97648,57.755953 137.83476,57.755953 137.83476,53.326815 159.44895,53.326815 159.44895,63.77958 177.1655,63.77958 177.1655,88.58275 159.44895,88.58275 159.44895,113.38592 177.1655,113.38592 177.1655,138.18909 159.44895,138.18909 159.44895,162.99226 177.1655,162.99226 177.1655,187.79543 159.44895,187.79543 159.44895,212.5986 177.1655,212.5986 177.1655,237.40177 "
       style="fill:none;stroke:#000000;stroke-width:0.09;stroke-miterlimit:4;stroke-dasharray:none"
       transform="matrix(1.06667,0,0,1.06667,900.82025,-366.60276)" />
    <polygon
       id="polygon18-5"
       points="159.44895,187.79543 159.44895,212.5986 177.1655,212.5986 177.1655,237.40177 159.44895,237.40177 159.44895,262.20494 177.1655,262.20494 177.1655,287.00811 159.44895,287.00811 159.44895,311.81128 177.1655,311.81128 177.1655,336.61445 159.44895,336.61445 159.44895,361.41762 177.1655,361.41762 177.1655,386.22079 159.44895,386.22079 159.44895,411.02396 177.1655,411.02396 177.1655,435.82713 159.44895,435.82713 159.44895,446.27989 137.83476,446.27989 137.83476,441.85076 128.97648,441.85076 128.97648,446.27989 120.11821,446.27989 120.11821,457.26416 128.97648,457.26416 128.97648,461.69329 137.83476,461.69329 137.83476,457.26416 159.44895,457.26416 159.44895,467.71692 177.1655,467.71692 177.1655,481.89016 139.07492,481.89016 139.07492,499.60671 126.58475,499.60671 126.58475,486.49646 113.4745,486.49646 113.4745,499.60671 100.98433,499.60671 100.98433,481.89016 76.181165,481.89016 76.181165,499.60671 63.690997,499.60671 63.690997,486.49646 50.58075,486.49646 50.58075,499.60671 38.090582,499.60671 38.090582,481.89016 0,481.89016 0,467.71692 17.71655,467.71692 17.71655,457.26416 39.330741,457.26416 39.330741,461.69329 48.189016,461.69329 48.189016,457.26416 57.047291,457.26416 57.047291,446.27989 48.189016,446.27989 48.189016,441.85076 39.330741,441.85076 39.330741,446.27989 17.71655,446.27989 17.71655,435.82713 0,435.82713 0,411.02396 17.71655,411.02396 17.71655,386.22079 0,386.22079 0,361.41762 17.71655,361.41762 17.71655,336.61445 0,336.61445 0,311.81128 17.71655,311.81128 17.71655,287.00811 0,287.00811 0,262.20494 17.71655,262.20494 17.71655,237.40177 0,237.40177 0,212.5986 17.71655,212.5986 17.71655,187.79543 0,187.79543 0,162.99226 17.71655,162.99226 17.71655,138.18909 0,138.18909 0,113.38592 17.71655,113.38592 17.71655,88.58275 0,88.58275 0,63.77958 17.71655,63.77958 17.71655,53.326815 39.330741,53.326815 39.330741,57.755953 48.189016,57.755953 48.189016,53.326815 57.047291,53.326815 57.047291,42.342554 48.189016,42.342554 48.189016,37.913417 39.330741,37.913417 39.330741,42.342554 17.71655,42.342554 17.71655,31.88979 0,31.88979 0,17.71655 38.090582,17.71655 38.090582,0 50.58075,0 50.58075,13.110247 63.690997,13.110247 63.690997,0 76.181165,0 76.181165,17.71655 100.98433,17.71655 100.98433,0 113.4745,0 113.4745,13.110247 126.58475,13.110247 126.58475,0 139.07492,0 139.07492,17.71655 177.1655,17.71655 177.1655,31.88979 159.44895,31.88979 159.44895,42.342554 137.83476,42.342554 137.83476,37.913417 128.97648,37.913417 128.97648,42.342554 120.11821,42.342554 120.11821,53.326815 128.97648,53.326815 128.97648,57.755953 137.83476,57.755953 137.83476,53.326815 159.44895,53.326815 159.44895,63.77958 177.1655,63.77958 177.1655,88.58275 159.44895,88.58275 159.44895,113.38592 177.1655,113.38592 177.1655,138.18909 159.44895,138.18909 159.44895,162.99226 177.1655,162.99226 177.1655,187.79543 "
       style="fill:none;stroke:#000000;stroke-width:0.09;stroke-miterlimit:4;stroke-dasharray:none;stroke-opacity:1"
       transform="matrix(1.06667,0,0,1.06667,1090.7574,-366.60276)" />
    <rect
       style="color:#000000;clip-rule:nonzero;display:inline;overflow:visible;visibility:visible;opacity:1;isolation:auto;mix-blend-mode:normal;color-interpolation:sRGB;color-interpolation-filters:linearRGB;solid-color:#000000;solid-opacity:1;fill:none;fill-opacity:1;fill-rule:nonzero;stroke:#000000;stroke-width:0.09600031;stroke-linecap:butt;stroke-linejoin:miter;stroke-miterlimit:4;stroke-dasharray:none;stroke-dashoffset:0;stroke-opacity:1;color-rendering:auto;image-rendering:auto;shape-rendering:auto;text-rendering:auto;enable-background:accumulate"
       id="rect7161"
       width="1023.6926"
       height="722.86694"
       x="900.61737"
       y="-461.26706" />
    <polygon
       id="polygon6-4"
       points="248.0317,411.02396 230.31515,411.02396 230.31515,435.82713 248.0317,435.82713 248.0317,445.2169 234.92145,445.2169 234.92145,458.32715 248.0317,458.32715 248.0317,467.71692 230.31515,467.71692 230.31515,499.60671 217.02774,499.60671 217.02774,481.89016 207.01789,481.89016 207.01789,460.27597 211.44702,460.27597 211.44702,451.41769 207.01789,451.41769 207.01789,442.55942 196.03363,442.55942 196.03363,451.41769 191.60449,451.41769 191.60449,460.27597 196.03363,460.27597 196.03363,481.89016 186.02378,481.89016 186.02378,499.60671 161.22061,499.60671 161.22061,481.89016 136.41744,481.89016 136.41744,499.60671 111.61427,499.60671 111.61427,481.89016 86.811095,481.89016 86.811095,499.60671 62.007925,499.60671 62.007925,481.89016 51.998074,481.89016 51.998074,460.27597 56.427212,460.27597 56.427212,451.41769 51.998074,451.41769 51.998074,442.55942 41.013813,442.55942 41.013813,451.41769 36.584676,451.41769 36.584676,460.27597 41.013813,460.27597 41.013813,481.89016 31.003963,481.89016 31.003963,499.60671 17.71655,499.60671 17.71655,467.71692 0,467.71692 0,458.32715 13.110247,458.32715 13.110247,445.2169 0,445.2169 0,435.82713 17.71655,435.82713 17.71655,411.02396 0,411.02396 0,386.22079 17.71655,386.22079 17.71655,361.41762 0,361.41762 0,336.61445 17.71655,336.61445 17.71655,311.81128 0,311.81128 0,287.00811 17.71655,287.00811 17.71655,262.20494 0,262.20494 0,237.40177 17.71655,237.40177 17.71655,212.5986 0,212.5986 0,187.79543 17.71655,187.79543 17.71655,162.99226 0,162.99226 0,138.18909 17.71655,138.18909 17.71655,113.38592 0,113.38592 0,88.58275 17.71655,88.58275 17.71655,63.77958 0,63.77958 0,54.389808 13.110247,54.389808 13.110247,41.279561 0,41.279561 0,31.88979 17.71655,31.88979 17.71655,0 31.003963,0 31.003963,17.71655 41.013813,17.71655 41.013813,39.330741 36.584676,39.330741 36.584676,48.189016 41.013813,48.189016 41.013813,57.047291 51.998074,57.047291 51.998074,48.189016 56.427212,48.189016 56.427212,39.330741 51.998074,39.330741 51.998074,17.71655 62.007925,17.71655 62.007925,0 86.811095,0 86.811095,17.71655 111.61427,17.71655 111.61427,0 136.41744,0 136.41744,17.71655 161.22061,17.71655 161.22061,0 186.02378,0 186.02378,17.71655 196.03363,17.71655 196.03363,39.330741 191.60449,39.330741 191.60449,48.189016 196.03363,48.189016 196.03363,57.047291 207.01789,57.047291 207.01789,48.189016 211.44702,48.189016 211.44702,39.330741 207.01789,39.330741 207.01789,17.71655 217.02774,17.71655 217.02774,0 230.31515,0 230.31515,31.88979 248.0317,31.88979 248.0317,41.279561 234.92145,41.279561 234.92145,54.389808 248.0317,54.389808 248.0317,63.77958 230.31515,63.77958 230.31515,88.58275 248.0317,88.58275 248.0317,113.38592 230.31515,113.38592 230.31515,138.18909 248.0317,138.18909 248.0317,162.99226 230.31515,162.99226 230.31515,187.79543 248.0317,187.79543 248.0317,212.5986 230.31515,212.5986 230.31515,237.40177 248.0317,237.40177 248.0317,262.20494 230.31515,262.20494 230.31515,287.00811 248.0317,287.00811 248.0317,311.81128 230.31515,311.81128 230.31515,336.61445 248.0317,336.61445 248.0317,361.41762 230.31515,361.41762 230.31515,386.22079 248.0317,386.22079 "
       style="opacity:0.98000004;fill:none;fill-opacity:1;stroke:#000000;stroke-width:0.08999999;stroke-miterlimit:4;stroke-dasharray:none;stroke-opacity:1"
       transform="matrix(-1.0666701,0,0,-1.0666701,1809.9265,261.57473)" />
    <path
       id="Drawing_597_0"
       d="M 1586.4368,-192.5552 C 1583.7933,-192.5552 1581.6345,-194.75671 1581.6345,-197.2224 1581.6345,-199.86422 1583.7933,-202.0217 1586.4368,-202.0217 1588.9481,-202.0217 1591.1069,-199.86422 1591.1069,-197.2224 1591.1069,-194.75671 1588.9481,-192.5552 1586.4368,-192.5552 Z"
       inkscape:connector-curvature="0"
       style="visibility:visible;fill:none;fill-rule:evenodd;stroke:#000000;stroke-width:0.09600029;stroke-linejoin:round;stroke-miterlimit:4;stroke-dasharray:none;stroke-opacity:1" />
    <path
       style="visibility:visible;fill:none;fill-rule:evenodd;stroke:#000000;stroke-width:0.09600029;stroke-linejoin:round;stroke-miterlimit:4;stroke-dasharray:none;stroke-opacity:1"
       inkscape:connector-curvature="0"
       d="M 1770.4228,26.231118 C 1767.7793,26.231118 1765.7526,24.073629 1765.7526,21.431818 1765.7526,18.790007 1767.7793,16.764614 1770.4228,16.764614 1773.0662,16.764614 1775.2251,18.790007 1775.2251,21.431818 1775.2251,24.073629 1773.0662,26.231118 1770.4228,26.231118 Z"
       id="Drawing_601_0" />
    <path
       style="visibility:visible;fill:none;fill-rule:evenodd;stroke:#000000;stroke-width:0.09600029;stroke-linejoin:round;stroke-miterlimit:4;stroke-dasharray:none;stroke-opacity:1"
       inkscape:connector-curvature="0"
       d="M 1586.3046,25.922904 C 1583.6611,25.922904 1581.4583,23.897511 1581.4583,21.2557 1581.4583,18.613879 1583.6611,16.4564 1586.3046,16.4564 1588.9481,16.4564 1590.9748,18.613879 1590.9748,21.2557 1590.9748,23.897511 1588.9481,25.922904 1586.3046,25.922904 Z"
       id="Drawing_605_0" />
    <rect
       style="opacity:0.98000004;fill:none;fill-opacity:1;stroke:#000000;stroke-width:0.09600029;stroke-miterlimit:4;stroke-dasharray:none;stroke-opacity:1"
       id="rect29024"
       width="18.897696"
       height="18.897696"
       x="-1605.3232"
       y="130.67662"
       transform="scale(-1,-1)" />
    <rect
       style="opacity:0.98000004;fill:none;fill-opacity:1;stroke:#000000;stroke-width:0.09600029;stroke-miterlimit:4;stroke-dasharray:none;stroke-opacity:1"
       id="rect29024-2-7"
       width="18.897694"
       height="18.897694"
       x="-1769.7812"
       y="130.58054"
       transform="scale(-1,-1)" />
    <rect
       style="opacity:0.98000004;fill:none;fill-opacity:1;stroke:#000000;stroke-width:0.09600029;stroke-miterlimit:4;stroke-dasharray:none;stroke-opacity:1"
       id="rect29024-6"
       width="18.897694"
       height="18.897694"
       x="-1605.3232"
       y="-122.64838"
       transform="scale(-1,-1)" />
    <rect
       style="opacity:0.98000004;fill:none;fill-opacity:1;stroke:#000000;stroke-width:0.09600029;stroke-miterlimit:4;stroke-dasharray:none;stroke-opacity:1"
       id="rect29024-2-6"
       width="18.897692"
       height="18.897692"
       x="-1769.7332"
       y="-122.64838"
       transform="scale(-1,-1)" />
    <rect
       style="opacity:0.98000004;fill:none;fill-opacity:1;stroke:#000000;stroke-width:0.09600029;stroke-miterlimit:4;stroke-dasharray:none;stroke-opacity:1"
       id="rect29059"
       height="75.590782"
       x="-1605.2753"
       y="26.691414"
       width="18.897696"
       transform="scale(-1,-1)" />
    <rect
       style="opacity:0.98000004;fill:none;fill-opacity:1;stroke:#000000;stroke-width:0.09600029;stroke-miterlimit:4;stroke-dasharray:none;stroke-opacity:1"
       id="rect29059-4"
       height="75.590775"
       x="-1769.7812"
       y="26.691414"
       width="18.897694"
       transform="scale(-1,-1)" />
    <rect
       style="opacity:0.98000004;fill:none;fill-opacity:1;stroke:#000000;stroke-width:0.09600029;stroke-miterlimit:4;stroke-dasharray:none;stroke-opacity:1"
       id="rect29076"
       width="75.484291"
       height="18.791216"
       x="-1715.8215"
       y="-122.54721"
       transform="scale(-1,-1)" />
    <path
       style="opacity:0.98000004;fill:none;fill-opacity:1;stroke:#000000;stroke-width:0.09600029;stroke-miterlimit:4;stroke-dasharray:none;stroke-opacity:1"
       d="M 1810.423,205.35565 1810.423,243.12652 1848.1962,243.12652 1848.1962,262.0474 1867.0774,262.0474 1867.0774,243.12652 1867.0924,243.12652 1867.0924,205.35565 1810.4236,205.35565 Z"
       id="rect29139"
       inkscape:connector-curvature="0" />
    <path
       style="opacity:0.98000004;fill:none;fill-opacity:1;stroke:#000000;stroke-width:0.09600029;stroke-miterlimit:4;stroke-dasharray:none;stroke-opacity:1"
       d="M 1810.423,148.64017 1810.423,186.41106 1848.1961,186.41106 1848.1961,205.33197 1867.0774,205.33197 1867.0774,186.41106 1867.0924,186.41106 1867.0924,148.64017 1810.4236,148.64017 Z"
       id="rect29139-9-6"
       inkscape:connector-curvature="0" />
    <path
       style="fill:none;stroke:#000000;stroke-width:0.09600029;stroke-miterlimit:4;stroke-dasharray:none;stroke-opacity:1"
       d="M 1923.7892,186.46503 1885.9934,186.46503 1885.9934,243.16514 1867.1038,243.16514 1867.1038,262.04858 1885.9934,262.04858 1885.9934,262.05928 1923.7892,262.05928 1923.7892,186.46945 Z"
       id="rect19949-7-8-8"
       inkscape:connector-curvature="0" />
    <path
       style="fill:none;stroke:#000000;stroke-width:0.09600029;stroke-miterlimit:4;stroke-dasharray:none;stroke-opacity:1"
       d="M 1923.7892,110.87068 1885.9934,110.87068 1885.9934,167.5709 1867.1038,167.5709 1867.1038,186.45437 1885.9934,186.45437 1885.9934,186.46507 1923.7892,186.46507 1923.7892,110.8752 Z"
       id="rect19949-7-8-8-7"
       inkscape:connector-curvature="0" />
    <path
       style="fill:none;stroke:#000000;stroke-width:0.09600029;stroke-miterlimit:4;stroke-dasharray:none;stroke-opacity:1"
       d="M 1867.0972,-129.16826 1829.3014,-129.16826 1829.3014,-100.80776 1810.4179,-100.80776 1810.4179,-25.245053 1829.3014,-25.245053 1829.3014,3.115451 1867.0972,3.115451 1867.0972,-129.16826 Z"
       id="rect19949-7-5-0"
       inkscape:connector-curvature="0" />
    <path
       style="fill:none;stroke:#000000;stroke-width:0.09600029;stroke-miterlimit:4;stroke-dasharray:none;stroke-opacity:1"
       d="M 1867.0971,-261.45194 1829.3014,-261.45194 1829.3014,-233.09146 1810.4179,-233.09146 1810.4179,-157.52874 1829.3014,-157.52874 1829.3014,-129.16826 1867.0972,-129.16826 1867.0972,-261.45194 Z"
       id="rect19949-7-5-0-4"
       inkscape:connector-curvature="0" />
    <path
       style="fill:none;fill-opacity:1;stroke:#000000;stroke-width:0.09600029;stroke-miterlimit:4;stroke-dasharray:none;stroke-opacity:1"
       d="M 1829.3051,3.115451 1829.3051,38.075881 1810.4113,38.075881 1810.4113,113.66577 1829.3051,113.66577 1829.3051,148.62833 1867.1011,148.62833 1867.1011,3.115451 1829.3051,3.115451 Z"
       id="rect4439"
       inkscape:connector-curvature="0" />
    <path
       id="Drawing_164_0"
       d="M 1770.555,-192.24699 C 1767.9114,-192.24699 1765.8848,-194.4485 1765.8848,-197.09032 1765.8848,-199.73213 1767.9114,-201.71349 1770.555,-201.71349 1773.1984,-201.71349 1775.4013,-199.73213 1775.4013,-197.09032 1775.4013,-194.4485 1773.1984,-192.24699 1770.555,-192.24699 Z"
       inkscape:connector-curvature="0"
       style="visibility:visible;fill:none;fill-rule:evenodd;stroke:#000000;stroke-width:0.09600029;stroke-linejoin:round;stroke-miterlimit:4;stroke-dasharray:none;stroke-opacity:1" />
    <circle
       style="fill:none;fill-opacity:1;stroke:#000000;stroke-width:0.0711678;stroke-miterlimit:4;stroke-dasharray:none;stroke-opacity:1"
       id="path6494"
       cx="1326.1947"
       cy="-189.20604"
       r="3.7439554" />
    <circle
       style="fill:none;fill-opacity:1;stroke:#000000;stroke-width:0.0711678;stroke-miterlimit:4;stroke-dasharray:none;stroke-opacity:1"
       id="path6494-5"
       cx="1405.2739"
       cy="-189.20604"
       r="3.7439554" />
    <circle
       style="fill:none;fill-opacity:1;stroke:#000000;stroke-width:0.0711678;stroke-miterlimit:4;stroke-dasharray:none;stroke-opacity:1"
       id="path6494-6"
       cx="1405.2739"
       cy="-140.07204"
       r="3.7439554" />
    <circle
       style="fill:none;fill-opacity:1;stroke:#000000;stroke-width:0.0711678;stroke-miterlimit:4;stroke-dasharray:none;stroke-opacity:1"
       id="path6494-9"
       cx="1326.1947"
       cy="-140.07204"
       r="3.7439554" />
  </g>
</svg>
