<svg xmlns="http://www.w3.org/2000/svg" version="1.1" width="202.7mm" height="282.7mm" viewBox = " 0 0 718.228937 1001.6937369999999" >
<!-- Front--> 
<g transform="translate(22.5000185, 22.5000185) " > 
<polygon style="stroke:#000000; fill:none; stroke-width:0.90000074" points="17.716549999999998, 0 53.14965, 0 53.14965, 17.716549999999998 74.2323445, 17.716549999999998 74.2323445, 39.330741 69.803207, 39.330741 69.803207, 48.189016 74.2323445, 48.189016 74.2323445, 57.047291 85.2166055, 57.047291 85.2166055, 48.189016 89.645743, 48.189016 89.645743, 39.330741 85.2166055, 39.330741 85.2166055, 17.716549999999998 106.2993, 17.716549999999998 106.2993, 0 141.73239999999998, 0 141.73239999999998, 17.716549999999998 162.8150945, 17.716549999999998 162.8150945, 39.330741 158.385957, 39.330741 158.385957, 48.189016 162.8150945, 48.189016 162.8150945, 57.047291 173.7993555, 57.047291 173.7993555, 48.189016 178.228493, 48.189016 178.228493, 39.330741 173.7993555, 39.330741 173.7993555, 17.716549999999998 194.88205, 17.716549999999998 194.88205, 0 230.31515000000002, 0 230.31515000000002, 57.5787875 248.0317, 57.5787875 248.0317, 79.81305774999998 234.92145299999999, 79.81305774999998 234.92145299999999, 92.92330475 248.0317, 92.92330475 248.0317, 115.157575 230.31515000000002, 115.157575 230.31515000000002, 150.59067499999998 248.0317, 150.59067499999998 248.0317, 186.023775 230.31515000000002, 186.023775 230.31515000000002, 221.45687499999997 248.0317, 221.45687499999997 248.0317, 256.889975 230.31515000000002, 256.889975 230.31515000000002, 292.32307499999996 248.0317, 292.32307499999996 248.0317, 327.756175 230.31515000000002, 327.756175 230.31515000000002, 363.18927499999995 248.0317, 363.18927499999995 248.0317, 385.42354525 234.92145299999999, 385.42354525 234.92145299999999, 398.53379225 248.0317, 398.53379225 248.0317, 420.7680624999999 230.31515000000002, 420.7680624999999 230.31515000000002, 478.34685 194.88205, 478.34685 194.88205, 460.63030000000003 173.7993555, 460.63030000000003 173.7993555, 439.01610900000003 178.228493, 439.01610900000003 178.228493, 430.15783400000004 173.7993555, 430.15783400000004 173.7993555, 421.29955900000004 162.8150945, 421.29955900000004 162.8150945, 430.15783400000004 158.385957, 430.15783400000004 158.385957, 439.01610900000003 162.8150945, 439.01610900000003 162.8150945, 460.63030000000003 141.73239999999998, 460.63030000000003 141.73239999999998, 478.34685 106.2993, 478.34685 106.2993, 460.63030000000003 85.2166055, 460.63030000000003 85.2166055, 439.01610900000003 89.645743, 439.01610900000003 89.645743, 430.15783400000004 85.2166055, 430.15783400000004 85.2166055, 421.29955900000004 74.2323445, 421.29955900000004 74.2323445, 430.15783400000004 69.803207, 430.15783400000004 69.803207, 439.01610900000003 74.2323445, 439.01610900000003 74.2323445, 460.63030000000003 53.14965, 460.63030000000003 53.14965, 478.34685 17.716549999999998, 478.34684999999996 17.716549999999998, 420.7680624999999 0, 420.7680624999999 0, 398.53379225 13.110247000000001, 398.53379225 13.110247000000001, 385.42354525 0, 385.42354525 0, 363.18927499999995 17.716549999999998, 363.18927499999995 17.716549999999998, 327.756175 0, 327.756175 0, 292.32307499999996 17.716549999999998, 292.32307499999996 17.716549999999998, 256.889975 0, 256.889975 0, 221.45687499999997 17.716549999999998, 221.45687499999997 17.716549999999998, 186.023775 0, 186.023775 0, 150.59067499999998 17.716549999999998, 150.59067499999998 17.716549999999998, 115.157575 0, 115.157575 0, 92.92330475 13.110247000000001, 92.92330475 13.110247000000001, 79.81305774999998 0, 79.81305774999998 0, 57.5787875 17.716549999999998, 57.5787875 "/> 
</g>
<!-- Back--> 
<g transform="translate(270.53171849999995, 22.5000185) " > 
<polygon style="stroke:#000000; fill:none; stroke-width:0.90000074" points="17.716549999999998, 0 53.14965, 0 53.14965, 17.716549999999998 74.2323445, 17.716549999999998 74.2323445, 39.330741 69.803207, 39.330741 69.803207, 48.189016 74.2323445, 48.189016 74.2323445, 57.047291 85.2166055, 57.047291 85.2166055, 48.189016 89.645743, 48.189016 89.645743, 39.330741 85.2166055, 39.330741 85.2166055, 17.716549999999998 106.2993, 17.716549999999998 106.2993, 0 141.73239999999998, 0 141.73239999999998, 17.716549999999998 162.8150945, 17.716549999999998 162.8150945, 39.330741 158.385957, 39.330741 158.385957, 48.189016 162.8150945, 48.189016 162.8150945, 57.047291 173.7993555, 57.047291 173.7993555, 48.189016 178.228493, 48.189016 178.228493, 39.330741 173.7993555, 39.330741 173.7993555, 17.716549999999998 194.88205, 17.716549999999998 194.88205, 0 230.31515000000002, 0 230.31515000000002, 57.5787875 248.0317, 57.5787875 248.0317, 79.81305774999998 234.92145299999999, 79.81305774999998 234.92145299999999, 92.92330475 248.0317, 92.92330475 248.0317, 115.157575 230.31515000000002, 115.157575 230.31515000000002, 150.59067499999998 248.0317, 150.59067499999998 248.0317, 186.023775 230.31515000000002, 186.023775 230.31515000000002, 221.45687499999997 248.0317, 221.45687499999997 248.0317, 256.889975 230.31515000000002, 256.889975 230.31515000000002, 292.32307499999996 248.0317, 292.32307499999996 248.0317, 327.756175 230.31515000000002, 327.756175 230.31515000000002, 363.18927499999995 248.0317, 363.18927499999995 248.0317, 385.42354525 234.92145299999999, 385.42354525 234.92145299999999, 398.53379225 248.0317, 398.53379225 248.0317, 420.7680624999999 230.31515000000002, 420.7680624999999 230.31515000000002, 478.34685 194.88205, 478.34685 194.88205, 460.63030000000003 173.7993555, 460.63030000000003 173.7993555, 439.01610900000003 178.228493, 439.01610900000003 178.228493, 430.15783400000004 173.7993555, 430.15783400000004 173.7993555, 421.29955900000004 162.8150945, 421.29955900000004 162.8150945, 430.15783400000004 158.385957, 430.15783400000004 158.385957, 439.01610900000003 162.8150945, 439.01610900000003 162.8150945, 460.63030000000003 141.73239999999998, 460.63030000000003 141.73239999999998, 478.34685 106.2993, 478.34685 106.2993, 460.63030000000003 85.2166055, 460.63030000000003 85.2166055, 439.01610900000003 89.645743, 439.01610900000003 89.645743, 430.15783400000004 85.2166055, 430.15783400000004 85.2166055, 421.29955900000004 74.2323445, 421.29955900000004 74.2323445, 430.15783400000004 69.803207, 430.15783400000004 69.803207, 439.01610900000003 74.2323445, 439.01610900000003 74.2323445, 460.63030000000003 53.14965, 460.63030000000003 53.14965, 478.34685 17.716549999999998, 478.34684999999996 17.716549999999998, 420.7680624999999 0, 420.7680624999999 0, 398.53379225 13.110247000000001, 398.53379225 13.110247000000001, 385.42354525 0, 385.42354525 0, 363.18927499999995 17.716549999999998, 363.18927499999995 17.716549999999998, 327.756175 0, 327.756175 0, 292.32307499999996 17.716549999999998, 292.32307499999996 17.716549999999998, 256.889975 0, 256.889975 0, 221.45687499999997 17.716549999999998, 221.45687499999997 17.716549999999998, 186.023775 0, 186.023775 0, 150.59067499999998 17.716549999999998, 150.59067499999998 17.716549999999998, 115.157575 0, 115.157575 0, 92.92330475 13.110247000000001, 92.92330475 13.110247000000001, 79.81305774999998 0, 79.81305774999998 0, 57.5787875 17.716549999999998, 57.5787875 "/> 
</g>
<!-- Left--> 
<g transform="translate(518.5634185, 22.5000185) " > 
<polygon style="stroke:#000000; fill:none; stroke-width:0.90000074" points="0, 17.716549999999998 35.433099999999996, 17.716549999999998 35.433099999999996, 0 70.86619999999999, 0 70.86619999999999, 17.716549999999998 83.09061949999999, 17.716549999999998 83.09061949999999, 39.330741 78.66148199999999, 39.330741 78.66148199999999, 48.189016 83.09061949999999, 48.189016 83.09061949999999, 57.047291 94.07488049999999, 57.047291 94.07488049999999, 48.189016 98.50401799999999, 48.189016 98.50401799999999, 39.330741 94.07488049999999, 39.330741 94.07488049999999, 17.716549999999998 106.29929999999999, 17.716549999999998 106.29929999999999, 0 141.73239999999998, 0 141.73239999999998, 17.716549999999998 177.1655, 17.716549999999998 177.1655, 57.5787875 159.44895000000002, 57.5787875 159.44895000000002, 80.87605074999999 137.83475900000002, 80.87605074999999 137.83475900000002, 76.44691325 128.97648400000003, 76.44691325 128.97648400000003, 80.87605074999999 120.11820900000002, 80.87605074999999 120.11820900000002, 91.86031175 128.97648400000003, 91.86031175 128.97648400000003, 96.28944924999999 137.83475900000002, 96.28944924999999 137.83475900000002, 91.86031175 159.44895000000002, 91.86031175 159.44895000000002, 115.157575 177.1655, 115.157575 177.1655, 150.59067499999998 159.44895000000002, 150.59067499999998 159.44895000000002, 186.023775 177.1655, 186.023775 177.1655, 221.45687499999997 159.44895000000002, 221.45687499999997 159.44895000000002, 256.889975 177.1655, 256.889975 177.1655, 292.32307499999996 159.44895000000002, 292.32307499999996 159.44895000000002, 327.756175 177.1655, 327.756175 177.1655, 363.18927499999995 159.44895000000002, 363.18927499999995 159.44895000000002, 386.48653825 137.83475900000002, 386.48653825 137.83475900000002, 382.05740075 128.97648400000003, 382.05740075 128.97648400000003, 386.48653825 120.11820900000002, 386.48653825 120.11820900000002, 397.47079924999997 128.97648400000003, 397.47079924999997 128.97648400000003, 401.89993675 137.83475900000002, 401.89993675 137.83475900000002, 397.47079924999997 159.44895000000002, 397.47079924999997 159.44895000000002, 420.7680624999999 177.1655, 420.7680624999999 177.16549999999998, 460.63030000000003 141.73239999999998, 460.63030000000003 141.73239999999998, 478.34685 106.29929999999999, 478.34685 106.29929999999999, 460.63030000000003 94.07488049999999, 460.63030000000003 94.07488049999999, 439.01610900000003 98.50401799999999, 439.01610900000003 98.50401799999999, 430.15783400000004 94.07488049999999, 430.15783400000004 94.07488049999999, 421.29955900000004 83.09061949999999, 421.29955900000004 83.09061949999999, 430.15783400000004 78.66148199999999, 430.15783400000004 78.66148199999999, 439.01610900000003 83.09061949999999, 439.01610900000003 83.09061949999999, 460.63030000000003 70.86619999999999, 460.63030000000003 70.86619999999999, 478.34685 35.433099999999996, 478.34685 35.433099999999996, 460.63030000000003 0, 460.6303 0, 420.7680624999999 17.716549999999998, 420.7680624999999 17.716549999999998, 397.47079924999997 39.330741, 397.47079924999997 39.330741, 401.89993675 48.189016, 401.89993675 48.189016, 397.47079924999997 57.047291, 397.47079924999997 57.047291, 386.48653825 48.189016, 386.48653825 48.189016, 382.05740075 39.330741, 382.05740075 39.330741, 386.48653825 17.716549999999998, 386.48653825 17.716549999999998, 363.18927499999995 0, 363.18927499999995 0, 327.756175 17.716549999999998, 327.756175 17.716549999999998, 292.32307499999996 0, 292.32307499999996 0, 256.889975 17.716549999999998, 256.889975 17.716549999999998, 221.45687499999997 0, 221.45687499999997 0, 186.023775 17.716549999999998, 186.023775 17.716549999999998, 150.59067499999998 0, 150.59067499999998 0, 115.157575 17.716549999999998, 115.157575 17.716549999999998, 91.86031175 39.330741, 91.86031175 39.330741, 96.28944924999999 48.189016, 96.28944924999999 48.189016, 91.86031175 57.047291, 91.86031175 57.047291, 80.87605074999999 48.189016, 80.87605074999999 48.189016, 76.44691325 39.330741, 76.44691325 39.330741, 80.87605074999999 17.716549999999998, 80.87605074999999 17.716549999999998, 57.5787875 0, 57.5787875 "/> 
</g>
<!-- Right--> 
<g transform="translate(518.5634185, 500.84686849999997) " > 
<polygon style="stroke:#000000; fill:none; stroke-width:0.90000074" points="0, 17.716549999999998 35.433099999999996, 17.716549999999998 35.433099999999996, 0 70.86619999999999, 0 70.86619999999999, 17.716549999999998 83.09061949999999, 17.716549999999998 83.09061949999999, 39.330741 78.66148199999999, 39.330741 78.66148199999999, 48.189016 83.09061949999999, 48.189016 83.09061949999999, 57.047291 94.07488049999999, 57.047291 94.07488049999999, 48.189016 98.50401799999999, 48.189016 98.50401799999999, 39.330741 94.07488049999999, 39.330741 94.07488049999999, 17.716549999999998 106.29929999999999, 17.716549999999998 106.29929999999999, 0 141.73239999999998, 0 141.73239999999998, 17.716549999999998 177.1655, 17.716549999999998 177.1655, 57.5787875 159.44895000000002, 57.5787875 159.44895000000002, 80.87605074999999 137.83475900000002, 80.87605074999999 137.83475900000002, 76.44691325 128.97648400000003, 76.44691325 128.97648400000003, 80.87605074999999 120.11820900000002, 80.87605074999999 120.11820900000002, 91.86031175 128.97648400000003, 91.86031175 128.97648400000003, 96.28944924999999 137.83475900000002, 96.28944924999999 137.83475900000002, 91.86031175 159.44895000000002, 91.86031175 159.44895000000002, 115.157575 177.1655, 115.157575 177.1655, 150.59067499999998 159.44895000000002, 150.59067499999998 159.44895000000002, 186.023775 177.1655, 186.023775 177.1655, 221.45687499999997 159.44895000000002, 221.45687499999997 159.44895000000002, 256.889975 177.1655, 256.889975 177.1655, 292.32307499999996 159.44895000000002, 292.32307499999996 159.44895000000002, 327.756175 177.1655, 327.756175 177.1655, 363.18927499999995 159.44895000000002, 363.18927499999995 159.44895000000002, 386.48653825 137.83475900000002, 386.48653825 137.83475900000002, 382.05740075 128.97648400000003, 382.05740075 128.97648400000003, 386.48653825 120.11820900000002, 386.48653825 120.11820900000002, 397.47079924999997 128.97648400000003, 397.47079924999997 128.97648400000003, 401.89993675 137.83475900000002, 401.89993675 137.83475900000002, 397.47079924999997 159.44895000000002, 397.47079924999997 159.44895000000002, 420.7680624999999 177.1655, 420.7680624999999 177.16549999999998, 460.63030000000003 141.73239999999998, 460.63030000000003 141.73239999999998, 478.34685 106.29929999999999, 478.34685 106.29929999999999, 460.63030000000003 94.07488049999999, 460.63030000000003 94.07488049999999, 439.01610900000003 98.50401799999999, 439.01610900000003 98.50401799999999, 430.15783400000004 94.07488049999999, 430.15783400000004 94.07488049999999, 421.29955900000004 83.09061949999999, 421.29955900000004 83.09061949999999, 430.15783400000004 78.66148199999999, 430.15783400000004 78.66148199999999, 439.01610900000003 83.09061949999999, 439.01610900000003 83.09061949999999, 460.63030000000003 70.86619999999999, 460.63030000000003 70.86619999999999, 478.34685 35.433099999999996, 478.34685 35.433099999999996, 460.63030000000003 0, 460.6303 0, 420.7680624999999 17.716549999999998, 420.7680624999999 17.716549999999998, 397.47079924999997 39.330741, 397.47079924999997 39.330741, 401.89993675 48.189016, 401.89993675 48.189016, 397.47079924999997 57.047291, 397.47079924999997 57.047291, 386.48653825 48.189016, 386.48653825 48.189016, 382.05740075 39.330741, 382.05740075 39.330741, 386.48653825 17.716549999999998, 386.48653825 17.716549999999998, 363.18927499999995 0, 363.18927499999995 0, 327.756175 17.716549999999998, 327.756175 17.716549999999998, 292.32307499999996 0, 292.32307499999996 0, 256.889975 17.716549999999998, 256.889975 17.716549999999998, 221.45687499999997 0, 221.45687499999997 0, 186.023775 17.716549999999998, 186.023775 17.716549999999998, 150.59067499999998 0, 150.59067499999998 0, 115.157575 17.716549999999998, 115.157575 17.716549999999998, 91.86031175 39.330741, 91.86031175 39.330741, 96.28944924999999 48.189016, 96.28944924999999 48.189016, 91.86031175 57.047291, 91.86031175 57.047291, 80.87605074999999 48.189016, 80.87605074999999 48.189016, 76.44691325 39.330741, 76.44691325 39.330741, 80.87605074999999 17.716549999999998, 80.87605074999999 17.716549999999998, 57.5787875 0, 57.5787875 "/> 
</g>
<!-- Top--> 
<g transform="translate(22.5000185, 500.84686849999997) " > 
<polygon style="stroke:#000000; fill:none; stroke-width:0.90000074" points="0, 17.716549999999998 53.14965, 17.716549999999998 53.14965, 0 73.1693515, 0 73.1693515, 13.110247000000001 86.27959849999999, 13.110247000000001 86.27959849999999, 0 106.2993, 0 106.2993, 17.716549999999998 141.73239999999998, 17.716549999999998 141.73239999999998, 0 161.75210149999998, 0 161.75210149999998, 13.110247000000001 174.8623485, 13.110247000000001 174.8623485, 0 194.88205, 0 194.88205, 17.716549999999998 248.0317, 17.716549999999998 248.0317, 35.433099999999996 230.31515000000002, 35.433099999999996 230.31515000000002, 70.86619999999999 248.0317, 70.86619999999999 248.0317, 82.0276265 234.92145299999999, 82.0276265 234.92145299999999, 95.13787349999998 248.0317, 95.13787349999998 248.0317, 106.29929999999999 230.31515000000002, 106.29929999999999 230.31515000000002, 141.73239999999998 248.0317, 141.73239999999998 248.0317, 159.44895000000002 194.88205, 159.44895000000002 194.88205, 177.1655 174.8623485, 177.1655 174.8623485, 164.055253 161.75210149999998, 164.055253 161.75210149999998, 177.1655 141.73239999999998, 177.1655 141.73239999999998, 159.44895000000002 106.2993, 159.44895000000002 106.2993, 177.1655 86.27959849999999, 177.1655 86.27959849999999, 164.055253 73.1693515, 164.055253 73.1693515, 177.1655 53.14965, 177.1655 53.14965, 159.44895000000002 0, 159.44894999999997 0, 141.73239999999998 17.716549999999998, 141.73239999999998 17.716549999999998, 106.29929999999999 0, 106.29929999999999 0, 95.13787349999998 13.110247000000001, 95.13787349999998 13.110247000000001, 82.0276265 0, 82.0276265 0, 70.86619999999999 17.716549999999998, 70.86619999999999 17.716549999999998, 35.433099999999996 0, 35.433099999999996 "/> 
</g>
<!-- Bottom--> 
<g transform="translate(270.53171849999995, 500.84686849999997) " > 
<polygon style="stroke:#000000; fill:none; stroke-width:0.90000074" points="0, 17.716549999999998 53.14965, 17.716549999999998 53.14965, 0 73.1693515, 0 73.1693515, 13.110247000000001 86.27959849999999, 13.110247000000001 86.27959849999999, 0 106.2993, 0 106.2993, 17.716549999999998 141.73239999999998, 17.716549999999998 141.73239999999998, 0 161.75210149999998, 0 161.75210149999998, 13.110247000000001 174.8623485, 13.110247000000001 174.8623485, 0 194.88205, 0 194.88205, 17.716549999999998 248.0317, 17.716549999999998 248.0317, 35.433099999999996 230.31515000000002, 35.433099999999996 230.31515000000002, 70.86619999999999 248.0317, 70.86619999999999 248.0317, 82.0276265 234.92145299999999, 82.0276265 234.92145299999999, 95.13787349999998 248.0317, 95.13787349999998 248.0317, 106.29929999999999 230.31515000000002, 106.29929999999999 230.31515000000002, 141.73239999999998 248.0317, 141.73239999999998 248.0317, 159.44895000000002 194.88205, 159.44895000000002 194.88205, 177.1655 174.8623485, 177.1655 174.8623485, 164.055253 161.75210149999998, 164.055253 161.75210149999998, 177.1655 141.73239999999998, 177.1655 141.73239999999998, 159.44895000000002 106.2993, 159.44895000000002 106.2993, 177.1655 86.27959849999999, 177.1655 86.27959849999999, 164.055253 73.1693515, 164.055253 73.1693515, 177.1655 53.14965, 177.1655 53.14965, 159.44895000000002 0, 159.44894999999997 0, 141.73239999999998 17.716549999999998, 141.73239999999998 17.716549999999998, 106.29929999999999 0, 106.29929999999999 0, 95.13787349999998 13.110247000000001, 95.13787349999998 13.110247000000001, 82.0276265 0, 82.0276265 0, 70.86619999999999 17.716549999999998, 70.86619999999999 17.716549999999998, 35.433099999999996 0, 35.433099999999996 "/> 
</g></svg>