<svg xmlns="http://www.w3.org/2000/svg" version="1.1" width="190.7mm" height="224.7mm" viewBox = " 0 0 675.709217 796.181757" >
<!-- Front--> 
<g transform="translate(22.5000185, 22.5000185) " > 
<polygon style="stroke:#000000; fill:none; stroke-width:0.90000074" points="0, 0 27.4606525, 0 27.4606525, 10.62993 54.921305, 10.62993 54.921305, 0 72.637855, 0 72.637855, 10.62993 90.35440499999999, 10.62993 90.35440499999999, 0 108.070955, 0 108.070955, 10.62993 125.78750499999998, 10.62993 125.78750499999998, 0 143.504055, 0 143.504055, 10.62993 161.22060499999998, 10.62993 161.22060499999998, 0 178.937155, 0 178.937155, 10.62993 196.65370499999997, 10.62993 196.65370499999997, 0 214.37025499999996, 0 214.37025499999996, 10.62993 241.83090749999997, 10.62993 241.83090749999997, 0 269.29156, 0 269.29156, 27.4606525 258.66163, 27.4606525 258.66163, 54.921305 269.29156, 54.921305 269.29156, 72.637855 258.66163, 72.637855 258.66163, 90.35440499999999 269.29156, 90.35440499999999 269.29156, 108.070955 258.66163, 108.070955 258.66163, 125.78750499999998 269.29156, 125.78750499999998 269.29156, 143.504055 258.66163, 143.504055 258.66163, 161.22060499999998 269.29156, 161.22060499999998 269.29156, 178.937155 258.66163, 178.937155 258.66163, 196.65370499999997 269.29156, 196.65370499999997 269.29156, 214.37025499999996 258.66163, 214.37025499999996 258.66163, 232.08680499999997 269.29156, 232.08680499999997 269.29156, 249.80335499999998 258.66163, 249.80335499999998 258.66163, 267.519905 269.29156, 267.519905 269.29156, 285.236455 258.66163, 285.236455 258.66163, 302.95300499999996 269.29156, 302.95300499999996 269.29156, 320.669555 258.66163, 320.669555 258.66163, 348.1302075 269.29156, 348.1302075 269.29155999999995, 375.59086 241.83090749999997, 375.59086 241.83090749999997, 364.96093 214.37025499999996, 364.96093 214.37025499999996, 375.59086 196.65370499999997, 375.59086 196.65370499999997, 364.96093 178.937155, 364.96093 178.937155, 375.59086 161.22060499999998, 375.59086 161.22060499999998, 364.96093 143.504055, 364.96093 143.504055, 375.59086 125.78750499999998, 375.59086 125.78750499999998, 364.96093 108.070955, 364.96093 108.070955, 375.59086 90.35440499999999, 375.59086 90.35440499999999, 364.96093 72.637855, 364.96093 72.637855, 375.59086 54.921305, 375.59086 54.921305, 364.96093 27.4606525, 364.96093 27.4606525, 375.59086 0, 375.59085999999996 0, 348.1302075 10.62993, 348.1302075 10.62993, 320.669555 0, 320.669555 0, 302.95300499999996 10.62993, 302.95300499999996 10.62993, 285.236455 0, 285.236455 0, 267.519905 10.62993, 267.519905 10.62993, 249.80335499999998 0, 249.80335499999998 0, 232.08680499999997 10.62993, 232.08680499999997 10.62993, 214.37025499999996 0, 214.37025499999996 0, 196.65370499999997 10.62993, 196.65370499999997 10.62993, 178.937155 0, 178.937155 0, 161.22060499999998 10.62993, 161.22060499999998 10.62993, 143.504055 0, 143.504055 0, 125.78750499999998 10.62993, 125.78750499999998 10.62993, 108.070955 0, 108.070955 0, 90.35440499999999 10.62993, 90.35440499999999 10.62993, 72.637855 0, 72.637855 0, 54.921305 10.62993, 54.921305 10.62993, 27.4606525 0, 27.4606525 "/> 
</g>
<!-- Back--> 
<g transform="translate(291.79157849999996, 22.5000185) " > 
<polygon style="stroke:#000000; fill:none; stroke-width:0.90000074" points="0, 0 27.4606525, 0 27.4606525, 10.62993 54.921305, 10.62993 54.921305, 0 72.637855, 0 72.637855, 10.62993 90.35440499999999, 10.62993 90.35440499999999, 0 108.070955, 0 108.070955, 10.62993 125.78750499999998, 10.62993 125.78750499999998, 0 143.504055, 0 143.504055, 10.62993 161.22060499999998, 10.62993 161.22060499999998, 0 178.937155, 0 178.937155, 10.62993 196.65370499999997, 10.62993 196.65370499999997, 0 214.37025499999996, 0 214.37025499999996, 10.62993 241.83090749999997, 10.62993 241.83090749999997, 0 269.29156, 0 269.29156, 27.4606525 258.66163, 27.4606525 258.66163, 54.921305 269.29156, 54.921305 269.29156, 72.637855 258.66163, 72.637855 258.66163, 90.35440499999999 269.29156, 90.35440499999999 269.29156, 108.070955 258.66163, 108.070955 258.66163, 125.78750499999998 269.29156, 125.78750499999998 269.29156, 143.504055 258.66163, 143.504055 258.66163, 161.22060499999998 269.29156, 161.22060499999998 269.29156, 178.937155 258.66163, 178.937155 258.66163, 196.65370499999997 269.29156, 196.65370499999997 269.29156, 214.37025499999996 258.66163, 214.37025499999996 258.66163, 232.08680499999997 269.29156, 232.08680499999997 269.29156, 249.80335499999998 258.66163, 249.80335499999998 258.66163, 267.519905 269.29156, 267.519905 269.29156, 285.236455 258.66163, 285.236455 258.66163, 302.95300499999996 269.29156, 302.95300499999996 269.29156, 320.669555 258.66163, 320.669555 258.66163, 348.1302075 269.29156, 348.1302075 269.29155999999995, 375.59086 241.83090749999997, 375.59086 241.83090749999997, 364.96093 214.37025499999996, 364.96093 214.37025499999996, 375.59086 196.65370499999997, 375.59086 196.65370499999997, 364.96093 178.937155, 364.96093 178.937155, 375.59086 161.22060499999998, 375.59086 161.22060499999998, 364.96093 143.504055, 364.96093 143.504055, 375.59086 125.78750499999998, 375.59086 125.78750499999998, 364.96093 108.070955, 364.96093 108.070955, 375.59086 90.35440499999999, 375.59086 90.35440499999999, 364.96093 72.637855, 364.96093 72.637855, 375.59086 54.921305, 375.59086 54.921305, 364.96093 27.4606525, 364.96093 27.4606525, 375.59086 0, 375.59085999999996 0, 348.1302075 10.62993, 348.1302075 10.62993, 320.669555 0, 320.669555 0, 302.95300499999996 10.62993, 302.95300499999996 10.62993, 285.236455 0, 285.236455 0, 267.519905 10.62993, 267.519905 10.62993, 249.80335499999998 0, 249.80335499999998 0, 232.08680499999997 10.62993, 232.08680499999997 10.62993, 214.37025499999996 0, 214.37025499999996 0, 196.65370499999997 10.62993, 196.65370499999997 10.62993, 178.937155 0, 178.937155 0, 161.22060499999998 10.62993, 161.22060499999998 10.62993, 143.504055 0, 143.504055 0, 125.78750499999998 10.62993, 125.78750499999998 10.62993, 108.070955 0, 108.070955 0, 90.35440499999999 10.62993, 90.35440499999999 10.62993, 72.637855 0, 72.637855 0, 54.921305 10.62993, 54.921305 10.62993, 27.4606525 0, 27.4606525 "/> 
</g>
<!-- Left--> 
<g transform="translate(561.0831385, 22.5000185) " > 
<polygon style="stroke:#000000; fill:none; stroke-width:0.90000074" points="10.62993, 0 18.425212000000002, 0 18.425212000000002, 10.62993 36.850424000000004, 10.62993 36.850424000000004, 0 55.275636000000006, 0 55.275636000000006, 10.62993 73.70084800000001, 10.62993 73.70084800000001, 0 81.49613, 0 81.49613, 27.4606525 92.12606, 27.4606525 92.12606, 54.921305 81.49613, 54.921305 81.49613, 72.637855 92.12606, 72.637855 92.12606, 90.35440499999999 81.49613, 90.35440499999999 81.49613, 108.070955 92.12606, 108.070955 92.12606, 125.78750499999998 81.49613, 125.78750499999998 81.49613, 143.504055 92.12606, 143.504055 92.12606, 161.22060499999998 81.49613, 161.22060499999998 81.49613, 178.937155 92.12606, 178.937155 92.12606, 196.65370499999997 81.49613, 196.65370499999997 81.49613, 214.37025499999996 92.12606, 214.37025499999996 92.12606, 232.08680499999997 81.49613, 232.08680499999997 81.49613, 249.80335499999998 92.12606, 249.80335499999998 92.12606, 267.519905 81.49613, 267.519905 81.49613, 285.236455 92.12606, 285.236455 92.12606, 302.95300499999996 81.49613, 302.95300499999996 81.49613, 320.669555 92.12606, 320.669555 92.12606, 348.1302075 81.49613, 348.1302075 81.49613000000001, 375.59086 73.70084800000001, 375.59086 73.70084800000001, 364.96093 55.275636000000006, 364.96093 55.275636000000006, 375.59086 36.850424000000004, 375.59086 36.850424000000004, 364.96093 18.425212000000002, 364.96093 18.425212000000002, 375.59086 10.62993, 375.59085999999996 10.62993, 348.1302075 0, 348.1302075 0, 320.669555 10.62993, 320.669555 10.62993, 302.95300499999996 0, 302.95300499999996 0, 285.236455 10.62993, 285.236455 10.62993, 267.519905 0, 267.519905 0, 249.80335499999998 10.62993, 249.80335499999998 10.62993, 232.08680499999997 0, 232.08680499999997 0, 214.37025499999996 10.62993, 214.37025499999996 10.62993, 196.65370499999997 0, 196.65370499999997 0, 178.937155 10.62993, 178.937155 10.62993, 161.22060499999998 0, 161.22060499999998 0, 143.504055 10.62993, 143.504055 10.62993, 125.78750499999998 0, 125.78750499999998 0, 108.070955 10.62993, 108.070955 10.62993, 90.35440499999999 0, 90.35440499999999 0, 72.637855 10.62993, 72.637855 10.62993, 54.921305 0, 54.921305 0, 27.4606525 10.62993, 27.4606525 "/> 
</g>
<!-- Right--> 
<g transform="translate(561.0831385, 398.0908785) " > 
<polygon style="stroke:#000000; fill:none; stroke-width:0.90000074" points="10.62993, 0 18.425212000000002, 0 18.425212000000002, 10.62993 36.850424000000004, 10.62993 36.850424000000004, 0 55.275636000000006, 0 55.275636000000006, 10.62993 73.70084800000001, 10.62993 73.70084800000001, 0 81.49613, 0 81.49613, 27.4606525 92.12606, 27.4606525 92.12606, 54.921305 81.49613, 54.921305 81.49613, 72.637855 92.12606, 72.637855 92.12606, 90.35440499999999 81.49613, 90.35440499999999 81.49613, 108.070955 92.12606, 108.070955 92.12606, 125.78750499999998 81.49613, 125.78750499999998 81.49613, 143.504055 92.12606, 143.504055 92.12606, 161.22060499999998 81.49613, 161.22060499999998 81.49613, 178.937155 92.12606, 178.937155 92.12606, 196.65370499999997 81.49613, 196.65370499999997 81.49613, 214.37025499999996 92.12606, 214.37025499999996 92.12606, 232.08680499999997 81.49613, 232.08680499999997 81.49613, 249.80335499999998 92.12606, 249.80335499999998 92.12606, 267.519905 81.49613, 267.519905 81.49613, 285.236455 92.12606, 285.236455 92.12606, 302.95300499999996 81.49613, 302.95300499999996 81.49613, 320.669555 92.12606, 320.669555 92.12606, 348.1302075 81.49613, 348.1302075 81.49613000000001, 375.59086 73.70084800000001, 375.59086 73.70084800000001, 364.96093 55.275636000000006, 364.96093 55.275636000000006, 375.59086 36.850424000000004, 375.59086 36.850424000000004, 364.96093 18.425212000000002, 364.96093 18.425212000000002, 375.59086 10.62993, 375.59085999999996 10.62993, 348.1302075 0, 348.1302075 0, 320.669555 10.62993, 320.669555 10.62993, 302.95300499999996 0, 302.95300499999996 0, 285.236455 10.62993, 285.236455 10.62993, 267.519905 0, 267.519905 0, 249.80335499999998 10.62993, 249.80335499999998 10.62993, 232.08680499999997 0, 232.08680499999997 0, 214.37025499999996 10.62993, 214.37025499999996 10.62993, 196.65370499999997 0, 196.65370499999997 0, 178.937155 10.62993, 178.937155 10.62993, 161.22060499999998 0, 161.22060499999998 0, 143.504055 10.62993, 143.504055 10.62993, 125.78750499999998 0, 125.78750499999998 0, 108.070955 10.62993, 108.070955 10.62993, 90.35440499999999 0, 90.35440499999999 0, 72.637855 10.62993, 72.637855 10.62993, 54.921305 0, 54.921305 0, 27.4606525 10.62993, 27.4606525 "/> 
</g>
<!-- Top--> 
<g transform="translate(22.5000185, 398.0908785) " > 
<polygon style="stroke:#000000; fill:none; stroke-width:0.90000074" points="10.62993, 10.62993 27.4606525, 10.62993 27.4606525, 0 54.921305, 0 54.921305, 10.62993 72.637855, 10.62993 72.637855, 0 90.35440499999999, 0 90.35440499999999, 10.62993 108.070955, 10.62993 108.070955, 0 125.78750499999998, 0 125.78750499999998, 10.62993 143.504055, 10.62993 143.504055, 0 161.22060499999998, 0 161.22060499999998, 10.62993 178.937155, 10.62993 178.937155, 0 196.65370499999997, 0 196.65370499999997, 10.62993 214.37025499999996, 10.62993 214.37025499999996, 0 241.83090749999997, 0 241.83090749999997, 10.62993 258.66163, 10.62993 258.66163, 18.425212000000002 269.29156, 18.425212000000002 269.29156, 36.850424000000004 258.66163, 36.850424000000004 258.66163, 55.275636000000006 269.29156, 55.275636000000006 269.29156, 73.70084800000001 258.66163, 73.70084800000001 258.66162999999995, 81.49613 241.83090749999997, 81.49613 241.83090749999997, 92.12606 214.37025499999996, 92.12606 214.37025499999996, 81.49613 196.65370499999997, 81.49613 196.65370499999997, 92.12606 178.937155, 92.12606 178.937155, 81.49613 161.22060499999998, 81.49613 161.22060499999998, 92.12606 143.504055, 92.12606 143.504055, 81.49613 125.78750499999998, 81.49613 125.78750499999998, 92.12606 108.070955, 92.12606 108.070955, 81.49613 90.35440499999999, 81.49613 90.35440499999999, 92.12606 72.637855, 92.12606 72.637855, 81.49613 54.921305, 81.49613 54.921305, 92.12606 27.4606525, 92.12606 27.4606525, 81.49613 10.62993, 81.49613000000001 10.62993, 73.70084800000001 0, 73.70084800000001 0, 55.275636000000006 10.62993, 55.275636000000006 10.62993, 36.850424000000004 0, 36.850424000000004 0, 18.425212000000002 10.62993, 18.425212000000002 "/> 
</g>
<!-- Bottom--> 
<g transform="translate(291.79157849999996, 398.0908785) " > 
<polygon style="stroke:#000000; fill:none; stroke-width:0.90000074" points="10.62993, 10.62993 27.4606525, 10.62993 27.4606525, 0 54.921305, 0 54.921305, 10.62993 72.637855, 10.62993 72.637855, 0 90.35440499999999, 0 90.35440499999999, 10.62993 108.070955, 10.62993 108.070955, 0 125.78750499999998, 0 125.78750499999998, 10.62993 143.504055, 10.62993 143.504055, 0 161.22060499999998, 0 161.22060499999998, 10.62993 178.937155, 10.62993 178.937155, 0 196.65370499999997, 0 196.65370499999997, 10.62993 214.37025499999996, 10.62993 214.37025499999996, 0 241.83090749999997, 0 241.83090749999997, 10.62993 258.66163, 10.62993 258.66163, 18.425212000000002 269.29156, 18.425212000000002 269.29156, 36.850424000000004 258.66163, 36.850424000000004 258.66163, 55.275636000000006 269.29156, 55.275636000000006 269.29156, 73.70084800000001 258.66163, 73.70084800000001 258.66162999999995, 81.49613 241.83090749999997, 81.49613 241.83090749999997, 92.12606 214.37025499999996, 92.12606 214.37025499999996, 81.49613 196.65370499999997, 81.49613 196.65370499999997, 92.12606 178.937155, 92.12606 178.937155, 81.49613 161.22060499999998, 81.49613 161.22060499999998, 92.12606 143.504055, 92.12606 143.504055, 81.49613 125.78750499999998, 81.49613 125.78750499999998, 92.12606 108.070955, 92.12606 108.070955, 81.49613 90.35440499999999, 81.49613 90.35440499999999, 92.12606 72.637855, 92.12606 72.637855, 81.49613 54.921305, 81.49613 54.921305, 92.12606 27.4606525, 92.12606 27.4606525, 81.49613 10.62993, 81.49613000000001 10.62993, 73.70084800000001 0, 73.70084800000001 0, 55.275636000000006 10.62993, 55.275636000000006 10.62993, 36.850424000000004 0, 36.850424000000004 0, 18.425212000000002 10.62993, 18.425212000000002 "/> 
</g></svg>