<svg xmlns="http://www.w3.org/2000/svg" version="1.1" width="239.7mm" height="294.7mm" viewBox = " 0 0 849.3314069999999 1044.2134569999998" >
<!-- Front--> 
<g transform="translate(22.500018499999996, 22.500018499999996) " > 
<polygon style="stroke:#000000; fill:none; stroke-width:0.035433099999999995" points="0, 0 22.58860125, 0 22.58860125, 10.62993 45.1772025, 10.62993 45.1772025, 0 62.8937525, 0 62.8937525, 10.62993 80.61030249999999, 10.62993 80.61030249999999, 0 98.3268525, 0 98.3268525, 10.62993 116.04340249999998, 10.62993 116.04340249999998, 0 133.7599525, 0 133.7599525, 10.62993 151.47650249999998, 10.62993 151.47650249999998, 0 169.1930525, 0 169.1930525, 10.62993 186.90960249999998, 10.62993 186.90960249999998, 0 204.62615249999996, 0 204.62615249999996, 10.62993 222.34270249999997, 10.62993 222.34270249999997, 0 240.05925249999999, 0 240.05925249999999, 10.62993 257.7758025, 10.62993 257.7758025, 0 275.4923525, 0 275.4923525, 10.62993 293.20890249999997, 10.62993 293.20890249999997, 0 310.9254525, 0 310.9254525, 10.62993 333.51405375, 10.62993 333.51405375, 0 356.10265499999997, 0 356.10265499999997, 23.031515 345.47272499999997, 23.031515 345.47272499999997, 46.06303 356.10265499999997, 46.06303 356.10265499999997, 63.779579999999996 345.47272499999997, 63.779579999999996 345.47272499999997, 81.49613 356.10265499999997, 81.49613 356.10265499999997, 99.21267999999999 345.47272499999997, 99.21267999999999 345.47272499999997, 116.92922999999999 356.10265499999997, 116.92922999999999 356.10265499999997, 134.64578 345.47272499999997, 134.64578 345.47272499999997, 152.36233 356.10265499999997, 152.36233 356.10265499999997, 170.07887999999997 345.47272499999997, 170.07887999999997 345.47272499999997, 187.79542999999998 356.10265499999997, 187.79542999999998 356.10265499999997, 205.51197999999997 345.47272499999997, 205.51197999999997 345.47272499999997, 223.22852999999998 356.10265499999997, 223.22852999999998 356.10265499999997, 240.94508 345.47272499999997, 240.94508 345.47272499999997, 258.66162999999995 356.10265499999997, 258.66162999999995 356.10265499999997, 276.37817999999993 345.47272499999997, 276.37817999999993 345.47272499999997, 294.09472999999997 356.10265499999997, 294.09472999999997 356.10265499999997, 311.81128 345.47272499999997, 311.81128 345.47272499999997, 329.52783 356.10265499999997, 329.52783 356.10265499999997, 347.24438 345.47272499999997, 347.24438 345.47272499999997, 364.96092999999996 356.10265499999997, 364.96092999999996 356.10265499999997, 382.67747999999995 345.47272499999997, 382.67747999999995 345.47272499999997, 400.39402999999993 356.10265499999997, 400.39402999999993 356.10265499999997, 418.1105799999999 345.47272499999997, 418.1105799999999 345.47272499999997, 435.82713 356.10265499999997, 435.82713 356.10265499999997, 453.54368 345.47272499999997, 453.54368 345.47272499999997, 476.57519499999995 356.10265499999997, 476.57519499999995 356.10265499999997, 499.60671 333.51405375, 499.60671 333.51405375, 488.97678 310.9254525, 488.97678 310.9254525, 499.60671 293.20890249999997, 499.60671 293.20890249999997, 488.97678 275.4923525, 488.97678 275.4923525, 499.60671 257.7758025, 499.60671 257.7758025, 488.97678 240.05925249999999, 488.97678 240.05925249999999, 499.60671 222.34270249999997, 499.60671 222.34270249999997, 488.97678 204.62615249999996, 488.97678 204.62615249999996, 499.60671 186.90960249999998, 499.60671 186.90960249999998, 488.97678 169.1930525, 488.97678 169.1930525, 499.60671 151.47650249999998, 499.60671 151.47650249999998, 488.97678 133.7599525, 488.97678 133.7599525, 499.60671 116.04340249999998, 499.60671 116.04340249999998, 488.97678 98.3268525, 488.97678 98.3268525, 499.60671 80.61030249999999, 499.60671 80.61030249999999, 488.97678 62.8937525, 488.97678 62.8937525, 499.60671 45.1772025, 499.60671 45.1772025, 488.97678 22.58860125, 488.97678 22.58860125, 499.60671 0, 499.60670999999996 0, 476.57519499999995 10.62993, 476.57519499999995 10.62993, 453.54368 0, 453.54368 0, 435.82713 10.62993, 435.82713 10.62993, 418.1105799999999 0, 418.1105799999999 0, 400.39402999999993 10.62993, 400.39402999999993 10.62993, 382.67747999999995 0, 382.67747999999995 0, 364.96092999999996 10.62993, 364.96092999999996 10.62993, 347.24438 0, 347.24438 0, 329.52783 10.62993, 329.52783 10.62993, 311.81128 0, 311.81128 0, 294.09472999999997 10.62993, 294.09472999999997 10.62993, 276.37817999999993 0, 276.37817999999993 0, 258.66162999999995 10.62993, 258.66162999999995 10.62993, 240.94508 0, 240.94508 0, 223.22852999999998 10.62993, 223.22852999999998 10.62993, 205.51197999999997 0, 205.51197999999997 0, 187.79542999999998 10.62993, 187.79542999999998 10.62993, 170.07887999999997 0, 170.07887999999997 0, 152.36233 10.62993, 152.36233 10.62993, 134.64578 0, 134.64578 0, 116.92922999999999 10.62993, 116.92922999999999 10.62993, 99.21267999999999 0, 99.21267999999999 0, 81.49613 10.62993, 81.49613 10.62993, 63.779579999999996 0, 63.779579999999996 0, 46.06303 10.62993, 46.06303 10.62993, 23.031515 0, 23.031515 "/> 
</g>
<!-- Back--> 
<g transform="translate(378.6026735, 22.500018499999996) " > 
<polygon style="stroke:#000000; fill:none; stroke-width:0.035433099999999995" points="0, 0 22.58860125, 0 22.58860125, 10.62993 45.1772025, 10.62993 45.1772025, 0 62.8937525, 0 62.8937525, 10.62993 80.61030249999999, 10.62993 80.61030249999999, 0 98.3268525, 0 98.3268525, 10.62993 116.04340249999998, 10.62993 116.04340249999998, 0 133.7599525, 0 133.7599525, 10.62993 151.47650249999998, 10.62993 151.47650249999998, 0 169.1930525, 0 169.1930525, 10.62993 186.90960249999998, 10.62993 186.90960249999998, 0 204.62615249999996, 0 204.62615249999996, 10.62993 222.34270249999997, 10.62993 222.34270249999997, 0 240.05925249999999, 0 240.05925249999999, 10.62993 257.7758025, 10.62993 257.7758025, 0 275.4923525, 0 275.4923525, 10.62993 293.20890249999997, 10.62993 293.20890249999997, 0 310.9254525, 0 310.9254525, 10.62993 333.51405375, 10.62993 333.51405375, 0 356.10265499999997, 0 356.10265499999997, 23.031515 345.47272499999997, 23.031515 345.47272499999997, 46.06303 356.10265499999997, 46.06303 356.10265499999997, 63.779579999999996 345.47272499999997, 63.779579999999996 345.47272499999997, 81.49613 356.10265499999997, 81.49613 356.10265499999997, 99.21267999999999 345.47272499999997, 99.21267999999999 345.47272499999997, 116.92922999999999 356.10265499999997, 116.92922999999999 356.10265499999997, 134.64578 345.47272499999997, 134.64578 345.47272499999997, 152.36233 356.10265499999997, 152.36233 356.10265499999997, 170.07887999999997 345.47272499999997, 170.07887999999997 345.47272499999997, 187.79542999999998 356.10265499999997, 187.79542999999998 356.10265499999997, 205.51197999999997 345.47272499999997, 205.51197999999997 345.47272499999997, 223.22852999999998 356.10265499999997, 223.22852999999998 356.10265499999997, 240.94508 345.47272499999997, 240.94508 345.47272499999997, 258.66162999999995 356.10265499999997, 258.66162999999995 356.10265499999997, 276.37817999999993 345.47272499999997, 276.37817999999993 345.47272499999997, 294.09472999999997 356.10265499999997, 294.09472999999997 356.10265499999997, 311.81128 345.47272499999997, 311.81128 345.47272499999997, 329.52783 356.10265499999997, 329.52783 356.10265499999997, 347.24438 345.47272499999997, 347.24438 345.47272499999997, 364.96092999999996 356.10265499999997, 364.96092999999996 356.10265499999997, 382.67747999999995 345.47272499999997, 382.67747999999995 345.47272499999997, 400.39402999999993 356.10265499999997, 400.39402999999993 356.10265499999997, 418.1105799999999 345.47272499999997, 418.1105799999999 345.47272499999997, 435.82713 356.10265499999997, 435.82713 356.10265499999997, 453.54368 345.47272499999997, 453.54368 345.47272499999997, 476.57519499999995 356.10265499999997, 476.57519499999995 356.10265499999997, 499.60671 333.51405375, 499.60671 333.51405375, 488.97678 310.9254525, 488.97678 310.9254525, 499.60671 293.20890249999997, 499.60671 293.20890249999997, 488.97678 275.4923525, 488.97678 275.4923525, 499.60671 257.7758025, 499.60671 257.7758025, 488.97678 240.05925249999999, 488.97678 240.05925249999999, 499.60671 222.34270249999997, 499.60671 222.34270249999997, 488.97678 204.62615249999996, 488.97678 204.62615249999996, 499.60671 186.90960249999998, 499.60671 186.90960249999998, 488.97678 169.1930525, 488.97678 169.1930525, 499.60671 151.47650249999998, 499.60671 151.47650249999998, 488.97678 133.7599525, 488.97678 133.7599525, 499.60671 116.04340249999998, 499.60671 116.04340249999998, 488.97678 98.3268525, 488.97678 98.3268525, 499.60671 80.61030249999999, 499.60671 80.61030249999999, 488.97678 62.8937525, 488.97678 62.8937525, 499.60671 45.1772025, 499.60671 45.1772025, 488.97678 22.58860125, 488.97678 22.58860125, 499.60671 0, 499.60670999999996 0, 476.57519499999995 10.62993, 476.57519499999995 10.62993, 453.54368 0, 453.54368 0, 435.82713 10.62993, 435.82713 10.62993, 418.1105799999999 0, 418.1105799999999 0, 400.39402999999993 10.62993, 400.39402999999993 10.62993, 382.67747999999995 0, 382.67747999999995 0, 364.96092999999996 10.62993, 364.96092999999996 10.62993, 347.24438 0, 347.24438 0, 329.52783 10.62993, 329.52783 10.62993, 311.81128 0, 311.81128 0, 294.09472999999997 10.62993, 294.09472999999997 10.62993, 276.37817999999993 0, 276.37817999999993 0, 258.66162999999995 10.62993, 258.66162999999995 10.62993, 240.94508 0, 240.94508 0, 223.22852999999998 10.62993, 223.22852999999998 10.62993, 205.51197999999997 0, 205.51197999999997 0, 187.79542999999998 10.62993, 187.79542999999998 10.62993, 170.07887999999997 0, 170.07887999999997 0, 152.36233 10.62993, 152.36233 10.62993, 134.64578 0, 134.64578 0, 116.92922999999999 10.62993, 116.92922999999999 10.62993, 99.21267999999999 0, 99.21267999999999 0, 81.49613 10.62993, 81.49613 10.62993, 63.779579999999996 0, 63.779579999999996 0, 46.06303 10.62993, 46.06303 10.62993, 23.031515 0, 23.031515 "/> 
</g>
<!-- Left--> 
<g transform="translate(734.7053285, 22.500018499999996) " > 
<polygon style="stroke:#000000; fill:none; stroke-width:0.035433099999999995" points="10.62993, 0 18.425212000000002, 0 18.425212000000002, 10.62993 36.850424000000004, 10.62993 36.850424000000004, 0 55.275636000000006, 0 55.275636000000006, 10.62993 73.70084800000001, 10.62993 73.70084800000001, 0 81.49613, 0 81.49613, 23.031515 92.12606, 23.031515 92.12606, 46.06303 81.49613, 46.06303 81.49613, 63.779579999999996 92.12606, 63.779579999999996 92.12606, 81.49613 81.49613, 81.49613 81.49613, 99.21267999999999 92.12606, 99.21267999999999 92.12606, 116.92922999999999 81.49613, 116.92922999999999 81.49613, 134.64578 92.12606, 134.64578 92.12606, 152.36233 81.49613, 152.36233 81.49613, 170.07887999999997 92.12606, 170.07887999999997 92.12606, 187.79542999999998 81.49613, 187.79542999999998 81.49613, 205.51197999999997 92.12606, 205.51197999999997 92.12606, 223.22852999999998 81.49613, 223.22852999999998 81.49613, 240.94508 92.12606, 240.94508 92.12606, 258.66162999999995 81.49613, 258.66162999999995 81.49613, 276.37817999999993 92.12606, 276.37817999999993 92.12606, 294.09472999999997 81.49613, 294.09472999999997 81.49613, 311.81128 92.12606, 311.81128 92.12606, 329.52783 81.49613, 329.52783 81.49613, 347.24438 92.12606, 347.24438 92.12606, 364.96092999999996 81.49613, 364.96092999999996 81.49613, 382.67747999999995 92.12606, 382.67747999999995 92.12606, 400.39402999999993 81.49613, 400.39402999999993 81.49613, 418.1105799999999 92.12606, 418.1105799999999 92.12606, 435.82713 81.49613, 435.82713 81.49613, 453.54368 92.12606, 453.54368 92.12606, 476.57519499999995 81.49613, 476.57519499999995 81.49613000000001, 499.60671 73.70084800000001, 499.60671 73.70084800000001, 488.97678 55.275636000000006, 488.97678 55.275636000000006, 499.60671 36.850424000000004, 499.60671 36.850424000000004, 488.97678 18.425212000000002, 488.97678 18.425212000000002, 499.60671 10.62993, 499.60670999999996 10.62993, 476.57519499999995 0, 476.57519499999995 0, 453.54368 10.62993, 453.54368 10.62993, 435.82713 0, 435.82713 0, 418.1105799999999 10.62993, 418.1105799999999 10.62993, 400.39402999999993 0, 400.39402999999993 0, 382.67747999999995 10.62993, 382.67747999999995 10.62993, 364.96092999999996 0, 364.96092999999996 0, 347.24438 10.62993, 347.24438 10.62993, 329.52783 0, 329.52783 0, 311.81128 10.62993, 311.81128 10.62993, 294.09472999999997 0, 294.09472999999997 0, 276.37817999999993 10.62993, 276.37817999999993 10.62993, 258.66162999999995 0, 258.66162999999995 0, 240.94508 10.62993, 240.94508 10.62993, 223.22852999999998 0, 223.22852999999998 0, 205.51197999999997 10.62993, 205.51197999999997 10.62993, 187.79542999999998 0, 187.79542999999998 0, 170.07887999999997 10.62993, 170.07887999999997 10.62993, 152.36233 0, 152.36233 0, 134.64578 10.62993, 134.64578 10.62993, 116.92922999999999 0, 116.92922999999999 0, 99.21267999999999 10.62993, 99.21267999999999 10.62993, 81.49613 0, 81.49613 0, 63.779579999999996 10.62993, 63.779579999999996 10.62993, 46.06303 0, 46.06303 0, 23.031515 10.62993, 23.031515 "/> 
</g>
<!-- Right--> 
<g transform="translate(734.7053285, 522.1067284999999) " > 
<polygon style="stroke:#000000; fill:none; stroke-width:0.035433099999999995" points="10.62993, 0 18.425212000000002, 0 18.425212000000002, 10.62993 36.850424000000004, 10.62993 36.850424000000004, 0 55.275636000000006, 0 55.275636000000006, 10.62993 73.70084800000001, 10.62993 73.70084800000001, 0 81.49613, 0 81.49613, 23.031515 92.12606, 23.031515 92.12606, 46.06303 81.49613, 46.06303 81.49613, 63.779579999999996 92.12606, 63.779579999999996 92.12606, 81.49613 81.49613, 81.49613 81.49613, 99.21267999999999 92.12606, 99.21267999999999 92.12606, 116.92922999999999 81.49613, 116.92922999999999 81.49613, 134.64578 92.12606, 134.64578 92.12606, 152.36233 81.49613, 152.36233 81.49613, 170.07887999999997 92.12606, 170.07887999999997 92.12606, 187.79542999999998 81.49613, 187.79542999999998 81.49613, 205.51197999999997 92.12606, 205.51197999999997 92.12606, 223.22852999999998 81.49613, 223.22852999999998 81.49613, 240.94508 92.12606, 240.94508 92.12606, 258.66162999999995 81.49613, 258.66162999999995 81.49613, 276.37817999999993 92.12606, 276.37817999999993 92.12606, 294.09472999999997 81.49613, 294.09472999999997 81.49613, 311.81128 92.12606, 311.81128 92.12606, 329.52783 81.49613, 329.52783 81.49613, 347.24438 92.12606, 347.24438 92.12606, 364.96092999999996 81.49613, 364.96092999999996 81.49613, 382.67747999999995 92.12606, 382.67747999999995 92.12606, 400.39402999999993 81.49613, 400.39402999999993 81.49613, 418.1105799999999 92.12606, 418.1105799999999 92.12606, 435.82713 81.49613, 435.82713 81.49613, 453.54368 92.12606, 453.54368 92.12606, 476.57519499999995 81.49613, 476.57519499999995 81.49613000000001, 499.60671 73.70084800000001, 499.60671 73.70084800000001, 488.97678 55.275636000000006, 488.97678 55.275636000000006, 499.60671 36.850424000000004, 499.60671 36.850424000000004, 488.97678 18.425212000000002, 488.97678 18.425212000000002, 499.60671 10.62993, 499.60670999999996 10.62993, 476.57519499999995 0, 476.57519499999995 0, 453.54368 10.62993, 453.54368 10.62993, 435.82713 0, 435.82713 0, 418.1105799999999 10.62993, 418.1105799999999 10.62993, 400.39402999999993 0, 400.39402999999993 0, 382.67747999999995 10.62993, 382.67747999999995 10.62993, 364.96092999999996 0, 364.96092999999996 0, 347.24438 10.62993, 347.24438 10.62993, 329.52783 0, 329.52783 0, 311.81128 10.62993, 311.81128 10.62993, 294.09472999999997 0, 294.09472999999997 0, 276.37817999999993 10.62993, 276.37817999999993 10.62993, 258.66162999999995 0, 258.66162999999995 0, 240.94508 10.62993, 240.94508 10.62993, 223.22852999999998 0, 223.22852999999998 0, 205.51197999999997 10.62993, 205.51197999999997 10.62993, 187.79542999999998 0, 187.79542999999998 0, 170.07887999999997 10.62993, 170.07887999999997 10.62993, 152.36233 0, 152.36233 0, 134.64578 10.62993, 134.64578 10.62993, 116.92922999999999 0, 116.92922999999999 0, 99.21267999999999 10.62993, 99.21267999999999 10.62993, 81.49613 0, 81.49613 0, 63.779579999999996 10.62993, 63.779579999999996 10.62993, 46.06303 0, 46.06303 0, 23.031515 10.62993, 23.031515 "/> 
</g>
<!-- Top--> 
<g transform="translate(22.500018499999996, 522.1067284999999) " > 
<polygon style="stroke:#000000; fill:none; stroke-width:0.035433099999999995" points="10.62993, 10.62993 22.58860125, 10.62993 22.58860125, 0 45.1772025, 0 45.1772025, 10.62993 62.8937525, 10.62993 62.8937525, 0 80.61030249999999, 0 80.61030249999999, 10.62993 98.3268525, 10.62993 98.3268525, 0 116.04340249999998, 0 116.04340249999998, 10.62993 133.7599525, 10.62993 133.7599525, 0 151.47650249999998, 0 151.47650249999998, 10.62993 169.1930525, 10.62993 169.1930525, 0 186.90960249999998, 0 186.90960249999998, 10.62993 204.62615249999996, 10.62993 204.62615249999996, 0 222.34270249999997, 0 222.34270249999997, 10.62993 240.05925249999999, 10.62993 240.05925249999999, 0 257.7758025, 0 257.7758025, 10.62993 275.4923525, 10.62993 275.4923525, 0 293.20890249999997, 0 293.20890249999997, 10.62993 310.9254525, 10.62993 310.9254525, 0 333.51405375, 0 333.51405375, 10.62993 345.47272499999997, 10.62993 345.47272499999997, 18.425212000000002 356.10265499999997, 18.425212000000002 356.10265499999997, 36.850424000000004 345.47272499999997, 36.850424000000004 345.47272499999997, 55.275636000000006 356.10265499999997, 55.275636000000006 356.10265499999997, 73.70084800000001 345.47272499999997, 73.70084800000001 345.47272499999997, 81.49613 333.51405375, 81.49613 333.51405375, 92.12606 310.9254525, 92.12606 310.9254525, 81.49613 293.20890249999997, 81.49613 293.20890249999997, 92.12606 275.4923525, 92.12606 275.4923525, 81.49613 257.7758025, 81.49613 257.7758025, 92.12606 240.05925249999999, 92.12606 240.05925249999999, 81.49613 222.34270249999997, 81.49613 222.34270249999997, 92.12606 204.62615249999996, 92.12606 204.62615249999996, 81.49613 186.90960249999998, 81.49613 186.90960249999998, 92.12606 169.1930525, 92.12606 169.1930525, 81.49613 151.47650249999998, 81.49613 151.47650249999998, 92.12606 133.7599525, 92.12606 133.7599525, 81.49613 116.04340249999998, 81.49613 116.04340249999998, 92.12606 98.3268525, 92.12606 98.3268525, 81.49613 80.61030249999999, 81.49613 80.61030249999999, 92.12606 62.8937525, 92.12606 62.8937525, 81.49613 45.1772025, 81.49613 45.1772025, 92.12606 22.58860125, 92.12606 22.58860125, 81.49613 10.62993, 81.49613000000001 10.62993, 73.70084800000001 0, 73.70084800000001 0, 55.275636000000006 10.62993, 55.275636000000006 10.62993, 36.850424000000004 0, 36.850424000000004 0, 18.425212000000002 10.62993, 18.425212000000002 "/> 
</g>
<!-- Bottom--> 
<g transform="translate(378.6026735, 522.1067284999999) " > 
<polygon style="stroke:#000000; fill:none; stroke-width:0.035433099999999995" points="10.62993, 10.62993 22.58860125, 10.62993 22.58860125, 0 45.1772025, 0 45.1772025, 10.62993 62.8937525, 10.62993 62.8937525, 0 80.61030249999999, 0 80.61030249999999, 10.62993 98.3268525, 10.62993 98.3268525, 0 116.04340249999998, 0 116.04340249999998, 10.62993 133.7599525, 10.62993 133.7599525, 0 151.47650249999998, 0 151.47650249999998, 10.62993 169.1930525, 10.62993 169.1930525, 0 186.90960249999998, 0 186.90960249999998, 10.62993 204.62615249999996, 10.62993 204.62615249999996, 0 222.34270249999997, 0 222.34270249999997, 10.62993 240.05925249999999, 10.62993 240.05925249999999, 0 257.7758025, 0 257.7758025, 10.62993 275.4923525, 10.62993 275.4923525, 0 293.20890249999997, 0 293.20890249999997, 10.62993 310.9254525, 10.62993 310.9254525, 0 333.51405375, 0 333.51405375, 10.62993 345.47272499999997, 10.62993 345.47272499999997, 18.425212000000002 356.10265499999997, 18.425212000000002 356.10265499999997, 36.850424000000004 345.47272499999997, 36.850424000000004 345.47272499999997, 55.275636000000006 356.10265499999997, 55.275636000000006 356.10265499999997, 73.70084800000001 345.47272499999997, 73.70084800000001 345.47272499999997, 81.49613 333.51405375, 81.49613 333.51405375, 92.12606 310.9254525, 92.12606 310.9254525, 81.49613 293.20890249999997, 81.49613 293.20890249999997, 92.12606 275.4923525, 92.12606 275.4923525, 81.49613 257.7758025, 81.49613 257.7758025, 92.12606 240.05925249999999, 92.12606 240.05925249999999, 81.49613 222.34270249999997, 81.49613 222.34270249999997, 92.12606 204.62615249999996, 92.12606 204.62615249999996, 81.49613 186.90960249999998, 81.49613 186.90960249999998, 92.12606 169.1930525, 92.12606 169.1930525, 81.49613 151.47650249999998, 81.49613 151.47650249999998, 92.12606 133.7599525, 92.12606 133.7599525, 81.49613 116.04340249999998, 81.49613 116.04340249999998, 92.12606 98.3268525, 92.12606 98.3268525, 81.49613 80.61030249999999, 81.49613 80.61030249999999, 92.12606 62.8937525, 92.12606 62.8937525, 81.49613 45.1772025, 81.49613 45.1772025, 92.12606 22.58860125, 92.12606 22.58860125, 81.49613 10.62993, 81.49613000000001 10.62993, 73.70084800000001 0, 73.70084800000001 0, 55.275636000000006 10.62993, 55.275636000000006 10.62993, 36.850424000000004 0, 36.850424000000004 0, 18.425212000000002 10.62993, 18.425212000000002 "/> 
</g></svg>