<svg xmlns="http://www.w3.org/2000/svg" version="1.1" width="202.7mm" height="293mm" viewBox = " 0 0 718.228937 1038.18983" >
<!-- Front--> 
<g transform="translate(22.5000185, 22.5000185) " > 
<polygon style="stroke:#000000; fill:none; stroke-width:0.90000074" points="17.716549999999998, 0 31.0039625, 0 31.0039625, 17.716549999999998 41.01381325, 17.716549999999998 41.01381325, 39.330741 36.58467575, 39.330741 36.58467575, 48.189016 41.01381325, 48.189016 41.01381325, 57.047291 51.99807425, 57.047291 51.99807425, 48.189016 56.42721175, 48.189016 56.42721175, 39.330741 51.99807425, 39.330741 51.99807425, 17.716549999999998 62.007925, 17.716549999999998 62.007925, 0 86.811095, 0 86.811095, 17.716549999999998 111.614265, 17.716549999999998 111.614265, 0 136.417435, 0 136.417435, 17.716549999999998 161.220605, 17.716549999999998 161.220605, 0 186.023775, 0 186.023775, 17.716549999999998 196.03362575, 17.716549999999998 196.03362575, 39.330741 191.60448825, 39.330741 191.60448825, 48.189016 196.03362575, 48.189016 196.03362575, 57.047291 207.01788675, 57.047291 207.01788675, 48.189016 211.44702425, 48.189016 211.44702425, 39.330741 207.01788675, 39.330741 207.01788675, 17.716549999999998 217.0277375, 17.716549999999998 217.0277375, 0 230.31515000000002, 0 230.31515000000002, 31.136836625000004 248.0317, 31.136836625000004 248.0317, 40.15013143750001 234.92145299999999, 40.15013143750001 234.92145299999999, 53.26037843750001 248.0317, 53.26037843750001 248.0317, 62.27367325000001 230.31515000000002, 62.27367325000001 230.31515000000002, 87.07684325000001 248.0317, 87.07684325000001 248.0317, 111.88001325000002 230.31515000000002, 111.88001325000002 230.31515000000002, 136.68318325 248.0317, 136.68318325 248.0317, 161.48635325 230.31515000000002, 161.48635325 230.31515000000002, 186.28952325 248.0317, 186.28952325 248.0317, 211.09269325000002 230.31515000000002, 211.09269325000002 230.31515000000002, 235.89586325000002 248.0317, 235.89586325000002 248.0317, 260.69903325 230.31515000000002, 260.69903325 230.31515000000002, 285.50220325000004 248.0317, 285.50220325000004 248.0317, 310.30537325 230.31515000000002, 310.30537325 230.31515000000002, 335.10854325 248.0317, 335.10854325 248.0317, 359.91171325000005 230.31515000000002, 359.91171325000005 230.31515000000002, 384.71488325 248.0317, 384.71488325 248.0317, 409.51805325000004 230.31515000000002, 409.51805325000004 230.31515000000002, 434.32122325 248.0317, 434.32122325 248.0317, 443.3345180625 234.92145299999999, 443.3345180625 234.92145299999999, 456.4447650625 248.0317, 456.4447650625 248.0317, 465.458059875 230.31515000000002, 465.458059875 230.31515000000002, 496.5948965 217.0277375, 496.5948965 217.0277375, 478.8783465 207.01788675, 478.8783465 207.01788675, 457.2641555 211.44702425, 457.2641555 211.44702425, 448.4058805 207.01788675, 448.4058805 207.01788675, 439.54760550000003 196.03362575, 439.54760550000003 196.03362575, 448.4058805 191.60448825, 448.4058805 191.60448825, 457.2641555 196.03362575, 457.2641555 196.03362575, 478.8783465 186.023775, 478.8783465 186.023775, 496.5948965 161.220605, 496.5948965 161.220605, 478.8783465 136.417435, 478.8783465 136.417435, 496.5948965 111.614265, 496.5948965 111.614265, 478.8783465 86.811095, 478.8783465 86.811095, 496.5948965 62.007925, 496.5948965 62.007925, 478.8783465 51.99807425, 478.8783465 51.99807425, 457.2641555 56.42721175, 457.2641555 56.42721175, 448.4058805 51.99807425, 448.4058805 51.99807425, 439.54760550000003 41.01381325, 439.54760550000003 41.01381325, 448.4058805 36.58467575, 448.4058805 36.58467575, 457.2641555 41.01381325, 457.2641555 41.01381325, 478.8783465 31.0039625, 478.8783465 31.0039625, 496.5948965 17.716549999999998, 496.5948965 17.716549999999998, 465.458059875 0, 465.458059875 0, 456.4447650625 13.110247000000001, 456.4447650625 13.110247000000001, 443.3345180625 0, 443.3345180625 0, 434.32122325 17.716549999999998, 434.32122325 17.716549999999998, 409.51805325000004 0, 409.51805325000004 0, 384.71488325 17.716549999999998, 384.71488325 17.716549999999998, 359.91171325000005 0, 359.91171325000005 0, 335.10854325 17.716549999999998, 335.10854325 17.716549999999998, 310.30537325 0, 310.30537325 0, 285.50220325000004 17.716549999999998, 285.50220325000004 17.716549999999998, 260.69903325 0, 260.69903325 0, 235.89586325000002 17.716549999999998, 235.89586325000002 17.716549999999998, 211.09269325000002 0, 211.09269325000002 0, 186.28952325 17.716549999999998, 186.28952325 17.716549999999998, 161.48635325 0, 161.48635325 0, 136.68318325 17.716549999999998, 136.68318325 17.716549999999998, 111.88001325000002 0, 111.88001325000002 0, 87.07684325000001 17.716549999999998, 87.07684325000001 17.716549999999998, 62.27367325000001 0, 62.27367325000001 0, 53.26037843750001 13.110247000000001, 53.26037843750001 13.110247000000001, 40.15013143750001 0, 40.15013143750001 0, 31.136836625000004 17.716549999999998, 31.136836625000004 "/> 
</g>
<!-- Back--> 
<g transform="translate(270.53171849999995, 22.5000185) " > 
<polygon style="stroke:#000000; fill:none; stroke-width:0.90000074" points="17.716549999999998, 0 31.0039625, 0 31.0039625, 17.716549999999998 41.01381325, 17.716549999999998 41.01381325, 39.330741 36.58467575, 39.330741 36.58467575, 48.189016 41.01381325, 48.189016 41.01381325, 57.047291 51.99807425, 57.047291 51.99807425, 48.189016 56.42721175, 48.189016 56.42721175, 39.330741 51.99807425, 39.330741 51.99807425, 17.716549999999998 62.007925, 17.716549999999998 62.007925, 0 86.811095, 0 86.811095, 17.716549999999998 111.614265, 17.716549999999998 111.614265, 0 136.417435, 0 136.417435, 17.716549999999998 161.220605, 17.716549999999998 161.220605, 0 186.023775, 0 186.023775, 17.716549999999998 196.03362575, 17.716549999999998 196.03362575, 39.330741 191.60448825, 39.330741 191.60448825, 48.189016 196.03362575, 48.189016 196.03362575, 57.047291 207.01788675, 57.047291 207.01788675, 48.189016 211.44702425, 48.189016 211.44702425, 39.330741 207.01788675, 39.330741 207.01788675, 17.716549999999998 217.0277375, 17.716549999999998 217.0277375, 0 230.31515000000002, 0 230.31515000000002, 31.136836625000004 248.0317, 31.136836625000004 248.0317, 40.15013143750001 234.92145299999999, 40.15013143750001 234.92145299999999, 53.26037843750001 248.0317, 53.26037843750001 248.0317, 62.27367325000001 230.31515000000002, 62.27367325000001 230.31515000000002, 87.07684325000001 248.0317, 87.07684325000001 248.0317, 111.88001325000002 230.31515000000002, 111.88001325000002 230.31515000000002, 136.68318325 248.0317, 136.68318325 248.0317, 161.48635325 230.31515000000002, 161.48635325 230.31515000000002, 186.28952325 248.0317, 186.28952325 248.0317, 211.09269325000002 230.31515000000002, 211.09269325000002 230.31515000000002, 235.89586325000002 248.0317, 235.89586325000002 248.0317, 260.69903325 230.31515000000002, 260.69903325 230.31515000000002, 285.50220325000004 248.0317, 285.50220325000004 248.0317, 310.30537325 230.31515000000002, 310.30537325 230.31515000000002, 335.10854325 248.0317, 335.10854325 248.0317, 359.91171325000005 230.31515000000002, 359.91171325000005 230.31515000000002, 384.71488325 248.0317, 384.71488325 248.0317, 409.51805325000004 230.31515000000002, 409.51805325000004 230.31515000000002, 434.32122325 248.0317, 434.32122325 248.0317, 443.3345180625 234.92145299999999, 443.3345180625 234.92145299999999, 456.4447650625 248.0317, 456.4447650625 248.0317, 465.458059875 230.31515000000002, 465.458059875 230.31515000000002, 496.5948965 217.0277375, 496.5948965 217.0277375, 478.8783465 207.01788675, 478.8783465 207.01788675, 457.2641555 211.44702425, 457.2641555 211.44702425, 448.4058805 207.01788675, 448.4058805 207.01788675, 439.54760550000003 196.03362575, 439.54760550000003 196.03362575, 448.4058805 191.60448825, 448.4058805 191.60448825, 457.2641555 196.03362575, 457.2641555 196.03362575, 478.8783465 186.023775, 478.8783465 186.023775, 496.5948965 161.220605, 496.5948965 161.220605, 478.8783465 136.417435, 478.8783465 136.417435, 496.5948965 111.614265, 496.5948965 111.614265, 478.8783465 86.811095, 478.8783465 86.811095, 496.5948965 62.007925, 496.5948965 62.007925, 478.8783465 51.99807425, 478.8783465 51.99807425, 457.2641555 56.42721175, 457.2641555 56.42721175, 448.4058805 51.99807425, 448.4058805 51.99807425, 439.54760550000003 41.01381325, 439.54760550000003 41.01381325, 448.4058805 36.58467575, 448.4058805 36.58467575, 457.2641555 41.01381325, 457.2641555 41.01381325, 478.8783465 31.0039625, 478.8783465 31.0039625, 496.5948965 17.716549999999998, 496.5948965 17.716549999999998, 465.458059875 0, 465.458059875 0, 456.4447650625 13.110247000000001, 456.4447650625 13.110247000000001, 443.3345180625 0, 443.3345180625 0, 434.32122325 17.716549999999998, 434.32122325 17.716549999999998, 409.51805325000004 0, 409.51805325000004 0, 384.71488325 17.716549999999998, 384.71488325 17.716549999999998, 359.91171325000005 0, 359.91171325000005 0, 335.10854325 17.716549999999998, 335.10854325 17.716549999999998, 310.30537325 0, 310.30537325 0, 285.50220325000004 17.716549999999998, 285.50220325000004 17.716549999999998, 260.69903325 0, 260.69903325 0, 235.89586325000002 17.716549999999998, 235.89586325000002 17.716549999999998, 211.09269325000002 0, 211.09269325000002 0, 186.28952325 17.716549999999998, 186.28952325 17.716549999999998, 161.48635325 0, 161.48635325 0, 136.68318325 17.716549999999998, 136.68318325 17.716549999999998, 111.88001325000002 0, 111.88001325000002 0, 87.07684325000001 17.716549999999998, 87.07684325000001 17.716549999999998, 62.27367325000001 0, 62.27367325000001 0, 53.26037843750001 13.110247000000001, 53.26037843750001 13.110247000000001, 40.15013143750001 0, 40.15013143750001 0, 31.136836625000004 17.716549999999998, 31.136836625000004 "/> 
</g>
<!-- Left--> 
<g transform="translate(518.5634185, 22.5000185) " > 
<polygon style="stroke:#000000; fill:none; stroke-width:0.90000074" points="0, 17.716549999999998 38.0905825, 17.716549999999998 38.0905825, 0 50.580750249999994, 0 50.580750249999994, 13.110247000000001 63.690997249999995, 13.110247000000001 63.690997249999995, 0 76.181165, 0 76.181165, 17.716549999999998 100.98433499999999, 17.716549999999998 100.98433499999999, 0 113.47450274999997, 0 113.47450274999997, 13.110247000000001 126.58474974999999, 13.110247000000001 126.58474974999999, 0 139.0749175, 0 139.0749175, 17.716549999999998 177.1655, 17.716549999999998 177.1655, 31.136836625000004 159.44895000000002, 31.136836625000004 159.44895000000002, 41.21312443750001 137.83475900000002, 41.21312443750001 137.83475900000002, 36.78398693750001 128.97648400000003, 36.78398693750001 128.97648400000003, 41.21312443750001 120.11820900000002, 41.21312443750001 120.11820900000002, 52.19738543750001 128.97648400000003, 52.19738543750001 128.97648400000003, 56.626522937500006 137.83475900000002, 56.626522937500006 137.83475900000002, 52.19738543750001 159.44895000000002, 52.19738543750001 159.44895000000002, 62.27367325000001 177.1655, 62.27367325000001 177.1655, 87.07684325000001 159.44895000000002, 87.07684325000001 159.44895000000002, 111.88001325000002 177.1655, 111.88001325000002 177.1655, 136.68318325 159.44895000000002, 136.68318325 159.44895000000002, 161.48635325 177.1655, 161.48635325 177.1655, 186.28952325 159.44895000000002, 186.28952325 159.44895000000002, 211.09269325000002 177.1655, 211.09269325000002 177.1655, 235.89586325000002 159.44895000000002, 235.89586325000002 159.44895000000002, 260.69903325 177.1655, 260.69903325 177.1655, 285.50220325000004 159.44895000000002, 285.50220325000004 159.44895000000002, 310.30537325 177.1655, 310.30537325 177.1655, 335.10854325 159.44895000000002, 335.10854325 159.44895000000002, 359.91171325000005 177.1655, 359.91171325000005 177.1655, 384.71488325 159.44895000000002, 384.71488325 159.44895000000002, 409.51805325000004 177.1655, 409.51805325000004 177.1655, 434.32122325 159.44895000000002, 434.32122325 159.44895000000002, 444.39751106250003 137.83475900000002, 444.39751106250003 137.83475900000002, 439.9683735625 128.97648400000003, 439.9683735625 128.97648400000003, 444.39751106250003 120.11820900000002, 444.39751106250003 120.11820900000002, 455.3817720625 128.97648400000003, 455.3817720625 128.97648400000003, 459.8109095625 137.83475900000002, 459.8109095625 137.83475900000002, 455.3817720625 159.44895000000002, 455.3817720625 159.44895000000002, 465.458059875 177.1655, 465.458059875 177.16549999999998, 478.8783465 139.0749175, 478.8783465 139.0749175, 496.5948965 126.58474974999999, 496.5948965 126.58474974999999, 483.4846495 113.47450274999997, 483.4846495 113.47450274999997, 496.5948965 100.98433499999999, 496.5948965 100.98433499999999, 478.8783465 76.181165, 478.8783465 76.181165, 496.5948965 63.690997249999995, 496.5948965 63.690997249999995, 483.4846495 50.580750249999994, 483.4846495 50.580750249999994, 496.5948965 38.0905825, 496.5948965 38.0905825, 478.8783465 0, 478.8783465 0, 465.458059875 17.716549999999998, 465.458059875 17.716549999999998, 455.3817720625 39.330741, 455.3817720625 39.330741, 459.8109095625 48.189016, 459.8109095625 48.189016, 455.3817720625 57.047291, 455.3817720625 57.047291, 444.39751106250003 48.189016, 444.39751106250003 48.189016, 439.9683735625 39.330741, 439.9683735625 39.330741, 444.39751106250003 17.716549999999998, 444.39751106250003 17.716549999999998, 434.32122325 0, 434.32122325 0, 409.51805325000004 17.716549999999998, 409.51805325000004 17.716549999999998, 384.71488325 0, 384.71488325 0, 359.91171325000005 17.716549999999998, 359.91171325000005 17.716549999999998, 335.10854325 0, 335.10854325 0, 310.30537325 17.716549999999998, 310.30537325 17.716549999999998, 285.50220325000004 0, 285.50220325000004 0, 260.69903325 17.716549999999998, 260.69903325 17.716549999999998, 235.89586325000002 0, 235.89586325000002 0, 211.09269325000002 17.716549999999998, 211.09269325000002 17.716549999999998, 186.28952325 0, 186.28952325 0, 161.48635325 17.716549999999998, 161.48635325 17.716549999999998, 136.68318325 0, 136.68318325 0, 111.88001325000002 17.716549999999998, 111.88001325000002 17.716549999999998, 87.07684325000001 0, 87.07684325000001 0, 62.27367325000001 17.716549999999998, 62.27367325000001 17.716549999999998, 52.19738543750001 39.330741, 52.19738543750001 39.330741, 56.626522937500006 48.189016, 56.626522937500006 48.189016, 52.19738543750001 57.047291, 52.19738543750001 57.047291, 41.21312443750001 48.189016, 41.21312443750001 48.189016, 36.78398693750001 39.330741, 36.78398693750001 39.330741, 41.21312443750001 17.716549999999998, 41.21312443750001 17.716549999999998, 31.136836625000004 0, 31.136836625000004 "/> 
</g>
<!-- Right--> 
<g transform="translate(518.5634185, 519.094915) " > 
<polygon style="stroke:#000000; fill:none; stroke-width:0.90000074" points="0, 17.716549999999998 38.0905825, 17.716549999999998 38.0905825, 0 50.580750249999994, 0 50.580750249999994, 13.110247000000001 63.690997249999995, 13.110247000000001 63.690997249999995, 0 76.181165, 0 76.181165, 17.716549999999998 100.98433499999999, 17.716549999999998 100.98433499999999, 0 113.47450274999997, 0 113.47450274999997, 13.110247000000001 126.58474974999999, 13.110247000000001 126.58474974999999, 0 139.0749175, 0 139.0749175, 17.716549999999998 177.1655, 17.716549999999998 177.1655, 31.136836625000004 159.44895000000002, 31.136836625000004 159.44895000000002, 41.21312443750001 137.83475900000002, 41.21312443750001 137.83475900000002, 36.78398693750001 128.97648400000003, 36.78398693750001 128.97648400000003, 41.21312443750001 120.11820900000002, 41.21312443750001 120.11820900000002, 52.19738543750001 128.97648400000003, 52.19738543750001 128.97648400000003, 56.626522937500006 137.83475900000002, 56.626522937500006 137.83475900000002, 52.19738543750001 159.44895000000002, 52.19738543750001 159.44895000000002, 62.27367325000001 177.1655, 62.27367325000001 177.1655, 87.07684325000001 159.44895000000002, 87.07684325000001 159.44895000000002, 111.88001325000002 177.1655, 111.88001325000002 177.1655, 136.68318325 159.44895000000002, 136.68318325 159.44895000000002, 161.48635325 177.1655, 161.48635325 177.1655, 186.28952325 159.44895000000002, 186.28952325 159.44895000000002, 211.09269325000002 177.1655, 211.09269325000002 177.1655, 235.89586325000002 159.44895000000002, 235.89586325000002 159.44895000000002, 260.69903325 177.1655, 260.69903325 177.1655, 285.50220325000004 159.44895000000002, 285.50220325000004 159.44895000000002, 310.30537325 177.1655, 310.30537325 177.1655, 335.10854325 159.44895000000002, 335.10854325 159.44895000000002, 359.91171325000005 177.1655, 359.91171325000005 177.1655, 384.71488325 159.44895000000002, 384.71488325 159.44895000000002, 409.51805325000004 177.1655, 409.51805325000004 177.1655, 434.32122325 159.44895000000002, 434.32122325 159.44895000000002, 444.39751106250003 137.83475900000002, 444.39751106250003 137.83475900000002, 439.9683735625 128.97648400000003, 439.9683735625 128.97648400000003, 444.39751106250003 120.11820900000002, 444.39751106250003 120.11820900000002, 455.3817720625 128.97648400000003, 455.3817720625 128.97648400000003, 459.8109095625 137.83475900000002, 459.8109095625 137.83475900000002, 455.3817720625 159.44895000000002, 455.3817720625 159.44895000000002, 465.458059875 177.1655, 465.458059875 177.16549999999998, 478.8783465 139.0749175, 478.8783465 139.0749175, 496.5948965 126.58474974999999, 496.5948965 126.58474974999999, 483.4846495 113.47450274999997, 483.4846495 113.47450274999997, 496.5948965 100.98433499999999, 496.5948965 100.98433499999999, 478.8783465 76.181165, 478.8783465 76.181165, 496.5948965 63.690997249999995, 496.5948965 63.690997249999995, 483.4846495 50.580750249999994, 483.4846495 50.580750249999994, 496.5948965 38.0905825, 496.5948965 38.0905825, 478.8783465 0, 478.8783465 0, 465.458059875 17.716549999999998, 465.458059875 17.716549999999998, 455.3817720625 39.330741, 455.3817720625 39.330741, 459.8109095625 48.189016, 459.8109095625 48.189016, 455.3817720625 57.047291, 455.3817720625 57.047291, 444.39751106250003 48.189016, 444.39751106250003 48.189016, 439.9683735625 39.330741, 439.9683735625 39.330741, 444.39751106250003 17.716549999999998, 444.39751106250003 17.716549999999998, 434.32122325 0, 434.32122325 0, 409.51805325000004 17.716549999999998, 409.51805325000004 17.716549999999998, 384.71488325 0, 384.71488325 0, 359.91171325000005 17.716549999999998, 359.91171325000005 17.716549999999998, 335.10854325 0, 335.10854325 0, 310.30537325 17.716549999999998, 310.30537325 17.716549999999998, 285.50220325000004 0, 285.50220325000004 0, 260.69903325 17.716549999999998, 260.69903325 17.716549999999998, 235.89586325000002 0, 235.89586325000002 0, 211.09269325000002 17.716549999999998, 211.09269325000002 17.716549999999998, 186.28952325 0, 186.28952325 0, 161.48635325 17.716549999999998, 161.48635325 17.716549999999998, 136.68318325 0, 136.68318325 0, 111.88001325000002 17.716549999999998, 111.88001325000002 17.716549999999998, 87.07684325000001 0, 87.07684325000001 0, 62.27367325000001 17.716549999999998, 62.27367325000001 17.716549999999998, 52.19738543750001 39.330741, 52.19738543750001 39.330741, 56.626522937500006 48.189016, 56.626522937500006 48.189016, 52.19738543750001 57.047291, 52.19738543750001 57.047291, 41.21312443750001 48.189016, 41.21312443750001 48.189016, 36.78398693750001 39.330741, 36.78398693750001 39.330741, 41.21312443750001 17.716549999999998, 41.21312443750001 17.716549999999998, 31.136836625000004 0, 31.136836625000004 "/> 
</g>
<!-- Top--> 
<g transform="translate(22.5000185, 519.094915) " > 
<polygon style="stroke:#000000; fill:none; stroke-width:0.90000074" points="0, 17.716549999999998 31.0039625, 17.716549999999998 31.0039625, 0 39.95082025, 0 39.95082025, 13.110247000000001 53.06106725, 13.110247000000001 53.06106725, 0 62.007925, 0 62.007925, 17.716549999999998 86.811095, 17.716549999999998 86.811095, 0 111.614265, 0 111.614265, 17.716549999999998 136.417435, 17.716549999999998 136.417435, 0 161.220605, 0 161.220605, 17.716549999999998 186.023775, 17.716549999999998 186.023775, 0 194.97063275, 0 194.97063275, 13.110247000000001 208.08087975, 13.110247000000001 208.08087975, 0 217.0277375, 0 217.0277375, 17.716549999999998 248.0317, 17.716549999999998 248.0317, 38.0905825 230.31515000000002, 38.0905825 230.31515000000002, 51.64374324999999 208.700959, 51.64374324999999 208.700959, 47.21460575 199.84268400000002, 47.21460575 199.84268400000002, 51.64374324999999 190.98440900000003, 51.64374324999999 190.98440900000003, 62.62800425 199.84268400000002, 62.62800425 199.84268400000002, 67.05714175 208.700959, 67.05714175 208.700959, 62.62800425 230.31515000000002, 62.62800425 230.31515000000002, 76.181165 248.0317, 76.181165 248.0317, 100.98433499999999 230.31515000000002, 100.98433499999999 230.31515000000002, 114.53749574999998 208.700959, 114.53749574999998 208.700959, 110.10835824999998 199.84268400000002, 110.10835824999998 199.84268400000002, 114.53749574999998 190.98440900000003, 114.53749574999998 190.98440900000003, 125.52175674999998 199.84268400000002, 125.52175674999998 199.84268400000002, 129.95089424999998 208.700959, 129.95089424999998 208.700959, 125.52175674999998 230.31515000000002, 125.52175674999998 230.31515000000002, 139.0749175 248.0317, 139.0749175 248.0317, 159.44895000000002 217.0277375, 159.44895000000002 217.0277375, 177.1655 208.08087975, 177.1655 208.08087975, 164.055253 194.97063275, 164.055253 194.97063275, 177.1655 186.023775, 177.1655 186.023775, 159.44895000000002 161.220605, 159.44895000000002 161.220605, 177.1655 136.417435, 177.1655 136.417435, 159.44895000000002 111.614265, 159.44895000000002 111.614265, 177.1655 86.811095, 177.1655 86.811095, 159.44895000000002 62.007925, 159.44895000000002 62.007925, 177.1655 53.06106725, 177.1655 53.06106725, 164.055253 39.95082025, 164.055253 39.95082025, 177.1655 31.0039625, 177.1655 31.0039625, 159.44895000000002 0, 159.44894999999997 0, 139.0749175 17.716549999999998, 139.0749175 17.716549999999998, 125.52175674999998 39.330741, 125.52175674999998 39.330741, 129.95089424999998 48.189016, 129.95089424999998 48.189016, 125.52175674999998 57.047291, 125.52175674999998 57.047291, 114.53749574999998 48.189016, 114.53749574999998 48.189016, 110.10835824999998 39.330741, 110.10835824999998 39.330741, 114.53749574999998 17.716549999999998, 114.53749574999998 17.716549999999998, 100.98433499999999 0, 100.98433499999999 0, 76.181165 17.716549999999998, 76.181165 17.716549999999998, 62.62800425 39.330741, 62.62800425 39.330741, 67.05714175 48.189016, 67.05714175 48.189016, 62.62800425 57.047291, 62.62800425 57.047291, 51.64374324999999 48.189016, 51.64374324999999 48.189016, 47.21460575 39.330741, 47.21460575 39.330741, 51.64374324999999 17.716549999999998, 51.64374324999999 17.716549999999998, 38.0905825 0, 38.0905825 "/> 
</g>
<!-- Bottom--> 
<g transform="translate(270.53171849999995, 519.094915) " > 
<polygon style="stroke:#000000; fill:none; stroke-width:0.90000074" points="0, 17.716549999999998 31.0039625, 17.716549999999998 31.0039625, 0 39.95082025, 0 39.95082025, 13.110247000000001 53.06106725, 13.110247000000001 53.06106725, 0 62.007925, 0 62.007925, 17.716549999999998 86.811095, 17.716549999999998 86.811095, 0 111.614265, 0 111.614265, 17.716549999999998 136.417435, 17.716549999999998 136.417435, 0 161.220605, 0 161.220605, 17.716549999999998 186.023775, 17.716549999999998 186.023775, 0 194.97063275, 0 194.97063275, 13.110247000000001 208.08087975, 13.110247000000001 208.08087975, 0 217.0277375, 0 217.0277375, 17.716549999999998 248.0317, 17.716549999999998 248.0317, 38.0905825 230.31515000000002, 38.0905825 230.31515000000002, 51.64374324999999 208.700959, 51.64374324999999 208.700959, 47.21460575 199.84268400000002, 47.21460575 199.84268400000002, 51.64374324999999 190.98440900000003, 51.64374324999999 190.98440900000003, 62.62800425 199.84268400000002, 62.62800425 199.84268400000002, 67.05714175 208.700959, 67.05714175 208.700959, 62.62800425 230.31515000000002, 62.62800425 230.31515000000002, 76.181165 248.0317, 76.181165 248.0317, 100.98433499999999 230.31515000000002, 100.98433499999999 230.31515000000002, 114.53749574999998 208.700959, 114.53749574999998 208.700959, 110.10835824999998 199.84268400000002, 110.10835824999998 199.84268400000002, 114.53749574999998 190.98440900000003, 114.53749574999998 190.98440900000003, 125.52175674999998 199.84268400000002, 125.52175674999998 199.84268400000002, 129.95089424999998 208.700959, 129.95089424999998 208.700959, 125.52175674999998 230.31515000000002, 125.52175674999998 230.31515000000002, 139.0749175 248.0317, 139.0749175 248.0317, 159.44895000000002 217.0277375, 159.44895000000002 217.0277375, 177.1655 208.08087975, 177.1655 208.08087975, 164.055253 194.97063275, 164.055253 194.97063275, 177.1655 186.023775, 177.1655 186.023775, 159.44895000000002 161.220605, 159.44895000000002 161.220605, 177.1655 136.417435, 177.1655 136.417435, 159.44895000000002 111.614265, 159.44895000000002 111.614265, 177.1655 86.811095, 177.1655 86.811095, 159.44895000000002 62.007925, 159.44895000000002 62.007925, 177.1655 53.06106725, 177.1655 53.06106725, 164.055253 39.95082025, 164.055253 39.95082025, 177.1655 31.0039625, 177.1655 31.0039625, 159.44895000000002 0, 159.44894999999997 0, 139.0749175 17.716549999999998, 139.0749175 17.716549999999998, 125.52175674999998 39.330741, 125.52175674999998 39.330741, 129.95089424999998 48.189016, 129.95089424999998 48.189016, 125.52175674999998 57.047291, 125.52175674999998 57.047291, 114.53749574999998 48.189016, 114.53749574999998 48.189016, 110.10835824999998 39.330741, 110.10835824999998 39.330741, 114.53749574999998 17.716549999999998, 114.53749574999998 17.716549999999998, 100.98433499999999 0, 100.98433499999999 0, 76.181165 17.716549999999998, 76.181165 17.716549999999998, 62.62800425 39.330741, 62.62800425 39.330741, 67.05714175 48.189016, 67.05714175 48.189016, 62.62800425 57.047291, 62.62800425 57.047291, 51.64374324999999 48.189016, 51.64374324999999 48.189016, 47.21460575 39.330741, 47.21460575 39.330741, 51.64374324999999 17.716549999999998, 51.64374324999999 17.716549999999998, 38.0905825 0, 38.0905825 "/> 
</g></svg>