<svg xmlns="http://www.w3.org/2000/svg" version="1.1" width="172.7mm" height="272.7mm" viewBox = " 0 0 611.929637 966.260637" >
<!-- Front--> 
<g transform="translate(22.5000185, 22.5000185) " > 
<polygon style="stroke:#000000; fill:none; stroke-width:0.90000074" points="17.716549999999998, 0 46.06303, 0 46.06303, 17.716549999999998 63.602414499999995, 17.716549999999998 63.602414499999995, 39.330741 59.173277, 39.330741 59.173277, 48.189016 63.602414499999995, 48.189016 63.602414499999995, 57.047291 74.5866755, 57.047291 74.5866755, 48.189016 79.015813, 48.189016 79.015813, 39.330741 74.5866755, 39.330741 74.5866755, 17.716549999999998 92.12606, 17.716549999999998 92.12606, 0 120.47254, 0 120.47254, 17.716549999999998 138.0119245, 17.716549999999998 138.0119245, 39.330741 133.582787, 39.330741 133.582787, 48.189016 138.0119245, 48.189016 138.0119245, 57.047291 148.9961855, 57.047291 148.9961855, 48.189016 153.425323, 48.189016 153.425323, 39.330741 148.9961855, 39.330741 148.9961855, 17.716549999999998 166.53557, 17.716549999999998 166.53557, 0 194.88205, 0 194.88205, 37.204755 212.5986, 37.204755 212.5986, 49.252008999999994 199.48835300000002, 49.252008999999994 199.48835300000002, 62.362255999999995 212.5986, 62.362255999999995 212.5986, 74.40951 194.88205, 74.40951 194.88205, 102.75599 212.5986, 102.75599 212.5986, 131.10246999999998 194.88205, 131.10246999999998 194.88205, 159.44895 212.5986, 159.44895 212.5986, 187.79543 194.88205, 187.79543 194.88205, 216.14191 212.5986, 216.14191 212.5986, 244.48838999999998 194.88205, 244.48838999999998 194.88205, 272.83487 212.5986, 272.83487 212.5986, 301.18135 194.88205, 301.18135 194.88205, 329.52783 212.5986, 329.52783 212.5986, 357.87431 194.88205, 357.87431 194.88205, 386.22079 212.5986, 386.22079 212.5986, 398.26804400000003 199.48835300000002, 398.26804400000003 199.48835300000002, 411.378291 212.5986, 411.378291 212.5986, 423.425545 194.88205, 423.425545 194.88205, 460.6303 166.53557, 460.6303 166.53557, 442.91375 148.9961855, 442.91375 148.9961855, 421.299559 153.425323, 421.299559 153.425323, 412.441284 148.9961855, 412.441284 148.9961855, 403.583009 138.0119245, 403.583009 138.0119245, 412.441284 133.582787, 412.441284 133.582787, 421.299559 138.0119245, 421.299559 138.0119245, 442.91375 120.47254, 442.91375 120.47254, 460.6303 92.12606, 460.6303 92.12606, 442.91375 74.5866755, 442.91375 74.5866755, 421.299559 79.015813, 421.299559 79.015813, 412.441284 74.5866755, 412.441284 74.5866755, 403.583009 63.602414499999995, 403.583009 63.602414499999995, 412.441284 59.173277, 412.441284 59.173277, 421.299559 63.602414499999995, 421.299559 63.602414499999995, 442.91375 46.06303, 442.91375 46.06303, 460.6303 17.716549999999998, 460.63030000000003 17.716549999999998, 423.425545 0, 423.425545 0, 411.378291 13.110247000000001, 411.378291 13.110247000000001, 398.26804400000003 0, 398.26804400000003 0, 386.22079 17.716549999999998, 386.22079 17.716549999999998, 357.87431 0, 357.87431 0, 329.52783 17.716549999999998, 329.52783 17.716549999999998, 301.18135 0, 301.18135 0, 272.83487 17.716549999999998, 272.83487 17.716549999999998, 244.48838999999998 0, 244.48838999999998 0, 216.14191 17.716549999999998, 216.14191 17.716549999999998, 187.79543 0, 187.79543 0, 159.44895 17.716549999999998, 159.44895 17.716549999999998, 131.10246999999998 0, 131.10246999999998 0, 102.75599 17.716549999999998, 102.75599 17.716549999999998, 74.40951 0, 74.40951 0, 62.362255999999995 13.110247000000001, 62.362255999999995 13.110247000000001, 49.252008999999994 0, 49.252008999999994 0, 37.204755 17.716549999999998, 37.204755 "/> 
</g>
<!-- Back--> 
<g transform="translate(235.0986185, 22.5000185) " > 
<polygon style="stroke:#000000; fill:none; stroke-width:0.90000074" points="17.716549999999998, 0 46.06303, 0 46.06303, 17.716549999999998 63.602414499999995, 17.716549999999998 63.602414499999995, 39.330741 59.173277, 39.330741 59.173277, 48.189016 63.602414499999995, 48.189016 63.602414499999995, 57.047291 74.5866755, 57.047291 74.5866755, 48.189016 79.015813, 48.189016 79.015813, 39.330741 74.5866755, 39.330741 74.5866755, 17.716549999999998 92.12606, 17.716549999999998 92.12606, 0 120.47254, 0 120.47254, 17.716549999999998 138.0119245, 17.716549999999998 138.0119245, 39.330741 133.582787, 39.330741 133.582787, 48.189016 138.0119245, 48.189016 138.0119245, 57.047291 148.9961855, 57.047291 148.9961855, 48.189016 153.425323, 48.189016 153.425323, 39.330741 148.9961855, 39.330741 148.9961855, 17.716549999999998 166.53557, 17.716549999999998 166.53557, 0 194.88205, 0 194.88205, 37.204755 212.5986, 37.204755 212.5986, 49.252008999999994 199.48835300000002, 49.252008999999994 199.48835300000002, 62.362255999999995 212.5986, 62.362255999999995 212.5986, 74.40951 194.88205, 74.40951 194.88205, 102.75599 212.5986, 102.75599 212.5986, 131.10246999999998 194.88205, 131.10246999999998 194.88205, 159.44895 212.5986, 159.44895 212.5986, 187.79543 194.88205, 187.79543 194.88205, 216.14191 212.5986, 216.14191 212.5986, 244.48838999999998 194.88205, 244.48838999999998 194.88205, 272.83487 212.5986, 272.83487 212.5986, 301.18135 194.88205, 301.18135 194.88205, 329.52783 212.5986, 329.52783 212.5986, 357.87431 194.88205, 357.87431 194.88205, 386.22079 212.5986, 386.22079 212.5986, 398.26804400000003 199.48835300000002, 398.26804400000003 199.48835300000002, 411.378291 212.5986, 411.378291 212.5986, 423.425545 194.88205, 423.425545 194.88205, 460.6303 166.53557, 460.6303 166.53557, 442.91375 148.9961855, 442.91375 148.9961855, 421.299559 153.425323, 421.299559 153.425323, 412.441284 148.9961855, 412.441284 148.9961855, 403.583009 138.0119245, 403.583009 138.0119245, 412.441284 133.582787, 412.441284 133.582787, 421.299559 138.0119245, 421.299559 138.0119245, 442.91375 120.47254, 442.91375 120.47254, 460.6303 92.12606, 460.6303 92.12606, 442.91375 74.5866755, 442.91375 74.5866755, 421.299559 79.015813, 421.299559 79.015813, 412.441284 74.5866755, 412.441284 74.5866755, 403.583009 63.602414499999995, 403.583009 63.602414499999995, 412.441284 59.173277, 412.441284 59.173277, 421.299559 63.602414499999995, 421.299559 63.602414499999995, 442.91375 46.06303, 442.91375 46.06303, 460.6303 17.716549999999998, 460.63030000000003 17.716549999999998, 423.425545 0, 423.425545 0, 411.378291 13.110247000000001, 411.378291 13.110247000000001, 398.26804400000003 0, 398.26804400000003 0, 386.22079 17.716549999999998, 386.22079 17.716549999999998, 357.87431 0, 357.87431 0, 329.52783 17.716549999999998, 329.52783 17.716549999999998, 301.18135 0, 301.18135 0, 272.83487 17.716549999999998, 272.83487 17.716549999999998, 244.48838999999998 0, 244.48838999999998 0, 216.14191 17.716549999999998, 216.14191 17.716549999999998, 187.79543 0, 187.79543 0, 159.44895 17.716549999999998, 159.44895 17.716549999999998, 131.10246999999998 0, 131.10246999999998 0, 102.75599 17.716549999999998, 102.75599 17.716549999999998, 74.40951 0, 74.40951 0, 62.362255999999995 13.110247000000001, 62.362255999999995 13.110247000000001, 49.252008999999994 0, 49.252008999999994 0, 37.204755 17.716549999999998, 37.204755 "/> 
</g>
<!-- Left--> 
<g transform="translate(447.69721849999996, 22.5000185) " > 
<polygon style="stroke:#000000; fill:none; stroke-width:0.90000074" points="0, 17.716549999999998 28.34648, 17.716549999999998 28.34648, 0 56.69296, 0 56.69296, 17.716549999999998 65.37406949999999, 17.716549999999998 65.37406949999999, 39.330741 60.944931999999994, 39.330741 60.944931999999994, 48.189016 65.37406949999999, 48.189016 65.37406949999999, 57.047291 76.3583305, 57.047291 76.3583305, 48.189016 80.78746799999999, 48.189016 80.78746799999999, 39.330741 76.3583305, 39.330741 76.3583305, 17.716549999999998 85.03944, 17.716549999999998 85.03944, 0 113.38592, 0 113.38592, 17.716549999999998 141.73239999999998, 17.716549999999998 141.73239999999998, 37.204755 124.01584999999999, 37.204755 124.01584999999999, 50.31500199999999 102.40165899999998, 50.31500199999999 102.40165899999998, 45.8858645 93.54338399999997, 45.8858645 93.54338399999997, 50.31500199999999 84.68510899999998, 50.31500199999999 84.68510899999998, 61.299262999999996 93.54338399999997, 61.299262999999996 93.54338399999997, 65.72840049999999 102.40165899999998, 65.72840049999999 102.40165899999998, 61.299262999999996 124.01584999999999, 61.299262999999996 124.01584999999999, 74.40951 141.73239999999998, 74.40951 141.73239999999998, 102.75599 124.01584999999999, 102.75599 124.01584999999999, 131.10246999999998 141.73239999999998, 131.10246999999998 141.73239999999998, 159.44895 124.01584999999999, 159.44895 124.01584999999999, 187.79543 141.73239999999998, 187.79543 141.73239999999998, 216.14191 124.01584999999999, 216.14191 124.01584999999999, 244.48838999999998 141.73239999999998, 244.48838999999998 141.73239999999998, 272.83487 124.01584999999999, 272.83487 124.01584999999999, 301.18135 141.73239999999998, 301.18135 141.73239999999998, 329.52783 124.01584999999999, 329.52783 124.01584999999999, 357.87431 141.73239999999998, 357.87431 141.73239999999998, 386.22079 124.01584999999999, 386.22079 124.01584999999999, 399.33103700000004 102.40165899999998, 399.33103700000004 102.40165899999998, 394.9018995 93.54338399999997, 394.9018995 93.54338399999997, 399.33103700000004 84.68510899999998, 399.33103700000004 84.68510899999998, 410.315298 93.54338399999997, 410.315298 93.54338399999997, 414.7444355 102.40165899999998, 414.7444355 102.40165899999998, 410.315298 124.01584999999999, 410.315298 124.01584999999999, 423.425545 141.73239999999998, 423.425545 141.73239999999998, 442.91375 113.38592, 442.91375 113.38592, 460.6303 85.03944, 460.6303 85.03944, 442.91375 76.3583305, 442.91375 76.3583305, 421.299559 80.78746799999999, 421.299559 80.78746799999999, 412.441284 76.3583305, 412.441284 76.3583305, 403.583009 65.37406949999999, 403.583009 65.37406949999999, 412.441284 60.944931999999994, 412.441284 60.944931999999994, 421.299559 65.37406949999999, 421.299559 65.37406949999999, 442.91375 56.69296, 442.91375 56.69296, 460.6303 28.34648, 460.6303 28.34648, 442.91375 0, 442.91375000000005 0, 423.425545 17.716549999999998, 423.425545 17.716549999999998, 410.315298 39.330741, 410.315298 39.330741, 414.7444355 48.189016, 414.7444355 48.189016, 410.315298 57.047291, 410.315298 57.047291, 399.33103700000004 48.189016, 399.33103700000004 48.189016, 394.9018995 39.330741, 394.9018995 39.330741, 399.33103700000004 17.716549999999998, 399.33103700000004 17.716549999999998, 386.22079 0, 386.22079 0, 357.87431 17.716549999999998, 357.87431 17.716549999999998, 329.52783 0, 329.52783 0, 301.18135 17.716549999999998, 301.18135 17.716549999999998, 272.83487 0, 272.83487 0, 244.48838999999998 17.716549999999998, 244.48838999999998 17.716549999999998, 216.14191 0, 216.14191 0, 187.79543 17.716549999999998, 187.79543 17.716549999999998, 159.44895 0, 159.44895 0, 131.10246999999998 17.716549999999998, 131.10246999999998 17.716549999999998, 102.75599 0, 102.75599 0, 74.40951 17.716549999999998, 74.40951 17.716549999999998, 61.299262999999996 39.330741, 61.299262999999996 39.330741, 65.72840049999999 48.189016, 65.72840049999999 48.189016, 61.299262999999996 57.047291, 61.299262999999996 57.047291, 50.31500199999999 48.189016, 50.31500199999999 48.189016, 45.8858645 39.330741, 45.8858645 39.330741, 50.31500199999999 17.716549999999998, 50.31500199999999 17.716549999999998, 37.204755 0, 37.204755 "/> 
</g>
<!-- Right--> 
<g transform="translate(447.69721849999996, 483.1303185) " > 
<polygon style="stroke:#000000; fill:none; stroke-width:0.90000074" points="0, 17.716549999999998 28.34648, 17.716549999999998 28.34648, 0 56.69296, 0 56.69296, 17.716549999999998 65.37406949999999, 17.716549999999998 65.37406949999999, 39.330741 60.944931999999994, 39.330741 60.944931999999994, 48.189016 65.37406949999999, 48.189016 65.37406949999999, 57.047291 76.3583305, 57.047291 76.3583305, 48.189016 80.78746799999999, 48.189016 80.78746799999999, 39.330741 76.3583305, 39.330741 76.3583305, 17.716549999999998 85.03944, 17.716549999999998 85.03944, 0 113.38592, 0 113.38592, 17.716549999999998 141.73239999999998, 17.716549999999998 141.73239999999998, 37.204755 124.01584999999999, 37.204755 124.01584999999999, 50.31500199999999 102.40165899999998, 50.31500199999999 102.40165899999998, 45.8858645 93.54338399999997, 45.8858645 93.54338399999997, 50.31500199999999 84.68510899999998, 50.31500199999999 84.68510899999998, 61.299262999999996 93.54338399999997, 61.299262999999996 93.54338399999997, 65.72840049999999 102.40165899999998, 65.72840049999999 102.40165899999998, 61.299262999999996 124.01584999999999, 61.299262999999996 124.01584999999999, 74.40951 141.73239999999998, 74.40951 141.73239999999998, 102.75599 124.01584999999999, 102.75599 124.01584999999999, 131.10246999999998 141.73239999999998, 131.10246999999998 141.73239999999998, 159.44895 124.01584999999999, 159.44895 124.01584999999999, 187.79543 141.73239999999998, 187.79543 141.73239999999998, 216.14191 124.01584999999999, 216.14191 124.01584999999999, 244.48838999999998 141.73239999999998, 244.48838999999998 141.73239999999998, 272.83487 124.01584999999999, 272.83487 124.01584999999999, 301.18135 141.73239999999998, 301.18135 141.73239999999998, 329.52783 124.01584999999999, 329.52783 124.01584999999999, 357.87431 141.73239999999998, 357.87431 141.73239999999998, 386.22079 124.01584999999999, 386.22079 124.01584999999999, 399.33103700000004 102.40165899999998, 399.33103700000004 102.40165899999998, 394.9018995 93.54338399999997, 394.9018995 93.54338399999997, 399.33103700000004 84.68510899999998, 399.33103700000004 84.68510899999998, 410.315298 93.54338399999997, 410.315298 93.54338399999997, 414.7444355 102.40165899999998, 414.7444355 102.40165899999998, 410.315298 124.01584999999999, 410.315298 124.01584999999999, 423.425545 141.73239999999998, 423.425545 141.73239999999998, 442.91375 113.38592, 442.91375 113.38592, 460.6303 85.03944, 460.6303 85.03944, 442.91375 76.3583305, 442.91375 76.3583305, 421.299559 80.78746799999999, 421.299559 80.78746799999999, 412.441284 76.3583305, 412.441284 76.3583305, 403.583009 65.37406949999999, 403.583009 65.37406949999999, 412.441284 60.944931999999994, 412.441284 60.944931999999994, 421.299559 65.37406949999999, 421.299559 65.37406949999999, 442.91375 56.69296, 442.91375 56.69296, 460.6303 28.34648, 460.6303 28.34648, 442.91375 0, 442.91375000000005 0, 423.425545 17.716549999999998, 423.425545 17.716549999999998, 410.315298 39.330741, 410.315298 39.330741, 414.7444355 48.189016, 414.7444355 48.189016, 410.315298 57.047291, 410.315298 57.047291, 399.33103700000004 48.189016, 399.33103700000004 48.189016, 394.9018995 39.330741, 394.9018995 39.330741, 399.33103700000004 17.716549999999998, 399.33103700000004 17.716549999999998, 386.22079 0, 386.22079 0, 357.87431 17.716549999999998, 357.87431 17.716549999999998, 329.52783 0, 329.52783 0, 301.18135 17.716549999999998, 301.18135 17.716549999999998, 272.83487 0, 272.83487 0, 244.48838999999998 17.716549999999998, 244.48838999999998 17.716549999999998, 216.14191 0, 216.14191 0, 187.79543 17.716549999999998, 187.79543 17.716549999999998, 159.44895 0, 159.44895 0, 131.10246999999998 17.716549999999998, 131.10246999999998 17.716549999999998, 102.75599 0, 102.75599 0, 74.40951 17.716549999999998, 74.40951 17.716549999999998, 61.299262999999996 39.330741, 61.299262999999996 39.330741, 65.72840049999999 48.189016, 65.72840049999999 48.189016, 61.299262999999996 57.047291, 61.299262999999996 57.047291, 50.31500199999999 48.189016, 50.31500199999999 48.189016, 45.8858645 39.330741, 45.8858645 39.330741, 50.31500199999999 17.716549999999998, 50.31500199999999 17.716549999999998, 37.204755 0, 37.204755 "/> 
</g>
<!-- Top--> 
<g transform="translate(22.5000185, 483.1303185) " > 
<polygon style="stroke:#000000; fill:none; stroke-width:0.90000074" points="0, 17.716549999999998 46.06303, 17.716549999999998 46.06303, 0 62.539421499999996, 0 62.539421499999996, 13.110247000000001 75.64966849999999, 13.110247000000001 75.64966849999999, 0 92.12606, 0 92.12606, 17.716549999999998 120.47254, 17.716549999999998 120.47254, 0 136.9489315, 0 136.9489315, 13.110247000000001 150.0591785, 13.110247000000001 150.0591785, 0 166.53557, 0 166.53557, 17.716549999999998 212.5986, 17.716549999999998 212.5986, 28.34648 194.88205, 28.34648 194.88205, 56.69296 212.5986, 56.69296 212.5986, 64.31107649999998 199.48835300000002, 64.31107649999998 199.48835300000002, 77.4213235 212.5986, 77.4213235 212.5986, 85.03944 194.88205, 85.03944 194.88205, 113.38592 212.5986, 113.38592 212.59859999999998, 124.01584999999999 166.53557, 124.01584999999999 166.53557, 141.73239999999998 150.0591785, 141.73239999999998 150.0591785, 128.62215299999997 136.9489315, 128.62215299999997 136.9489315, 141.73239999999998 120.47254, 141.73239999999998 120.47254, 124.01584999999999 92.12606, 124.01584999999999 92.12606, 141.73239999999998 75.64966849999999, 141.73239999999998 75.64966849999999, 128.62215299999997 62.539421499999996, 128.62215299999997 62.539421499999996, 141.73239999999998 46.06303, 141.73239999999998 46.06303, 124.01584999999999 0, 124.01584999999999 0, 113.38592 17.716549999999998, 113.38592 17.716549999999998, 85.03944 0, 85.03944 0, 77.4213235 13.110247000000001, 77.4213235 13.110247000000001, 64.31107649999998 0, 64.31107649999998 0, 56.69296 17.716549999999998, 56.69296 17.716549999999998, 28.34648 0, 28.34648 "/> 
</g>
<!-- Bottom--> 
<g transform="translate(235.0986185, 483.1303185) " > 
<polygon style="stroke:#000000; fill:none; stroke-width:0.90000074" points="0, 17.716549999999998 46.06303, 17.716549999999998 46.06303, 0 62.539421499999996, 0 62.539421499999996, 13.110247000000001 75.64966849999999, 13.110247000000001 75.64966849999999, 0 92.12606, 0 92.12606, 17.716549999999998 120.47254, 17.716549999999998 120.47254, 0 136.9489315, 0 136.9489315, 13.110247000000001 150.0591785, 13.110247000000001 150.0591785, 0 166.53557, 0 166.53557, 17.716549999999998 212.5986, 17.716549999999998 212.5986, 28.34648 194.88205, 28.34648 194.88205, 56.69296 212.5986, 56.69296 212.5986, 64.31107649999998 199.48835300000002, 64.31107649999998 199.48835300000002, 77.4213235 212.5986, 77.4213235 212.5986, 85.03944 194.88205, 85.03944 194.88205, 113.38592 212.5986, 113.38592 212.59859999999998, 124.01584999999999 166.53557, 124.01584999999999 166.53557, 141.73239999999998 150.0591785, 141.73239999999998 150.0591785, 128.62215299999997 136.9489315, 128.62215299999997 136.9489315, 141.73239999999998 120.47254, 141.73239999999998 120.47254, 124.01584999999999 92.12606, 124.01584999999999 92.12606, 141.73239999999998 75.64966849999999, 141.73239999999998 75.64966849999999, 128.62215299999997 62.539421499999996, 128.62215299999997 62.539421499999996, 141.73239999999998 46.06303, 141.73239999999998 46.06303, 124.01584999999999 0, 124.01584999999999 0, 113.38592 17.716549999999998, 113.38592 17.716549999999998, 85.03944 0, 85.03944 0, 77.4213235 13.110247000000001, 77.4213235 13.110247000000001, 64.31107649999998 0, 64.31107649999998 0, 56.69296 17.716549999999998, 56.69296 17.716549999999998, 28.34648 0, 28.34648 "/> 
</g></svg>