<svg xmlns="http://www.w3.org/2000/svg" version="1.1" width="190.7mm" height="224.7mm" viewBox = " 0 0 675.709217 796.181757" >
<!-- Front--> 
<g transform="translate(22.5000185, 22.5000185) " > 
<polygon style="stroke:#000000; fill:none; stroke-width:0.90000074" points="0, 0 0, 375.59086 269.29156, 375.59086 269.29156, 0" /> 
</g>
<!-- Back--> 
<g transform="translate(291.79157849999996, 22.5000185) " > 
<polyline style="stroke:#000000; fill:none; stroke-width:0.90000074" points="0, 0 269.29156, 0 269.29156, 375.59086 0, 375.59086" /> 
</g>
<!-- Left--> 
<g transform="translate(543.3665884999999, 40.2165685) " > 
<polyline style="stroke:#000000; fill:none; stroke-width:0.90000074" points="17.716549999999998, 17.716549999999998 74.40951, 17.716549999999998 74.40951, 357.87431000000004 17.716549999999998, 357.87431000000004" /> 
</g>
<!-- Right--> 
<g transform="translate(543.3665884999999, 380.3743285) " > 
<polyline style="stroke:#000000; fill:none; stroke-width:0.90000074" points="74.40951, 17.716549999999998 74.40951, 357.87431000000004 17.716549999999998, 357.87431000000004 17.716549999999998, 74.40951" /> 
</g>
<!-- Top--> 
<g transform="translate(22.5000185, 380.3743285) " > 
<polyline style="stroke:#000000; fill:none; stroke-width:0.90000074" points="0, 17.716549999999998 0, 74.40951 269.29156, 74.40951 269.29156, 17.716549999999998" /> 
</g>
<!-- Bottom--> 
<g transform="translate(291.79157849999996, 380.3743285) " > 
<polyline style="stroke:#000000; fill:none; stroke-width:0.90000074" points="0, 74.40951 269.29156, 74.40951 269.29156, 17.716549999999998" /> 
</g></svg>