<svg xmlns="http://www.w3.org/2000/svg" version="1.1" width="239.7mm" height="294.7mm" viewBox = " 0 0 849.3314069999999 1044.2134569999998" >
<!-- Front--> 
<g transform="translate(22.500018499999996, 22.500018499999996) " > 
<polygon style="stroke:#000000; fill:none; stroke-width:0.035433099999999995" points="10.62993, 0 22.58860125, 0 22.58860125, 10.62993 28.390771375, 10.62993 28.390771375, 18.070881 23.961633875000004, 18.070881 23.961633875000004, 26.929156 28.390771375, 26.929156 28.390771375, 35.787431 39.375032375, 35.787431 39.375032375, 26.929156 43.804169875, 26.929156 43.804169875, 18.070881 39.375032375, 18.070881 39.375032375, 10.62993 45.1772025, 10.62993 45.1772025, 0 62.8937525, 0 62.8937525, 10.62993 80.61030249999999, 10.62993 80.61030249999999, 0 98.3268525, 0 98.3268525, 10.62993 116.04340249999998, 10.62993 116.04340249999998, 0 133.7599525, 0 133.7599525, 10.62993 151.47650249999998, 10.62993 151.47650249999998, 0 169.1930525, 0 169.1930525, 10.62993 186.90960249999998, 10.62993 186.90960249999998, 0 204.62615249999996, 0 204.62615249999996, 10.62993 222.34270249999997, 10.62993 222.34270249999997, 0 240.05925249999999, 0 240.05925249999999, 10.62993 257.7758025, 10.62993 257.7758025, 0 275.4923525, 0 275.4923525, 10.62993 293.20890249999997, 10.62993 293.20890249999997, 0 310.9254525, 0 310.9254525, 10.62993 316.72762262500004, 10.62993 316.72762262500004, 18.070881 312.298485125, 18.070881 312.298485125, 26.929156 316.72762262500004, 26.929156 316.72762262500004, 35.787431 327.711883625, 35.787431 327.711883625, 26.929156 332.141021125, 26.929156 332.141021125, 18.070881 327.711883625, 18.070881 327.711883625, 10.62993 333.51405375, 10.62993 333.51405375, 0 345.47272499999997, 0 345.47272499999997, 23.031515 356.10265499999997, 23.031515 356.10265499999997, 27.992148999999998 342.99240799999995, 27.992148999999998 342.99240799999995, 41.102396 356.10265499999997, 41.102396 356.10265499999997, 46.06303 345.47272499999997, 46.06303 345.47272499999997, 63.779579999999996 356.10265499999997, 63.779579999999996 356.10265499999997, 81.49613 345.47272499999997, 81.49613 345.47272499999997, 99.21267999999999 356.10265499999997, 99.21267999999999 356.10265499999997, 116.92922999999999 345.47272499999997, 116.92922999999999 345.47272499999997, 134.64578 356.10265499999997, 134.64578 356.10265499999997, 152.36233 345.47272499999997, 152.36233 345.47272499999997, 170.07887999999997 356.10265499999997, 170.07887999999997 356.10265499999997, 187.79542999999998 345.47272499999997, 187.79542999999998 345.47272499999997, 205.51197999999997 356.10265499999997, 205.51197999999997 356.10265499999997, 223.22852999999998 345.47272499999997, 223.22852999999998 345.47272499999997, 240.94508 356.10265499999997, 240.94508 356.10265499999997, 258.66162999999995 345.47272499999997, 258.66162999999995 345.47272499999997, 276.37817999999993 356.10265499999997, 276.37817999999993 356.10265499999997, 294.09472999999997 345.47272499999997, 294.09472999999997 345.47272499999997, 311.81128 356.10265499999997, 311.81128 356.10265499999997, 329.52783 345.47272499999997, 329.52783 345.47272499999997, 347.24438 356.10265499999997, 347.24438 356.10265499999997, 364.96092999999996 345.47272499999997, 364.96092999999996 345.47272499999997, 382.67747999999995 356.10265499999997, 382.67747999999995 356.10265499999997, 400.39402999999993 345.47272499999997, 400.39402999999993 345.47272499999997, 418.1105799999999 356.10265499999997, 418.1105799999999 356.10265499999997, 435.82713 345.47272499999997, 435.82713 345.47272499999997, 453.54368 356.10265499999997, 453.54368 356.10265499999997, 458.50431399999997 342.99240799999995, 458.50431399999997 342.99240799999995, 471.6145609999999 356.10265499999997, 471.6145609999999 356.10265499999997, 476.57519499999995 345.47272499999997, 476.57519499999995 345.47272499999997, 499.60671 333.51405375, 499.60671 333.51405375, 488.97678 327.711883625, 488.97678 327.711883625, 481.53582900000004 332.141021125, 481.53582900000004 332.141021125, 472.67755400000004 327.711883625, 472.67755400000004 327.711883625, 463.819279 316.72762262500004, 463.819279 316.72762262500004, 472.67755400000004 312.298485125, 472.67755400000004 312.298485125, 481.53582900000004 316.72762262500004, 481.53582900000004 316.72762262500004, 488.97678 310.9254525, 488.97678 310.9254525, 499.60671 293.20890249999997, 499.60671 293.20890249999997, 488.97678 275.4923525, 488.97678 275.4923525, 499.60671 257.7758025, 499.60671 257.7758025, 488.97678 240.05925249999999, 488.97678 240.05925249999999, 499.60671 222.34270249999997, 499.60671 222.34270249999997, 488.97678 204.62615249999996, 488.97678 204.62615249999996, 499.60671 186.90960249999998, 499.60671 186.90960249999998, 488.97678 169.1930525, 488.97678 169.1930525, 499.60671 151.47650249999998, 499.60671 151.47650249999998, 488.97678 133.7599525, 488.97678 133.7599525, 499.60671 116.04340249999998, 499.60671 116.04340249999998, 488.97678 98.3268525, 488.97678 98.3268525, 499.60671 80.61030249999999, 499.60671 80.61030249999999, 488.97678 62.8937525, 488.97678 62.8937525, 499.60671 45.1772025, 499.60671 45.1772025, 488.97678 39.375032375, 488.97678 39.375032375, 481.53582900000004 43.804169875, 481.53582900000004 43.804169875, 472.67755400000004 39.375032375, 472.67755400000004 39.375032375, 463.819279 28.390771375, 463.819279 28.390771375, 472.67755400000004 23.961633875000004, 472.67755400000004 23.961633875000004, 481.53582900000004 28.390771375, 481.53582900000004 28.390771375, 488.97678 22.58860125, 488.97678 22.58860125, 499.60671 10.62993, 499.60670999999996 10.62993, 476.57519499999995 0, 476.57519499999995 0, 471.6145609999999 13.110247000000001, 471.6145609999999 13.110247000000001, 458.50431399999997 0, 458.50431399999997 0, 453.54368 10.62993, 453.54368 10.62993, 435.82713 0, 435.82713 0, 418.1105799999999 10.62993, 418.1105799999999 10.62993, 400.39402999999993 0, 400.39402999999993 0, 382.67747999999995 10.62993, 382.67747999999995 10.62993, 364.96092999999996 0, 364.96092999999996 0, 347.24438 10.62993, 347.24438 10.62993, 329.52783 0, 329.52783 0, 311.81128 10.62993, 311.81128 10.62993, 294.09472999999997 0, 294.09472999999997 0, 276.37817999999993 10.62993, 276.37817999999993 10.62993, 258.66162999999995 0, 258.66162999999995 0, 240.94508 10.62993, 240.94508 10.62993, 223.22852999999998 0, 223.22852999999998 0, 205.51197999999997 10.62993, 205.51197999999997 10.62993, 187.79542999999998 0, 187.79542999999998 0, 170.07887999999997 10.62993, 170.07887999999997 10.62993, 152.36233 0, 152.36233 0, 134.64578 10.62993, 134.64578 10.62993, 116.92922999999999 0, 116.92922999999999 0, 99.21267999999999 10.62993, 99.21267999999999 10.62993, 81.49613 0, 81.49613 0, 63.779579999999996 10.62993, 63.779579999999996 10.62993, 46.06303 0, 46.06303 0, 41.102396 13.110247000000001, 41.102396 13.110247000000001, 27.992148999999998 0, 27.992148999999998 0, 23.031515 10.62993, 23.031515 "/> 
</g>
<!-- Back--> 
<g transform="translate(378.6026735, 22.500018499999996) " > 
<polygon style="stroke:#000000; fill:none; stroke-width:0.035433099999999995" points="10.62993, 0 22.58860125, 0 22.58860125, 10.62993 28.390771375, 10.62993 28.390771375, 18.070881 23.961633875000004, 18.070881 23.961633875000004, 26.929156 28.390771375, 26.929156 28.390771375, 35.787431 39.375032375, 35.787431 39.375032375, 26.929156 43.804169875, 26.929156 43.804169875, 18.070881 39.375032375, 18.070881 39.375032375, 10.62993 45.1772025, 10.62993 45.1772025, 0 62.8937525, 0 62.8937525, 10.62993 80.61030249999999, 10.62993 80.61030249999999, 0 98.3268525, 0 98.3268525, 10.62993 116.04340249999998, 10.62993 116.04340249999998, 0 133.7599525, 0 133.7599525, 10.62993 151.47650249999998, 10.62993 151.47650249999998, 0 169.1930525, 0 169.1930525, 10.62993 186.90960249999998, 10.62993 186.90960249999998, 0 204.62615249999996, 0 204.62615249999996, 10.62993 222.34270249999997, 10.62993 222.34270249999997, 0 240.05925249999999, 0 240.05925249999999, 10.62993 257.7758025, 10.62993 257.7758025, 0 275.4923525, 0 275.4923525, 10.62993 293.20890249999997, 10.62993 293.20890249999997, 0 310.9254525, 0 310.9254525, 10.62993 316.72762262500004, 10.62993 316.72762262500004, 18.070881 312.298485125, 18.070881 312.298485125, 26.929156 316.72762262500004, 26.929156 316.72762262500004, 35.787431 327.711883625, 35.787431 327.711883625, 26.929156 332.141021125, 26.929156 332.141021125, 18.070881 327.711883625, 18.070881 327.711883625, 10.62993 333.51405375, 10.62993 333.51405375, 0 345.47272499999997, 0 345.47272499999997, 23.031515 356.10265499999997, 23.031515 356.10265499999997, 27.992148999999998 342.99240799999995, 27.992148999999998 342.99240799999995, 41.102396 356.10265499999997, 41.102396 356.10265499999997, 46.06303 345.47272499999997, 46.06303 345.47272499999997, 63.779579999999996 356.10265499999997, 63.779579999999996 356.10265499999997, 81.49613 345.47272499999997, 81.49613 345.47272499999997, 99.21267999999999 356.10265499999997, 99.21267999999999 356.10265499999997, 116.92922999999999 345.47272499999997, 116.92922999999999 345.47272499999997, 134.64578 356.10265499999997, 134.64578 356.10265499999997, 152.36233 345.47272499999997, 152.36233 345.47272499999997, 170.07887999999997 356.10265499999997, 170.07887999999997 356.10265499999997, 187.79542999999998 345.47272499999997, 187.79542999999998 345.47272499999997, 205.51197999999997 356.10265499999997, 205.51197999999997 356.10265499999997, 223.22852999999998 345.47272499999997, 223.22852999999998 345.47272499999997, 240.94508 356.10265499999997, 240.94508 356.10265499999997, 258.66162999999995 345.47272499999997, 258.66162999999995 345.47272499999997, 276.37817999999993 356.10265499999997, 276.37817999999993 356.10265499999997, 294.09472999999997 345.47272499999997, 294.09472999999997 345.47272499999997, 311.81128 356.10265499999997, 311.81128 356.10265499999997, 329.52783 345.47272499999997, 329.52783 345.47272499999997, 347.24438 356.10265499999997, 347.24438 356.10265499999997, 364.96092999999996 345.47272499999997, 364.96092999999996 345.47272499999997, 382.67747999999995 356.10265499999997, 382.67747999999995 356.10265499999997, 400.39402999999993 345.47272499999997, 400.39402999999993 345.47272499999997, 418.1105799999999 356.10265499999997, 418.1105799999999 356.10265499999997, 435.82713 345.47272499999997, 435.82713 345.47272499999997, 453.54368 356.10265499999997, 453.54368 356.10265499999997, 458.50431399999997 342.99240799999995, 458.50431399999997 342.99240799999995, 471.6145609999999 356.10265499999997, 471.6145609999999 356.10265499999997, 476.57519499999995 345.47272499999997, 476.57519499999995 345.47272499999997, 499.60671 333.51405375, 499.60671 333.51405375, 488.97678 327.711883625, 488.97678 327.711883625, 481.53582900000004 332.141021125, 481.53582900000004 332.141021125, 472.67755400000004 327.711883625, 472.67755400000004 327.711883625, 463.819279 316.72762262500004, 463.819279 316.72762262500004, 472.67755400000004 312.298485125, 472.67755400000004 312.298485125, 481.53582900000004 316.72762262500004, 481.53582900000004 316.72762262500004, 488.97678 310.9254525, 488.97678 310.9254525, 499.60671 293.20890249999997, 499.60671 293.20890249999997, 488.97678 275.4923525, 488.97678 275.4923525, 499.60671 257.7758025, 499.60671 257.7758025, 488.97678 240.05925249999999, 488.97678 240.05925249999999, 499.60671 222.34270249999997, 499.60671 222.34270249999997, 488.97678 204.62615249999996, 488.97678 204.62615249999996, 499.60671 186.90960249999998, 499.60671 186.90960249999998, 488.97678 169.1930525, 488.97678 169.1930525, 499.60671 151.47650249999998, 499.60671 151.47650249999998, 488.97678 133.7599525, 488.97678 133.7599525, 499.60671 116.04340249999998, 499.60671 116.04340249999998, 488.97678 98.3268525, 488.97678 98.3268525, 499.60671 80.61030249999999, 499.60671 80.61030249999999, 488.97678 62.8937525, 488.97678 62.8937525, 499.60671 45.1772025, 499.60671 45.1772025, 488.97678 39.375032375, 488.97678 39.375032375, 481.53582900000004 43.804169875, 481.53582900000004 43.804169875, 472.67755400000004 39.375032375, 472.67755400000004 39.375032375, 463.819279 28.390771375, 463.819279 28.390771375, 472.67755400000004 23.961633875000004, 472.67755400000004 23.961633875000004, 481.53582900000004 28.390771375, 481.53582900000004 28.390771375, 488.97678 22.58860125, 488.97678 22.58860125, 499.60671 10.62993, 499.60670999999996 10.62993, 476.57519499999995 0, 476.57519499999995 0, 471.6145609999999 13.110247000000001, 471.6145609999999 13.110247000000001, 458.50431399999997 0, 458.50431399999997 0, 453.54368 10.62993, 453.54368 10.62993, 435.82713 0, 435.82713 0, 418.1105799999999 10.62993, 418.1105799999999 10.62993, 400.39402999999993 0, 400.39402999999993 0, 382.67747999999995 10.62993, 382.67747999999995 10.62993, 364.96092999999996 0, 364.96092999999996 0, 347.24438 10.62993, 347.24438 10.62993, 329.52783 0, 329.52783 0, 311.81128 10.62993, 311.81128 10.62993, 294.09472999999997 0, 294.09472999999997 0, 276.37817999999993 10.62993, 276.37817999999993 10.62993, 258.66162999999995 0, 258.66162999999995 0, 240.94508 10.62993, 240.94508 10.62993, 223.22852999999998 0, 223.22852999999998 0, 205.51197999999997 10.62993, 205.51197999999997 10.62993, 187.79542999999998 0, 187.79542999999998 0, 170.07887999999997 10.62993, 170.07887999999997 10.62993, 152.36233 0, 152.36233 0, 134.64578 10.62993, 134.64578 10.62993, 116.92922999999999 0, 116.92922999999999 0, 99.21267999999999 10.62993, 99.21267999999999 10.62993, 81.49613 0, 81.49613 0, 63.779579999999996 10.62993, 63.779579999999996 10.62993, 46.06303 0, 46.06303 0, 41.102396 13.110247000000001, 41.102396 13.110247000000001, 27.992148999999998 0, 27.992148999999998 0, 23.031515 10.62993, 23.031515 "/> 
</g>
<!-- Left--> 
<g transform="translate(734.7053285, 22.500018499999996) " > 
<polygon style="stroke:#000000; fill:none; stroke-width:0.035433099999999995" points="0, 10.62993 18.425212000000002, 10.62993 18.425212000000002, 0 36.850424000000004, 0 36.850424000000004, 10.62993 40.5708995, 10.62993 40.5708995, 18.070881 36.14176200000001, 18.070881 36.14176200000001, 26.929156 40.5708995, 26.929156 40.5708995, 35.787431 51.55516050000001, 35.787431 51.55516050000001, 26.929156 55.984298, 26.929156 55.984298, 18.070881 51.55516050000001, 18.070881 51.55516050000001, 10.62993 55.275636000000006, 10.62993 55.275636000000006, 0 73.70084800000001, 0 73.70084800000001, 10.62993 92.12606, 10.62993 92.12606, 23.031515 81.49613, 23.031515 81.49613, 29.055141999999996 74.055179, 29.055141999999996 74.055179, 24.6260045 65.19690399999999, 24.6260045 65.19690399999999, 29.055141999999996 56.338629, 29.055141999999996 56.338629, 40.039403 65.19690399999999, 40.039403 65.19690399999999, 44.468540499999996 74.055179, 44.468540499999996 74.055179, 40.039403 81.49613, 40.039403 81.49613, 46.06303 92.12606, 46.06303 92.12606, 63.779579999999996 81.49613, 63.779579999999996 81.49613, 81.49613 92.12606, 81.49613 92.12606, 99.21267999999999 81.49613, 99.21267999999999 81.49613, 116.92922999999999 92.12606, 116.92922999999999 92.12606, 134.64578 81.49613, 134.64578 81.49613, 152.36233 92.12606, 152.36233 92.12606, 170.07887999999997 81.49613, 170.07887999999997 81.49613, 187.79542999999998 92.12606, 187.79542999999998 92.12606, 205.51197999999997 81.49613, 205.51197999999997 81.49613, 223.22852999999998 92.12606, 223.22852999999998 92.12606, 240.94508 81.49613, 240.94508 81.49613, 258.66162999999995 92.12606, 258.66162999999995 92.12606, 276.37817999999993 81.49613, 276.37817999999993 81.49613, 294.09472999999997 92.12606, 294.09472999999997 92.12606, 311.81128 81.49613, 311.81128 81.49613, 329.52783 92.12606, 329.52783 92.12606, 347.24438 81.49613, 347.24438 81.49613, 364.96092999999996 92.12606, 364.96092999999996 92.12606, 382.67747999999995 81.49613, 382.67747999999995 81.49613, 400.39402999999993 92.12606, 400.39402999999993 92.12606, 418.1105799999999 81.49613, 418.1105799999999 81.49613, 435.82713 92.12606, 435.82713 92.12606, 453.54368 81.49613, 453.54368 81.49613, 459.56730699999997 74.055179, 459.56730699999997 74.055179, 455.13816949999995 65.19690399999999, 455.13816949999995 65.19690399999999, 459.56730699999997 56.338629, 459.56730699999997 56.338629, 470.5515679999999 65.19690399999999, 470.5515679999999 65.19690399999999, 474.98070549999994 74.055179, 474.98070549999994 74.055179, 470.5515679999999 81.49613, 470.5515679999999 81.49613, 476.57519499999995 92.12606, 476.57519499999995 92.12606000000001, 488.97678 73.70084800000001, 488.97678 73.70084800000001, 499.60671 55.275636000000006, 499.60671 55.275636000000006, 488.97678 51.55516050000001, 488.97678 51.55516050000001, 481.53582900000004 55.984298, 481.53582900000004 55.984298, 472.67755400000004 51.55516050000001, 472.67755400000004 51.55516050000001, 463.819279 40.5708995, 463.819279 40.5708995, 472.67755400000004 36.14176200000001, 472.67755400000004 36.14176200000001, 481.53582900000004 40.5708995, 481.53582900000004 40.5708995, 488.97678 36.850424000000004, 488.97678 36.850424000000004, 499.60671 18.425212000000002, 499.60671 18.425212000000002, 488.97678 0, 488.97677999999996 0, 476.57519499999995 10.62993, 476.57519499999995 10.62993, 470.5515679999999 18.070881, 470.5515679999999 18.070881, 474.98070549999994 26.929156, 474.98070549999994 26.929156, 470.5515679999999 35.787431, 470.5515679999999 35.787431, 459.56730699999997 26.929156, 459.56730699999997 26.929156, 455.13816949999995 18.070881, 455.13816949999995 18.070881, 459.56730699999997 10.62993, 459.56730699999997 10.62993, 453.54368 0, 453.54368 0, 435.82713 10.62993, 435.82713 10.62993, 418.1105799999999 0, 418.1105799999999 0, 400.39402999999993 10.62993, 400.39402999999993 10.62993, 382.67747999999995 0, 382.67747999999995 0, 364.96092999999996 10.62993, 364.96092999999996 10.62993, 347.24438 0, 347.24438 0, 329.52783 10.62993, 329.52783 10.62993, 311.81128 0, 311.81128 0, 294.09472999999997 10.62993, 294.09472999999997 10.62993, 276.37817999999993 0, 276.37817999999993 0, 258.66162999999995 10.62993, 258.66162999999995 10.62993, 240.94508 0, 240.94508 0, 223.22852999999998 10.62993, 223.22852999999998 10.62993, 205.51197999999997 0, 205.51197999999997 0, 187.79542999999998 10.62993, 187.79542999999998 10.62993, 170.07887999999997 0, 170.07887999999997 0, 152.36233 10.62993, 152.36233 10.62993, 134.64578 0, 134.64578 0, 116.92922999999999 10.62993, 116.92922999999999 10.62993, 99.21267999999999 0, 99.21267999999999 0, 81.49613 10.62993, 81.49613 10.62993, 63.779579999999996 0, 63.779579999999996 0, 46.06303 10.62993, 46.06303 10.62993, 40.039403 18.070881, 40.039403 18.070881, 44.468540499999996 26.929156, 44.468540499999996 26.929156, 40.039403 35.787431, 40.039403 35.787431, 29.055141999999996 26.929156, 29.055141999999996 26.929156, 24.6260045 18.070881, 24.6260045 18.070881, 29.055141999999996 10.62993, 29.055141999999996 10.62993, 23.031515 0, 23.031515 "/> 
</g>
<!-- Right--> 
<g transform="translate(734.7053285, 522.1067284999999) " > 
<polygon style="stroke:#000000; fill:none; stroke-width:0.035433099999999995" points="0, 10.62993 18.425212000000002, 10.62993 18.425212000000002, 0 36.850424000000004, 0 36.850424000000004, 10.62993 40.5708995, 10.62993 40.5708995, 18.070881 36.14176200000001, 18.070881 36.14176200000001, 26.929156 40.5708995, 26.929156 40.5708995, 35.787431 51.55516050000001, 35.787431 51.55516050000001, 26.929156 55.984298, 26.929156 55.984298, 18.070881 51.55516050000001, 18.070881 51.55516050000001, 10.62993 55.275636000000006, 10.62993 55.275636000000006, 0 73.70084800000001, 0 73.70084800000001, 10.62993 92.12606, 10.62993 92.12606, 23.031515 81.49613, 23.031515 81.49613, 29.055141999999996 74.055179, 29.055141999999996 74.055179, 24.6260045 65.19690399999999, 24.6260045 65.19690399999999, 29.055141999999996 56.338629, 29.055141999999996 56.338629, 40.039403 65.19690399999999, 40.039403 65.19690399999999, 44.468540499999996 74.055179, 44.468540499999996 74.055179, 40.039403 81.49613, 40.039403 81.49613, 46.06303 92.12606, 46.06303 92.12606, 63.779579999999996 81.49613, 63.779579999999996 81.49613, 81.49613 92.12606, 81.49613 92.12606, 99.21267999999999 81.49613, 99.21267999999999 81.49613, 116.92922999999999 92.12606, 116.92922999999999 92.12606, 134.64578 81.49613, 134.64578 81.49613, 152.36233 92.12606, 152.36233 92.12606, 170.07887999999997 81.49613, 170.07887999999997 81.49613, 187.79542999999998 92.12606, 187.79542999999998 92.12606, 205.51197999999997 81.49613, 205.51197999999997 81.49613, 223.22852999999998 92.12606, 223.22852999999998 92.12606, 240.94508 81.49613, 240.94508 81.49613, 258.66162999999995 92.12606, 258.66162999999995 92.12606, 276.37817999999993 81.49613, 276.37817999999993 81.49613, 294.09472999999997 92.12606, 294.09472999999997 92.12606, 311.81128 81.49613, 311.81128 81.49613, 329.52783 92.12606, 329.52783 92.12606, 347.24438 81.49613, 347.24438 81.49613, 364.96092999999996 92.12606, 364.96092999999996 92.12606, 382.67747999999995 81.49613, 382.67747999999995 81.49613, 400.39402999999993 92.12606, 400.39402999999993 92.12606, 418.1105799999999 81.49613, 418.1105799999999 81.49613, 435.82713 92.12606, 435.82713 92.12606, 453.54368 81.49613, 453.54368 81.49613, 459.56730699999997 74.055179, 459.56730699999997 74.055179, 455.13816949999995 65.19690399999999, 455.13816949999995 65.19690399999999, 459.56730699999997 56.338629, 459.56730699999997 56.338629, 470.5515679999999 65.19690399999999, 470.5515679999999 65.19690399999999, 474.98070549999994 74.055179, 474.98070549999994 74.055179, 470.5515679999999 81.49613, 470.5515679999999 81.49613, 476.57519499999995 92.12606, 476.57519499999995 92.12606000000001, 488.97678 73.70084800000001, 488.97678 73.70084800000001, 499.60671 55.275636000000006, 499.60671 55.275636000000006, 488.97678 51.55516050000001, 488.97678 51.55516050000001, 481.53582900000004 55.984298, 481.53582900000004 55.984298, 472.67755400000004 51.55516050000001, 472.67755400000004 51.55516050000001, 463.819279 40.5708995, 463.819279 40.5708995, 472.67755400000004 36.14176200000001, 472.67755400000004 36.14176200000001, 481.53582900000004 40.5708995, 481.53582900000004 40.5708995, 488.97678 36.850424000000004, 488.97678 36.850424000000004, 499.60671 18.425212000000002, 499.60671 18.425212000000002, 488.97678 0, 488.97677999999996 0, 476.57519499999995 10.62993, 476.57519499999995 10.62993, 470.5515679999999 18.070881, 470.5515679999999 18.070881, 474.98070549999994 26.929156, 474.98070549999994 26.929156, 470.5515679999999 35.787431, 470.5515679999999 35.787431, 459.56730699999997 26.929156, 459.56730699999997 26.929156, 455.13816949999995 18.070881, 455.13816949999995 18.070881, 459.56730699999997 10.62993, 459.56730699999997 10.62993, 453.54368 0, 453.54368 0, 435.82713 10.62993, 435.82713 10.62993, 418.1105799999999 0, 418.1105799999999 0, 400.39402999999993 10.62993, 400.39402999999993 10.62993, 382.67747999999995 0, 382.67747999999995 0, 364.96092999999996 10.62993, 364.96092999999996 10.62993, 347.24438 0, 347.24438 0, 329.52783 10.62993, 329.52783 10.62993, 311.81128 0, 311.81128 0, 294.09472999999997 10.62993, 294.09472999999997 10.62993, 276.37817999999993 0, 276.37817999999993 0, 258.66162999999995 10.62993, 258.66162999999995 10.62993, 240.94508 0, 240.94508 0, 223.22852999999998 10.62993, 223.22852999999998 10.62993, 205.51197999999997 0, 205.51197999999997 0, 187.79542999999998 10.62993, 187.79542999999998 10.62993, 170.07887999999997 0, 170.07887999999997 0, 152.36233 10.62993, 152.36233 10.62993, 134.64578 0, 134.64578 0, 116.92922999999999 10.62993, 116.92922999999999 10.62993, 99.21267999999999 0, 99.21267999999999 0, 81.49613 10.62993, 81.49613 10.62993, 63.779579999999996 0, 63.779579999999996 0, 46.06303 10.62993, 46.06303 10.62993, 40.039403 18.070881, 40.039403 18.070881, 44.468540499999996 26.929156, 44.468540499999996 26.929156, 40.039403 35.787431, 40.039403 35.787431, 29.055141999999996 26.929156, 29.055141999999996 26.929156, 24.6260045 18.070881, 24.6260045 18.070881, 29.055141999999996 10.62993, 29.055141999999996 10.62993, 23.031515 0, 23.031515 "/> 
</g>
<!-- Top--> 
<g transform="translate(22.500018499999996, 522.1067284999999) " > 
<polygon style="stroke:#000000; fill:none; stroke-width:0.035433099999999995" points="0, 10.62993 22.58860125, 10.62993 22.58860125, 0 27.327778375, 0 27.327778375, 13.110247000000001 40.438025375, 13.110247000000001 40.438025375, 0 45.1772025, 0 45.1772025, 10.62993 62.8937525, 10.62993 62.8937525, 0 80.61030249999999, 0 80.61030249999999, 10.62993 98.3268525, 10.62993 98.3268525, 0 116.04340249999998, 0 116.04340249999998, 10.62993 133.7599525, 10.62993 133.7599525, 0 151.47650249999998, 0 151.47650249999998, 10.62993 169.1930525, 10.62993 169.1930525, 0 186.90960249999998, 0 186.90960249999998, 10.62993 204.62615249999996, 10.62993 204.62615249999996, 0 222.34270249999997, 0 222.34270249999997, 10.62993 240.05925249999999, 10.62993 240.05925249999999, 0 257.7758025, 0 257.7758025, 10.62993 275.4923525, 10.62993 275.4923525, 0 293.20890249999997, 0 293.20890249999997, 10.62993 310.9254525, 10.62993 310.9254525, 0 315.66462962500003, 0 315.66462962500003, 13.110247000000001 328.774876625, 13.110247000000001 328.774876625, 0 333.51405375, 0 333.51405375, 10.62993 356.10265499999997, 10.62993 356.10265499999997, 18.425212000000002 345.47272499999997, 18.425212000000002 345.47272499999997, 36.850424000000004 356.10265499999997, 36.850424000000004 356.10265499999997, 39.507906500000004 342.99240799999995, 39.507906500000004 342.99240799999995, 52.618153500000005 356.10265499999997, 52.618153500000005 356.10265499999997, 55.275636000000006 345.47272499999997, 55.275636000000006 345.47272499999997, 73.70084800000001 356.10265499999997, 73.70084800000001 356.10265499999997, 81.49613 333.51405375, 81.49613 333.51405375, 92.12606 328.774876625, 92.12606 328.774876625, 79.015813 315.66462962500003, 79.015813 315.66462962500003, 92.12606 310.9254525, 92.12606 310.9254525, 81.49613 293.20890249999997, 81.49613 293.20890249999997, 92.12606 275.4923525, 92.12606 275.4923525, 81.49613 257.7758025, 81.49613 257.7758025, 92.12606 240.05925249999999, 92.12606 240.05925249999999, 81.49613 222.34270249999997, 81.49613 222.34270249999997, 92.12606 204.62615249999996, 92.12606 204.62615249999996, 81.49613 186.90960249999998, 81.49613 186.90960249999998, 92.12606 169.1930525, 92.12606 169.1930525, 81.49613 151.47650249999998, 81.49613 151.47650249999998, 92.12606 133.7599525, 92.12606 133.7599525, 81.49613 116.04340249999998, 81.49613 116.04340249999998, 92.12606 98.3268525, 92.12606 98.3268525, 81.49613 80.61030249999999, 81.49613 80.61030249999999, 92.12606 62.8937525, 92.12606 62.8937525, 81.49613 45.1772025, 81.49613 45.1772025, 92.12606 40.438025375, 92.12606 40.438025375, 79.015813 27.327778375, 79.015813 27.327778375, 92.12606 22.58860125, 92.12606 22.58860125, 81.49613 0, 81.49613000000001 0, 73.70084800000001 10.62993, 73.70084800000001 10.62993, 55.275636000000006 0, 55.275636000000006 0, 52.618153500000005 13.110247000000001, 52.618153500000005 13.110247000000001, 39.507906500000004 0, 39.507906500000004 0, 36.850424000000004 10.62993, 36.850424000000004 10.62993, 18.425212000000002 0, 18.425212000000002 "/> 
</g>
<!-- Bottom--> 
<g transform="translate(378.6026735, 522.1067284999999) " > 
<polygon style="stroke:#000000; fill:none; stroke-width:0.035433099999999995" points="0, 10.62993 22.58860125, 10.62993 22.58860125, 0 27.327778375, 0 27.327778375, 13.110247000000001 40.438025375, 13.110247000000001 40.438025375, 0 45.1772025, 0 45.1772025, 10.62993 62.8937525, 10.62993 62.8937525, 0 80.61030249999999, 0 80.61030249999999, 10.62993 98.3268525, 10.62993 98.3268525, 0 116.04340249999998, 0 116.04340249999998, 10.62993 133.7599525, 10.62993 133.7599525, 0 151.47650249999998, 0 151.47650249999998, 10.62993 169.1930525, 10.62993 169.1930525, 0 186.90960249999998, 0 186.90960249999998, 10.62993 204.62615249999996, 10.62993 204.62615249999996, 0 222.34270249999997, 0 222.34270249999997, 10.62993 240.05925249999999, 10.62993 240.05925249999999, 0 257.7758025, 0 257.7758025, 10.62993 275.4923525, 10.62993 275.4923525, 0 293.20890249999997, 0 293.20890249999997, 10.62993 310.9254525, 10.62993 310.9254525, 0 315.66462962500003, 0 315.66462962500003, 13.110247000000001 328.774876625, 13.110247000000001 328.774876625, 0 333.51405375, 0 333.51405375, 10.62993 356.10265499999997, 10.62993 356.10265499999997, 18.425212000000002 345.47272499999997, 18.425212000000002 345.47272499999997, 36.850424000000004 356.10265499999997, 36.850424000000004 356.10265499999997, 39.507906500000004 342.99240799999995, 39.507906500000004 342.99240799999995, 52.618153500000005 356.10265499999997, 52.618153500000005 356.10265499999997, 55.275636000000006 345.47272499999997, 55.275636000000006 345.47272499999997, 73.70084800000001 356.10265499999997, 73.70084800000001 356.10265499999997, 81.49613 333.51405375, 81.49613 333.51405375, 92.12606 328.774876625, 92.12606 328.774876625, 79.015813 315.66462962500003, 79.015813 315.66462962500003, 92.12606 310.9254525, 92.12606 310.9254525, 81.49613 293.20890249999997, 81.49613 293.20890249999997, 92.12606 275.4923525, 92.12606 275.4923525, 81.49613 257.7758025, 81.49613 257.7758025, 92.12606 240.05925249999999, 92.12606 240.05925249999999, 81.49613 222.34270249999997, 81.49613 222.34270249999997, 92.12606 204.62615249999996, 92.12606 204.62615249999996, 81.49613 186.90960249999998, 81.49613 186.90960249999998, 92.12606 169.1930525, 92.12606 169.1930525, 81.49613 151.47650249999998, 81.49613 151.47650249999998, 92.12606 133.7599525, 92.12606 133.7599525, 81.49613 116.04340249999998, 81.49613 116.04340249999998, 92.12606 98.3268525, 92.12606 98.3268525, 81.49613 80.61030249999999, 81.49613 80.61030249999999, 92.12606 62.8937525, 92.12606 62.8937525, 81.49613 45.1772025, 81.49613 45.1772025, 92.12606 40.438025375, 92.12606 40.438025375, 79.015813 27.327778375, 79.015813 27.327778375, 92.12606 22.58860125, 92.12606 22.58860125, 81.49613 0, 81.49613000000001 0, 73.70084800000001 10.62993, 73.70084800000001 10.62993, 55.275636000000006 0, 55.275636000000006 0, 52.618153500000005 13.110247000000001, 52.618153500000005 13.110247000000001, 39.507906500000004 0, 39.507906500000004 0, 36.850424000000004 10.62993, 36.850424000000004 10.62993, 18.425212000000002 0, 18.425212000000002 "/> 
</g></svg>