<svg xmlns="http://www.w3.org/2000/svg" version="1.1" width="225.7mm" height="224.7mm" viewBox = " 0 0 799.725067 796.181757" >
<!-- Front--> 
<g transform="translate(22.5000185, 22.5000185) " > 
<polygon style="stroke:#000000; fill:none; stroke-width:0.90000074" points="10.62993, 0 32.7756175, 0 32.7756175, 10.62993 43.67129575, 10.62993 43.67129575, 18.070881 39.24215825, 18.070881 39.24215825, 26.929156 43.67129575, 26.929156 43.67129575, 35.787431 54.65555675, 35.787431 54.65555675, 26.929156 59.08469425, 26.929156 59.08469425, 18.070881 54.65555675, 18.070881 54.65555675, 10.62993 65.551235, 10.62993 65.551235, 0 86.81109500000001, 0 86.81109500000001, 10.62993 108.070955, 10.62993 108.070955, 0 129.330815, 0 129.330815, 10.62993 150.590675, 10.62993 150.590675, 0 171.850535, 0 171.850535, 10.62993 193.11039499999998, 10.62993 193.11039499999998, 0 214.370255, 0 214.370255, 10.62993 235.630115, 10.62993 235.630115, 0 256.889975, 0 256.889975, 10.62993 267.78565325000005, 10.62993 267.78565325000005, 18.070881 263.35651575, 18.070881 263.35651575, 26.929156 267.78565325000005, 26.929156 267.78565325000005, 35.787431 278.76991425, 35.787431 278.76991425, 26.929156 283.19905175, 26.929156 283.19905175, 18.070881 278.76991425, 18.070881 278.76991425, 10.62993 289.6655925, 10.62993 289.6655925, 0 311.81128, 0 311.81128, 35.433099999999996 322.44121, 35.433099999999996 322.44121, 46.59452649999999 309.330963, 46.59452649999999 309.330963, 59.704773499999995 322.44121, 59.704773499999995 322.44121, 70.86619999999999 311.81128, 70.86619999999999 311.81128, 92.12606 322.44121, 92.12606 322.44121, 113.38592 311.81128, 113.38592 311.81128, 134.64578 322.44121, 134.64578 322.44121, 155.90564 311.81128, 155.90564 311.81128, 177.1655 322.44121, 177.1655 322.44121, 198.42535999999998 311.81128, 198.42535999999998 311.81128, 219.68522 322.44121, 219.68522 322.44121, 240.94508 311.81128, 240.94508 311.81128, 262.20493999999997 322.44121, 262.20493999999997 322.44121, 283.46479999999997 311.81128, 283.46479999999997 311.81128, 304.72466 322.44121, 304.72466 322.44121, 315.88608650000003 309.330963, 315.88608650000003 309.330963, 328.9963335 322.44121, 328.9963335 322.44121, 340.15776 311.81128, 340.15776 311.81128, 375.59086 289.6655925, 375.59086 289.6655925, 364.96093 278.76991425, 364.96093 278.76991425, 357.51997900000003 283.19905175, 357.51997900000003 283.19905175, 348.66170400000004 278.76991425, 348.66170400000004 278.76991425, 339.803429 267.78565325000005, 339.803429 267.78565325000005, 348.66170400000004 263.35651575, 348.66170400000004 263.35651575, 357.51997900000003 267.78565325000005, 357.51997900000003 267.78565325000005, 364.96093 256.889975, 364.96093 256.889975, 375.59086 235.630115, 375.59086 235.630115, 364.96093 214.370255, 364.96093 214.370255, 375.59086 193.11039499999998, 375.59086 193.11039499999998, 364.96093 171.850535, 364.96093 171.850535, 375.59086 150.590675, 375.59086 150.590675, 364.96093 129.330815, 364.96093 129.330815, 375.59086 108.070955, 375.59086 108.070955, 364.96093 86.81109500000001, 364.96093 86.81109500000001, 375.59086 65.551235, 375.59086 65.551235, 364.96093 54.65555675, 364.96093 54.65555675, 357.51997900000003 59.08469425, 357.51997900000003 59.08469425, 348.66170400000004 54.65555675, 348.66170400000004 54.65555675, 339.803429 43.67129575, 339.803429 43.67129575, 348.66170400000004 39.24215825, 348.66170400000004 39.24215825, 357.51997900000003 43.67129575, 357.51997900000003 43.67129575, 364.96093 32.7756175, 364.96093 32.7756175, 375.59086 10.62993, 375.59086 10.62993, 340.15776 0, 340.15776 0, 328.9963335 13.110247000000001, 328.9963335 13.110247000000001, 315.88608650000003 0, 315.88608650000003 0, 304.72466 10.62993, 304.72466 10.62993, 283.46479999999997 0, 283.46479999999997 0, 262.20493999999997 10.62993, 262.20493999999997 10.62993, 240.94508 0, 240.94508 0, 219.68522 10.62993, 219.68522 10.62993, 198.42535999999998 0, 198.42535999999998 0, 177.1655 10.62993, 177.1655 10.62993, 155.90564 0, 155.90564 0, 134.64578 10.62993, 134.64578 10.62993, 113.38592 0, 113.38592 0, 92.12606 10.62993, 92.12606 10.62993, 70.86619999999999 0, 70.86619999999999 0, 59.704773499999995 13.110247000000001, 59.704773499999995 13.110247000000001, 46.59452649999999 0, 46.59452649999999 0, 35.433099999999996 10.62993, 35.433099999999996 "/> 
</g>
<!-- Back--> 
<g transform="translate(344.94122849999997, 22.5000185) " > 
<polygon style="stroke:#000000; fill:none; stroke-width:0.90000074" points="10.62993, 0 32.7756175, 0 32.7756175, 10.62993 43.67129575, 10.62993 43.67129575, 18.070881 39.24215825, 18.070881 39.24215825, 26.929156 43.67129575, 26.929156 43.67129575, 35.787431 54.65555675, 35.787431 54.65555675, 26.929156 59.08469425, 26.929156 59.08469425, 18.070881 54.65555675, 18.070881 54.65555675, 10.62993 65.551235, 10.62993 65.551235, 0 86.81109500000001, 0 86.81109500000001, 10.62993 108.070955, 10.62993 108.070955, 0 129.330815, 0 129.330815, 10.62993 150.590675, 10.62993 150.590675, 0 171.850535, 0 171.850535, 10.62993 193.11039499999998, 10.62993 193.11039499999998, 0 214.370255, 0 214.370255, 10.62993 235.630115, 10.62993 235.630115, 0 256.889975, 0 256.889975, 10.62993 267.78565325000005, 10.62993 267.78565325000005, 18.070881 263.35651575, 18.070881 263.35651575, 26.929156 267.78565325000005, 26.929156 267.78565325000005, 35.787431 278.76991425, 35.787431 278.76991425, 26.929156 283.19905175, 26.929156 283.19905175, 18.070881 278.76991425, 18.070881 278.76991425, 10.62993 289.6655925, 10.62993 289.6655925, 0 311.81128, 0 311.81128, 35.433099999999996 322.44121, 35.433099999999996 322.44121, 46.59452649999999 309.330963, 46.59452649999999 309.330963, 59.704773499999995 322.44121, 59.704773499999995 322.44121, 70.86619999999999 311.81128, 70.86619999999999 311.81128, 92.12606 322.44121, 92.12606 322.44121, 113.38592 311.81128, 113.38592 311.81128, 134.64578 322.44121, 134.64578 322.44121, 155.90564 311.81128, 155.90564 311.81128, 177.1655 322.44121, 177.1655 322.44121, 198.42535999999998 311.81128, 198.42535999999998 311.81128, 219.68522 322.44121, 219.68522 322.44121, 240.94508 311.81128, 240.94508 311.81128, 262.20493999999997 322.44121, 262.20493999999997 322.44121, 283.46479999999997 311.81128, 283.46479999999997 311.81128, 304.72466 322.44121, 304.72466 322.44121, 315.88608650000003 309.330963, 315.88608650000003 309.330963, 328.9963335 322.44121, 328.9963335 322.44121, 340.15776 311.81128, 340.15776 311.81128, 375.59086 289.6655925, 375.59086 289.6655925, 364.96093 278.76991425, 364.96093 278.76991425, 357.51997900000003 283.19905175, 357.51997900000003 283.19905175, 348.66170400000004 278.76991425, 348.66170400000004 278.76991425, 339.803429 267.78565325000005, 339.803429 267.78565325000005, 348.66170400000004 263.35651575, 348.66170400000004 263.35651575, 357.51997900000003 267.78565325000005, 357.51997900000003 267.78565325000005, 364.96093 256.889975, 364.96093 256.889975, 375.59086 235.630115, 375.59086 235.630115, 364.96093 214.370255, 364.96093 214.370255, 375.59086 193.11039499999998, 375.59086 193.11039499999998, 364.96093 171.850535, 364.96093 171.850535, 375.59086 150.590675, 375.59086 150.590675, 364.96093 129.330815, 364.96093 129.330815, 375.59086 108.070955, 375.59086 108.070955, 364.96093 86.81109500000001, 364.96093 86.81109500000001, 375.59086 65.551235, 375.59086 65.551235, 364.96093 54.65555675, 364.96093 54.65555675, 357.51997900000003 59.08469425, 357.51997900000003 59.08469425, 348.66170400000004 54.65555675, 348.66170400000004 54.65555675, 339.803429 43.67129575, 339.803429 43.67129575, 348.66170400000004 39.24215825, 348.66170400000004 39.24215825, 357.51997900000003 43.67129575, 357.51997900000003 43.67129575, 364.96093 32.7756175, 364.96093 32.7756175, 375.59086 10.62993, 375.59086 10.62993, 340.15776 0, 340.15776 0, 328.9963335 13.110247000000001, 328.9963335 13.110247000000001, 315.88608650000003 0, 315.88608650000003 0, 304.72466 10.62993, 304.72466 10.62993, 283.46479999999997 0, 283.46479999999997 0, 262.20493999999997 10.62993, 262.20493999999997 10.62993, 240.94508 0, 240.94508 0, 219.68522 10.62993, 219.68522 10.62993, 198.42535999999998 0, 198.42535999999998 0, 177.1655 10.62993, 177.1655 10.62993, 155.90564 0, 155.90564 0, 134.64578 10.62993, 134.64578 10.62993, 113.38592 0, 113.38592 0, 92.12606 10.62993, 92.12606 10.62993, 70.86619999999999 0, 70.86619999999999 0, 59.704773499999995 13.110247000000001, 59.704773499999995 13.110247000000001, 46.59452649999999 0, 46.59452649999999 0, 35.433099999999996 10.62993, 35.433099999999996 "/> 
</g>
<!-- Left--> 
<g transform="translate(667.3824384999999, 22.5000185) " > 
<polygon style="stroke:#000000; fill:none; stroke-width:0.90000074" points="0, 10.62993 21.968522, 10.62993 21.968522, 0 43.937044, 0 43.937044, 10.62993 49.4291745, 10.62993 49.4291745, 18.070881 45.000037000000006, 18.070881 45.000037000000006, 26.929156 49.4291745, 26.929156 49.4291745, 35.787431 60.413435500000006, 35.787431 60.413435500000006, 26.929156 64.842573, 26.929156 64.842573, 18.070881 60.413435500000006, 18.070881 60.413435500000006, 10.62993 65.905566, 10.62993 65.905566, 0 87.874088, 0 87.874088, 10.62993 109.84261, 10.62993 109.84261, 35.433099999999996 99.21267999999999, 35.433099999999996 99.21267999999999, 47.65751949999999 91.771729, 47.65751949999999 91.771729, 43.228381999999996 82.91345399999999, 43.228381999999996 82.91345399999999, 47.65751949999999 74.055179, 47.65751949999999 74.055179, 58.641780499999996 82.91345399999999, 58.641780499999996 82.91345399999999, 63.07091799999999 91.771729, 63.07091799999999 91.771729, 58.641780499999996 99.21267999999999, 58.641780499999996 99.21267999999999, 70.86619999999999 109.84261, 70.86619999999999 109.84261, 92.12606 99.21267999999999, 92.12606 99.21267999999999, 113.38592 109.84261, 113.38592 109.84261, 134.64578 99.21267999999999, 134.64578 99.21267999999999, 155.90564 109.84261, 155.90564 109.84261, 177.1655 99.21267999999999, 177.1655 99.21267999999999, 198.42535999999998 109.84261, 198.42535999999998 109.84261, 219.68522 99.21267999999999, 219.68522 99.21267999999999, 240.94508 109.84261, 240.94508 109.84261, 262.20493999999997 99.21267999999999, 262.20493999999997 99.21267999999999, 283.46479999999997 109.84261, 283.46479999999997 109.84261, 304.72466 99.21267999999999, 304.72466 99.21267999999999, 316.94907950000004 91.771729, 316.94907950000004 91.771729, 312.519942 82.91345399999999, 312.519942 82.91345399999999, 316.94907950000004 74.055179, 316.94907950000004 74.055179, 327.9333405 82.91345399999999, 327.9333405 82.91345399999999, 332.362478 91.771729, 332.362478 91.771729, 327.9333405 99.21267999999999, 327.9333405 99.21267999999999, 340.15776 109.84261, 340.15776 109.84261000000001, 364.96093 87.874088, 364.96093 87.874088, 375.59086 65.905566, 375.59086 65.905566, 364.96093 60.413435500000006, 364.96093 60.413435500000006, 357.51997900000003 64.842573, 357.51997900000003 64.842573, 348.66170400000004 60.413435500000006, 348.66170400000004 60.413435500000006, 339.803429 49.4291745, 339.803429 49.4291745, 348.66170400000004 45.000037000000006, 348.66170400000004 45.000037000000006, 357.51997900000003 49.4291745, 357.51997900000003 49.4291745, 364.96093 43.937044, 364.96093 43.937044, 375.59086 21.968522, 375.59086 21.968522, 364.96093 0, 364.96093 0, 340.15776 10.62993, 340.15776 10.62993, 327.9333405 18.070881, 327.9333405 18.070881, 332.362478 26.929156, 332.362478 26.929156, 327.9333405 35.787431, 327.9333405 35.787431, 316.94907950000004 26.929156, 316.94907950000004 26.929156, 312.519942 18.070881, 312.519942 18.070881, 316.94907950000004 10.62993, 316.94907950000004 10.62993, 304.72466 0, 304.72466 0, 283.46479999999997 10.62993, 283.46479999999997 10.62993, 262.20493999999997 0, 262.20493999999997 0, 240.94508 10.62993, 240.94508 10.62993, 219.68522 0, 219.68522 0, 198.42535999999998 10.62993, 198.42535999999998 10.62993, 177.1655 0, 177.1655 0, 155.90564 10.62993, 155.90564 10.62993, 134.64578 0, 134.64578 0, 113.38592 10.62993, 113.38592 10.62993, 92.12606 0, 92.12606 0, 70.86619999999999 10.62993, 70.86619999999999 10.62993, 58.641780499999996 18.070881, 58.641780499999996 18.070881, 63.07091799999999 26.929156, 63.07091799999999 26.929156, 58.641780499999996 35.787431, 58.641780499999996 35.787431, 47.65751949999999 26.929156, 47.65751949999999 26.929156, 43.228381999999996 18.070881, 43.228381999999996 18.070881, 47.65751949999999 10.62993, 47.65751949999999 10.62993, 35.433099999999996 0, 35.433099999999996 "/> 
</g>
<!-- Right--> 
<g transform="translate(667.3824384999999, 398.0908785) " > 
<polygon style="stroke:#000000; fill:none; stroke-width:0.90000074" points="0, 10.62993 21.968522, 10.62993 21.968522, 0 43.937044, 0 43.937044, 10.62993 49.4291745, 10.62993 49.4291745, 18.070881 45.000037000000006, 18.070881 45.000037000000006, 26.929156 49.4291745, 26.929156 49.4291745, 35.787431 60.413435500000006, 35.787431 60.413435500000006, 26.929156 64.842573, 26.929156 64.842573, 18.070881 60.413435500000006, 18.070881 60.413435500000006, 10.62993 65.905566, 10.62993 65.905566, 0 87.874088, 0 87.874088, 10.62993 109.84261, 10.62993 109.84261, 35.433099999999996 99.21267999999999, 35.433099999999996 99.21267999999999, 47.65751949999999 91.771729, 47.65751949999999 91.771729, 43.228381999999996 82.91345399999999, 43.228381999999996 82.91345399999999, 47.65751949999999 74.055179, 47.65751949999999 74.055179, 58.641780499999996 82.91345399999999, 58.641780499999996 82.91345399999999, 63.07091799999999 91.771729, 63.07091799999999 91.771729, 58.641780499999996 99.21267999999999, 58.641780499999996 99.21267999999999, 70.86619999999999 109.84261, 70.86619999999999 109.84261, 92.12606 99.21267999999999, 92.12606 99.21267999999999, 113.38592 109.84261, 113.38592 109.84261, 134.64578 99.21267999999999, 134.64578 99.21267999999999, 155.90564 109.84261, 155.90564 109.84261, 177.1655 99.21267999999999, 177.1655 99.21267999999999, 198.42535999999998 109.84261, 198.42535999999998 109.84261, 219.68522 99.21267999999999, 219.68522 99.21267999999999, 240.94508 109.84261, 240.94508 109.84261, 262.20493999999997 99.21267999999999, 262.20493999999997 99.21267999999999, 283.46479999999997 109.84261, 283.46479999999997 109.84261, 304.72466 99.21267999999999, 304.72466 99.21267999999999, 316.94907950000004 91.771729, 316.94907950000004 91.771729, 312.519942 82.91345399999999, 312.519942 82.91345399999999, 316.94907950000004 74.055179, 316.94907950000004 74.055179, 327.9333405 82.91345399999999, 327.9333405 82.91345399999999, 332.362478 91.771729, 332.362478 91.771729, 327.9333405 99.21267999999999, 327.9333405 99.21267999999999, 340.15776 109.84261, 340.15776 109.84261000000001, 364.96093 87.874088, 364.96093 87.874088, 375.59086 65.905566, 375.59086 65.905566, 364.96093 60.413435500000006, 364.96093 60.413435500000006, 357.51997900000003 64.842573, 357.51997900000003 64.842573, 348.66170400000004 60.413435500000006, 348.66170400000004 60.413435500000006, 339.803429 49.4291745, 339.803429 49.4291745, 348.66170400000004 45.000037000000006, 348.66170400000004 45.000037000000006, 357.51997900000003 49.4291745, 357.51997900000003 49.4291745, 364.96093 43.937044, 364.96093 43.937044, 375.59086 21.968522, 375.59086 21.968522, 364.96093 0, 364.96093 0, 340.15776 10.62993, 340.15776 10.62993, 327.9333405 18.070881, 327.9333405 18.070881, 332.362478 26.929156, 332.362478 26.929156, 327.9333405 35.787431, 327.9333405 35.787431, 316.94907950000004 26.929156, 316.94907950000004 26.929156, 312.519942 18.070881, 312.519942 18.070881, 316.94907950000004 10.62993, 316.94907950000004 10.62993, 304.72466 0, 304.72466 0, 283.46479999999997 10.62993, 283.46479999999997 10.62993, 262.20493999999997 0, 262.20493999999997 0, 240.94508 10.62993, 240.94508 10.62993, 219.68522 0, 219.68522 0, 198.42535999999998 10.62993, 198.42535999999998 10.62993, 177.1655 0, 177.1655 0, 155.90564 10.62993, 155.90564 10.62993, 134.64578 0, 134.64578 0, 113.38592 10.62993, 113.38592 10.62993, 92.12606 0, 92.12606 0, 70.86619999999999 10.62993, 70.86619999999999 10.62993, 58.641780499999996 18.070881, 58.641780499999996 18.070881, 63.07091799999999 26.929156, 63.07091799999999 26.929156, 58.641780499999996 35.787431, 58.641780499999996 35.787431, 47.65751949999999 26.929156, 47.65751949999999 26.929156, 43.228381999999996 18.070881, 43.228381999999996 18.070881, 47.65751949999999 10.62993, 47.65751949999999 10.62993, 35.433099999999996 0, 35.433099999999996 "/> 
</g>
<!-- Top--> 
<g transform="translate(22.5000185, 398.0908785) " > 
<polygon style="stroke:#000000; fill:none; stroke-width:0.90000074" points="0, 10.62993 32.7756175, 10.62993 32.7756175, 0 42.60830275, 0 42.60830275, 13.110247000000001 55.71854975, 13.110247000000001 55.71854975, 0 65.551235, 0 65.551235, 10.62993 86.81109500000001, 10.62993 86.81109500000001, 0 108.070955, 0 108.070955, 10.62993 129.330815, 10.62993 129.330815, 0 150.590675, 0 150.590675, 10.62993 171.850535, 10.62993 171.850535, 0 193.11039499999998, 0 193.11039499999998, 10.62993 214.370255, 10.62993 214.370255, 0 235.630115, 0 235.630115, 10.62993 256.889975, 10.62993 256.889975, 0 266.72266025000005, 0 266.72266025000005, 13.110247000000001 279.83290725, 13.110247000000001 279.83290725, 0 289.6655925, 0 289.6655925, 10.62993 322.44121, 10.62993 322.44121, 21.968522 311.81128, 21.968522 311.81128, 43.937044 322.44121, 43.937044 322.44121, 48.3661815 309.330963, 48.3661815 309.330963, 61.476428500000004 322.44121, 61.476428500000004 322.44121, 65.905566 311.81128, 65.905566 311.81128, 87.874088 322.44121, 87.874088 322.44121, 99.21267999999999 289.6655925, 99.21267999999999 289.6655925, 109.84261 279.83290725, 109.84261 279.83290725, 96.73236299999999 266.72266025000005, 96.73236299999999 266.72266025000005, 109.84261 256.889975, 109.84261 256.889975, 99.21267999999999 235.630115, 99.21267999999999 235.630115, 109.84261 214.370255, 109.84261 214.370255, 99.21267999999999 193.11039499999998, 99.21267999999999 193.11039499999998, 109.84261 171.850535, 109.84261 171.850535, 99.21267999999999 150.590675, 99.21267999999999 150.590675, 109.84261 129.330815, 109.84261 129.330815, 99.21267999999999 108.070955, 99.21267999999999 108.070955, 109.84261 86.81109500000001, 109.84261 86.81109500000001, 99.21267999999999 65.551235, 99.21267999999999 65.551235, 109.84261 55.71854975, 109.84261 55.71854975, 96.73236299999999 42.60830275, 96.73236299999999 42.60830275, 109.84261 32.7756175, 109.84261 32.7756175, 99.21267999999999 0, 99.21268 0, 87.874088 10.62993, 87.874088 10.62993, 65.905566 0, 65.905566 0, 61.476428500000004 13.110247000000001, 61.476428500000004 13.110247000000001, 48.3661815 0, 48.3661815 0, 43.937044 10.62993, 43.937044 10.62993, 21.968522 0, 21.968522 "/> 
</g>
<!-- Bottom--> 
<g transform="translate(344.94122849999997, 398.0908785) " > 
<polygon style="stroke:#000000; fill:none; stroke-width:0.90000074" points="0, 10.62993 32.7756175, 10.62993 32.7756175, 0 42.60830275, 0 42.60830275, 13.110247000000001 55.71854975, 13.110247000000001 55.71854975, 0 65.551235, 0 65.551235, 10.62993 86.81109500000001, 10.62993 86.81109500000001, 0 108.070955, 0 108.070955, 10.62993 129.330815, 10.62993 129.330815, 0 150.590675, 0 150.590675, 10.62993 171.850535, 10.62993 171.850535, 0 193.11039499999998, 0 193.11039499999998, 10.62993 214.370255, 10.62993 214.370255, 0 235.630115, 0 235.630115, 10.62993 256.889975, 10.62993 256.889975, 0 266.72266025000005, 0 266.72266025000005, 13.110247000000001 279.83290725, 13.110247000000001 279.83290725, 0 289.6655925, 0 289.6655925, 10.62993 322.44121, 10.62993 322.44121, 21.968522 311.81128, 21.968522 311.81128, 43.937044 322.44121, 43.937044 322.44121, 48.3661815 309.330963, 48.3661815 309.330963, 61.476428500000004 322.44121, 61.476428500000004 322.44121, 65.905566 311.81128, 65.905566 311.81128, 87.874088 322.44121, 87.874088 322.44121, 99.21267999999999 289.6655925, 99.21267999999999 289.6655925, 109.84261 279.83290725, 109.84261 279.83290725, 96.73236299999999 266.72266025000005, 96.73236299999999 266.72266025000005, 109.84261 256.889975, 109.84261 256.889975, 99.21267999999999 235.630115, 99.21267999999999 235.630115, 109.84261 214.370255, 109.84261 214.370255, 99.21267999999999 193.11039499999998, 99.21267999999999 193.11039499999998, 109.84261 171.850535, 109.84261 171.850535, 99.21267999999999 150.590675, 99.21267999999999 150.590675, 109.84261 129.330815, 109.84261 129.330815, 99.21267999999999 108.070955, 99.21267999999999 108.070955, 109.84261 86.81109500000001, 109.84261 86.81109500000001, 99.21267999999999 65.551235, 99.21267999999999 65.551235, 109.84261 55.71854975, 109.84261 55.71854975, 96.73236299999999 42.60830275, 96.73236299999999 42.60830275, 109.84261 32.7756175, 109.84261 32.7756175, 99.21267999999999 0, 99.21268 0, 87.874088 10.62993, 87.874088 10.62993, 65.905566 0, 65.905566 0, 61.476428500000004 13.110247000000001, 61.476428500000004 13.110247000000001, 48.3661815 0, 48.3661815 0, 43.937044 10.62993, 43.937044 10.62993, 21.968522 0, 21.968522 "/> 
</g></svg>