<svg xmlns="http://www.w3.org/2000/svg" version="1.1" width="225.7mm" height="224.7mm" viewBox = " 0 0 799.725067 796.181757" >
<!-- Front--> 
<g transform="translate(22.5000185, 22.5000185) " > 
<polygon style="stroke:#000000; fill:none; stroke-width:0.90000074" points="0, 0 32.7756175, 0 32.7756175, 10.62993 65.551235, 10.62993 65.551235, 0 86.81109500000001, 0 86.81109500000001, 10.62993 108.070955, 10.62993 108.070955, 0 129.330815, 0 129.330815, 10.62993 150.590675, 10.62993 150.590675, 0 171.850535, 0 171.850535, 10.62993 193.11039499999998, 10.62993 193.11039499999998, 0 214.370255, 0 214.370255, 10.62993 235.630115, 10.62993 235.630115, 0 256.889975, 0 256.889975, 10.62993 289.6655925, 10.62993 289.6655925, 0 322.44121, 0 322.44121, 35.433099999999996 311.81128, 35.433099999999996 311.81128, 70.86619999999999 322.44121, 70.86619999999999 322.44121, 92.12606 311.81128, 92.12606 311.81128, 113.38592 322.44121, 113.38592 322.44121, 134.64578 311.81128, 134.64578 311.81128, 155.90564 322.44121, 155.90564 322.44121, 177.1655 311.81128, 177.1655 311.81128, 198.42535999999998 322.44121, 198.42535999999998 322.44121, 219.68522 311.81128, 219.68522 311.81128, 240.94508 322.44121, 240.94508 322.44121, 262.20493999999997 311.81128, 262.20493999999997 311.81128, 283.46479999999997 322.44121, 283.46479999999997 322.44121, 304.72466 311.81128, 304.72466 311.81128, 340.15776 322.44121, 340.15776 322.44121, 375.59086 289.6655925, 375.59086 289.6655925, 364.96093 256.889975, 364.96093 256.889975, 375.59086 235.630115, 375.59086 235.630115, 364.96093 214.370255, 364.96093 214.370255, 375.59086 193.11039499999998, 375.59086 193.11039499999998, 364.96093 171.850535, 364.96093 171.850535, 375.59086 150.590675, 375.59086 150.590675, 364.96093 129.330815, 364.96093 129.330815, 375.59086 108.070955, 375.59086 108.070955, 364.96093 86.81109500000001, 364.96093 86.81109500000001, 375.59086 65.551235, 375.59086 65.551235, 364.96093 32.7756175, 364.96093 32.7756175, 375.59086 0, 375.59086 0, 340.15776 10.62993, 340.15776 10.62993, 304.72466 0, 304.72466 0, 283.46479999999997 10.62993, 283.46479999999997 10.62993, 262.20493999999997 0, 262.20493999999997 0, 240.94508 10.62993, 240.94508 10.62993, 219.68522 0, 219.68522 0, 198.42535999999998 10.62993, 198.42535999999998 10.62993, 177.1655 0, 177.1655 0, 155.90564 10.62993, 155.90564 10.62993, 134.64578 0, 134.64578 0, 113.38592 10.62993, 113.38592 10.62993, 92.12606 0, 92.12606 0, 70.86619999999999 10.62993, 70.86619999999999 10.62993, 35.433099999999996 0, 35.433099999999996 "/> 
</g>
<!-- Back--> 
<g transform="translate(344.94122849999997, 22.5000185) " > 
<polygon style="stroke:#000000; fill:none; stroke-width:0.90000074" points="0, 0 32.7756175, 0 32.7756175, 10.62993 65.551235, 10.62993 65.551235, 0 86.81109500000001, 0 86.81109500000001, 10.62993 108.070955, 10.62993 108.070955, 0 129.330815, 0 129.330815, 10.62993 150.590675, 10.62993 150.590675, 0 171.850535, 0 171.850535, 10.62993 193.11039499999998, 10.62993 193.11039499999998, 0 214.370255, 0 214.370255, 10.62993 235.630115, 10.62993 235.630115, 0 256.889975, 0 256.889975, 10.62993 289.6655925, 10.62993 289.6655925, 0 322.44121, 0 322.44121, 35.433099999999996 311.81128, 35.433099999999996 311.81128, 70.86619999999999 322.44121, 70.86619999999999 322.44121, 92.12606 311.81128, 92.12606 311.81128, 113.38592 322.44121, 113.38592 322.44121, 134.64578 311.81128, 134.64578 311.81128, 155.90564 322.44121, 155.90564 322.44121, 177.1655 311.81128, 177.1655 311.81128, 198.42535999999998 322.44121, 198.42535999999998 322.44121, 219.68522 311.81128, 219.68522 311.81128, 240.94508 322.44121, 240.94508 322.44121, 262.20493999999997 311.81128, 262.20493999999997 311.81128, 283.46479999999997 322.44121, 283.46479999999997 322.44121, 304.72466 311.81128, 304.72466 311.81128, 340.15776 322.44121, 340.15776 322.44121, 375.59086 289.6655925, 375.59086 289.6655925, 364.96093 256.889975, 364.96093 256.889975, 375.59086 235.630115, 375.59086 235.630115, 364.96093 214.370255, 364.96093 214.370255, 375.59086 193.11039499999998, 375.59086 193.11039499999998, 364.96093 171.850535, 364.96093 171.850535, 375.59086 150.590675, 375.59086 150.590675, 364.96093 129.330815, 364.96093 129.330815, 375.59086 108.070955, 375.59086 108.070955, 364.96093 86.81109500000001, 364.96093 86.81109500000001, 375.59086 65.551235, 375.59086 65.551235, 364.96093 32.7756175, 364.96093 32.7756175, 375.59086 0, 375.59086 0, 340.15776 10.62993, 340.15776 10.62993, 304.72466 0, 304.72466 0, 283.46479999999997 10.62993, 283.46479999999997 10.62993, 262.20493999999997 0, 262.20493999999997 0, 240.94508 10.62993, 240.94508 10.62993, 219.68522 0, 219.68522 0, 198.42535999999998 10.62993, 198.42535999999998 10.62993, 177.1655 0, 177.1655 0, 155.90564 10.62993, 155.90564 10.62993, 134.64578 0, 134.64578 0, 113.38592 10.62993, 113.38592 10.62993, 92.12606 0, 92.12606 0, 70.86619999999999 10.62993, 70.86619999999999 10.62993, 35.433099999999996 0, 35.433099999999996 "/> 
</g>
<!-- Left--> 
<g transform="translate(667.3824384999999, 22.5000185) " > 
<polygon style="stroke:#000000; fill:none; stroke-width:0.90000074" points="10.62993, 0 21.968522, 0 21.968522, 10.62993 43.937044, 10.62993 43.937044, 0 65.905566, 0 65.905566, 10.62993 87.874088, 10.62993 87.874088, 0 99.21267999999999, 0 99.21267999999999, 35.433099999999996 109.84261, 35.433099999999996 109.84261, 70.86619999999999 99.21267999999999, 70.86619999999999 99.21267999999999, 92.12606 109.84261, 92.12606 109.84261, 113.38592 99.21267999999999, 113.38592 99.21267999999999, 134.64578 109.84261, 134.64578 109.84261, 155.90564 99.21267999999999, 155.90564 99.21267999999999, 177.1655 109.84261, 177.1655 109.84261, 198.42535999999998 99.21267999999999, 198.42535999999998 99.21267999999999, 219.68522 109.84261, 219.68522 109.84261, 240.94508 99.21267999999999, 240.94508 99.21267999999999, 262.20493999999997 109.84261, 262.20493999999997 109.84261, 283.46479999999997 99.21267999999999, 283.46479999999997 99.21267999999999, 304.72466 109.84261, 304.72466 109.84261, 340.15776 99.21267999999999, 340.15776 99.21268, 375.59086 87.874088, 375.59086 87.874088, 364.96093 65.905566, 364.96093 65.905566, 375.59086 43.937044, 375.59086 43.937044, 364.96093 21.968522, 364.96093 21.968522, 375.59086 10.62993, 375.59086 10.62993, 340.15776 0, 340.15776 0, 304.72466 10.62993, 304.72466 10.62993, 283.46479999999997 0, 283.46479999999997 0, 262.20493999999997 10.62993, 262.20493999999997 10.62993, 240.94508 0, 240.94508 0, 219.68522 10.62993, 219.68522 10.62993, 198.42535999999998 0, 198.42535999999998 0, 177.1655 10.62993, 177.1655 10.62993, 155.90564 0, 155.90564 0, 134.64578 10.62993, 134.64578 10.62993, 113.38592 0, 113.38592 0, 92.12606 10.62993, 92.12606 10.62993, 70.86619999999999 0, 70.86619999999999 0, 35.433099999999996 10.62993, 35.433099999999996 "/> 
</g>
<!-- Right--> 
<g transform="translate(667.3824384999999, 398.0908785) " > 
<polygon style="stroke:#000000; fill:none; stroke-width:0.90000074" points="10.62993, 0 21.968522, 0 21.968522, 10.62993 43.937044, 10.62993 43.937044, 0 65.905566, 0 65.905566, 10.62993 87.874088, 10.62993 87.874088, 0 99.21267999999999, 0 99.21267999999999, 35.433099999999996 109.84261, 35.433099999999996 109.84261, 70.86619999999999 99.21267999999999, 70.86619999999999 99.21267999999999, 92.12606 109.84261, 92.12606 109.84261, 113.38592 99.21267999999999, 113.38592 99.21267999999999, 134.64578 109.84261, 134.64578 109.84261, 155.90564 99.21267999999999, 155.90564 99.21267999999999, 177.1655 109.84261, 177.1655 109.84261, 198.42535999999998 99.21267999999999, 198.42535999999998 99.21267999999999, 219.68522 109.84261, 219.68522 109.84261, 240.94508 99.21267999999999, 240.94508 99.21267999999999, 262.20493999999997 109.84261, 262.20493999999997 109.84261, 283.46479999999997 99.21267999999999, 283.46479999999997 99.21267999999999, 304.72466 109.84261, 304.72466 109.84261, 340.15776 99.21267999999999, 340.15776 99.21268, 375.59086 87.874088, 375.59086 87.874088, 364.96093 65.905566, 364.96093 65.905566, 375.59086 43.937044, 375.59086 43.937044, 364.96093 21.968522, 364.96093 21.968522, 375.59086 10.62993, 375.59086 10.62993, 340.15776 0, 340.15776 0, 304.72466 10.62993, 304.72466 10.62993, 283.46479999999997 0, 283.46479999999997 0, 262.20493999999997 10.62993, 262.20493999999997 10.62993, 240.94508 0, 240.94508 0, 219.68522 10.62993, 219.68522 10.62993, 198.42535999999998 0, 198.42535999999998 0, 177.1655 10.62993, 177.1655 10.62993, 155.90564 0, 155.90564 0, 134.64578 10.62993, 134.64578 10.62993, 113.38592 0, 113.38592 0, 92.12606 10.62993, 92.12606 10.62993, 70.86619999999999 0, 70.86619999999999 0, 35.433099999999996 10.62993, 35.433099999999996 "/> 
</g>
<!-- Top--> 
<g transform="translate(22.5000185, 398.0908785) " > 
<polygon style="stroke:#000000; fill:none; stroke-width:0.90000074" points="10.62993, 10.62993 32.7756175, 10.62993 32.7756175, 0 65.551235, 0 65.551235, 10.62993 86.81109500000001, 10.62993 86.81109500000001, 0 108.070955, 0 108.070955, 10.62993 129.330815, 10.62993 129.330815, 0 150.590675, 0 150.590675, 10.62993 171.850535, 10.62993 171.850535, 0 193.11039499999998, 0 193.11039499999998, 10.62993 214.370255, 10.62993 214.370255, 0 235.630115, 0 235.630115, 10.62993 256.889975, 10.62993 256.889975, 0 289.6655925, 0 289.6655925, 10.62993 311.81128, 10.62993 311.81128, 21.968522 322.44121, 21.968522 322.44121, 43.937044 311.81128, 43.937044 311.81128, 65.905566 322.44121, 65.905566 322.44121, 87.874088 311.81128, 87.874088 311.81128, 99.21267999999999 289.6655925, 99.21267999999999 289.6655925, 109.84261 256.889975, 109.84261 256.889975, 99.21267999999999 235.630115, 99.21267999999999 235.630115, 109.84261 214.370255, 109.84261 214.370255, 99.21267999999999 193.11039499999998, 99.21267999999999 193.11039499999998, 109.84261 171.850535, 109.84261 171.850535, 99.21267999999999 150.590675, 99.21267999999999 150.590675, 109.84261 129.330815, 109.84261 129.330815, 99.21267999999999 108.070955, 99.21267999999999 108.070955, 109.84261 86.81109500000001, 109.84261 86.81109500000001, 99.21267999999999 65.551235, 99.21267999999999 65.551235, 109.84261 32.7756175, 109.84261 32.7756175, 99.21267999999999 10.62993, 99.21268 10.62993, 87.874088 0, 87.874088 0, 65.905566 10.62993, 65.905566 10.62993, 43.937044 0, 43.937044 0, 21.968522 10.62993, 21.968522 "/> 
</g>
<!-- Bottom--> 
<g transform="translate(344.94122849999997, 398.0908785) " > 
<polygon style="stroke:#000000; fill:none; stroke-width:0.90000074" points="10.62993, 10.62993 32.7756175, 10.62993 32.7756175, 0 65.551235, 0 65.551235, 10.62993 86.81109500000001, 10.62993 86.81109500000001, 0 108.070955, 0 108.070955, 10.62993 129.330815, 10.62993 129.330815, 0 150.590675, 0 150.590675, 10.62993 171.850535, 10.62993 171.850535, 0 193.11039499999998, 0 193.11039499999998, 10.62993 214.370255, 10.62993 214.370255, 0 235.630115, 0 235.630115, 10.62993 256.889975, 10.62993 256.889975, 0 289.6655925, 0 289.6655925, 10.62993 311.81128, 10.62993 311.81128, 21.968522 322.44121, 21.968522 322.44121, 43.937044 311.81128, 43.937044 311.81128, 65.905566 322.44121, 65.905566 322.44121, 87.874088 311.81128, 87.874088 311.81128, 99.21267999999999 289.6655925, 99.21267999999999 289.6655925, 109.84261 256.889975, 109.84261 256.889975, 99.21267999999999 235.630115, 99.21267999999999 235.630115, 109.84261 214.370255, 109.84261 214.370255, 99.21267999999999 193.11039499999998, 99.21267999999999 193.11039499999998, 109.84261 171.850535, 109.84261 171.850535, 99.21267999999999 150.590675, 99.21267999999999 150.590675, 109.84261 129.330815, 109.84261 129.330815, 99.21267999999999 108.070955, 99.21267999999999 108.070955, 109.84261 86.81109500000001, 109.84261 86.81109500000001, 99.21267999999999 65.551235, 99.21267999999999 65.551235, 109.84261 32.7756175, 109.84261 32.7756175, 99.21267999999999 10.62993, 99.21268 10.62993, 87.874088 0, 87.874088 0, 65.905566 10.62993, 65.905566 10.62993, 43.937044 0, 43.937044 0, 21.968522 10.62993, 21.968522 "/> 
</g></svg>