<svg xmlns="http://www.w3.org/2000/svg" version="1.1" width="190.7mm" height="224.7mm" viewBox = " 0 0 675.709217 796.181757" >
<!-- Front--> 
<g transform="translate(22.5000185, 22.5000185) " > 
<polygon style="stroke:#000000; fill:none; stroke-width:0.90000074" points="17.716549999999998, 0 27.4606525, 0 27.4606525, 17.716549999999998 35.69884825, 17.716549999999998 35.69884825, 39.330741 31.26971075, 39.330741 31.26971075, 48.189016 35.69884825, 48.189016 35.69884825, 57.047291 46.68310925, 57.047291 46.68310925, 48.189016 51.11224675, 48.189016 51.11224675, 39.330741 46.68310925, 39.330741 46.68310925, 17.716549999999998 54.921305, 17.716549999999998 54.921305, 0 72.637855, 0 72.637855, 17.716549999999998 90.35440499999999, 17.716549999999998 90.35440499999999, 0 108.070955, 0 108.070955, 17.716549999999998 125.78750499999998, 17.716549999999998 125.78750499999998, 0 143.504055, 0 143.504055, 17.716549999999998 161.22060499999998, 17.716549999999998 161.22060499999998, 0 178.937155, 0 178.937155, 17.716549999999998 196.65370499999997, 17.716549999999998 196.65370499999997, 0 214.37025499999996, 0 214.37025499999996, 17.716549999999998 222.60845074999995, 17.716549999999998 222.60845074999995, 39.330741 218.17931324999995, 39.330741 218.17931324999995, 48.189016 222.60845074999995, 48.189016 222.60845074999995, 57.047291 233.59271174999995, 57.047291 233.59271174999995, 48.189016 238.02184924999995, 48.189016 238.02184924999995, 39.330741 233.59271174999995, 39.330741 233.59271174999995, 17.716549999999998 241.83090749999997, 17.716549999999998 241.83090749999997, 0 251.57501000000002, 0 251.57501000000002, 27.4606525 269.29156, 27.4606525 269.29156, 34.63585525 256.181313, 34.63585525 256.181313, 47.74610225 269.29156, 47.74610225 269.29156, 54.921305 251.57501000000002, 54.921305 251.57501000000002, 72.637855 269.29156, 72.637855 269.29156, 90.35440499999999 251.57501000000002, 90.35440499999999 251.57501000000002, 108.070955 269.29156, 108.070955 269.29156, 125.78750499999998 251.57501000000002, 125.78750499999998 251.57501000000002, 143.504055 269.29156, 143.504055 269.29156, 161.22060499999998 251.57501000000002, 161.22060499999998 251.57501000000002, 178.937155 269.29156, 178.937155 269.29156, 196.65370499999997 251.57501000000002, 196.65370499999997 251.57501000000002, 214.37025499999996 269.29156, 214.37025499999996 269.29156, 232.08680499999997 251.57501000000002, 232.08680499999997 251.57501000000002, 249.80335499999998 269.29156, 249.80335499999998 269.29156, 267.519905 251.57501000000002, 267.519905 251.57501000000002, 285.236455 269.29156, 285.236455 269.29156, 302.95300499999996 251.57501000000002, 302.95300499999996 251.57501000000002, 320.669555 269.29156, 320.669555 269.29156, 327.84475775 256.181313, 327.84475775 256.181313, 340.95500474999994 269.29156, 340.95500474999994 269.29156, 348.1302075 251.57501000000002, 348.1302075 251.57500999999996, 375.59086 241.83090749999997, 375.59086 241.83090749999997, 357.87431000000004 233.59271174999995, 357.87431000000004 233.59271174999995, 336.26011900000003 238.02184924999995, 336.26011900000003 238.02184924999995, 327.40184400000004 233.59271174999995, 327.40184400000004 233.59271174999995, 318.54356900000005 222.60845074999995, 318.54356900000005 222.60845074999995, 327.40184400000004 218.17931324999995, 327.40184400000004 218.17931324999995, 336.26011900000003 222.60845074999995, 336.26011900000003 222.60845074999995, 357.87431000000004 214.37025499999996, 357.87431000000004 214.37025499999996, 375.59086 196.65370499999997, 375.59086 196.65370499999997, 357.87431000000004 178.937155, 357.87431000000004 178.937155, 375.59086 161.22060499999998, 375.59086 161.22060499999998, 357.87431000000004 143.504055, 357.87431000000004 143.504055, 375.59086 125.78750499999998, 375.59086 125.78750499999998, 357.87431000000004 108.070955, 357.87431000000004 108.070955, 375.59086 90.35440499999999, 375.59086 90.35440499999999, 357.87431000000004 72.637855, 357.87431000000004 72.637855, 375.59086 54.921305, 375.59086 54.921305, 357.87431000000004 46.68310925, 357.87431000000004 46.68310925, 336.26011900000003 51.11224675, 336.26011900000003 51.11224675, 327.40184400000004 46.68310925, 327.40184400000004 46.68310925, 318.54356900000005 35.69884825, 318.54356900000005 35.69884825, 327.40184400000004 31.26971075, 327.40184400000004 31.26971075, 336.26011900000003 35.69884825, 336.26011900000003 35.69884825, 357.87431000000004 27.4606525, 357.87431000000004 27.4606525, 375.59086 17.716549999999998, 375.59085999999996 17.716549999999998, 348.1302075 0, 348.1302075 0, 340.95500474999994 13.110247000000001, 340.95500474999994 13.110247000000001, 327.84475775 0, 327.84475775 0, 320.669555 17.716549999999998, 320.669555 17.716549999999998, 302.95300499999996 0, 302.95300499999996 0, 285.236455 17.716549999999998, 285.236455 17.716549999999998, 267.519905 0, 267.519905 0, 249.80335499999998 17.716549999999998, 249.80335499999998 17.716549999999998, 232.08680499999997 0, 232.08680499999997 0, 214.37025499999996 17.716549999999998, 214.37025499999996 17.716549999999998, 196.65370499999997 0, 196.65370499999997 0, 178.937155 17.716549999999998, 178.937155 17.716549999999998, 161.22060499999998 0, 161.22060499999998 0, 143.504055 17.716549999999998, 143.504055 17.716549999999998, 125.78750499999998 0, 125.78750499999998 0, 108.070955 17.716549999999998, 108.070955 17.716549999999998, 90.35440499999999 0, 90.35440499999999 0, 72.637855 17.716549999999998, 72.637855 17.716549999999998, 54.921305 0, 54.921305 0, 47.74610225 13.110247000000001, 47.74610225 13.110247000000001, 34.63585525 0, 34.63585525 0, 27.4606525 17.716549999999998, 27.4606525 "/> 
</g>
<!-- Back--> 
<g transform="translate(291.79157849999996, 22.5000185) " > 
<polygon style="stroke:#000000; fill:none; stroke-width:0.90000074" points="17.716549999999998, 0 27.4606525, 0 27.4606525, 17.716549999999998 35.69884825, 17.716549999999998 35.69884825, 39.330741 31.26971075, 39.330741 31.26971075, 48.189016 35.69884825, 48.189016 35.69884825, 57.047291 46.68310925, 57.047291 46.68310925, 48.189016 51.11224675, 48.189016 51.11224675, 39.330741 46.68310925, 39.330741 46.68310925, 17.716549999999998 54.921305, 17.716549999999998 54.921305, 0 72.637855, 0 72.637855, 17.716549999999998 90.35440499999999, 17.716549999999998 90.35440499999999, 0 108.070955, 0 108.070955, 17.716549999999998 125.78750499999998, 17.716549999999998 125.78750499999998, 0 143.504055, 0 143.504055, 17.716549999999998 161.22060499999998, 17.716549999999998 161.22060499999998, 0 178.937155, 0 178.937155, 17.716549999999998 196.65370499999997, 17.716549999999998 196.65370499999997, 0 214.37025499999996, 0 214.37025499999996, 17.716549999999998 222.60845074999995, 17.716549999999998 222.60845074999995, 39.330741 218.17931324999995, 39.330741 218.17931324999995, 48.189016 222.60845074999995, 48.189016 222.60845074999995, 57.047291 233.59271174999995, 57.047291 233.59271174999995, 48.189016 238.02184924999995, 48.189016 238.02184924999995, 39.330741 233.59271174999995, 39.330741 233.59271174999995, 17.716549999999998 241.83090749999997, 17.716549999999998 241.83090749999997, 0 251.57501000000002, 0 251.57501000000002, 27.4606525 269.29156, 27.4606525 269.29156, 34.63585525 256.181313, 34.63585525 256.181313, 47.74610225 269.29156, 47.74610225 269.29156, 54.921305 251.57501000000002, 54.921305 251.57501000000002, 72.637855 269.29156, 72.637855 269.29156, 90.35440499999999 251.57501000000002, 90.35440499999999 251.57501000000002, 108.070955 269.29156, 108.070955 269.29156, 125.78750499999998 251.57501000000002, 125.78750499999998 251.57501000000002, 143.504055 269.29156, 143.504055 269.29156, 161.22060499999998 251.57501000000002, 161.22060499999998 251.57501000000002, 178.937155 269.29156, 178.937155 269.29156, 196.65370499999997 251.57501000000002, 196.65370499999997 251.57501000000002, 214.37025499999996 269.29156, 214.37025499999996 269.29156, 232.08680499999997 251.57501000000002, 232.08680499999997 251.57501000000002, 249.80335499999998 269.29156, 249.80335499999998 269.29156, 267.519905 251.57501000000002, 267.519905 251.57501000000002, 285.236455 269.29156, 285.236455 269.29156, 302.95300499999996 251.57501000000002, 302.95300499999996 251.57501000000002, 320.669555 269.29156, 320.669555 269.29156, 327.84475775 256.181313, 327.84475775 256.181313, 340.95500474999994 269.29156, 340.95500474999994 269.29156, 348.1302075 251.57501000000002, 348.1302075 251.57500999999996, 375.59086 241.83090749999997, 375.59086 241.83090749999997, 357.87431000000004 233.59271174999995, 357.87431000000004 233.59271174999995, 336.26011900000003 238.02184924999995, 336.26011900000003 238.02184924999995, 327.40184400000004 233.59271174999995, 327.40184400000004 233.59271174999995, 318.54356900000005 222.60845074999995, 318.54356900000005 222.60845074999995, 327.40184400000004 218.17931324999995, 327.40184400000004 218.17931324999995, 336.26011900000003 222.60845074999995, 336.26011900000003 222.60845074999995, 357.87431000000004 214.37025499999996, 357.87431000000004 214.37025499999996, 375.59086 196.65370499999997, 375.59086 196.65370499999997, 357.87431000000004 178.937155, 357.87431000000004 178.937155, 375.59086 161.22060499999998, 375.59086 161.22060499999998, 357.87431000000004 143.504055, 357.87431000000004 143.504055, 375.59086 125.78750499999998, 375.59086 125.78750499999998, 357.87431000000004 108.070955, 357.87431000000004 108.070955, 375.59086 90.35440499999999, 375.59086 90.35440499999999, 357.87431000000004 72.637855, 357.87431000000004 72.637855, 375.59086 54.921305, 375.59086 54.921305, 357.87431000000004 46.68310925, 357.87431000000004 46.68310925, 336.26011900000003 51.11224675, 336.26011900000003 51.11224675, 327.40184400000004 46.68310925, 327.40184400000004 46.68310925, 318.54356900000005 35.69884825, 318.54356900000005 35.69884825, 327.40184400000004 31.26971075, 327.40184400000004 31.26971075, 336.26011900000003 35.69884825, 336.26011900000003 35.69884825, 357.87431000000004 27.4606525, 357.87431000000004 27.4606525, 375.59086 17.716549999999998, 375.59085999999996 17.716549999999998, 348.1302075 0, 348.1302075 0, 340.95500474999994 13.110247000000001, 340.95500474999994 13.110247000000001, 327.84475775 0, 327.84475775 0, 320.669555 17.716549999999998, 320.669555 17.716549999999998, 302.95300499999996 0, 302.95300499999996 0, 285.236455 17.716549999999998, 285.236455 17.716549999999998, 267.519905 0, 267.519905 0, 249.80335499999998 17.716549999999998, 249.80335499999998 17.716549999999998, 232.08680499999997 0, 232.08680499999997 0, 214.37025499999996 17.716549999999998, 214.37025499999996 17.716549999999998, 196.65370499999997 0, 196.65370499999997 0, 178.937155 17.716549999999998, 178.937155 17.716549999999998, 161.22060499999998 0, 161.22060499999998 0, 143.504055 17.716549999999998, 143.504055 17.716549999999998, 125.78750499999998 0, 125.78750499999998 0, 108.070955 17.716549999999998, 108.070955 17.716549999999998, 90.35440499999999 0, 90.35440499999999 0, 72.637855 17.716549999999998, 72.637855 17.716549999999998, 54.921305 0, 54.921305 0, 47.74610225 13.110247000000001, 47.74610225 13.110247000000001, 34.63585525 0, 34.63585525 0, 27.4606525 17.716549999999998, 27.4606525 "/> 
</g>
<!-- Left--> 
<g transform="translate(561.0831385, 22.5000185) " > 
<polygon style="stroke:#000000; fill:none; stroke-width:0.90000074" points="0, 17.716549999999998 18.425212000000002, 17.716549999999998 18.425212000000002, 0 36.850424000000004, 0 36.850424000000004, 17.716549999999998 40.5708995, 17.716549999999998 40.5708995, 39.330741 36.14176200000001, 39.330741 36.14176200000001, 48.189016 40.5708995, 48.189016 40.5708995, 57.047291 51.55516050000001, 57.047291 51.55516050000001, 48.189016 55.984298, 48.189016 55.984298, 39.330741 51.55516050000001, 39.330741 51.55516050000001, 17.716549999999998 55.275636000000006, 17.716549999999998 55.275636000000006, 0 73.70084800000001, 0 73.70084800000001, 17.716549999999998 92.12606, 17.716549999999998 92.12606, 27.4606525 74.40951, 27.4606525 74.40951, 35.69884825 52.79531899999999, 35.69884825 52.79531899999999, 31.26971075 43.93704399999999, 31.26971075 43.93704399999999, 35.69884825 35.078768999999994, 35.69884825 35.078768999999994, 46.68310925 43.93704399999999, 46.68310925 43.93704399999999, 51.11224675 52.79531899999999, 51.11224675 52.79531899999999, 46.68310925 74.40951, 46.68310925 74.40951, 54.921305 92.12606, 54.921305 92.12606, 72.637855 74.40951, 72.637855 74.40951, 90.35440499999999 92.12606, 90.35440499999999 92.12606, 108.070955 74.40951, 108.070955 74.40951, 125.78750499999998 92.12606, 125.78750499999998 92.12606, 143.504055 74.40951, 143.504055 74.40951, 161.22060499999998 92.12606, 161.22060499999998 92.12606, 178.937155 74.40951, 178.937155 74.40951, 196.65370499999997 92.12606, 196.65370499999997 92.12606, 214.37025499999996 74.40951, 214.37025499999996 74.40951, 232.08680499999997 92.12606, 232.08680499999997 92.12606, 249.80335499999998 74.40951, 249.80335499999998 74.40951, 267.519905 92.12606, 267.519905 92.12606, 285.236455 74.40951, 285.236455 74.40951, 302.95300499999996 92.12606, 302.95300499999996 92.12606, 320.669555 74.40951, 320.669555 74.40951, 328.90775075 52.79531899999999, 328.90775075 52.79531899999999, 324.47861324999997 43.93704399999999, 324.47861324999997 43.93704399999999, 328.90775075 35.078768999999994, 328.90775075 35.078768999999994, 339.89201174999994 43.93704399999999, 339.89201174999994 43.93704399999999, 344.32114924999996 52.79531899999999, 344.32114924999996 52.79531899999999, 339.89201174999994 74.40951, 339.89201174999994 74.40951, 348.1302075 92.12606, 348.1302075 92.12606000000001, 357.87431000000004 73.70084800000001, 357.87431000000004 73.70084800000001, 375.59086 55.275636000000006, 375.59086 55.275636000000006, 357.87431000000004 51.55516050000001, 357.87431000000004 51.55516050000001, 336.26011900000003 55.984298, 336.26011900000003 55.984298, 327.40184400000004 51.55516050000001, 327.40184400000004 51.55516050000001, 318.54356900000005 40.5708995, 318.54356900000005 40.5708995, 327.40184400000004 36.14176200000001, 327.40184400000004 36.14176200000001, 336.26011900000003 40.5708995, 336.26011900000003 40.5708995, 357.87431000000004 36.850424000000004, 357.87431000000004 36.850424000000004, 375.59086 18.425212000000002, 375.59086 18.425212000000002, 357.87431000000004 0, 357.87431 0, 348.1302075 17.716549999999998, 348.1302075 17.716549999999998, 339.89201174999994 39.330741, 339.89201174999994 39.330741, 344.32114924999996 48.189016, 344.32114924999996 48.189016, 339.89201174999994 57.047291, 339.89201174999994 57.047291, 328.90775075 48.189016, 328.90775075 48.189016, 324.47861324999997 39.330741, 324.47861324999997 39.330741, 328.90775075 17.716549999999998, 328.90775075 17.716549999999998, 320.669555 0, 320.669555 0, 302.95300499999996 17.716549999999998, 302.95300499999996 17.716549999999998, 285.236455 0, 285.236455 0, 267.519905 17.716549999999998, 267.519905 17.716549999999998, 249.80335499999998 0, 249.80335499999998 0, 232.08680499999997 17.716549999999998, 232.08680499999997 17.716549999999998, 214.37025499999996 0, 214.37025499999996 0, 196.65370499999997 17.716549999999998, 196.65370499999997 17.716549999999998, 178.937155 0, 178.937155 0, 161.22060499999998 17.716549999999998, 161.22060499999998 17.716549999999998, 143.504055 0, 143.504055 0, 125.78750499999998 17.716549999999998, 125.78750499999998 17.716549999999998, 108.070955 0, 108.070955 0, 90.35440499999999 17.716549999999998, 90.35440499999999 17.716549999999998, 72.637855 0, 72.637855 0, 54.921305 17.716549999999998, 54.921305 17.716549999999998, 46.68310925 39.330741, 46.68310925 39.330741, 51.11224675 48.189016, 51.11224675 48.189016, 46.68310925 57.047291, 46.68310925 57.047291, 35.69884825 48.189016, 35.69884825 48.189016, 31.26971075 39.330741, 31.26971075 39.330741, 35.69884825 17.716549999999998, 35.69884825 17.716549999999998, 27.4606525 0, 27.4606525 "/> 
</g>
<!-- Right--> 
<g transform="translate(561.0831385, 398.0908785) " > 
<polygon style="stroke:#000000; fill:none; stroke-width:0.90000074" points="0, 17.716549999999998 18.425212000000002, 17.716549999999998 18.425212000000002, 0 36.850424000000004, 0 36.850424000000004, 17.716549999999998 40.5708995, 17.716549999999998 40.5708995, 39.330741 36.14176200000001, 39.330741 36.14176200000001, 48.189016 40.5708995, 48.189016 40.5708995, 57.047291 51.55516050000001, 57.047291 51.55516050000001, 48.189016 55.984298, 48.189016 55.984298, 39.330741 51.55516050000001, 39.330741 51.55516050000001, 17.716549999999998 55.275636000000006, 17.716549999999998 55.275636000000006, 0 73.70084800000001, 0 73.70084800000001, 17.716549999999998 92.12606, 17.716549999999998 92.12606, 27.4606525 74.40951, 27.4606525 74.40951, 35.69884825 52.79531899999999, 35.69884825 52.79531899999999, 31.26971075 43.93704399999999, 31.26971075 43.93704399999999, 35.69884825 35.078768999999994, 35.69884825 35.078768999999994, 46.68310925 43.93704399999999, 46.68310925 43.93704399999999, 51.11224675 52.79531899999999, 51.11224675 52.79531899999999, 46.68310925 74.40951, 46.68310925 74.40951, 54.921305 92.12606, 54.921305 92.12606, 72.637855 74.40951, 72.637855 74.40951, 90.35440499999999 92.12606, 90.35440499999999 92.12606, 108.070955 74.40951, 108.070955 74.40951, 125.78750499999998 92.12606, 125.78750499999998 92.12606, 143.504055 74.40951, 143.504055 74.40951, 161.22060499999998 92.12606, 161.22060499999998 92.12606, 178.937155 74.40951, 178.937155 74.40951, 196.65370499999997 92.12606, 196.65370499999997 92.12606, 214.37025499999996 74.40951, 214.37025499999996 74.40951, 232.08680499999997 92.12606, 232.08680499999997 92.12606, 249.80335499999998 74.40951, 249.80335499999998 74.40951, 267.519905 92.12606, 267.519905 92.12606, 285.236455 74.40951, 285.236455 74.40951, 302.95300499999996 92.12606, 302.95300499999996 92.12606, 320.669555 74.40951, 320.669555 74.40951, 328.90775075 52.79531899999999, 328.90775075 52.79531899999999, 324.47861324999997 43.93704399999999, 324.47861324999997 43.93704399999999, 328.90775075 35.078768999999994, 328.90775075 35.078768999999994, 339.89201174999994 43.93704399999999, 339.89201174999994 43.93704399999999, 344.32114924999996 52.79531899999999, 344.32114924999996 52.79531899999999, 339.89201174999994 74.40951, 339.89201174999994 74.40951, 348.1302075 92.12606, 348.1302075 92.12606000000001, 357.87431000000004 73.70084800000001, 357.87431000000004 73.70084800000001, 375.59086 55.275636000000006, 375.59086 55.275636000000006, 357.87431000000004 51.55516050000001, 357.87431000000004 51.55516050000001, 336.26011900000003 55.984298, 336.26011900000003 55.984298, 327.40184400000004 51.55516050000001, 327.40184400000004 51.55516050000001, 318.54356900000005 40.5708995, 318.54356900000005 40.5708995, 327.40184400000004 36.14176200000001, 327.40184400000004 36.14176200000001, 336.26011900000003 40.5708995, 336.26011900000003 40.5708995, 357.87431000000004 36.850424000000004, 357.87431000000004 36.850424000000004, 375.59086 18.425212000000002, 375.59086 18.425212000000002, 357.87431000000004 0, 357.87431 0, 348.1302075 17.716549999999998, 348.1302075 17.716549999999998, 339.89201174999994 39.330741, 339.89201174999994 39.330741, 344.32114924999996 48.189016, 344.32114924999996 48.189016, 339.89201174999994 57.047291, 339.89201174999994 57.047291, 328.90775075 48.189016, 328.90775075 48.189016, 324.47861324999997 39.330741, 324.47861324999997 39.330741, 328.90775075 17.716549999999998, 328.90775075 17.716549999999998, 320.669555 0, 320.669555 0, 302.95300499999996 17.716549999999998, 302.95300499999996 17.716549999999998, 285.236455 0, 285.236455 0, 267.519905 17.716549999999998, 267.519905 17.716549999999998, 249.80335499999998 0, 249.80335499999998 0, 232.08680499999997 17.716549999999998, 232.08680499999997 17.716549999999998, 214.37025499999996 0, 214.37025499999996 0, 196.65370499999997 17.716549999999998, 196.65370499999997 17.716549999999998, 178.937155 0, 178.937155 0, 161.22060499999998 17.716549999999998, 161.22060499999998 17.716549999999998, 143.504055 0, 143.504055 0, 125.78750499999998 17.716549999999998, 125.78750499999998 17.716549999999998, 108.070955 0, 108.070955 0, 90.35440499999999 17.716549999999998, 90.35440499999999 17.716549999999998, 72.637855 0, 72.637855 0, 54.921305 17.716549999999998, 54.921305 17.716549999999998, 46.68310925 39.330741, 46.68310925 39.330741, 51.11224675 48.189016, 51.11224675 48.189016, 46.68310925 57.047291, 46.68310925 57.047291, 35.69884825 48.189016, 35.69884825 48.189016, 31.26971075 39.330741, 31.26971075 39.330741, 35.69884825 17.716549999999998, 35.69884825 17.716549999999998, 27.4606525 0, 27.4606525 "/> 
</g>
<!-- Top--> 
<g transform="translate(22.5000185, 398.0908785) " > 
<polygon style="stroke:#000000; fill:none; stroke-width:0.90000074" points="0, 17.716549999999998 27.4606525, 17.716549999999998 27.4606525, 0 34.63585525, 0 34.63585525, 13.110247000000001 47.74610225, 13.110247000000001 47.74610225, 0 54.921305, 0 54.921305, 17.716549999999998 72.637855, 17.716549999999998 72.637855, 0 90.35440499999999, 0 90.35440499999999, 17.716549999999998 108.070955, 17.716549999999998 108.070955, 0 125.78750499999998, 0 125.78750499999998, 17.716549999999998 143.504055, 17.716549999999998 143.504055, 0 161.22060499999998, 0 161.22060499999998, 17.716549999999998 178.937155, 17.716549999999998 178.937155, 0 196.65370499999997, 0 196.65370499999997, 17.716549999999998 214.37025499999996, 17.716549999999998 214.37025499999996, 0 221.54545774999994, 0 221.54545774999994, 13.110247000000001 234.65570474999996, 13.110247000000001 234.65570474999996, 0 241.83090749999997, 0 241.83090749999997, 17.716549999999998 269.29156, 17.716549999999998 269.29156, 18.425212000000002 251.57501000000002, 18.425212000000002 251.57501000000002, 36.850424000000004 269.29156, 36.850424000000004 269.29156, 39.507906500000004 256.181313, 39.507906500000004 256.181313, 52.618153500000005 269.29156, 52.618153500000005 269.29156, 55.275636000000006 251.57501000000002, 55.275636000000006 251.57501000000002, 73.70084800000001 269.29156, 73.70084800000001 269.29155999999995, 74.40951 241.83090749999997, 74.40951 241.83090749999997, 92.12606 234.65570474999996, 92.12606 234.65570474999996, 79.015813 221.54545774999994, 79.015813 221.54545774999994, 92.12606 214.37025499999996, 92.12606 214.37025499999996, 74.40951 196.65370499999997, 74.40951 196.65370499999997, 92.12606 178.937155, 92.12606 178.937155, 74.40951 161.22060499999998, 74.40951 161.22060499999998, 92.12606 143.504055, 92.12606 143.504055, 74.40951 125.78750499999998, 74.40951 125.78750499999998, 92.12606 108.070955, 92.12606 108.070955, 74.40951 90.35440499999999, 74.40951 90.35440499999999, 92.12606 72.637855, 92.12606 72.637855, 74.40951 54.921305, 74.40951 54.921305, 92.12606 47.74610225, 92.12606 47.74610225, 79.015813 34.63585525, 79.015813 34.63585525, 92.12606 27.4606525, 92.12606 27.4606525, 74.40951 0, 74.40951000000001 0, 73.70084800000001 17.716549999999998, 73.70084800000001 17.716549999999998, 55.275636000000006 0, 55.275636000000006 0, 52.618153500000005 13.110247000000001, 52.618153500000005 13.110247000000001, 39.507906500000004 0, 39.507906500000004 0, 36.850424000000004 17.716549999999998, 36.850424000000004 17.716549999999998, 18.425212000000002 0, 18.425212000000002 "/> 
</g>
<!-- Bottom--> 
<g transform="translate(291.79157849999996, 398.0908785) " > 
<polygon style="stroke:#000000; fill:none; stroke-width:0.90000074" points="0, 17.716549999999998 27.4606525, 17.716549999999998 27.4606525, 0 34.63585525, 0 34.63585525, 13.110247000000001 47.74610225, 13.110247000000001 47.74610225, 0 54.921305, 0 54.921305, 17.716549999999998 72.637855, 17.716549999999998 72.637855, 0 90.35440499999999, 0 90.35440499999999, 17.716549999999998 108.070955, 17.716549999999998 108.070955, 0 125.78750499999998, 0 125.78750499999998, 17.716549999999998 143.504055, 17.716549999999998 143.504055, 0 161.22060499999998, 0 161.22060499999998, 17.716549999999998 178.937155, 17.716549999999998 178.937155, 0 196.65370499999997, 0 196.65370499999997, 17.716549999999998 214.37025499999996, 17.716549999999998 214.37025499999996, 0 221.54545774999994, 0 221.54545774999994, 13.110247000000001 234.65570474999996, 13.110247000000001 234.65570474999996, 0 241.83090749999997, 0 241.83090749999997, 17.716549999999998 269.29156, 17.716549999999998 269.29156, 18.425212000000002 251.57501000000002, 18.425212000000002 251.57501000000002, 36.850424000000004 269.29156, 36.850424000000004 269.29156, 39.507906500000004 256.181313, 39.507906500000004 256.181313, 52.618153500000005 269.29156, 52.618153500000005 269.29156, 55.275636000000006 251.57501000000002, 55.275636000000006 251.57501000000002, 73.70084800000001 269.29156, 73.70084800000001 269.29155999999995, 74.40951 241.83090749999997, 74.40951 241.83090749999997, 92.12606 234.65570474999996, 92.12606 234.65570474999996, 79.015813 221.54545774999994, 79.015813 221.54545774999994, 92.12606 214.37025499999996, 92.12606 214.37025499999996, 74.40951 196.65370499999997, 74.40951 196.65370499999997, 92.12606 178.937155, 92.12606 178.937155, 74.40951 161.22060499999998, 74.40951 161.22060499999998, 92.12606 143.504055, 92.12606 143.504055, 74.40951 125.78750499999998, 74.40951 125.78750499999998, 92.12606 108.070955, 92.12606 108.070955, 74.40951 90.35440499999999, 74.40951 90.35440499999999, 92.12606 72.637855, 92.12606 72.637855, 74.40951 54.921305, 74.40951 54.921305, 92.12606 47.74610225, 92.12606 47.74610225, 79.015813 34.63585525, 79.015813 34.63585525, 92.12606 27.4606525, 92.12606 27.4606525, 74.40951 0, 74.40951000000001 0, 73.70084800000001 17.716549999999998, 73.70084800000001 17.716549999999998, 55.275636000000006 0, 55.275636000000006 0, 52.618153500000005 13.110247000000001, 52.618153500000005 13.110247000000001, 39.507906500000004 0, 39.507906500000004 0, 36.850424000000004 17.716549999999998, 36.850424000000004 17.716549999999998, 18.425212000000002 0, 18.425212000000002 "/> 
</g></svg>