<svg xmlns="http://www.w3.org/2000/svg" version="1.1" width="235.7mm" height="244.7mm" viewBox = " 0 0 835.1581669999999 867.047957" >
<!-- Front--> 
<g transform="translate(22.5000185, 22.5000185) " > 
<polygon style="stroke:#000000; fill:none; stroke-width:0.90000074" points="10.62993, 0 26.574825, 0 26.574825, 10.62993 34.370107, 10.62993 34.370107, 18.070881 29.9409695, 18.070881 29.9409695, 26.929156 34.370107, 26.929156 34.370107, 35.787431 45.354368, 35.787431 45.354368, 26.929156 49.7835055, 26.929156 49.7835055, 18.070881 45.354368, 18.070881 45.354368, 10.62993 53.14965, 10.62993 53.14965, 0 74.40951, 0 74.40951, 10.62993 95.66937, 10.62993 95.66937, 0 116.92922999999999, 0 116.92922999999999, 10.62993 138.18909, 10.62993 138.18909, 0 159.44895, 0 159.44895, 10.62993 180.70881, 10.62993 180.70881, 0 201.96867, 0 201.96867, 10.62993 223.22853, 10.62993 223.22853, 0 244.48839, 0 244.48839, 10.62993 265.74825, 10.62993 265.74825, 0 287.00811, 0 287.00811, 10.62993 294.80339200000003, 10.62993 294.80339200000003, 18.070881 290.3742545, 18.070881 290.3742545, 26.929156 294.80339200000003, 26.929156 294.80339200000003, 35.787431 305.787653, 35.787431 305.787653, 26.929156 310.2167905, 26.929156 310.2167905, 18.070881 305.787653, 18.070881 305.787653, 10.62993 313.582935, 10.62993 313.582935, 0 329.52783, 0 329.52783, 33.661445 340.15776, 33.661445 340.15776, 43.937044 327.047513, 43.937044 327.047513, 57.047291 340.15776, 57.047291 340.15776, 67.32289 329.52783, 67.32289 329.52783, 88.58275 340.15776, 88.58275 340.15776, 109.84261000000001 329.52783, 109.84261000000001 329.52783, 131.10246999999998 340.15776, 131.10246999999998 340.15776, 152.36233 329.52783, 152.36233 329.52783, 173.62219 340.15776, 173.62219 340.15776, 194.88205 329.52783, 194.88205 329.52783, 216.14191 340.15776, 216.14191 340.15776, 237.40177 329.52783, 237.40177 329.52783, 258.66163 340.15776, 258.66163 340.15776, 279.92149 329.52783, 279.92149 329.52783, 301.18135 340.15776, 301.18135 340.15776, 322.44120999999996 329.52783, 322.44120999999996 329.52783, 343.70106999999996 340.15776, 343.70106999999996 340.15776, 353.976669 327.047513, 353.976669 327.047513, 367.086916 340.15776, 367.086916 340.15776, 377.362515 329.52783, 377.362515 329.52783, 411.02396 313.582935, 411.02396 313.582935, 400.39403 305.787653, 400.39403 305.787653, 392.953079 310.2167905, 392.953079 310.2167905, 384.094804 305.787653, 384.094804 305.787653, 375.23652899999996 294.80339200000003, 375.23652899999996 294.80339200000003, 384.094804 290.3742545, 384.094804 290.3742545, 392.953079 294.80339200000003, 392.953079 294.80339200000003, 400.39403 287.00811, 400.39403 287.00811, 411.02396 265.74825, 411.02396 265.74825, 400.39403 244.48839, 400.39403 244.48839, 411.02396 223.22853, 411.02396 223.22853, 400.39403 201.96867, 400.39403 201.96867, 411.02396 180.70881, 411.02396 180.70881, 400.39403 159.44895, 400.39403 159.44895, 411.02396 138.18909, 411.02396 138.18909, 400.39403 116.92922999999999, 400.39403 116.92922999999999, 411.02396 95.66937, 411.02396 95.66937, 400.39403 74.40951, 400.39403 74.40951, 411.02396 53.14965, 411.02396 53.14965, 400.39403 45.354368, 400.39403 45.354368, 392.953079 49.7835055, 392.953079 49.7835055, 384.094804 45.354368, 384.094804 45.354368, 375.23652899999996 34.370107, 375.23652899999996 34.370107, 384.094804 29.9409695, 384.094804 29.9409695, 392.953079 34.370107, 392.953079 34.370107, 400.39403 26.574825, 400.39403 26.574825, 411.02396 10.62993, 411.02396 10.62993, 377.362515 0, 377.362515 0, 367.086916 13.110247000000001, 367.086916 13.110247000000001, 353.976669 0, 353.976669 0, 343.70106999999996 10.62993, 343.70106999999996 10.62993, 322.44120999999996 0, 322.44120999999996 0, 301.18135 10.62993, 301.18135 10.62993, 279.92149 0, 279.92149 0, 258.66163 10.62993, 258.66163 10.62993, 237.40177 0, 237.40177 0, 216.14191 10.62993, 216.14191 10.62993, 194.88205 0, 194.88205 0, 173.62219 10.62993, 173.62219 10.62993, 152.36233 0, 152.36233 0, 131.10246999999998 10.62993, 131.10246999999998 10.62993, 109.84261000000001 0, 109.84261000000001 0, 88.58275 10.62993, 88.58275 10.62993, 67.32289 0, 67.32289 0, 57.047291 13.110247000000001, 57.047291 13.110247000000001, 43.937044 0, 43.937044 0, 33.661445 10.62993, 33.661445 "/> 
</g>
<!-- Back--> 
<g transform="translate(362.65777849999995, 22.5000185) " > 
<polygon style="stroke:#000000; fill:none; stroke-width:0.90000074" points="10.62993, 0 26.574825, 0 26.574825, 10.62993 34.370107, 10.62993 34.370107, 18.070881 29.9409695, 18.070881 29.9409695, 26.929156 34.370107, 26.929156 34.370107, 35.787431 45.354368, 35.787431 45.354368, 26.929156 49.7835055, 26.929156 49.7835055, 18.070881 45.354368, 18.070881 45.354368, 10.62993 53.14965, 10.62993 53.14965, 0 74.40951, 0 74.40951, 10.62993 95.66937, 10.62993 95.66937, 0 116.92922999999999, 0 116.92922999999999, 10.62993 138.18909, 10.62993 138.18909, 0 159.44895, 0 159.44895, 10.62993 180.70881, 10.62993 180.70881, 0 201.96867, 0 201.96867, 10.62993 223.22853, 10.62993 223.22853, 0 244.48839, 0 244.48839, 10.62993 265.74825, 10.62993 265.74825, 0 287.00811, 0 287.00811, 10.62993 294.80339200000003, 10.62993 294.80339200000003, 18.070881 290.3742545, 18.070881 290.3742545, 26.929156 294.80339200000003, 26.929156 294.80339200000003, 35.787431 305.787653, 35.787431 305.787653, 26.929156 310.2167905, 26.929156 310.2167905, 18.070881 305.787653, 18.070881 305.787653, 10.62993 313.582935, 10.62993 313.582935, 0 329.52783, 0 329.52783, 33.661445 340.15776, 33.661445 340.15776, 43.937044 327.047513, 43.937044 327.047513, 57.047291 340.15776, 57.047291 340.15776, 67.32289 329.52783, 67.32289 329.52783, 88.58275 340.15776, 88.58275 340.15776, 109.84261000000001 329.52783, 109.84261000000001 329.52783, 131.10246999999998 340.15776, 131.10246999999998 340.15776, 152.36233 329.52783, 152.36233 329.52783, 173.62219 340.15776, 173.62219 340.15776, 194.88205 329.52783, 194.88205 329.52783, 216.14191 340.15776, 216.14191 340.15776, 237.40177 329.52783, 237.40177 329.52783, 258.66163 340.15776, 258.66163 340.15776, 279.92149 329.52783, 279.92149 329.52783, 301.18135 340.15776, 301.18135 340.15776, 322.44120999999996 329.52783, 322.44120999999996 329.52783, 343.70106999999996 340.15776, 343.70106999999996 340.15776, 353.976669 327.047513, 353.976669 327.047513, 367.086916 340.15776, 367.086916 340.15776, 377.362515 329.52783, 377.362515 329.52783, 411.02396 313.582935, 411.02396 313.582935, 400.39403 305.787653, 400.39403 305.787653, 392.953079 310.2167905, 392.953079 310.2167905, 384.094804 305.787653, 384.094804 305.787653, 375.23652899999996 294.80339200000003, 375.23652899999996 294.80339200000003, 384.094804 290.3742545, 384.094804 290.3742545, 392.953079 294.80339200000003, 392.953079 294.80339200000003, 400.39403 287.00811, 400.39403 287.00811, 411.02396 265.74825, 411.02396 265.74825, 400.39403 244.48839, 400.39403 244.48839, 411.02396 223.22853, 411.02396 223.22853, 400.39403 201.96867, 400.39403 201.96867, 411.02396 180.70881, 411.02396 180.70881, 400.39403 159.44895, 400.39403 159.44895, 411.02396 138.18909, 411.02396 138.18909, 400.39403 116.92922999999999, 400.39403 116.92922999999999, 411.02396 95.66937, 411.02396 95.66937, 400.39403 74.40951, 400.39403 74.40951, 411.02396 53.14965, 411.02396 53.14965, 400.39403 45.354368, 400.39403 45.354368, 392.953079 49.7835055, 392.953079 49.7835055, 384.094804 45.354368, 384.094804 45.354368, 375.23652899999996 34.370107, 375.23652899999996 34.370107, 384.094804 29.9409695, 384.094804 29.9409695, 392.953079 34.370107, 392.953079 34.370107, 400.39403 26.574825, 400.39403 26.574825, 411.02396 10.62993, 411.02396 10.62993, 377.362515 0, 377.362515 0, 367.086916 13.110247000000001, 367.086916 13.110247000000001, 353.976669 0, 353.976669 0, 343.70106999999996 10.62993, 343.70106999999996 10.62993, 322.44120999999996 0, 322.44120999999996 0, 301.18135 10.62993, 301.18135 10.62993, 279.92149 0, 279.92149 0, 258.66163 10.62993, 258.66163 10.62993, 237.40177 0, 237.40177 0, 216.14191 10.62993, 216.14191 10.62993, 194.88205 0, 194.88205 0, 173.62219 10.62993, 173.62219 10.62993, 152.36233 0, 152.36233 0, 131.10246999999998 10.62993, 131.10246999999998 10.62993, 109.84261000000001 0, 109.84261000000001 0, 88.58275 10.62993, 88.58275 10.62993, 67.32289 0, 67.32289 0, 57.047291 13.110247000000001, 57.047291 13.110247000000001, 43.937044 0, 43.937044 0, 33.661445 10.62993, 33.661445 "/> 
</g>
<!-- Left--> 
<g transform="translate(702.8155385, 22.5000185) " > 
<polygon style="stroke:#000000; fill:none; stroke-width:0.90000074" points="0, 10.62993 21.968522, 10.62993 21.968522, 0 43.937044, 0 43.937044, 10.62993 49.4291745, 10.62993 49.4291745, 18.070881 45.000037000000006, 18.070881 45.000037000000006, 26.929156 49.4291745, 26.929156 49.4291745, 35.787431 60.413435500000006, 35.787431 60.413435500000006, 26.929156 64.842573, 26.929156 64.842573, 18.070881 60.413435500000006, 18.070881 60.413435500000006, 10.62993 65.905566, 10.62993 65.905566, 0 87.874088, 0 87.874088, 10.62993 109.84261, 10.62993 109.84261, 33.661445 99.21267999999999, 33.661445 99.21267999999999, 45.000037 91.771729, 45.000037 91.771729, 40.5708995 82.91345399999999, 40.5708995 82.91345399999999, 45.000037 74.055179, 45.000037 74.055179, 55.984298 82.91345399999999, 55.984298 82.91345399999999, 60.4134355 91.771729, 60.4134355 91.771729, 55.984298 99.21267999999999, 55.984298 99.21267999999999, 67.32289 109.84261, 67.32289 109.84261, 88.58275 99.21267999999999, 88.58275 99.21267999999999, 109.84261000000001 109.84261, 109.84261000000001 109.84261, 131.10246999999998 99.21267999999999, 131.10246999999998 99.21267999999999, 152.36233 109.84261, 152.36233 109.84261, 173.62219 99.21267999999999, 173.62219 99.21267999999999, 194.88205 109.84261, 194.88205 109.84261, 216.14191 99.21267999999999, 216.14191 99.21267999999999, 237.40177 109.84261, 237.40177 109.84261, 258.66163 99.21267999999999, 258.66163 99.21267999999999, 279.92149 109.84261, 279.92149 109.84261, 301.18135 99.21267999999999, 301.18135 99.21267999999999, 322.44120999999996 109.84261, 322.44120999999996 109.84261, 343.70106999999996 99.21267999999999, 343.70106999999996 99.21267999999999, 355.039662 91.771729, 355.039662 91.771729, 350.6105245 82.91345399999999, 350.6105245 82.91345399999999, 355.039662 74.055179, 355.039662 74.055179, 366.02392299999997 82.91345399999999, 366.02392299999997 82.91345399999999, 370.4530605 91.771729, 370.4530605 91.771729, 366.02392299999997 99.21267999999999, 366.02392299999997 99.21267999999999, 377.362515 109.84261, 377.362515 109.84261000000001, 400.39403 87.874088, 400.39403 87.874088, 411.02396 65.905566, 411.02396 65.905566, 400.39403 60.413435500000006, 400.39403 60.413435500000006, 392.953079 64.842573, 392.953079 64.842573, 384.094804 60.413435500000006, 384.094804 60.413435500000006, 375.23652899999996 49.4291745, 375.23652899999996 49.4291745, 384.094804 45.000037000000006, 384.094804 45.000037000000006, 392.953079 49.4291745, 392.953079 49.4291745, 400.39403 43.937044, 400.39403 43.937044, 411.02396 21.968522, 411.02396 21.968522, 400.39403 0, 400.39403 0, 377.362515 10.62993, 377.362515 10.62993, 366.02392299999997 18.070881, 366.02392299999997 18.070881, 370.4530605 26.929156, 370.4530605 26.929156, 366.02392299999997 35.787431, 366.02392299999997 35.787431, 355.039662 26.929156, 355.039662 26.929156, 350.6105245 18.070881, 350.6105245 18.070881, 355.039662 10.62993, 355.039662 10.62993, 343.70106999999996 0, 343.70106999999996 0, 322.44120999999996 10.62993, 322.44120999999996 10.62993, 301.18135 0, 301.18135 0, 279.92149 10.62993, 279.92149 10.62993, 258.66163 0, 258.66163 0, 237.40177 10.62993, 237.40177 10.62993, 216.14191 0, 216.14191 0, 194.88205 10.62993, 194.88205 10.62993, 173.62219 0, 173.62219 0, 152.36233 10.62993, 152.36233 10.62993, 131.10246999999998 0, 131.10246999999998 0, 109.84261000000001 10.62993, 109.84261000000001 10.62993, 88.58275 0, 88.58275 0, 67.32289 10.62993, 67.32289 10.62993, 55.984298 18.070881, 55.984298 18.070881, 60.4134355 26.929156, 60.4134355 26.929156, 55.984298 35.787431, 55.984298 35.787431, 45.000037 26.929156, 45.000037 26.929156, 40.5708995 18.070881, 40.5708995 18.070881, 45.000037 10.62993, 45.000037 10.62993, 33.661445 0, 33.661445 "/> 
</g>
<!-- Right--> 
<g transform="translate(702.8155385, 433.5239785) " > 
<polygon style="stroke:#000000; fill:none; stroke-width:0.90000074" points="0, 10.62993 21.968522, 10.62993 21.968522, 0 43.937044, 0 43.937044, 10.62993 49.4291745, 10.62993 49.4291745, 18.070881 45.000037000000006, 18.070881 45.000037000000006, 26.929156 49.4291745, 26.929156 49.4291745, 35.787431 60.413435500000006, 35.787431 60.413435500000006, 26.929156 64.842573, 26.929156 64.842573, 18.070881 60.413435500000006, 18.070881 60.413435500000006, 10.62993 65.905566, 10.62993 65.905566, 0 87.874088, 0 87.874088, 10.62993 109.84261, 10.62993 109.84261, 33.661445 99.21267999999999, 33.661445 99.21267999999999, 45.000037 91.771729, 45.000037 91.771729, 40.5708995 82.91345399999999, 40.5708995 82.91345399999999, 45.000037 74.055179, 45.000037 74.055179, 55.984298 82.91345399999999, 55.984298 82.91345399999999, 60.4134355 91.771729, 60.4134355 91.771729, 55.984298 99.21267999999999, 55.984298 99.21267999999999, 67.32289 109.84261, 67.32289 109.84261, 88.58275 99.21267999999999, 88.58275 99.21267999999999, 109.84261000000001 109.84261, 109.84261000000001 109.84261, 131.10246999999998 99.21267999999999, 131.10246999999998 99.21267999999999, 152.36233 109.84261, 152.36233 109.84261, 173.62219 99.21267999999999, 173.62219 99.21267999999999, 194.88205 109.84261, 194.88205 109.84261, 216.14191 99.21267999999999, 216.14191 99.21267999999999, 237.40177 109.84261, 237.40177 109.84261, 258.66163 99.21267999999999, 258.66163 99.21267999999999, 279.92149 109.84261, 279.92149 109.84261, 301.18135 99.21267999999999, 301.18135 99.21267999999999, 322.44120999999996 109.84261, 322.44120999999996 109.84261, 343.70106999999996 99.21267999999999, 343.70106999999996 99.21267999999999, 355.039662 91.771729, 355.039662 91.771729, 350.6105245 82.91345399999999, 350.6105245 82.91345399999999, 355.039662 74.055179, 355.039662 74.055179, 366.02392299999997 82.91345399999999, 366.02392299999997 82.91345399999999, 370.4530605 91.771729, 370.4530605 91.771729, 366.02392299999997 99.21267999999999, 366.02392299999997 99.21267999999999, 377.362515 109.84261, 377.362515 109.84261000000001, 400.39403 87.874088, 400.39403 87.874088, 411.02396 65.905566, 411.02396 65.905566, 400.39403 60.413435500000006, 400.39403 60.413435500000006, 392.953079 64.842573, 392.953079 64.842573, 384.094804 60.413435500000006, 384.094804 60.413435500000006, 375.23652899999996 49.4291745, 375.23652899999996 49.4291745, 384.094804 45.000037000000006, 384.094804 45.000037000000006, 392.953079 49.4291745, 392.953079 49.4291745, 400.39403 43.937044, 400.39403 43.937044, 411.02396 21.968522, 411.02396 21.968522, 400.39403 0, 400.39403 0, 377.362515 10.62993, 377.362515 10.62993, 366.02392299999997 18.070881, 366.02392299999997 18.070881, 370.4530605 26.929156, 370.4530605 26.929156, 366.02392299999997 35.787431, 366.02392299999997 35.787431, 355.039662 26.929156, 355.039662 26.929156, 350.6105245 18.070881, 350.6105245 18.070881, 355.039662 10.62993, 355.039662 10.62993, 343.70106999999996 0, 343.70106999999996 0, 322.44120999999996 10.62993, 322.44120999999996 10.62993, 301.18135 0, 301.18135 0, 279.92149 10.62993, 279.92149 10.62993, 258.66163 0, 258.66163 0, 237.40177 10.62993, 237.40177 10.62993, 216.14191 0, 216.14191 0, 194.88205 10.62993, 194.88205 10.62993, 173.62219 0, 173.62219 0, 152.36233 10.62993, 152.36233 10.62993, 131.10246999999998 0, 131.10246999999998 0, 109.84261000000001 10.62993, 109.84261000000001 10.62993, 88.58275 0, 88.58275 0, 67.32289 10.62993, 67.32289 10.62993, 55.984298 18.070881, 55.984298 18.070881, 60.4134355 26.929156, 60.4134355 26.929156, 55.984298 35.787431, 55.984298 35.787431, 45.000037 26.929156, 45.000037 26.929156, 40.5708995 18.070881, 40.5708995 18.070881, 45.000037 10.62993, 45.000037 10.62993, 33.661445 0, 33.661445 "/> 
</g>
<!-- Top--> 
<g transform="translate(22.5000185, 433.5239785) " > 
<polygon style="stroke:#000000; fill:none; stroke-width:0.90000074" points="0, 10.62993 26.574825, 10.62993 26.574825, 0 33.307114, 0 33.307114, 13.110247000000001 46.417361, 13.110247000000001 46.417361, 0 53.14965, 0 53.14965, 10.62993 74.40951, 10.62993 74.40951, 0 95.66937, 0 95.66937, 10.62993 116.92922999999999, 10.62993 116.92922999999999, 0 138.18909, 0 138.18909, 10.62993 159.44895, 10.62993 159.44895, 0 180.70881, 0 180.70881, 10.62993 201.96867, 10.62993 201.96867, 0 223.22853, 0 223.22853, 10.62993 244.48839, 10.62993 244.48839, 0 265.74825, 0 265.74825, 10.62993 287.00811, 10.62993 287.00811, 0 293.740399, 0 293.740399, 13.110247000000001 306.850646, 13.110247000000001 306.850646, 0 313.582935, 0 313.582935, 10.62993 340.15776, 10.62993 340.15776, 21.968522 329.52783, 21.968522 329.52783, 43.937044 340.15776, 43.937044 340.15776, 48.3661815 327.047513, 48.3661815 327.047513, 61.476428500000004 340.15776, 61.476428500000004 340.15776, 65.905566 329.52783, 65.905566 329.52783, 87.874088 340.15776, 87.874088 340.15776, 99.21267999999999 313.582935, 99.21267999999999 313.582935, 109.84261 306.850646, 109.84261 306.850646, 96.73236299999999 293.740399, 96.73236299999999 293.740399, 109.84261 287.00811, 109.84261 287.00811, 99.21267999999999 265.74825, 99.21267999999999 265.74825, 109.84261 244.48839, 109.84261 244.48839, 99.21267999999999 223.22853, 99.21267999999999 223.22853, 109.84261 201.96867, 109.84261 201.96867, 99.21267999999999 180.70881, 99.21267999999999 180.70881, 109.84261 159.44895, 109.84261 159.44895, 99.21267999999999 138.18909, 99.21267999999999 138.18909, 109.84261 116.92922999999999, 109.84261 116.92922999999999, 99.21267999999999 95.66937, 99.21267999999999 95.66937, 109.84261 74.40951, 109.84261 74.40951, 99.21267999999999 53.14965, 99.21267999999999 53.14965, 109.84261 46.417361, 109.84261 46.417361, 96.73236299999999 33.307114, 96.73236299999999 33.307114, 109.84261 26.574825, 109.84261 26.574825, 99.21267999999999 0, 99.21268 0, 87.874088 10.62993, 87.874088 10.62993, 65.905566 0, 65.905566 0, 61.476428500000004 13.110247000000001, 61.476428500000004 13.110247000000001, 48.3661815 0, 48.3661815 0, 43.937044 10.62993, 43.937044 10.62993, 21.968522 0, 21.968522 "/> 
</g>
<!-- Bottom--> 
<g transform="translate(362.65777849999995, 433.5239785) " > 
<polygon style="stroke:#000000; fill:none; stroke-width:0.90000074" points="0, 10.62993 26.574825, 10.62993 26.574825, 0 33.307114, 0 33.307114, 13.110247000000001 46.417361, 13.110247000000001 46.417361, 0 53.14965, 0 53.14965, 10.62993 74.40951, 10.62993 74.40951, 0 95.66937, 0 95.66937, 10.62993 116.92922999999999, 10.62993 116.92922999999999, 0 138.18909, 0 138.18909, 10.62993 159.44895, 10.62993 159.44895, 0 180.70881, 0 180.70881, 10.62993 201.96867, 10.62993 201.96867, 0 223.22853, 0 223.22853, 10.62993 244.48839, 10.62993 244.48839, 0 265.74825, 0 265.74825, 10.62993 287.00811, 10.62993 287.00811, 0 293.740399, 0 293.740399, 13.110247000000001 306.850646, 13.110247000000001 306.850646, 0 313.582935, 0 313.582935, 10.62993 340.15776, 10.62993 340.15776, 21.968522 329.52783, 21.968522 329.52783, 43.937044 340.15776, 43.937044 340.15776, 48.3661815 327.047513, 48.3661815 327.047513, 61.476428500000004 340.15776, 61.476428500000004 340.15776, 65.905566 329.52783, 65.905566 329.52783, 87.874088 340.15776, 87.874088 340.15776, 99.21267999999999 313.582935, 99.21267999999999 313.582935, 109.84261 306.850646, 109.84261 306.850646, 96.73236299999999 293.740399, 96.73236299999999 293.740399, 109.84261 287.00811, 109.84261 287.00811, 99.21267999999999 265.74825, 99.21267999999999 265.74825, 109.84261 244.48839, 109.84261 244.48839, 99.21267999999999 223.22853, 99.21267999999999 223.22853, 109.84261 201.96867, 109.84261 201.96867, 99.21267999999999 180.70881, 99.21267999999999 180.70881, 109.84261 159.44895, 109.84261 159.44895, 99.21267999999999 138.18909, 99.21267999999999 138.18909, 109.84261 116.92922999999999, 109.84261 116.92922999999999, 99.21267999999999 95.66937, 99.21267999999999 95.66937, 109.84261 74.40951, 109.84261 74.40951, 99.21267999999999 53.14965, 99.21267999999999 53.14965, 109.84261 46.417361, 109.84261 46.417361, 96.73236299999999 33.307114, 96.73236299999999 33.307114, 109.84261 26.574825, 109.84261 26.574825, 99.21267999999999 0, 99.21268 0, 87.874088 10.62993, 87.874088 10.62993, 65.905566 0, 65.905566 0, 61.476428500000004 13.110247000000001, 61.476428500000004 13.110247000000001, 48.3661815 0, 48.3661815 0, 43.937044 10.62993, 43.937044 10.62993, 21.968522 0, 21.968522 "/> 
</g></svg>