<svg xmlns="http://www.w3.org/2000/svg" version="1.1" width="202.7mm" height="292.7mm" viewBox = " 0 0 718.228937 1037.126837" >
<!-- Front--> 
<g transform="translate(22.5000185, 22.5000185) " > 
<polygon style="stroke:#000000; fill:none; stroke-width:0.90000074" points="17.716549999999998, 0 53.14965, 0 53.14965, 17.716549999999998 74.2323445, 17.716549999999998 74.2323445, 39.330741 69.803207, 39.330741 69.803207, 48.189016 74.2323445, 48.189016 74.2323445, 57.047291 85.2166055, 57.047291 85.2166055, 48.189016 89.645743, 48.189016 89.645743, 39.330741 85.2166055, 39.330741 85.2166055, 17.716549999999998 106.2993, 17.716549999999998 106.2993, 0 141.73239999999998, 0 141.73239999999998, 17.716549999999998 162.8150945, 17.716549999999998 162.8150945, 39.330741 158.385957, 39.330741 158.385957, 48.189016 162.8150945, 48.189016 162.8150945, 57.047291 173.7993555, 57.047291 173.7993555, 48.189016 178.228493, 48.189016 178.228493, 39.330741 173.7993555, 39.330741 173.7993555, 17.716549999999998 194.88205, 17.716549999999998 194.88205, 0 230.31515000000002, 0 230.31515000000002, 44.291375 248.0317, 44.291375 248.0317, 59.881938999999996 234.92145299999999, 59.881938999999996 234.92145299999999, 72.992186 248.0317, 72.992186 248.0317, 88.58275 230.31515000000002, 88.58275 230.31515000000002, 124.01585 248.0317, 124.01585 248.0317, 159.44895 230.31515000000002, 159.44895 230.31515000000002, 194.88205 248.0317, 194.88205 248.0317, 230.31515 230.31515000000002, 230.31515 230.31515000000002, 265.74825 248.0317, 265.74825 248.0317, 301.18134999999995 230.31515000000002, 301.18134999999995 230.31515000000002, 336.61445 248.0317, 336.61445 248.0317, 372.04755 230.31515000000002, 372.04755 230.31515000000002, 407.48064999999997 248.0317, 407.48064999999997 248.0317, 423.071214 234.92145299999999, 423.071214 234.92145299999999, 436.18146099999996 248.0317, 436.18146099999996 248.0317, 451.7720249999999 230.31515000000002, 451.7720249999999 230.31515000000002, 496.0634 194.88205, 496.0634 194.88205, 478.34685 173.7993555, 478.34685 173.7993555, 456.732659 178.228493, 456.732659 178.228493, 447.874384 173.7993555, 447.874384 173.7993555, 439.01610900000003 162.8150945, 439.01610900000003 162.8150945, 447.874384 158.385957, 447.874384 158.385957, 456.732659 162.8150945, 456.732659 162.8150945, 478.34685 141.73239999999998, 478.34685 141.73239999999998, 496.0634 106.2993, 496.0634 106.2993, 478.34685 85.2166055, 478.34685 85.2166055, 456.732659 89.645743, 456.732659 89.645743, 447.874384 85.2166055, 447.874384 85.2166055, 439.01610900000003 74.2323445, 439.01610900000003 74.2323445, 447.874384 69.803207, 447.874384 69.803207, 456.732659 74.2323445, 456.732659 74.2323445, 478.34685 53.14965, 478.34685 53.14965, 496.0634 17.716549999999998, 496.06339999999994 17.716549999999998, 451.7720249999999 0, 451.7720249999999 0, 436.18146099999996 13.110247000000001, 436.18146099999996 13.110247000000001, 423.071214 0, 423.071214 0, 407.48064999999997 17.716549999999998, 407.48064999999997 17.716549999999998, 372.04755 0, 372.04755 0, 336.61445 17.716549999999998, 336.61445 17.716549999999998, 301.18134999999995 0, 301.18134999999995 0, 265.74825 17.716549999999998, 265.74825 17.716549999999998, 230.31515 0, 230.31515 0, 194.88205 17.716549999999998, 194.88205 17.716549999999998, 159.44895 0, 159.44895 0, 124.01585 17.716549999999998, 124.01585 17.716549999999998, 88.58275 0, 88.58275 0, 72.992186 13.110247000000001, 72.992186 13.110247000000001, 59.881938999999996 0, 59.881938999999996 0, 44.291375 17.716549999999998, 44.291375 "/> 
</g>
<!-- Back--> 
<g transform="translate(270.53171849999995, 22.5000185) " > 
<polygon style="stroke:#000000; fill:none; stroke-width:0.90000074" points="17.716549999999998, 0 53.14965, 0 53.14965, 17.716549999999998 74.2323445, 17.716549999999998 74.2323445, 39.330741 69.803207, 39.330741 69.803207, 48.189016 74.2323445, 48.189016 74.2323445, 57.047291 85.2166055, 57.047291 85.2166055, 48.189016 89.645743, 48.189016 89.645743, 39.330741 85.2166055, 39.330741 85.2166055, 17.716549999999998 106.2993, 17.716549999999998 106.2993, 0 141.73239999999998, 0 141.73239999999998, 17.716549999999998 162.8150945, 17.716549999999998 162.8150945, 39.330741 158.385957, 39.330741 158.385957, 48.189016 162.8150945, 48.189016 162.8150945, 57.047291 173.7993555, 57.047291 173.7993555, 48.189016 178.228493, 48.189016 178.228493, 39.330741 173.7993555, 39.330741 173.7993555, 17.716549999999998 194.88205, 17.716549999999998 194.88205, 0 230.31515000000002, 0 230.31515000000002, 44.291375 248.0317, 44.291375 248.0317, 59.881938999999996 234.92145299999999, 59.881938999999996 234.92145299999999, 72.992186 248.0317, 72.992186 248.0317, 88.58275 230.31515000000002, 88.58275 230.31515000000002, 124.01585 248.0317, 124.01585 248.0317, 159.44895 230.31515000000002, 159.44895 230.31515000000002, 194.88205 248.0317, 194.88205 248.0317, 230.31515 230.31515000000002, 230.31515 230.31515000000002, 265.74825 248.0317, 265.74825 248.0317, 301.18134999999995 230.31515000000002, 301.18134999999995 230.31515000000002, 336.61445 248.0317, 336.61445 248.0317, 372.04755 230.31515000000002, 372.04755 230.31515000000002, 407.48064999999997 248.0317, 407.48064999999997 248.0317, 423.071214 234.92145299999999, 423.071214 234.92145299999999, 436.18146099999996 248.0317, 436.18146099999996 248.0317, 451.7720249999999 230.31515000000002, 451.7720249999999 230.31515000000002, 496.0634 194.88205, 496.0634 194.88205, 478.34685 173.7993555, 478.34685 173.7993555, 456.732659 178.228493, 456.732659 178.228493, 447.874384 173.7993555, 447.874384 173.7993555, 439.01610900000003 162.8150945, 439.01610900000003 162.8150945, 447.874384 158.385957, 447.874384 158.385957, 456.732659 162.8150945, 456.732659 162.8150945, 478.34685 141.73239999999998, 478.34685 141.73239999999998, 496.0634 106.2993, 496.0634 106.2993, 478.34685 85.2166055, 478.34685 85.2166055, 456.732659 89.645743, 456.732659 89.645743, 447.874384 85.2166055, 447.874384 85.2166055, 439.01610900000003 74.2323445, 439.01610900000003 74.2323445, 447.874384 69.803207, 447.874384 69.803207, 456.732659 74.2323445, 456.732659 74.2323445, 478.34685 53.14965, 478.34685 53.14965, 496.0634 17.716549999999998, 496.06339999999994 17.716549999999998, 451.7720249999999 0, 451.7720249999999 0, 436.18146099999996 13.110247000000001, 436.18146099999996 13.110247000000001, 423.071214 0, 423.071214 0, 407.48064999999997 17.716549999999998, 407.48064999999997 17.716549999999998, 372.04755 0, 372.04755 0, 336.61445 17.716549999999998, 336.61445 17.716549999999998, 301.18134999999995 0, 301.18134999999995 0, 265.74825 17.716549999999998, 265.74825 17.716549999999998, 230.31515 0, 230.31515 0, 194.88205 17.716549999999998, 194.88205 17.716549999999998, 159.44895 0, 159.44895 0, 124.01585 17.716549999999998, 124.01585 17.716549999999998, 88.58275 0, 88.58275 0, 72.992186 13.110247000000001, 72.992186 13.110247000000001, 59.881938999999996 0, 59.881938999999996 0, 44.291375 17.716549999999998, 44.291375 "/> 
</g>
<!-- Left--> 
<g transform="translate(518.5634185, 22.5000185) " > 
<polygon style="stroke:#000000; fill:none; stroke-width:0.90000074" points="0, 17.716549999999998 35.433099999999996, 17.716549999999998 35.433099999999996, 0 70.86619999999999, 0 70.86619999999999, 17.716549999999998 83.09061949999999, 17.716549999999998 83.09061949999999, 39.330741 78.66148199999999, 39.330741 78.66148199999999, 48.189016 83.09061949999999, 48.189016 83.09061949999999, 57.047291 94.07488049999999, 57.047291 94.07488049999999, 48.189016 98.50401799999999, 48.189016 98.50401799999999, 39.330741 94.07488049999999, 39.330741 94.07488049999999, 17.716549999999998 106.29929999999999, 17.716549999999998 106.29929999999999, 0 141.73239999999998, 0 141.73239999999998, 17.716549999999998 177.1655, 17.716549999999998 177.1655, 44.291375 159.44895000000002, 44.291375 159.44895000000002, 60.944931999999994 137.83475900000002, 60.944931999999994 137.83475900000002, 56.5157945 128.97648400000003, 56.5157945 128.97648400000003, 60.944931999999994 120.11820900000002, 60.944931999999994 120.11820900000002, 71.929193 128.97648400000003, 71.929193 128.97648400000003, 76.3583305 137.83475900000002, 76.3583305 137.83475900000002, 71.929193 159.44895000000002, 71.929193 159.44895000000002, 88.58275 177.1655, 88.58275 177.1655, 124.01585 159.44895000000002, 124.01585 159.44895000000002, 159.44895 177.1655, 159.44895 177.1655, 194.88205 159.44895000000002, 194.88205 159.44895000000002, 230.31515 177.1655, 230.31515 177.1655, 265.74825 159.44895000000002, 265.74825 159.44895000000002, 301.18134999999995 177.1655, 301.18134999999995 177.1655, 336.61445 159.44895000000002, 336.61445 159.44895000000002, 372.04755 177.1655, 372.04755 177.1655, 407.48064999999997 159.44895000000002, 407.48064999999997 159.44895000000002, 424.134207 137.83475900000002, 424.134207 137.83475900000002, 419.7050695 128.97648400000003, 419.7050695 128.97648400000003, 424.134207 120.11820900000002, 424.134207 120.11820900000002, 435.11846799999995 128.97648400000003, 435.11846799999995 128.97648400000003, 439.5476055 137.83475900000002, 439.5476055 137.83475900000002, 435.11846799999995 159.44895000000002, 435.11846799999995 159.44895000000002, 451.7720249999999 177.1655, 451.7720249999999 177.16549999999998, 478.34685 141.73239999999998, 478.34685 141.73239999999998, 496.0634 106.29929999999999, 496.0634 106.29929999999999, 478.34685 94.07488049999999, 478.34685 94.07488049999999, 456.732659 98.50401799999999, 456.732659 98.50401799999999, 447.874384 94.07488049999999, 447.874384 94.07488049999999, 439.01610900000003 83.09061949999999, 439.01610900000003 83.09061949999999, 447.874384 78.66148199999999, 447.874384 78.66148199999999, 456.732659 83.09061949999999, 456.732659 83.09061949999999, 478.34685 70.86619999999999, 478.34685 70.86619999999999, 496.0634 35.433099999999996, 496.0634 35.433099999999996, 478.34685 0, 478.34684999999996 0, 451.7720249999999 17.716549999999998, 451.7720249999999 17.716549999999998, 435.11846799999995 39.330741, 435.11846799999995 39.330741, 439.5476055 48.189016, 439.5476055 48.189016, 435.11846799999995 57.047291, 435.11846799999995 57.047291, 424.134207 48.189016, 424.134207 48.189016, 419.7050695 39.330741, 419.7050695 39.330741, 424.134207 17.716549999999998, 424.134207 17.716549999999998, 407.48064999999997 0, 407.48064999999997 0, 372.04755 17.716549999999998, 372.04755 17.716549999999998, 336.61445 0, 336.61445 0, 301.18134999999995 17.716549999999998, 301.18134999999995 17.716549999999998, 265.74825 0, 265.74825 0, 230.31515 17.716549999999998, 230.31515 17.716549999999998, 194.88205 0, 194.88205 0, 159.44895 17.716549999999998, 159.44895 17.716549999999998, 124.01585 0, 124.01585 0, 88.58275 17.716549999999998, 88.58275 17.716549999999998, 71.929193 39.330741, 71.929193 39.330741, 76.3583305 48.189016, 76.3583305 48.189016, 71.929193 57.047291, 71.929193 57.047291, 60.944931999999994 48.189016, 60.944931999999994 48.189016, 56.5157945 39.330741, 56.5157945 39.330741, 60.944931999999994 17.716549999999998, 60.944931999999994 17.716549999999998, 44.291375 0, 44.291375 "/> 
</g>
<!-- Right--> 
<g transform="translate(518.5634185, 518.5634185) " > 
<polygon style="stroke:#000000; fill:none; stroke-width:0.90000074" points="0, 17.716549999999998 35.433099999999996, 17.716549999999998 35.433099999999996, 0 70.86619999999999, 0 70.86619999999999, 17.716549999999998 83.09061949999999, 17.716549999999998 83.09061949999999, 39.330741 78.66148199999999, 39.330741 78.66148199999999, 48.189016 83.09061949999999, 48.189016 83.09061949999999, 57.047291 94.07488049999999, 57.047291 94.07488049999999, 48.189016 98.50401799999999, 48.189016 98.50401799999999, 39.330741 94.07488049999999, 39.330741 94.07488049999999, 17.716549999999998 106.29929999999999, 17.716549999999998 106.29929999999999, 0 141.73239999999998, 0 141.73239999999998, 17.716549999999998 177.1655, 17.716549999999998 177.1655, 44.291375 159.44895000000002, 44.291375 159.44895000000002, 60.944931999999994 137.83475900000002, 60.944931999999994 137.83475900000002, 56.5157945 128.97648400000003, 56.5157945 128.97648400000003, 60.944931999999994 120.11820900000002, 60.944931999999994 120.11820900000002, 71.929193 128.97648400000003, 71.929193 128.97648400000003, 76.3583305 137.83475900000002, 76.3583305 137.83475900000002, 71.929193 159.44895000000002, 71.929193 159.44895000000002, 88.58275 177.1655, 88.58275 177.1655, 124.01585 159.44895000000002, 124.01585 159.44895000000002, 159.44895 177.1655, 159.44895 177.1655, 194.88205 159.44895000000002, 194.88205 159.44895000000002, 230.31515 177.1655, 230.31515 177.1655, 265.74825 159.44895000000002, 265.74825 159.44895000000002, 301.18134999999995 177.1655, 301.18134999999995 177.1655, 336.61445 159.44895000000002, 336.61445 159.44895000000002, 372.04755 177.1655, 372.04755 177.1655, 407.48064999999997 159.44895000000002, 407.48064999999997 159.44895000000002, 424.134207 137.83475900000002, 424.134207 137.83475900000002, 419.7050695 128.97648400000003, 419.7050695 128.97648400000003, 424.134207 120.11820900000002, 424.134207 120.11820900000002, 435.11846799999995 128.97648400000003, 435.11846799999995 128.97648400000003, 439.5476055 137.83475900000002, 439.5476055 137.83475900000002, 435.11846799999995 159.44895000000002, 435.11846799999995 159.44895000000002, 451.7720249999999 177.1655, 451.7720249999999 177.16549999999998, 478.34685 141.73239999999998, 478.34685 141.73239999999998, 496.0634 106.29929999999999, 496.0634 106.29929999999999, 478.34685 94.07488049999999, 478.34685 94.07488049999999, 456.732659 98.50401799999999, 456.732659 98.50401799999999, 447.874384 94.07488049999999, 447.874384 94.07488049999999, 439.01610900000003 83.09061949999999, 439.01610900000003 83.09061949999999, 447.874384 78.66148199999999, 447.874384 78.66148199999999, 456.732659 83.09061949999999, 456.732659 83.09061949999999, 478.34685 70.86619999999999, 478.34685 70.86619999999999, 496.0634 35.433099999999996, 496.0634 35.433099999999996, 478.34685 0, 478.34684999999996 0, 451.7720249999999 17.716549999999998, 451.7720249999999 17.716549999999998, 435.11846799999995 39.330741, 435.11846799999995 39.330741, 439.5476055 48.189016, 439.5476055 48.189016, 435.11846799999995 57.047291, 435.11846799999995 57.047291, 424.134207 48.189016, 424.134207 48.189016, 419.7050695 39.330741, 419.7050695 39.330741, 424.134207 17.716549999999998, 424.134207 17.716549999999998, 407.48064999999997 0, 407.48064999999997 0, 372.04755 17.716549999999998, 372.04755 17.716549999999998, 336.61445 0, 336.61445 0, 301.18134999999995 17.716549999999998, 301.18134999999995 17.716549999999998, 265.74825 0, 265.74825 0, 230.31515 17.716549999999998, 230.31515 17.716549999999998, 194.88205 0, 194.88205 0, 159.44895 17.716549999999998, 159.44895 17.716549999999998, 124.01585 0, 124.01585 0, 88.58275 17.716549999999998, 88.58275 17.716549999999998, 71.929193 39.330741, 71.929193 39.330741, 76.3583305 48.189016, 76.3583305 48.189016, 71.929193 57.047291, 71.929193 57.047291, 60.944931999999994 48.189016, 60.944931999999994 48.189016, 56.5157945 39.330741, 56.5157945 39.330741, 60.944931999999994 17.716549999999998, 60.944931999999994 17.716549999999998, 44.291375 0, 44.291375 "/> 
</g>
<!-- Top--> 
<g transform="translate(22.5000185, 518.5634185) " > 
<polygon style="stroke:#000000; fill:none; stroke-width:0.90000074" points="0, 17.716549999999998 53.14965, 17.716549999999998 53.14965, 0 73.1693515, 0 73.1693515, 13.110247000000001 86.27959849999999, 13.110247000000001 86.27959849999999, 0 106.2993, 0 106.2993, 17.716549999999998 141.73239999999998, 17.716549999999998 141.73239999999998, 0 161.75210149999998, 0 161.75210149999998, 13.110247000000001 174.8623485, 13.110247000000001 174.8623485, 0 194.88205, 0 194.88205, 17.716549999999998 248.0317, 17.716549999999998 248.0317, 35.433099999999996 230.31515000000002, 35.433099999999996 230.31515000000002, 70.86619999999999 248.0317, 70.86619999999999 248.0317, 82.0276265 234.92145299999999, 82.0276265 234.92145299999999, 95.13787349999998 248.0317, 95.13787349999998 248.0317, 106.29929999999999 230.31515000000002, 106.29929999999999 230.31515000000002, 141.73239999999998 248.0317, 141.73239999999998 248.0317, 159.44895000000002 194.88205, 159.44895000000002 194.88205, 177.1655 174.8623485, 177.1655 174.8623485, 164.055253 161.75210149999998, 164.055253 161.75210149999998, 177.1655 141.73239999999998, 177.1655 141.73239999999998, 159.44895000000002 106.2993, 159.44895000000002 106.2993, 177.1655 86.27959849999999, 177.1655 86.27959849999999, 164.055253 73.1693515, 164.055253 73.1693515, 177.1655 53.14965, 177.1655 53.14965, 159.44895000000002 0, 159.44894999999997 0, 141.73239999999998 17.716549999999998, 141.73239999999998 17.716549999999998, 106.29929999999999 0, 106.29929999999999 0, 95.13787349999998 13.110247000000001, 95.13787349999998 13.110247000000001, 82.0276265 0, 82.0276265 0, 70.86619999999999 17.716549999999998, 70.86619999999999 17.716549999999998, 35.433099999999996 0, 35.433099999999996 "/> 
</g>
<!-- Bottom--> 
<g transform="translate(270.53171849999995, 518.5634185) " > 
<polygon style="stroke:#000000; fill:none; stroke-width:0.90000074" points="0, 17.716549999999998 53.14965, 17.716549999999998 53.14965, 0 73.1693515, 0 73.1693515, 13.110247000000001 86.27959849999999, 13.110247000000001 86.27959849999999, 0 106.2993, 0 106.2993, 17.716549999999998 141.73239999999998, 17.716549999999998 141.73239999999998, 0 161.75210149999998, 0 161.75210149999998, 13.110247000000001 174.8623485, 13.110247000000001 174.8623485, 0 194.88205, 0 194.88205, 17.716549999999998 248.0317, 17.716549999999998 248.0317, 35.433099999999996 230.31515000000002, 35.433099999999996 230.31515000000002, 70.86619999999999 248.0317, 70.86619999999999 248.0317, 82.0276265 234.92145299999999, 82.0276265 234.92145299999999, 95.13787349999998 248.0317, 95.13787349999998 248.0317, 106.29929999999999 230.31515000000002, 106.29929999999999 230.31515000000002, 141.73239999999998 248.0317, 141.73239999999998 248.0317, 159.44895000000002 194.88205, 159.44895000000002 194.88205, 177.1655 174.8623485, 177.1655 174.8623485, 164.055253 161.75210149999998, 164.055253 161.75210149999998, 177.1655 141.73239999999998, 177.1655 141.73239999999998, 159.44895000000002 106.2993, 159.44895000000002 106.2993, 177.1655 86.27959849999999, 177.1655 86.27959849999999, 164.055253 73.1693515, 164.055253 73.1693515, 177.1655 53.14965, 177.1655 53.14965, 159.44895000000002 0, 159.44894999999997 0, 141.73239999999998 17.716549999999998, 141.73239999999998 17.716549999999998, 106.29929999999999 0, 106.29929999999999 0, 95.13787349999998 13.110247000000001, 95.13787349999998 13.110247000000001, 82.0276265 0, 82.0276265 0, 70.86619999999999 17.716549999999998, 70.86619999999999 17.716549999999998, 35.433099999999996 0, 35.433099999999996 "/> 
</g></svg>