<svg xmlns="http://www.w3.org/2000/svg" version="1.1" width="202.7mm" height="296.7mm" viewBox = " 0 0 718.228937 1051.3000769999999" >
<!-- Front--> 
<g transform="translate(22.5000185, 22.5000185) " > 
<polygon style="stroke:#000000; fill:none; stroke-width:0.90000074" points="17.716549999999998, 0 31.0039625, 0 31.0039625, 17.716549999999998 41.01381325, 17.716549999999998 41.01381325, 39.330741 36.58467575, 39.330741 36.58467575, 48.189016 41.01381325, 48.189016 41.01381325, 57.047291 51.99807425, 57.047291 51.99807425, 48.189016 56.42721175, 48.189016 56.42721175, 39.330741 51.99807425, 39.330741 51.99807425, 17.716549999999998 62.007925, 17.716549999999998 62.007925, 0 86.811095, 0 86.811095, 17.716549999999998 111.614265, 17.716549999999998 111.614265, 0 136.417435, 0 136.417435, 17.716549999999998 161.220605, 17.716549999999998 161.220605, 0 186.023775, 0 186.023775, 17.716549999999998 196.03362575, 17.716549999999998 196.03362575, 39.330741 191.60448825, 39.330741 191.60448825, 48.189016 196.03362575, 48.189016 196.03362575, 57.047291 207.01788675, 57.047291 207.01788675, 48.189016 211.44702425, 48.189016 211.44702425, 39.330741 207.01788675, 39.330741 207.01788675, 17.716549999999998 217.0277375, 17.716549999999998 217.0277375, 0 230.31515000000002, 0 230.31515000000002, 32.7756175 248.0317, 32.7756175 248.0317, 42.60830275 234.92145299999999, 42.60830275 234.92145299999999, 55.71854975 248.0317, 55.71854975 248.0317, 65.551235 230.31515000000002, 65.551235 230.31515000000002, 90.35440500000001 248.0317, 90.35440500000001 248.0317, 115.15757500000001 230.31515000000002, 115.15757500000001 230.31515000000002, 139.96074500000003 248.0317, 139.96074500000003 248.0317, 164.763915 230.31515000000002, 164.763915 230.31515000000002, 189.56708500000002 248.0317, 189.56708500000002 248.0317, 214.37025500000004 230.31515000000002, 214.37025500000004 230.31515000000002, 239.173425 248.0317, 239.173425 248.0317, 263.97659500000003 230.31515000000002, 263.97659500000003 230.31515000000002, 288.779765 248.0317, 288.779765 248.0317, 313.582935 230.31515000000002, 313.582935 230.31515000000002, 338.38610500000004 248.0317, 338.38610500000004 248.0317, 363.18927500000007 230.31515000000002, 363.18927500000007 230.31515000000002, 387.99244500000003 248.0317, 387.99244500000003 248.0317, 412.79561500000005 230.31515000000002, 412.79561500000005 230.31515000000002, 437.598785 248.0317, 437.598785 248.0317, 447.43147025 234.92145299999999, 447.43147025 234.92145299999999, 460.54171725 248.0317, 460.54171725 248.0317, 470.3744025 230.31515000000002, 470.3744025 230.31515000000002, 503.15002 217.0277375, 503.15002 217.0277375, 485.43347 207.01788675, 485.43347 207.01788675, 463.819279 211.44702425, 463.819279 211.44702425, 454.961004 207.01788675, 454.961004 207.01788675, 446.102729 196.03362575, 446.102729 196.03362575, 454.961004 191.60448825, 454.961004 191.60448825, 463.819279 196.03362575, 463.819279 196.03362575, 485.43347 186.023775, 485.43347 186.023775, 503.15002 161.220605, 503.15002 161.220605, 485.43347 136.417435, 485.43347 136.417435, 503.15002 111.614265, 503.15002 111.614265, 485.43347 86.811095, 485.43347 86.811095, 503.15002 62.007925, 503.15002 62.007925, 485.43347 51.99807425, 485.43347 51.99807425, 463.819279 56.42721175, 463.819279 56.42721175, 454.961004 51.99807425, 454.961004 51.99807425, 446.102729 41.01381325, 446.102729 41.01381325, 454.961004 36.58467575, 454.961004 36.58467575, 463.819279 41.01381325, 463.819279 41.01381325, 485.43347 31.0039625, 485.43347 31.0039625, 503.15002 17.716549999999998, 503.15002000000004 17.716549999999998, 470.3744025 0, 470.3744025 0, 460.54171725 13.110247000000001, 460.54171725 13.110247000000001, 447.43147025 0, 447.43147025 0, 437.598785 17.716549999999998, 437.598785 17.716549999999998, 412.79561500000005 0, 412.79561500000005 0, 387.99244500000003 17.716549999999998, 387.99244500000003 17.716549999999998, 363.18927500000007 0, 363.18927500000007 0, 338.38610500000004 17.716549999999998, 338.38610500000004 17.716549999999998, 313.582935 0, 313.582935 0, 288.779765 17.716549999999998, 288.779765 17.716549999999998, 263.97659500000003 0, 263.97659500000003 0, 239.173425 17.716549999999998, 239.173425 17.716549999999998, 214.37025500000004 0, 214.37025500000004 0, 189.56708500000002 17.716549999999998, 189.56708500000002 17.716549999999998, 164.763915 0, 164.763915 0, 139.96074500000003 17.716549999999998, 139.96074500000003 17.716549999999998, 115.15757500000001 0, 115.15757500000001 0, 90.35440500000001 17.716549999999998, 90.35440500000001 17.716549999999998, 65.551235 0, 65.551235 0, 55.71854975 13.110247000000001, 55.71854975 13.110247000000001, 42.60830275 0, 42.60830275 0, 32.7756175 17.716549999999998, 32.7756175 "/> 
</g>
<!-- Back--> 
<g transform="translate(270.53171849999995, 22.5000185) " > 
<polygon style="stroke:#000000; fill:none; stroke-width:0.90000074" points="17.716549999999998, 0 31.0039625, 0 31.0039625, 17.716549999999998 41.01381325, 17.716549999999998 41.01381325, 39.330741 36.58467575, 39.330741 36.58467575, 48.189016 41.01381325, 48.189016 41.01381325, 57.047291 51.99807425, 57.047291 51.99807425, 48.189016 56.42721175, 48.189016 56.42721175, 39.330741 51.99807425, 39.330741 51.99807425, 17.716549999999998 62.007925, 17.716549999999998 62.007925, 0 86.811095, 0 86.811095, 17.716549999999998 111.614265, 17.716549999999998 111.614265, 0 136.417435, 0 136.417435, 17.716549999999998 161.220605, 17.716549999999998 161.220605, 0 186.023775, 0 186.023775, 17.716549999999998 196.03362575, 17.716549999999998 196.03362575, 39.330741 191.60448825, 39.330741 191.60448825, 48.189016 196.03362575, 48.189016 196.03362575, 57.047291 207.01788675, 57.047291 207.01788675, 48.189016 211.44702425, 48.189016 211.44702425, 39.330741 207.01788675, 39.330741 207.01788675, 17.716549999999998 217.0277375, 17.716549999999998 217.0277375, 0 230.31515000000002, 0 230.31515000000002, 32.7756175 248.0317, 32.7756175 248.0317, 42.60830275 234.92145299999999, 42.60830275 234.92145299999999, 55.71854975 248.0317, 55.71854975 248.0317, 65.551235 230.31515000000002, 65.551235 230.31515000000002, 90.35440500000001 248.0317, 90.35440500000001 248.0317, 115.15757500000001 230.31515000000002, 115.15757500000001 230.31515000000002, 139.96074500000003 248.0317, 139.96074500000003 248.0317, 164.763915 230.31515000000002, 164.763915 230.31515000000002, 189.56708500000002 248.0317, 189.56708500000002 248.0317, 214.37025500000004 230.31515000000002, 214.37025500000004 230.31515000000002, 239.173425 248.0317, 239.173425 248.0317, 263.97659500000003 230.31515000000002, 263.97659500000003 230.31515000000002, 288.779765 248.0317, 288.779765 248.0317, 313.582935 230.31515000000002, 313.582935 230.31515000000002, 338.38610500000004 248.0317, 338.38610500000004 248.0317, 363.18927500000007 230.31515000000002, 363.18927500000007 230.31515000000002, 387.99244500000003 248.0317, 387.99244500000003 248.0317, 412.79561500000005 230.31515000000002, 412.79561500000005 230.31515000000002, 437.598785 248.0317, 437.598785 248.0317, 447.43147025 234.92145299999999, 447.43147025 234.92145299999999, 460.54171725 248.0317, 460.54171725 248.0317, 470.3744025 230.31515000000002, 470.3744025 230.31515000000002, 503.15002 217.0277375, 503.15002 217.0277375, 485.43347 207.01788675, 485.43347 207.01788675, 463.819279 211.44702425, 463.819279 211.44702425, 454.961004 207.01788675, 454.961004 207.01788675, 446.102729 196.03362575, 446.102729 196.03362575, 454.961004 191.60448825, 454.961004 191.60448825, 463.819279 196.03362575, 463.819279 196.03362575, 485.43347 186.023775, 485.43347 186.023775, 503.15002 161.220605, 503.15002 161.220605, 485.43347 136.417435, 485.43347 136.417435, 503.15002 111.614265, 503.15002 111.614265, 485.43347 86.811095, 485.43347 86.811095, 503.15002 62.007925, 503.15002 62.007925, 485.43347 51.99807425, 485.43347 51.99807425, 463.819279 56.42721175, 463.819279 56.42721175, 454.961004 51.99807425, 454.961004 51.99807425, 446.102729 41.01381325, 446.102729 41.01381325, 454.961004 36.58467575, 454.961004 36.58467575, 463.819279 41.01381325, 463.819279 41.01381325, 485.43347 31.0039625, 485.43347 31.0039625, 503.15002 17.716549999999998, 503.15002000000004 17.716549999999998, 470.3744025 0, 470.3744025 0, 460.54171725 13.110247000000001, 460.54171725 13.110247000000001, 447.43147025 0, 447.43147025 0, 437.598785 17.716549999999998, 437.598785 17.716549999999998, 412.79561500000005 0, 412.79561500000005 0, 387.99244500000003 17.716549999999998, 387.99244500000003 17.716549999999998, 363.18927500000007 0, 363.18927500000007 0, 338.38610500000004 17.716549999999998, 338.38610500000004 17.716549999999998, 313.582935 0, 313.582935 0, 288.779765 17.716549999999998, 288.779765 17.716549999999998, 263.97659500000003 0, 263.97659500000003 0, 239.173425 17.716549999999998, 239.173425 17.716549999999998, 214.37025500000004 0, 214.37025500000004 0, 189.56708500000002 17.716549999999998, 189.56708500000002 17.716549999999998, 164.763915 0, 164.763915 0, 139.96074500000003 17.716549999999998, 139.96074500000003 17.716549999999998, 115.15757500000001 0, 115.15757500000001 0, 90.35440500000001 17.716549999999998, 90.35440500000001 17.716549999999998, 65.551235 0, 65.551235 0, 55.71854975 13.110247000000001, 55.71854975 13.110247000000001, 42.60830275 0, 42.60830275 0, 32.7756175 17.716549999999998, 32.7756175 "/> 
</g>
<!-- Left--> 
<g transform="translate(518.5634185, 22.5000185) " > 
<polygon style="stroke:#000000; fill:none; stroke-width:0.90000074" points="0, 17.716549999999998 38.0905825, 17.716549999999998 38.0905825, 0 50.580750249999994, 0 50.580750249999994, 13.110247000000001 63.690997249999995, 13.110247000000001 63.690997249999995, 0 76.181165, 0 76.181165, 17.716549999999998 100.98433499999999, 17.716549999999998 100.98433499999999, 0 113.47450274999997, 0 113.47450274999997, 13.110247000000001 126.58474974999999, 13.110247000000001 126.58474974999999, 0 139.0749175, 0 139.0749175, 17.716549999999998 177.1655, 17.716549999999998 177.1655, 32.7756175 159.44895000000002, 32.7756175 159.44895000000002, 43.67129575 137.83475900000002, 43.67129575 137.83475900000002, 39.24215825 128.97648400000003, 39.24215825 128.97648400000003, 43.67129575 120.11820900000002, 43.67129575 120.11820900000002, 54.65555675 128.97648400000003, 54.65555675 128.97648400000003, 59.08469425 137.83475900000002, 59.08469425 137.83475900000002, 54.65555675 159.44895000000002, 54.65555675 159.44895000000002, 65.551235 177.1655, 65.551235 177.1655, 90.35440500000001 159.44895000000002, 90.35440500000001 159.44895000000002, 115.15757500000001 177.1655, 115.15757500000001 177.1655, 139.96074500000003 159.44895000000002, 139.96074500000003 159.44895000000002, 164.763915 177.1655, 164.763915 177.1655, 189.56708500000002 159.44895000000002, 189.56708500000002 159.44895000000002, 214.37025500000004 177.1655, 214.37025500000004 177.1655, 239.173425 159.44895000000002, 239.173425 159.44895000000002, 263.97659500000003 177.1655, 263.97659500000003 177.1655, 288.779765 159.44895000000002, 288.779765 159.44895000000002, 313.582935 177.1655, 313.582935 177.1655, 338.38610500000004 159.44895000000002, 338.38610500000004 159.44895000000002, 363.18927500000007 177.1655, 363.18927500000007 177.1655, 387.99244500000003 159.44895000000002, 387.99244500000003 159.44895000000002, 412.79561500000005 177.1655, 412.79561500000005 177.1655, 437.598785 159.44895000000002, 437.598785 159.44895000000002, 448.49446325 137.83475900000002, 448.49446325 137.83475900000002, 444.06532575 128.97648400000003, 444.06532575 128.97648400000003, 448.49446325 120.11820900000002, 448.49446325 120.11820900000002, 459.47872424999997 128.97648400000003, 459.47872424999997 128.97648400000003, 463.90786175 137.83475900000002, 463.90786175 137.83475900000002, 459.47872424999997 159.44895000000002, 459.47872424999997 159.44895000000002, 470.3744025 177.1655, 470.3744025 177.16549999999998, 485.43347 139.0749175, 485.43347 139.0749175, 503.15002 126.58474974999999, 503.15002 126.58474974999999, 490.03977299999997 113.47450274999997, 490.03977299999997 113.47450274999997, 503.15002 100.98433499999999, 503.15002 100.98433499999999, 485.43347 76.181165, 485.43347 76.181165, 503.15002 63.690997249999995, 503.15002 63.690997249999995, 490.03977299999997 50.580750249999994, 490.03977299999997 50.580750249999994, 503.15002 38.0905825, 503.15002 38.0905825, 485.43347 0, 485.43347000000006 0, 470.3744025 17.716549999999998, 470.3744025 17.716549999999998, 459.47872424999997 39.330741, 459.47872424999997 39.330741, 463.90786175 48.189016, 463.90786175 48.189016, 459.47872424999997 57.047291, 459.47872424999997 57.047291, 448.49446325 48.189016, 448.49446325 48.189016, 444.06532575 39.330741, 444.06532575 39.330741, 448.49446325 17.716549999999998, 448.49446325 17.716549999999998, 437.598785 0, 437.598785 0, 412.79561500000005 17.716549999999998, 412.79561500000005 17.716549999999998, 387.99244500000003 0, 387.99244500000003 0, 363.18927500000007 17.716549999999998, 363.18927500000007 17.716549999999998, 338.38610500000004 0, 338.38610500000004 0, 313.582935 17.716549999999998, 313.582935 17.716549999999998, 288.779765 0, 288.779765 0, 263.97659500000003 17.716549999999998, 263.97659500000003 17.716549999999998, 239.173425 0, 239.173425 0, 214.37025500000004 17.716549999999998, 214.37025500000004 17.716549999999998, 189.56708500000002 0, 189.56708500000002 0, 164.763915 17.716549999999998, 164.763915 17.716549999999998, 139.96074500000003 0, 139.96074500000003 0, 115.15757500000001 17.716549999999998, 115.15757500000001 17.716549999999998, 90.35440500000001 0, 90.35440500000001 0, 65.551235 17.716549999999998, 65.551235 17.716549999999998, 54.65555675 39.330741, 54.65555675 39.330741, 59.08469425 48.189016, 59.08469425 48.189016, 54.65555675 57.047291, 54.65555675 57.047291, 43.67129575 48.189016, 43.67129575 48.189016, 39.24215825 39.330741, 39.24215825 39.330741, 43.67129575 17.716549999999998, 43.67129575 17.716549999999998, 32.7756175 0, 32.7756175 "/> 
</g>
<!-- Right--> 
<g transform="translate(518.5634185, 525.6500384999999) " > 
<polygon style="stroke:#000000; fill:none; stroke-width:0.90000074" points="0, 17.716549999999998 38.0905825, 17.716549999999998 38.0905825, 0 50.580750249999994, 0 50.580750249999994, 13.110247000000001 63.690997249999995, 13.110247000000001 63.690997249999995, 0 76.181165, 0 76.181165, 17.716549999999998 100.98433499999999, 17.716549999999998 100.98433499999999, 0 113.47450274999997, 0 113.47450274999997, 13.110247000000001 126.58474974999999, 13.110247000000001 126.58474974999999, 0 139.0749175, 0 139.0749175, 17.716549999999998 177.1655, 17.716549999999998 177.1655, 32.7756175 159.44895000000002, 32.7756175 159.44895000000002, 43.67129575 137.83475900000002, 43.67129575 137.83475900000002, 39.24215825 128.97648400000003, 39.24215825 128.97648400000003, 43.67129575 120.11820900000002, 43.67129575 120.11820900000002, 54.65555675 128.97648400000003, 54.65555675 128.97648400000003, 59.08469425 137.83475900000002, 59.08469425 137.83475900000002, 54.65555675 159.44895000000002, 54.65555675 159.44895000000002, 65.551235 177.1655, 65.551235 177.1655, 90.35440500000001 159.44895000000002, 90.35440500000001 159.44895000000002, 115.15757500000001 177.1655, 115.15757500000001 177.1655, 139.96074500000003 159.44895000000002, 139.96074500000003 159.44895000000002, 164.763915 177.1655, 164.763915 177.1655, 189.56708500000002 159.44895000000002, 189.56708500000002 159.44895000000002, 214.37025500000004 177.1655, 214.37025500000004 177.1655, 239.173425 159.44895000000002, 239.173425 159.44895000000002, 263.97659500000003 177.1655, 263.97659500000003 177.1655, 288.779765 159.44895000000002, 288.779765 159.44895000000002, 313.582935 177.1655, 313.582935 177.1655, 338.38610500000004 159.44895000000002, 338.38610500000004 159.44895000000002, 363.18927500000007 177.1655, 363.18927500000007 177.1655, 387.99244500000003 159.44895000000002, 387.99244500000003 159.44895000000002, 412.79561500000005 177.1655, 412.79561500000005 177.1655, 437.598785 159.44895000000002, 437.598785 159.44895000000002, 448.49446325 137.83475900000002, 448.49446325 137.83475900000002, 444.06532575 128.97648400000003, 444.06532575 128.97648400000003, 448.49446325 120.11820900000002, 448.49446325 120.11820900000002, 459.47872424999997 128.97648400000003, 459.47872424999997 128.97648400000003, 463.90786175 137.83475900000002, 463.90786175 137.83475900000002, 459.47872424999997 159.44895000000002, 459.47872424999997 159.44895000000002, 470.3744025 177.1655, 470.3744025 177.16549999999998, 485.43347 139.0749175, 485.43347 139.0749175, 503.15002 126.58474974999999, 503.15002 126.58474974999999, 490.03977299999997 113.47450274999997, 490.03977299999997 113.47450274999997, 503.15002 100.98433499999999, 503.15002 100.98433499999999, 485.43347 76.181165, 485.43347 76.181165, 503.15002 63.690997249999995, 503.15002 63.690997249999995, 490.03977299999997 50.580750249999994, 490.03977299999997 50.580750249999994, 503.15002 38.0905825, 503.15002 38.0905825, 485.43347 0, 485.43347000000006 0, 470.3744025 17.716549999999998, 470.3744025 17.716549999999998, 459.47872424999997 39.330741, 459.47872424999997 39.330741, 463.90786175 48.189016, 463.90786175 48.189016, 459.47872424999997 57.047291, 459.47872424999997 57.047291, 448.49446325 48.189016, 448.49446325 48.189016, 444.06532575 39.330741, 444.06532575 39.330741, 448.49446325 17.716549999999998, 448.49446325 17.716549999999998, 437.598785 0, 437.598785 0, 412.79561500000005 17.716549999999998, 412.79561500000005 17.716549999999998, 387.99244500000003 0, 387.99244500000003 0, 363.18927500000007 17.716549999999998, 363.18927500000007 17.716549999999998, 338.38610500000004 0, 338.38610500000004 0, 313.582935 17.716549999999998, 313.582935 17.716549999999998, 288.779765 0, 288.779765 0, 263.97659500000003 17.716549999999998, 263.97659500000003 17.716549999999998, 239.173425 0, 239.173425 0, 214.37025500000004 17.716549999999998, 214.37025500000004 17.716549999999998, 189.56708500000002 0, 189.56708500000002 0, 164.763915 17.716549999999998, 164.763915 17.716549999999998, 139.96074500000003 0, 139.96074500000003 0, 115.15757500000001 17.716549999999998, 115.15757500000001 17.716549999999998, 90.35440500000001 0, 90.35440500000001 0, 65.551235 17.716549999999998, 65.551235 17.716549999999998, 54.65555675 39.330741, 54.65555675 39.330741, 59.08469425 48.189016, 59.08469425 48.189016, 54.65555675 57.047291, 54.65555675 57.047291, 43.67129575 48.189016, 43.67129575 48.189016, 39.24215825 39.330741, 39.24215825 39.330741, 43.67129575 17.716549999999998, 43.67129575 17.716549999999998, 32.7756175 0, 32.7756175 "/> 
</g>
<!-- Top--> 
<g transform="translate(22.5000185, 525.6500384999999) " > 
<polygon style="stroke:#000000; fill:none; stroke-width:0.90000074" points="0, 17.716549999999998 31.0039625, 17.716549999999998 31.0039625, 0 39.95082025, 0 39.95082025, 13.110247000000001 53.06106725, 13.110247000000001 53.06106725, 0 62.007925, 0 62.007925, 17.716549999999998 86.811095, 17.716549999999998 86.811095, 0 111.614265, 0 111.614265, 17.716549999999998 136.417435, 17.716549999999998 136.417435, 0 161.220605, 0 161.220605, 17.716549999999998 186.023775, 17.716549999999998 186.023775, 0 194.97063275, 0 194.97063275, 13.110247000000001 208.08087975, 13.110247000000001 208.08087975, 0 217.0277375, 0 217.0277375, 17.716549999999998 248.0317, 17.716549999999998 248.0317, 38.0905825 230.31515000000002, 38.0905825 230.31515000000002, 51.64374324999999 208.700959, 51.64374324999999 208.700959, 47.21460575 199.84268400000002, 47.21460575 199.84268400000002, 51.64374324999999 190.98440900000003, 51.64374324999999 190.98440900000003, 62.62800425 199.84268400000002, 62.62800425 199.84268400000002, 67.05714175 208.700959, 67.05714175 208.700959, 62.62800425 230.31515000000002, 62.62800425 230.31515000000002, 76.181165 248.0317, 76.181165 248.0317, 100.98433499999999 230.31515000000002, 100.98433499999999 230.31515000000002, 114.53749574999998 208.700959, 114.53749574999998 208.700959, 110.10835824999998 199.84268400000002, 110.10835824999998 199.84268400000002, 114.53749574999998 190.98440900000003, 114.53749574999998 190.98440900000003, 125.52175674999998 199.84268400000002, 125.52175674999998 199.84268400000002, 129.95089424999998 208.700959, 129.95089424999998 208.700959, 125.52175674999998 230.31515000000002, 125.52175674999998 230.31515000000002, 139.0749175 248.0317, 139.0749175 248.0317, 159.44895000000002 217.0277375, 159.44895000000002 217.0277375, 177.1655 208.08087975, 177.1655 208.08087975, 164.055253 194.97063275, 164.055253 194.97063275, 177.1655 186.023775, 177.1655 186.023775, 159.44895000000002 161.220605, 159.44895000000002 161.220605, 177.1655 136.417435, 177.1655 136.417435, 159.44895000000002 111.614265, 159.44895000000002 111.614265, 177.1655 86.811095, 177.1655 86.811095, 159.44895000000002 62.007925, 159.44895000000002 62.007925, 177.1655 53.06106725, 177.1655 53.06106725, 164.055253 39.95082025, 164.055253 39.95082025, 177.1655 31.0039625, 177.1655 31.0039625, 159.44895000000002 0, 159.44894999999997 0, 139.0749175 17.716549999999998, 139.0749175 17.716549999999998, 125.52175674999998 39.330741, 125.52175674999998 39.330741, 129.95089424999998 48.189016, 129.95089424999998 48.189016, 125.52175674999998 57.047291, 125.52175674999998 57.047291, 114.53749574999998 48.189016, 114.53749574999998 48.189016, 110.10835824999998 39.330741, 110.10835824999998 39.330741, 114.53749574999998 17.716549999999998, 114.53749574999998 17.716549999999998, 100.98433499999999 0, 100.98433499999999 0, 76.181165 17.716549999999998, 76.181165 17.716549999999998, 62.62800425 39.330741, 62.62800425 39.330741, 67.05714175 48.189016, 67.05714175 48.189016, 62.62800425 57.047291, 62.62800425 57.047291, 51.64374324999999 48.189016, 51.64374324999999 48.189016, 47.21460575 39.330741, 47.21460575 39.330741, 51.64374324999999 17.716549999999998, 51.64374324999999 17.716549999999998, 38.0905825 0, 38.0905825 "/> 
</g>
<!-- Bottom--> 
<g transform="translate(270.53171849999995, 525.6500384999999) " > 
<polygon style="stroke:#000000; fill:none; stroke-width:0.90000074" points="0, 17.716549999999998 31.0039625, 17.716549999999998 31.0039625, 0 39.95082025, 0 39.95082025, 13.110247000000001 53.06106725, 13.110247000000001 53.06106725, 0 62.007925, 0 62.007925, 17.716549999999998 86.811095, 17.716549999999998 86.811095, 0 111.614265, 0 111.614265, 17.716549999999998 136.417435, 17.716549999999998 136.417435, 0 161.220605, 0 161.220605, 17.716549999999998 186.023775, 17.716549999999998 186.023775, 0 194.97063275, 0 194.97063275, 13.110247000000001 208.08087975, 13.110247000000001 208.08087975, 0 217.0277375, 0 217.0277375, 17.716549999999998 248.0317, 17.716549999999998 248.0317, 38.0905825 230.31515000000002, 38.0905825 230.31515000000002, 51.64374324999999 208.700959, 51.64374324999999 208.700959, 47.21460575 199.84268400000002, 47.21460575 199.84268400000002, 51.64374324999999 190.98440900000003, 51.64374324999999 190.98440900000003, 62.62800425 199.84268400000002, 62.62800425 199.84268400000002, 67.05714175 208.700959, 67.05714175 208.700959, 62.62800425 230.31515000000002, 62.62800425 230.31515000000002, 76.181165 248.0317, 76.181165 248.0317, 100.98433499999999 230.31515000000002, 100.98433499999999 230.31515000000002, 114.53749574999998 208.700959, 114.53749574999998 208.700959, 110.10835824999998 199.84268400000002, 110.10835824999998 199.84268400000002, 114.53749574999998 190.98440900000003, 114.53749574999998 190.98440900000003, 125.52175674999998 199.84268400000002, 125.52175674999998 199.84268400000002, 129.95089424999998 208.700959, 129.95089424999998 208.700959, 125.52175674999998 230.31515000000002, 125.52175674999998 230.31515000000002, 139.0749175 248.0317, 139.0749175 248.0317, 159.44895000000002 217.0277375, 159.44895000000002 217.0277375, 177.1655 208.08087975, 177.1655 208.08087975, 164.055253 194.97063275, 164.055253 194.97063275, 177.1655 186.023775, 177.1655 186.023775, 159.44895000000002 161.220605, 159.44895000000002 161.220605, 177.1655 136.417435, 177.1655 136.417435, 159.44895000000002 111.614265, 159.44895000000002 111.614265, 177.1655 86.811095, 177.1655 86.811095, 159.44895000000002 62.007925, 159.44895000000002 62.007925, 177.1655 53.06106725, 177.1655 53.06106725, 164.055253 39.95082025, 164.055253 39.95082025, 177.1655 31.0039625, 177.1655 31.0039625, 159.44895000000002 0, 159.44894999999997 0, 139.0749175 17.716549999999998, 139.0749175 17.716549999999998, 125.52175674999998 39.330741, 125.52175674999998 39.330741, 129.95089424999998 48.189016, 129.95089424999998 48.189016, 125.52175674999998 57.047291, 125.52175674999998 57.047291, 114.53749574999998 48.189016, 114.53749574999998 48.189016, 110.10835824999998 39.330741, 110.10835824999998 39.330741, 114.53749574999998 17.716549999999998, 114.53749574999998 17.716549999999998, 100.98433499999999 0, 100.98433499999999 0, 76.181165 17.716549999999998, 76.181165 17.716549999999998, 62.62800425 39.330741, 62.62800425 39.330741, 67.05714175 48.189016, 67.05714175 48.189016, 62.62800425 57.047291, 62.62800425 57.047291, 51.64374324999999 48.189016, 51.64374324999999 48.189016, 47.21460575 39.330741, 47.21460575 39.330741, 51.64374324999999 17.716549999999998, 51.64374324999999 17.716549999999998, 38.0905825 0, 38.0905825 "/> 
</g></svg>